G04 EAGLE Gerber RS-274X export*
G75*
%MOMM*%
%FSLAX34Y34*%
%LPD*%
%INTop Copper*%
%IPPOS*%
%AMOC8*
5,1,8,0,0,1.08239X$1,22.5*%
G01*
%ADD10C,2.082800*%
%ADD11R,1.766800X1.766800*%
%ADD12C,1.766800*%
%ADD13C,1.879600*%
%ADD14C,2.082800*%
%ADD15C,1.966800*%
%ADD16C,1.866800*%
%ADD17P,2.020606X8X292.500000*%
%ADD18C,3.500000*%
%ADD19R,2.066800X2.066800*%
%ADD20C,2.066800*%
%ADD21R,1.966800X1.966800*%
%ADD22C,2.170000*%
%ADD23C,0.762000*%


D10*
X533400Y494030D03*
X533400Y521970D03*
D11*
X292300Y355600D03*
D12*
X317300Y355600D03*
D13*
X812800Y292100D03*
X812800Y317500D03*
D10*
X596900Y266700D03*
X596900Y292100D03*
X596900Y317500D03*
X596900Y342900D03*
X596900Y368300D03*
X596900Y393700D03*
X596900Y241300D03*
X596900Y215900D03*
X596900Y190500D03*
X596900Y165100D03*
X596900Y139700D03*
X596900Y114300D03*
X596900Y88900D03*
X596900Y419100D03*
X596900Y444500D03*
X749300Y266700D03*
X749300Y241300D03*
X749300Y215900D03*
X749300Y190500D03*
X749300Y165100D03*
X749300Y139700D03*
X749300Y292100D03*
X749300Y317500D03*
X749300Y342900D03*
X749300Y368300D03*
X749300Y393700D03*
X749300Y419100D03*
X749300Y444500D03*
X749300Y114300D03*
X749300Y88900D03*
X533400Y584200D03*
X558800Y584200D03*
D14*
X556260Y327914D02*
X556260Y307086D01*
X533400Y307086D02*
X533400Y327914D01*
X510540Y327914D02*
X510540Y307086D01*
D15*
X127000Y317500D03*
X203200Y317500D03*
X508000Y368300D03*
X508000Y444500D03*
X812800Y342900D03*
X812800Y419100D03*
X203200Y419100D03*
X127000Y419100D03*
X127000Y368300D03*
X203200Y368300D03*
D16*
X114300Y152400D03*
X139700Y152400D03*
X165100Y152400D03*
X190500Y152400D03*
X114300Y177800D03*
X139700Y177800D03*
X165100Y177800D03*
X190500Y177800D03*
X228600Y558800D03*
X228600Y584200D03*
X76200Y584200D03*
X76200Y558800D03*
D17*
X444500Y317500D03*
X444500Y292100D03*
D18*
X431800Y584200D03*
X391800Y584200D03*
X351800Y584200D03*
D19*
X317500Y431800D03*
D20*
X342900Y431800D03*
X368300Y431800D03*
D15*
X126600Y76200D03*
D21*
X76600Y76200D03*
D22*
X241300Y101600D03*
X685800Y88900D03*
D23*
X317500Y25400D02*
X241300Y101600D01*
X317500Y25400D02*
X635000Y25400D01*
X685800Y76200D01*
X685800Y88900D01*
M02*
