G04 EAGLE Gerber RS-274X export*
G75*
%MOMM*%
%FSLAX34Y34*%
%LPD*%
%INBottom Copper*%
%IPPOS*%
%AMOC8*
5,1,8,0,0,1.08239X$1,22.5*%
G01*
%ADD10C,2.082800*%
%ADD11R,1.766800X1.766800*%
%ADD12C,1.766800*%
%ADD13C,1.879600*%
%ADD14C,2.082800*%
%ADD15C,1.966800*%
%ADD16C,1.866800*%
%ADD17P,2.020606X8X292.500000*%
%ADD18C,3.500000*%
%ADD19R,2.066800X2.066800*%
%ADD20C,2.066800*%
%ADD21R,1.966800X1.966800*%
%ADD22C,0.762000*%
%ADD23C,2.170000*%

G36*
X830038Y20324D02*
X830038Y20324D01*
X830057Y20322D01*
X830159Y20344D01*
X830261Y20360D01*
X830278Y20370D01*
X830298Y20374D01*
X830387Y20427D01*
X830478Y20476D01*
X830492Y20490D01*
X830509Y20500D01*
X830576Y20579D01*
X830648Y20654D01*
X830656Y20672D01*
X830669Y20687D01*
X830708Y20783D01*
X830751Y20877D01*
X830753Y20897D01*
X830761Y20915D01*
X830779Y21082D01*
X830779Y29721D01*
X833016Y38068D01*
X837337Y45552D01*
X843448Y51663D01*
X850932Y55984D01*
X859279Y58221D01*
X864618Y58221D01*
X864638Y58224D01*
X864657Y58222D01*
X864759Y58244D01*
X864861Y58260D01*
X864878Y58270D01*
X864898Y58274D01*
X864987Y58327D01*
X865078Y58376D01*
X865092Y58390D01*
X865109Y58400D01*
X865176Y58479D01*
X865248Y58554D01*
X865256Y58572D01*
X865269Y58587D01*
X865308Y58683D01*
X865351Y58777D01*
X865353Y58797D01*
X865361Y58815D01*
X865379Y58982D01*
X865379Y563318D01*
X865376Y563338D01*
X865378Y563357D01*
X865356Y563459D01*
X865340Y563561D01*
X865330Y563578D01*
X865326Y563598D01*
X865273Y563687D01*
X865224Y563778D01*
X865210Y563792D01*
X865200Y563809D01*
X865121Y563876D01*
X865046Y563948D01*
X865028Y563956D01*
X865013Y563969D01*
X864917Y564008D01*
X864823Y564051D01*
X864803Y564053D01*
X864785Y564061D01*
X864618Y564079D01*
X859279Y564079D01*
X850932Y566316D01*
X843448Y570637D01*
X837337Y576748D01*
X833016Y584232D01*
X830779Y592579D01*
X830779Y601118D01*
X830776Y601138D01*
X830778Y601157D01*
X830756Y601259D01*
X830740Y601361D01*
X830730Y601378D01*
X830726Y601398D01*
X830673Y601487D01*
X830624Y601578D01*
X830610Y601592D01*
X830600Y601609D01*
X830521Y601676D01*
X830446Y601748D01*
X830428Y601756D01*
X830413Y601769D01*
X830317Y601808D01*
X830223Y601851D01*
X830203Y601853D01*
X830185Y601861D01*
X830018Y601879D01*
X541672Y601879D01*
X541576Y601864D01*
X541479Y601854D01*
X541456Y601844D01*
X541430Y601840D01*
X541344Y601794D01*
X541255Y601754D01*
X541235Y601737D01*
X541212Y601724D01*
X541145Y601654D01*
X541074Y601588D01*
X541061Y601565D01*
X541043Y601546D01*
X541002Y601458D01*
X540955Y601372D01*
X540950Y601347D01*
X540939Y601323D01*
X540929Y601226D01*
X540911Y601130D01*
X540915Y601104D01*
X540912Y601079D01*
X540933Y600983D01*
X540947Y600887D01*
X540959Y600864D01*
X540965Y600838D01*
X541014Y600755D01*
X541059Y600668D01*
X541077Y600649D01*
X541091Y600627D01*
X541165Y600564D01*
X541234Y600496D01*
X541263Y600480D01*
X541278Y600467D01*
X541308Y600455D01*
X541381Y600415D01*
X543616Y599489D01*
X548689Y594416D01*
X549893Y591510D01*
X549917Y591471D01*
X549933Y591428D01*
X549981Y591367D01*
X550022Y591301D01*
X550058Y591272D01*
X550086Y591236D01*
X550152Y591194D01*
X550212Y591144D01*
X550255Y591128D01*
X550293Y591103D01*
X550369Y591084D01*
X550441Y591056D01*
X550487Y591054D01*
X550532Y591043D01*
X550609Y591049D01*
X550687Y591046D01*
X550731Y591058D01*
X550777Y591062D01*
X550849Y591092D01*
X550923Y591114D01*
X550961Y591140D01*
X551003Y591158D01*
X551110Y591244D01*
X551125Y591254D01*
X551128Y591258D01*
X551134Y591263D01*
X552015Y592144D01*
X553341Y593107D01*
X554802Y593852D01*
X556361Y594358D01*
X557277Y594503D01*
X557277Y584962D01*
X557280Y584942D01*
X557278Y584923D01*
X557300Y584821D01*
X557317Y584719D01*
X557326Y584702D01*
X557330Y584682D01*
X557383Y584593D01*
X557432Y584502D01*
X557446Y584488D01*
X557456Y584471D01*
X557535Y584404D01*
X557610Y584333D01*
X557628Y584324D01*
X557643Y584311D01*
X557739Y584273D01*
X557833Y584229D01*
X557853Y584227D01*
X557871Y584219D01*
X558038Y584201D01*
X558801Y584201D01*
X558801Y584199D01*
X558038Y584199D01*
X558018Y584196D01*
X557999Y584198D01*
X557897Y584176D01*
X557795Y584159D01*
X557778Y584150D01*
X557758Y584146D01*
X557669Y584093D01*
X557578Y584044D01*
X557564Y584030D01*
X557547Y584020D01*
X557480Y583941D01*
X557409Y583866D01*
X557400Y583848D01*
X557387Y583833D01*
X557348Y583737D01*
X557305Y583643D01*
X557303Y583623D01*
X557295Y583605D01*
X557277Y583438D01*
X557277Y573897D01*
X556361Y574042D01*
X554802Y574548D01*
X553341Y575293D01*
X552015Y576256D01*
X551134Y577137D01*
X551097Y577164D01*
X551066Y577198D01*
X550998Y577235D01*
X550935Y577281D01*
X550891Y577294D01*
X550851Y577316D01*
X550774Y577330D01*
X550700Y577353D01*
X550654Y577352D01*
X550608Y577360D01*
X550531Y577349D01*
X550454Y577347D01*
X550410Y577331D01*
X550365Y577324D01*
X550296Y577289D01*
X550223Y577262D01*
X550187Y577233D01*
X550146Y577213D01*
X550091Y577157D01*
X550031Y577108D01*
X550006Y577070D01*
X549974Y577037D01*
X549908Y576917D01*
X549898Y576901D01*
X549896Y576897D01*
X549893Y576890D01*
X548689Y573984D01*
X543616Y568911D01*
X536987Y566165D01*
X531846Y566165D01*
X531756Y566151D01*
X531665Y566143D01*
X531635Y566131D01*
X531603Y566126D01*
X531523Y566083D01*
X531439Y566047D01*
X531407Y566021D01*
X531386Y566010D01*
X531364Y565987D01*
X531308Y565942D01*
X495425Y530060D01*
X491224Y528319D01*
X394601Y528319D01*
X390400Y530060D01*
X387185Y533275D01*
X385444Y537476D01*
X385444Y559312D01*
X385443Y559321D01*
X385443Y559325D01*
X385439Y559346D01*
X385437Y559355D01*
X385439Y559399D01*
X385417Y559476D01*
X385405Y559555D01*
X385384Y559593D01*
X385372Y559636D01*
X385327Y559702D01*
X385289Y559772D01*
X385258Y559802D01*
X385233Y559838D01*
X385169Y559886D01*
X385111Y559941D01*
X385071Y559960D01*
X385036Y559986D01*
X384900Y560039D01*
X384888Y560045D01*
X384885Y560045D01*
X384880Y560047D01*
X382104Y560791D01*
X376376Y564098D01*
X372338Y568136D01*
X372322Y568147D01*
X372310Y568163D01*
X372222Y568219D01*
X372139Y568279D01*
X372120Y568285D01*
X372103Y568296D01*
X372002Y568321D01*
X371903Y568352D01*
X371884Y568351D01*
X371864Y568356D01*
X371761Y568348D01*
X371658Y568345D01*
X371639Y568338D01*
X371619Y568337D01*
X371524Y568296D01*
X371427Y568261D01*
X371411Y568248D01*
X371393Y568240D01*
X371262Y568136D01*
X370559Y567433D01*
X370547Y567417D01*
X370532Y567404D01*
X370503Y567360D01*
X370471Y567326D01*
X370451Y567283D01*
X370416Y567233D01*
X370410Y567214D01*
X370399Y567197D01*
X370384Y567138D01*
X370368Y567103D01*
X370363Y567064D01*
X370343Y566998D01*
X370344Y566978D01*
X370339Y566959D01*
X370344Y566890D01*
X370341Y566859D01*
X370348Y566827D01*
X370350Y566752D01*
X370356Y566734D01*
X370358Y566714D01*
X370387Y566645D01*
X370393Y566618D01*
X370407Y566595D01*
X370434Y566521D01*
X370446Y566506D01*
X370454Y566487D01*
X370559Y566356D01*
X377990Y558925D01*
X379731Y554724D01*
X379731Y504317D01*
X379734Y504297D01*
X379732Y504278D01*
X379754Y504176D01*
X379770Y504074D01*
X379780Y504057D01*
X379784Y504037D01*
X379837Y503948D01*
X379886Y503857D01*
X379900Y503843D01*
X379910Y503826D01*
X379989Y503759D01*
X380064Y503687D01*
X380082Y503679D01*
X380097Y503666D01*
X380193Y503627D01*
X380287Y503584D01*
X380307Y503582D01*
X380325Y503574D01*
X380492Y503556D01*
X517316Y503556D01*
X517432Y503575D01*
X517547Y503592D01*
X517553Y503594D01*
X517559Y503595D01*
X517662Y503650D01*
X517767Y503703D01*
X517771Y503708D01*
X517777Y503711D01*
X517857Y503795D01*
X517939Y503879D01*
X517942Y503885D01*
X517946Y503889D01*
X517954Y503906D01*
X518020Y504026D01*
X518111Y504246D01*
X523184Y509319D01*
X528335Y511453D01*
X528371Y511475D01*
X528410Y511489D01*
X528475Y511539D01*
X528544Y511582D01*
X528571Y511615D01*
X528604Y511641D01*
X528649Y511709D01*
X528701Y511772D01*
X528716Y511811D01*
X528739Y511846D01*
X528760Y511925D01*
X528789Y512001D01*
X528791Y512043D01*
X528802Y512084D01*
X528796Y512166D01*
X528800Y512247D01*
X528788Y512288D01*
X528785Y512329D01*
X528754Y512405D01*
X528731Y512483D01*
X528707Y512518D01*
X528691Y512557D01*
X528637Y512618D01*
X528591Y512685D01*
X528557Y512711D01*
X528530Y512742D01*
X528400Y512827D01*
X528393Y512832D01*
X528392Y512833D01*
X528389Y512834D01*
X527941Y513063D01*
X526615Y514026D01*
X525456Y515185D01*
X524493Y516511D01*
X523748Y517972D01*
X523242Y519531D01*
X523097Y520447D01*
X532638Y520447D01*
X532658Y520450D01*
X532677Y520448D01*
X532779Y520470D01*
X532881Y520487D01*
X532898Y520496D01*
X532918Y520500D01*
X533007Y520553D01*
X533098Y520602D01*
X533112Y520616D01*
X533129Y520626D01*
X533196Y520705D01*
X533267Y520780D01*
X533276Y520798D01*
X533289Y520813D01*
X533327Y520909D01*
X533371Y521003D01*
X533373Y521023D01*
X533381Y521041D01*
X533399Y521208D01*
X533399Y521971D01*
X533401Y521971D01*
X533401Y521208D01*
X533403Y521194D01*
X533402Y521184D01*
X533403Y521179D01*
X533402Y521169D01*
X533424Y521067D01*
X533441Y520965D01*
X533450Y520948D01*
X533454Y520928D01*
X533507Y520839D01*
X533556Y520748D01*
X533570Y520734D01*
X533580Y520717D01*
X533659Y520650D01*
X533734Y520579D01*
X533752Y520570D01*
X533767Y520557D01*
X533863Y520518D01*
X533957Y520475D01*
X533977Y520473D01*
X533995Y520465D01*
X534162Y520447D01*
X543703Y520447D01*
X543558Y519531D01*
X543052Y517972D01*
X542307Y516511D01*
X541381Y515236D01*
X541352Y515179D01*
X541315Y515128D01*
X541298Y515070D01*
X541271Y515017D01*
X541262Y514953D01*
X541243Y514892D01*
X541244Y514833D01*
X541236Y514773D01*
X541248Y514710D01*
X541249Y514647D01*
X541270Y514590D01*
X541281Y514531D01*
X541312Y514476D01*
X541334Y514416D01*
X541371Y514369D01*
X541400Y514316D01*
X541447Y514273D01*
X541487Y514224D01*
X541538Y514191D01*
X541582Y514151D01*
X541641Y514125D01*
X541694Y514091D01*
X541752Y514076D01*
X541807Y514052D01*
X541871Y514046D01*
X541933Y514030D01*
X541992Y514035D01*
X542052Y514030D01*
X542114Y514045D01*
X542178Y514050D01*
X542233Y514073D01*
X542291Y514087D01*
X542346Y514121D01*
X542404Y514146D01*
X542472Y514200D01*
X542500Y514218D01*
X542516Y514236D01*
X542535Y514251D01*
X547146Y518862D01*
X547199Y518936D01*
X547259Y519005D01*
X547271Y519035D01*
X547290Y519062D01*
X547317Y519149D01*
X547351Y519233D01*
X547355Y519274D01*
X547362Y519297D01*
X547361Y519329D01*
X547369Y519400D01*
X547369Y522974D01*
X549110Y527175D01*
X552325Y530390D01*
X556526Y532131D01*
X678549Y532131D01*
X682750Y530390D01*
X750383Y462758D01*
X750457Y462705D01*
X750526Y462645D01*
X750556Y462633D01*
X750583Y462614D01*
X750669Y462587D01*
X750754Y462553D01*
X750795Y462549D01*
X750818Y462542D01*
X750850Y462543D01*
X750921Y462535D01*
X752887Y462535D01*
X759516Y459789D01*
X764589Y454716D01*
X767335Y448087D01*
X767335Y440913D01*
X764589Y434284D01*
X759516Y429211D01*
X756610Y428007D01*
X756571Y427983D01*
X756528Y427967D01*
X756467Y427919D01*
X756401Y427878D01*
X756372Y427842D01*
X756336Y427814D01*
X756294Y427748D01*
X756244Y427688D01*
X756228Y427645D01*
X756203Y427607D01*
X756184Y427531D01*
X756156Y427459D01*
X756154Y427413D01*
X756143Y427368D01*
X756149Y427291D01*
X756146Y427213D01*
X756158Y427169D01*
X756162Y427123D01*
X756192Y427051D01*
X756214Y426977D01*
X756240Y426939D01*
X756258Y426897D01*
X756344Y426790D01*
X756354Y426775D01*
X756358Y426772D01*
X756363Y426766D01*
X757244Y425885D01*
X758207Y424559D01*
X758952Y423098D01*
X759458Y421539D01*
X759603Y420623D01*
X750062Y420623D01*
X750042Y420620D01*
X750023Y420622D01*
X749921Y420600D01*
X749819Y420583D01*
X749802Y420574D01*
X749782Y420570D01*
X749693Y420517D01*
X749602Y420468D01*
X749588Y420454D01*
X749571Y420444D01*
X749504Y420365D01*
X749433Y420290D01*
X749424Y420272D01*
X749411Y420257D01*
X749373Y420161D01*
X749329Y420067D01*
X749327Y420047D01*
X749319Y420029D01*
X749301Y419862D01*
X749301Y418338D01*
X749304Y418318D01*
X749302Y418299D01*
X749324Y418197D01*
X749341Y418095D01*
X749350Y418078D01*
X749354Y418058D01*
X749407Y417969D01*
X749456Y417878D01*
X749470Y417864D01*
X749480Y417847D01*
X749559Y417780D01*
X749634Y417709D01*
X749652Y417700D01*
X749667Y417687D01*
X749763Y417648D01*
X749857Y417605D01*
X749877Y417603D01*
X749895Y417595D01*
X750062Y417577D01*
X759603Y417577D01*
X759458Y416661D01*
X758952Y415102D01*
X758207Y413641D01*
X757244Y412315D01*
X756363Y411434D01*
X756336Y411397D01*
X756302Y411366D01*
X756265Y411298D01*
X756219Y411235D01*
X756206Y411191D01*
X756184Y411151D01*
X756170Y411074D01*
X756147Y411000D01*
X756148Y410954D01*
X756140Y410908D01*
X756151Y410831D01*
X756153Y410754D01*
X756169Y410711D01*
X756176Y410665D01*
X756211Y410596D01*
X756238Y410523D01*
X756267Y410487D01*
X756287Y410446D01*
X756343Y410391D01*
X756392Y410331D01*
X756430Y410306D01*
X756463Y410274D01*
X756583Y410208D01*
X756599Y410198D01*
X756603Y410196D01*
X756610Y410193D01*
X759516Y408989D01*
X764589Y403916D01*
X767335Y397287D01*
X767335Y390113D01*
X764589Y383484D01*
X762643Y381538D01*
X762632Y381522D01*
X762616Y381510D01*
X762560Y381422D01*
X762500Y381339D01*
X762494Y381320D01*
X762483Y381303D01*
X762458Y381202D01*
X762427Y381103D01*
X762428Y381084D01*
X762423Y381064D01*
X762431Y380961D01*
X762434Y380858D01*
X762441Y380839D01*
X762442Y380819D01*
X762482Y380724D01*
X762518Y380627D01*
X762531Y380611D01*
X762538Y380593D01*
X762643Y380462D01*
X764589Y378516D01*
X767335Y371887D01*
X767335Y364713D01*
X764589Y358084D01*
X762643Y356138D01*
X762632Y356122D01*
X762616Y356110D01*
X762560Y356022D01*
X762500Y355939D01*
X762494Y355920D01*
X762483Y355903D01*
X762458Y355802D01*
X762427Y355703D01*
X762428Y355684D01*
X762423Y355664D01*
X762431Y355561D01*
X762434Y355458D01*
X762441Y355439D01*
X762442Y355419D01*
X762482Y355324D01*
X762518Y355227D01*
X762531Y355211D01*
X762538Y355193D01*
X762643Y355062D01*
X764589Y353116D01*
X767335Y346487D01*
X767335Y339313D01*
X764589Y332684D01*
X762643Y330738D01*
X762632Y330722D01*
X762616Y330710D01*
X762560Y330622D01*
X762500Y330539D01*
X762494Y330520D01*
X762483Y330503D01*
X762458Y330402D01*
X762427Y330303D01*
X762428Y330284D01*
X762423Y330264D01*
X762431Y330161D01*
X762434Y330058D01*
X762441Y330039D01*
X762442Y330019D01*
X762482Y329924D01*
X762518Y329827D01*
X762531Y329811D01*
X762538Y329793D01*
X762643Y329662D01*
X764589Y327716D01*
X767335Y321087D01*
X767335Y313913D01*
X764589Y307284D01*
X762643Y305338D01*
X762632Y305322D01*
X762616Y305310D01*
X762560Y305222D01*
X762500Y305139D01*
X762494Y305120D01*
X762483Y305103D01*
X762458Y305002D01*
X762427Y304903D01*
X762428Y304884D01*
X762423Y304864D01*
X762431Y304761D01*
X762434Y304658D01*
X762441Y304639D01*
X762442Y304619D01*
X762482Y304524D01*
X762518Y304427D01*
X762531Y304411D01*
X762538Y304393D01*
X762643Y304262D01*
X764589Y302316D01*
X764943Y301461D01*
X765005Y301361D01*
X765065Y301261D01*
X765070Y301257D01*
X765073Y301252D01*
X765163Y301177D01*
X765252Y301101D01*
X765258Y301099D01*
X765262Y301095D01*
X765371Y301053D01*
X765480Y301009D01*
X765487Y301008D01*
X765492Y301007D01*
X765510Y301006D01*
X765647Y300991D01*
X771894Y300991D01*
X776095Y299250D01*
X788132Y287214D01*
X788148Y287202D01*
X788160Y287187D01*
X788248Y287130D01*
X788331Y287070D01*
X788350Y287064D01*
X788367Y287054D01*
X788468Y287028D01*
X788567Y286998D01*
X788586Y286998D01*
X788606Y286994D01*
X788709Y287002D01*
X788812Y287004D01*
X788831Y287011D01*
X788851Y287013D01*
X788946Y287053D01*
X789043Y287089D01*
X789059Y287101D01*
X789077Y287109D01*
X789208Y287214D01*
X795558Y293564D01*
X795611Y293638D01*
X795671Y293707D01*
X795683Y293737D01*
X795702Y293764D01*
X795729Y293850D01*
X795763Y293935D01*
X795767Y293976D01*
X795774Y293999D01*
X795773Y294031D01*
X795781Y294102D01*
X795781Y295485D01*
X798372Y301740D01*
X800894Y304262D01*
X800905Y304278D01*
X800921Y304290D01*
X800977Y304377D01*
X801037Y304461D01*
X801043Y304480D01*
X801054Y304497D01*
X801079Y304598D01*
X801110Y304697D01*
X801109Y304716D01*
X801114Y304736D01*
X801106Y304839D01*
X801103Y304942D01*
X801096Y304961D01*
X801095Y304981D01*
X801054Y305076D01*
X801019Y305173D01*
X801006Y305189D01*
X800998Y305207D01*
X800894Y305338D01*
X798372Y307860D01*
X795781Y314115D01*
X795781Y320885D01*
X798372Y327140D01*
X800585Y329353D01*
X800597Y329370D01*
X800612Y329382D01*
X800669Y329469D01*
X800729Y329553D01*
X800735Y329572D01*
X800745Y329589D01*
X800771Y329689D01*
X800801Y329788D01*
X800801Y329808D01*
X800806Y329827D01*
X800798Y329930D01*
X800795Y330034D01*
X800788Y330053D01*
X800786Y330073D01*
X800746Y330168D01*
X800710Y330265D01*
X800698Y330281D01*
X800690Y330299D01*
X800585Y330430D01*
X798003Y333013D01*
X795345Y339428D01*
X795345Y346372D01*
X798003Y352787D01*
X802913Y357697D01*
X809328Y360355D01*
X816272Y360355D01*
X822687Y357697D01*
X827597Y352787D01*
X830255Y346372D01*
X830255Y339428D01*
X827597Y333013D01*
X825015Y330430D01*
X825003Y330414D01*
X824988Y330401D01*
X824931Y330314D01*
X824871Y330230D01*
X824865Y330211D01*
X824855Y330194D01*
X824829Y330094D01*
X824799Y329995D01*
X824799Y329975D01*
X824794Y329956D01*
X824802Y329853D01*
X824805Y329749D01*
X824812Y329731D01*
X824814Y329711D01*
X824854Y329616D01*
X824890Y329518D01*
X824902Y329503D01*
X824910Y329484D01*
X825015Y329353D01*
X827228Y327140D01*
X829819Y320885D01*
X829819Y314115D01*
X827228Y307860D01*
X824706Y305338D01*
X824695Y305322D01*
X824679Y305310D01*
X824623Y305222D01*
X824563Y305139D01*
X824557Y305120D01*
X824546Y305103D01*
X824521Y305002D01*
X824490Y304903D01*
X824491Y304884D01*
X824486Y304864D01*
X824494Y304761D01*
X824497Y304658D01*
X824504Y304639D01*
X824505Y304619D01*
X824546Y304524D01*
X824581Y304427D01*
X824594Y304411D01*
X824602Y304393D01*
X824706Y304262D01*
X827228Y301740D01*
X829819Y295485D01*
X829819Y288715D01*
X827228Y282460D01*
X822440Y277672D01*
X816185Y275081D01*
X809722Y275081D01*
X809632Y275067D01*
X809541Y275059D01*
X809511Y275047D01*
X809479Y275042D01*
X809399Y274999D01*
X809315Y274963D01*
X809283Y274937D01*
X809262Y274926D01*
X809240Y274903D01*
X809184Y274858D01*
X798955Y264630D01*
X794754Y262889D01*
X782586Y262889D01*
X778385Y264630D01*
X766228Y276787D01*
X766149Y276844D01*
X766074Y276906D01*
X766049Y276915D01*
X766028Y276930D01*
X765935Y276959D01*
X765844Y276994D01*
X765818Y276995D01*
X765793Y277003D01*
X765696Y277000D01*
X765598Y277004D01*
X765573Y276997D01*
X765547Y276996D01*
X765456Y276963D01*
X765362Y276936D01*
X765341Y276921D01*
X765316Y276912D01*
X765240Y276851D01*
X765160Y276795D01*
X765144Y276774D01*
X765124Y276758D01*
X765071Y276676D01*
X765013Y276598D01*
X765005Y276573D01*
X764991Y276551D01*
X764967Y276457D01*
X764937Y276364D01*
X764937Y276338D01*
X764931Y276313D01*
X764939Y276216D01*
X764939Y276118D01*
X764949Y276087D01*
X764950Y276067D01*
X764963Y276037D01*
X764986Y275957D01*
X767335Y270287D01*
X767335Y263113D01*
X764589Y256484D01*
X762643Y254538D01*
X762632Y254522D01*
X762616Y254510D01*
X762585Y254462D01*
X762576Y254453D01*
X762569Y254437D01*
X762560Y254422D01*
X762500Y254339D01*
X762494Y254320D01*
X762483Y254303D01*
X762458Y254202D01*
X762427Y254103D01*
X762428Y254084D01*
X762423Y254064D01*
X762431Y253961D01*
X762434Y253858D01*
X762441Y253839D01*
X762442Y253819D01*
X762482Y253724D01*
X762518Y253627D01*
X762531Y253611D01*
X762538Y253593D01*
X762643Y253462D01*
X764589Y251516D01*
X767335Y244887D01*
X767335Y237713D01*
X764589Y231084D01*
X762643Y229138D01*
X762632Y229122D01*
X762616Y229110D01*
X762560Y229022D01*
X762500Y228939D01*
X762494Y228920D01*
X762483Y228903D01*
X762458Y228802D01*
X762427Y228703D01*
X762428Y228684D01*
X762423Y228664D01*
X762431Y228561D01*
X762434Y228458D01*
X762441Y228439D01*
X762442Y228419D01*
X762482Y228324D01*
X762518Y228227D01*
X762531Y228211D01*
X762538Y228193D01*
X762643Y228062D01*
X764589Y226116D01*
X767335Y219487D01*
X767335Y212313D01*
X764589Y205684D01*
X762643Y203738D01*
X762632Y203722D01*
X762616Y203710D01*
X762560Y203622D01*
X762500Y203539D01*
X762494Y203520D01*
X762483Y203503D01*
X762458Y203402D01*
X762427Y203303D01*
X762428Y203284D01*
X762423Y203264D01*
X762431Y203161D01*
X762434Y203058D01*
X762441Y203039D01*
X762442Y203019D01*
X762482Y202924D01*
X762518Y202827D01*
X762531Y202811D01*
X762538Y202793D01*
X762643Y202662D01*
X764589Y200716D01*
X767335Y194087D01*
X767335Y186913D01*
X764589Y180284D01*
X762643Y178338D01*
X762632Y178322D01*
X762616Y178310D01*
X762560Y178222D01*
X762500Y178139D01*
X762494Y178120D01*
X762483Y178103D01*
X762458Y178002D01*
X762427Y177903D01*
X762428Y177884D01*
X762423Y177864D01*
X762431Y177761D01*
X762434Y177658D01*
X762441Y177639D01*
X762442Y177619D01*
X762482Y177524D01*
X762518Y177427D01*
X762531Y177411D01*
X762538Y177393D01*
X762643Y177262D01*
X764589Y175316D01*
X767335Y168687D01*
X767335Y161513D01*
X764589Y154884D01*
X762643Y152938D01*
X762632Y152922D01*
X762616Y152910D01*
X762560Y152822D01*
X762500Y152739D01*
X762494Y152720D01*
X762483Y152703D01*
X762458Y152602D01*
X762427Y152503D01*
X762428Y152484D01*
X762423Y152464D01*
X762431Y152361D01*
X762434Y152258D01*
X762441Y152239D01*
X762442Y152219D01*
X762482Y152124D01*
X762518Y152027D01*
X762531Y152011D01*
X762538Y151993D01*
X762643Y151862D01*
X764589Y149916D01*
X767335Y143287D01*
X767335Y136113D01*
X764589Y129484D01*
X762643Y127538D01*
X762632Y127522D01*
X762616Y127510D01*
X762560Y127422D01*
X762500Y127339D01*
X762494Y127320D01*
X762483Y127303D01*
X762458Y127202D01*
X762427Y127103D01*
X762428Y127084D01*
X762423Y127064D01*
X762431Y126961D01*
X762434Y126858D01*
X762441Y126839D01*
X762442Y126819D01*
X762482Y126724D01*
X762518Y126627D01*
X762531Y126611D01*
X762538Y126593D01*
X762643Y126462D01*
X764589Y124516D01*
X767335Y117887D01*
X767335Y110713D01*
X764589Y104084D01*
X762643Y102138D01*
X762632Y102122D01*
X762616Y102110D01*
X762560Y102022D01*
X762500Y101939D01*
X762494Y101920D01*
X762483Y101903D01*
X762458Y101802D01*
X762427Y101703D01*
X762428Y101684D01*
X762423Y101664D01*
X762431Y101561D01*
X762434Y101458D01*
X762441Y101439D01*
X762442Y101419D01*
X762482Y101324D01*
X762518Y101227D01*
X762531Y101211D01*
X762538Y101193D01*
X762643Y101062D01*
X764589Y99116D01*
X767335Y92487D01*
X767335Y85313D01*
X764589Y78684D01*
X759516Y73611D01*
X752887Y70865D01*
X745713Y70865D01*
X739084Y73611D01*
X735449Y77246D01*
X735375Y77299D01*
X735305Y77359D01*
X735275Y77371D01*
X735249Y77390D01*
X735162Y77417D01*
X735077Y77451D01*
X735036Y77455D01*
X735014Y77462D01*
X734982Y77461D01*
X734910Y77469D01*
X700806Y77469D01*
X700716Y77455D01*
X700625Y77447D01*
X700595Y77435D01*
X700563Y77430D01*
X700483Y77387D01*
X700399Y77351D01*
X700367Y77325D01*
X700346Y77314D01*
X700324Y77291D01*
X700268Y77246D01*
X696263Y73241D01*
X689474Y70429D01*
X682126Y70429D01*
X675337Y73241D01*
X670141Y78437D01*
X667329Y85226D01*
X667329Y92574D01*
X670141Y99363D01*
X675337Y104559D01*
X682126Y107371D01*
X689474Y107371D01*
X696263Y104559D01*
X700268Y100554D01*
X700342Y100501D01*
X700411Y100441D01*
X700441Y100429D01*
X700468Y100410D01*
X700555Y100383D01*
X700639Y100349D01*
X700680Y100345D01*
X700703Y100338D01*
X700735Y100339D01*
X700806Y100331D01*
X734910Y100331D01*
X735001Y100345D01*
X735092Y100353D01*
X735121Y100365D01*
X735153Y100370D01*
X735234Y100413D01*
X735318Y100449D01*
X735350Y100475D01*
X735371Y100486D01*
X735393Y100509D01*
X735449Y100554D01*
X735957Y101062D01*
X735968Y101078D01*
X735984Y101090D01*
X736040Y101177D01*
X736100Y101261D01*
X736106Y101281D01*
X736117Y101297D01*
X736142Y101398D01*
X736173Y101497D01*
X736172Y101516D01*
X736177Y101536D01*
X736169Y101639D01*
X736166Y101742D01*
X736159Y101761D01*
X736158Y101781D01*
X736117Y101876D01*
X736082Y101973D01*
X736069Y101989D01*
X736062Y102007D01*
X735957Y102138D01*
X734011Y104084D01*
X731265Y110713D01*
X731265Y117887D01*
X734011Y124516D01*
X735957Y126462D01*
X735968Y126478D01*
X735984Y126490D01*
X736040Y126578D01*
X736100Y126661D01*
X736106Y126680D01*
X736117Y126697D01*
X736142Y126798D01*
X736173Y126897D01*
X736172Y126916D01*
X736177Y126936D01*
X736169Y127039D01*
X736166Y127142D01*
X736159Y127161D01*
X736158Y127181D01*
X736118Y127276D01*
X736082Y127373D01*
X736069Y127389D01*
X736062Y127407D01*
X735957Y127538D01*
X734011Y129484D01*
X731265Y136113D01*
X731265Y143287D01*
X734011Y149916D01*
X735957Y151862D01*
X735968Y151878D01*
X735984Y151890D01*
X736040Y151978D01*
X736100Y152061D01*
X736106Y152080D01*
X736117Y152097D01*
X736142Y152198D01*
X736173Y152297D01*
X736172Y152316D01*
X736177Y152336D01*
X736169Y152439D01*
X736166Y152542D01*
X736159Y152561D01*
X736158Y152581D01*
X736118Y152676D01*
X736082Y152773D01*
X736069Y152789D01*
X736062Y152807D01*
X735957Y152938D01*
X734011Y154884D01*
X733657Y155739D01*
X733595Y155839D01*
X733535Y155939D01*
X733530Y155943D01*
X733527Y155948D01*
X733437Y156023D01*
X733348Y156099D01*
X733342Y156101D01*
X733338Y156105D01*
X733229Y156147D01*
X733120Y156191D01*
X733113Y156192D01*
X733108Y156193D01*
X733090Y156194D01*
X732953Y156209D01*
X721626Y156209D01*
X717425Y157950D01*
X622770Y252605D01*
X621029Y256806D01*
X621029Y452150D01*
X621015Y452240D01*
X621007Y452331D01*
X620995Y452361D01*
X620990Y452393D01*
X620947Y452473D01*
X620911Y452557D01*
X620885Y452589D01*
X620874Y452610D01*
X620851Y452632D01*
X620806Y452688D01*
X605088Y468406D01*
X605014Y468459D01*
X604945Y468519D01*
X604915Y468531D01*
X604888Y468550D01*
X604802Y468577D01*
X604717Y468611D01*
X604676Y468615D01*
X604653Y468622D01*
X604621Y468621D01*
X604550Y468629D01*
X591790Y468629D01*
X591700Y468615D01*
X591609Y468607D01*
X591579Y468595D01*
X591547Y468590D01*
X591467Y468547D01*
X591383Y468511D01*
X591351Y468485D01*
X591330Y468474D01*
X591308Y468451D01*
X591252Y468406D01*
X552674Y429828D01*
X552621Y429754D01*
X552561Y429685D01*
X552549Y429655D01*
X552530Y429628D01*
X552503Y429542D01*
X552469Y429457D01*
X552465Y429416D01*
X552458Y429393D01*
X552459Y429361D01*
X552451Y429290D01*
X552451Y360119D01*
X552457Y360080D01*
X552455Y360042D01*
X552490Y359878D01*
X552583Y359598D01*
X552453Y357761D01*
X552454Y357741D01*
X552451Y357707D01*
X552451Y355866D01*
X552338Y355594D01*
X552329Y355556D01*
X552312Y355521D01*
X552282Y355356D01*
X552261Y355062D01*
X551437Y353415D01*
X551431Y353396D01*
X551415Y353366D01*
X550710Y351665D01*
X550502Y351456D01*
X550479Y351425D01*
X550450Y351399D01*
X550359Y351258D01*
X550167Y350875D01*
X550161Y350856D01*
X550145Y350826D01*
X549440Y349125D01*
X549232Y348916D01*
X549209Y348885D01*
X549180Y348859D01*
X549089Y348718D01*
X548957Y348454D01*
X547566Y347248D01*
X547553Y347232D01*
X547527Y347211D01*
X545054Y344738D01*
X545001Y344664D01*
X544941Y344595D01*
X544929Y344565D01*
X544910Y344538D01*
X544883Y344452D01*
X544849Y344367D01*
X544845Y344326D01*
X544838Y344303D01*
X544839Y344271D01*
X544831Y344200D01*
X544831Y342304D01*
X544832Y342294D01*
X544832Y342290D01*
X544837Y342268D01*
X544845Y342213D01*
X544853Y342123D01*
X544865Y342093D01*
X544870Y342061D01*
X544913Y341980D01*
X544949Y341896D01*
X544975Y341864D01*
X544986Y341843D01*
X545009Y341821D01*
X545054Y341765D01*
X548689Y338130D01*
X549225Y336837D01*
X549282Y336744D01*
X549336Y336649D01*
X549347Y336640D01*
X549354Y336627D01*
X549438Y336558D01*
X549520Y336485D01*
X549533Y336480D01*
X549544Y336471D01*
X549646Y336432D01*
X549746Y336389D01*
X549760Y336388D01*
X549774Y336382D01*
X549882Y336378D01*
X549991Y336369D01*
X550005Y336373D01*
X550019Y336372D01*
X550124Y336402D01*
X550230Y336429D01*
X550245Y336438D01*
X550255Y336441D01*
X550279Y336457D01*
X550376Y336512D01*
X550801Y336821D01*
X552262Y337566D01*
X553821Y338072D01*
X554737Y338217D01*
X554737Y318262D01*
X554740Y318242D01*
X554738Y318223D01*
X554760Y318121D01*
X554777Y318019D01*
X554786Y318002D01*
X554790Y317982D01*
X554843Y317893D01*
X554892Y317802D01*
X554906Y317788D01*
X554916Y317771D01*
X554995Y317704D01*
X555070Y317633D01*
X555088Y317624D01*
X555103Y317611D01*
X555199Y317573D01*
X555293Y317529D01*
X555313Y317527D01*
X555331Y317519D01*
X555498Y317501D01*
X556261Y317501D01*
X556261Y317499D01*
X555498Y317499D01*
X555478Y317496D01*
X555459Y317498D01*
X555357Y317476D01*
X555255Y317459D01*
X555238Y317450D01*
X555218Y317446D01*
X555129Y317393D01*
X555038Y317344D01*
X555024Y317330D01*
X555007Y317320D01*
X554940Y317241D01*
X554869Y317166D01*
X554860Y317148D01*
X554847Y317133D01*
X554808Y317037D01*
X554765Y316943D01*
X554763Y316923D01*
X554755Y316905D01*
X554737Y316738D01*
X554737Y296783D01*
X553821Y296928D01*
X552262Y297434D01*
X550801Y298179D01*
X550376Y298488D01*
X550279Y298537D01*
X550183Y298590D01*
X550168Y298592D01*
X550156Y298599D01*
X550048Y298614D01*
X549941Y298633D01*
X549926Y298631D01*
X549912Y298633D01*
X549805Y298613D01*
X549697Y298598D01*
X549684Y298591D01*
X549670Y298588D01*
X549576Y298536D01*
X549478Y298486D01*
X549468Y298476D01*
X549456Y298469D01*
X549382Y298389D01*
X549306Y298310D01*
X549297Y298295D01*
X549290Y298287D01*
X549278Y298261D01*
X549225Y298163D01*
X548689Y296870D01*
X543616Y291797D01*
X536987Y289051D01*
X529813Y289051D01*
X523184Y291797D01*
X522508Y292473D01*
X522492Y292484D01*
X522480Y292500D01*
X522392Y292556D01*
X522309Y292616D01*
X522290Y292622D01*
X522273Y292633D01*
X522172Y292658D01*
X522073Y292689D01*
X522054Y292688D01*
X522034Y292693D01*
X521931Y292685D01*
X521828Y292682D01*
X521809Y292675D01*
X521789Y292674D01*
X521694Y292634D01*
X521597Y292598D01*
X521581Y292585D01*
X521563Y292578D01*
X521432Y292473D01*
X520756Y291797D01*
X514127Y289051D01*
X506953Y289051D01*
X500324Y291797D01*
X495251Y296870D01*
X492505Y303499D01*
X492505Y305308D01*
X492502Y305328D01*
X492504Y305347D01*
X492482Y305449D01*
X492466Y305551D01*
X492456Y305568D01*
X492452Y305588D01*
X492399Y305677D01*
X492350Y305768D01*
X492336Y305782D01*
X492326Y305799D01*
X492247Y305866D01*
X492172Y305938D01*
X492154Y305946D01*
X492139Y305959D01*
X492043Y305998D01*
X491949Y306041D01*
X491929Y306043D01*
X491911Y306051D01*
X491744Y306069D01*
X491617Y306069D01*
X491597Y306066D01*
X491578Y306068D01*
X491476Y306046D01*
X491374Y306030D01*
X491357Y306020D01*
X491337Y306016D01*
X491248Y305963D01*
X491157Y305914D01*
X491143Y305900D01*
X491126Y305890D01*
X491059Y305811D01*
X490987Y305736D01*
X490979Y305718D01*
X490966Y305703D01*
X490927Y305607D01*
X490884Y305513D01*
X490882Y305493D01*
X490874Y305475D01*
X490856Y305308D01*
X490856Y296176D01*
X489115Y291975D01*
X476791Y279651D01*
X476744Y279585D01*
X476733Y279574D01*
X476731Y279568D01*
X476679Y279507D01*
X476666Y279477D01*
X476648Y279451D01*
X476621Y279364D01*
X476587Y279279D01*
X476582Y279238D01*
X476575Y279216D01*
X476576Y279184D01*
X476568Y279112D01*
X476568Y279053D01*
X476582Y278971D01*
X476582Y278970D01*
X476583Y278962D01*
X476590Y278872D01*
X476603Y278842D01*
X476608Y278810D01*
X476651Y278729D01*
X476686Y278645D01*
X476712Y278613D01*
X476723Y278592D01*
X476746Y278570D01*
X476791Y278514D01*
X478808Y276498D01*
X478808Y276497D01*
X482130Y273175D01*
X483871Y268974D01*
X483871Y264426D01*
X482130Y260225D01*
X471295Y249390D01*
X467094Y247649D01*
X256806Y247649D01*
X252605Y249390D01*
X202172Y299822D01*
X202098Y299875D01*
X202029Y299935D01*
X201999Y299947D01*
X201972Y299966D01*
X201886Y299993D01*
X201801Y300027D01*
X201760Y300031D01*
X201737Y300038D01*
X201705Y300037D01*
X201634Y300045D01*
X199728Y300045D01*
X193313Y302703D01*
X188403Y307613D01*
X185745Y314028D01*
X185745Y320972D01*
X188342Y327242D01*
X188353Y327286D01*
X188372Y327328D01*
X188381Y327405D01*
X188398Y327481D01*
X188394Y327527D01*
X188399Y327572D01*
X188383Y327649D01*
X188375Y327726D01*
X188357Y327768D01*
X188347Y327813D01*
X188307Y327880D01*
X188275Y327951D01*
X188244Y327985D01*
X188221Y328024D01*
X188162Y328075D01*
X188109Y328132D01*
X188069Y328154D01*
X188034Y328184D01*
X187962Y328213D01*
X187893Y328250D01*
X187848Y328259D01*
X187806Y328276D01*
X187670Y328291D01*
X187651Y328294D01*
X187646Y328293D01*
X187639Y328294D01*
X164592Y328294D01*
X164572Y328291D01*
X164553Y328293D01*
X164451Y328271D01*
X164349Y328255D01*
X164332Y328245D01*
X164312Y328241D01*
X164223Y328188D01*
X164132Y328139D01*
X164118Y328125D01*
X164101Y328115D01*
X164034Y328036D01*
X163962Y327961D01*
X163954Y327943D01*
X163941Y327928D01*
X163902Y327832D01*
X163859Y327738D01*
X163857Y327718D01*
X163849Y327700D01*
X163831Y327533D01*
X163831Y256806D01*
X162090Y252605D01*
X125954Y216468D01*
X125907Y216403D01*
X125895Y216390D01*
X125892Y216384D01*
X125841Y216325D01*
X125829Y216295D01*
X125810Y216268D01*
X125783Y216182D01*
X125749Y216097D01*
X125745Y216056D01*
X125738Y216033D01*
X125739Y216001D01*
X125731Y215930D01*
X125731Y204224D01*
X125746Y204128D01*
X125756Y204031D01*
X125766Y204007D01*
X125770Y203982D01*
X125816Y203896D01*
X125856Y203806D01*
X125873Y203787D01*
X125886Y203764D01*
X125956Y203697D01*
X126022Y203625D01*
X126045Y203613D01*
X126064Y203595D01*
X126152Y203554D01*
X126238Y203507D01*
X126263Y203502D01*
X126287Y203491D01*
X126384Y203480D01*
X126480Y203463D01*
X126506Y203467D01*
X126531Y203464D01*
X126627Y203485D01*
X126723Y203499D01*
X126746Y203511D01*
X126772Y203516D01*
X126855Y203566D01*
X126942Y203610D01*
X126961Y203629D01*
X126983Y203642D01*
X127046Y203716D01*
X127114Y203786D01*
X127130Y203815D01*
X127143Y203829D01*
X127155Y203860D01*
X127195Y203933D01*
X127470Y204595D01*
X138305Y215430D01*
X142506Y217171D01*
X147350Y217171D01*
X147440Y217185D01*
X147531Y217193D01*
X147561Y217205D01*
X147593Y217210D01*
X147673Y217253D01*
X147757Y217289D01*
X147789Y217315D01*
X147810Y217326D01*
X147832Y217349D01*
X147888Y217394D01*
X165462Y234968D01*
X165463Y234968D01*
X168785Y238290D01*
X172986Y240031D01*
X489954Y240031D01*
X494155Y238290D01*
X530292Y202154D01*
X530366Y202101D01*
X530435Y202041D01*
X530465Y202029D01*
X530492Y202010D01*
X530578Y201983D01*
X530663Y201949D01*
X530704Y201945D01*
X530727Y201938D01*
X530759Y201939D01*
X530830Y201931D01*
X582510Y201931D01*
X582601Y201945D01*
X582691Y201953D01*
X582721Y201965D01*
X582753Y201970D01*
X582834Y202013D01*
X582918Y202049D01*
X582950Y202075D01*
X582971Y202086D01*
X582993Y202109D01*
X583049Y202154D01*
X583557Y202662D01*
X583568Y202678D01*
X583584Y202690D01*
X583640Y202778D01*
X583700Y202861D01*
X583706Y202880D01*
X583717Y202897D01*
X583742Y202998D01*
X583773Y203097D01*
X583772Y203116D01*
X583777Y203136D01*
X583769Y203239D01*
X583766Y203342D01*
X583759Y203361D01*
X583758Y203381D01*
X583718Y203476D01*
X583682Y203573D01*
X583669Y203589D01*
X583662Y203607D01*
X583557Y203738D01*
X581611Y205684D01*
X578865Y212313D01*
X578865Y219487D01*
X581611Y226116D01*
X583557Y228062D01*
X583568Y228078D01*
X583584Y228090D01*
X583640Y228178D01*
X583700Y228261D01*
X583706Y228280D01*
X583717Y228297D01*
X583742Y228398D01*
X583773Y228497D01*
X583772Y228516D01*
X583777Y228536D01*
X583769Y228639D01*
X583766Y228742D01*
X583759Y228761D01*
X583758Y228781D01*
X583718Y228876D01*
X583682Y228973D01*
X583669Y228989D01*
X583662Y229007D01*
X583557Y229138D01*
X581611Y231084D01*
X578865Y237713D01*
X578865Y244887D01*
X581611Y251516D01*
X583557Y253462D01*
X583568Y253478D01*
X583584Y253490D01*
X583640Y253578D01*
X583700Y253661D01*
X583706Y253680D01*
X583717Y253697D01*
X583742Y253798D01*
X583773Y253897D01*
X583772Y253916D01*
X583777Y253936D01*
X583769Y254039D01*
X583766Y254142D01*
X583759Y254161D01*
X583758Y254181D01*
X583718Y254276D01*
X583682Y254373D01*
X583669Y254389D01*
X583662Y254407D01*
X583578Y254512D01*
X583576Y254515D01*
X583574Y254517D01*
X583557Y254538D01*
X581611Y256484D01*
X578865Y263113D01*
X578865Y270287D01*
X581611Y276916D01*
X583557Y278862D01*
X583568Y278878D01*
X583584Y278890D01*
X583640Y278978D01*
X583700Y279061D01*
X583706Y279080D01*
X583717Y279097D01*
X583742Y279198D01*
X583773Y279297D01*
X583772Y279316D01*
X583777Y279336D01*
X583769Y279439D01*
X583766Y279542D01*
X583759Y279561D01*
X583758Y279581D01*
X583718Y279676D01*
X583682Y279773D01*
X583669Y279789D01*
X583662Y279807D01*
X583557Y279938D01*
X581611Y281884D01*
X578865Y288513D01*
X578865Y295687D01*
X581611Y302316D01*
X583557Y304262D01*
X583568Y304278D01*
X583584Y304290D01*
X583640Y304377D01*
X583700Y304461D01*
X583706Y304480D01*
X583717Y304497D01*
X583742Y304598D01*
X583773Y304697D01*
X583772Y304716D01*
X583777Y304736D01*
X583769Y304839D01*
X583766Y304942D01*
X583759Y304961D01*
X583758Y304981D01*
X583718Y305076D01*
X583682Y305173D01*
X583669Y305189D01*
X583662Y305207D01*
X583557Y305338D01*
X581611Y307284D01*
X578865Y313913D01*
X578865Y321087D01*
X581611Y327716D01*
X583557Y329662D01*
X583568Y329678D01*
X583584Y329690D01*
X583640Y329778D01*
X583700Y329861D01*
X583706Y329880D01*
X583717Y329897D01*
X583742Y329998D01*
X583773Y330097D01*
X583772Y330116D01*
X583777Y330136D01*
X583769Y330239D01*
X583766Y330342D01*
X583759Y330361D01*
X583758Y330381D01*
X583718Y330476D01*
X583682Y330573D01*
X583669Y330589D01*
X583662Y330607D01*
X583557Y330738D01*
X581611Y332684D01*
X578865Y339313D01*
X578865Y346487D01*
X581611Y353116D01*
X586684Y358189D01*
X589590Y359393D01*
X589629Y359417D01*
X589672Y359433D01*
X589733Y359481D01*
X589799Y359522D01*
X589828Y359558D01*
X589864Y359586D01*
X589906Y359652D01*
X589956Y359712D01*
X589972Y359755D01*
X589997Y359793D01*
X590016Y359869D01*
X590044Y359941D01*
X590046Y359987D01*
X590057Y360032D01*
X590051Y360109D01*
X590054Y360187D01*
X590042Y360231D01*
X590038Y360277D01*
X590008Y360349D01*
X589986Y360423D01*
X589960Y360461D01*
X589942Y360503D01*
X589856Y360610D01*
X589846Y360625D01*
X589842Y360628D01*
X589837Y360634D01*
X588956Y361515D01*
X587993Y362841D01*
X587248Y364302D01*
X586742Y365861D01*
X586597Y366777D01*
X596138Y366777D01*
X596158Y366780D01*
X596177Y366778D01*
X596279Y366800D01*
X596381Y366817D01*
X596398Y366826D01*
X596418Y366830D01*
X596507Y366883D01*
X596598Y366932D01*
X596612Y366946D01*
X596629Y366956D01*
X596696Y367035D01*
X596767Y367110D01*
X596776Y367128D01*
X596789Y367143D01*
X596827Y367239D01*
X596871Y367333D01*
X596873Y367353D01*
X596881Y367371D01*
X596899Y367538D01*
X596899Y369062D01*
X596896Y369082D01*
X596898Y369101D01*
X596876Y369203D01*
X596859Y369305D01*
X596850Y369322D01*
X596846Y369342D01*
X596793Y369431D01*
X596744Y369522D01*
X596730Y369536D01*
X596720Y369553D01*
X596641Y369620D01*
X596566Y369691D01*
X596548Y369700D01*
X596533Y369713D01*
X596437Y369752D01*
X596343Y369795D01*
X596323Y369797D01*
X596305Y369805D01*
X596138Y369823D01*
X586597Y369823D01*
X586742Y370739D01*
X587248Y372298D01*
X587993Y373759D01*
X588956Y375085D01*
X589837Y375966D01*
X589864Y376003D01*
X589898Y376034D01*
X589935Y376102D01*
X589981Y376165D01*
X589994Y376209D01*
X590016Y376249D01*
X590030Y376326D01*
X590053Y376400D01*
X590052Y376446D01*
X590060Y376492D01*
X590049Y376569D01*
X590047Y376646D01*
X590031Y376690D01*
X590024Y376735D01*
X589989Y376804D01*
X589962Y376877D01*
X589933Y376913D01*
X589913Y376954D01*
X589857Y377009D01*
X589808Y377069D01*
X589770Y377094D01*
X589737Y377126D01*
X589617Y377192D01*
X589601Y377202D01*
X589597Y377204D01*
X589590Y377207D01*
X586684Y378411D01*
X581611Y383484D01*
X578865Y390113D01*
X578865Y397287D01*
X581611Y403916D01*
X583557Y405862D01*
X583568Y405878D01*
X583584Y405890D01*
X583640Y405978D01*
X583700Y406061D01*
X583706Y406080D01*
X583717Y406097D01*
X583742Y406198D01*
X583773Y406297D01*
X583772Y406316D01*
X583777Y406336D01*
X583769Y406439D01*
X583766Y406542D01*
X583759Y406561D01*
X583758Y406581D01*
X583718Y406676D01*
X583682Y406773D01*
X583669Y406789D01*
X583662Y406807D01*
X583557Y406938D01*
X581611Y408884D01*
X578865Y415513D01*
X578865Y422687D01*
X581611Y429316D01*
X583557Y431262D01*
X583568Y431278D01*
X583584Y431290D01*
X583640Y431377D01*
X583700Y431461D01*
X583706Y431480D01*
X583717Y431497D01*
X583742Y431598D01*
X583773Y431697D01*
X583772Y431716D01*
X583777Y431736D01*
X583769Y431839D01*
X583766Y431942D01*
X583759Y431961D01*
X583758Y431981D01*
X583718Y432076D01*
X583682Y432173D01*
X583669Y432189D01*
X583662Y432207D01*
X583557Y432338D01*
X581611Y434284D01*
X578865Y440913D01*
X578865Y448087D01*
X581611Y454716D01*
X586684Y459789D01*
X593313Y462535D01*
X600487Y462535D01*
X607116Y459789D01*
X612189Y454716D01*
X614935Y448087D01*
X614935Y440913D01*
X612189Y434284D01*
X610243Y432338D01*
X610232Y432322D01*
X610216Y432310D01*
X610160Y432222D01*
X610100Y432139D01*
X610094Y432120D01*
X610083Y432103D01*
X610058Y432002D01*
X610027Y431903D01*
X610028Y431884D01*
X610023Y431864D01*
X610031Y431761D01*
X610034Y431658D01*
X610041Y431639D01*
X610042Y431619D01*
X610082Y431524D01*
X610118Y431427D01*
X610131Y431411D01*
X610138Y431393D01*
X610243Y431262D01*
X612189Y429316D01*
X614935Y422687D01*
X614935Y415513D01*
X612189Y408884D01*
X610243Y406938D01*
X610232Y406922D01*
X610216Y406910D01*
X610160Y406822D01*
X610100Y406739D01*
X610094Y406720D01*
X610083Y406703D01*
X610058Y406602D01*
X610027Y406503D01*
X610028Y406484D01*
X610023Y406464D01*
X610031Y406361D01*
X610034Y406258D01*
X610041Y406239D01*
X610042Y406219D01*
X610082Y406124D01*
X610118Y406027D01*
X610131Y406011D01*
X610138Y405993D01*
X610243Y405862D01*
X612189Y403916D01*
X614935Y397287D01*
X614935Y390113D01*
X612189Y383484D01*
X607116Y378411D01*
X604210Y377207D01*
X604171Y377183D01*
X604128Y377167D01*
X604067Y377119D01*
X604001Y377078D01*
X603972Y377042D01*
X603936Y377014D01*
X603894Y376948D01*
X603844Y376888D01*
X603828Y376845D01*
X603803Y376807D01*
X603784Y376731D01*
X603756Y376659D01*
X603754Y376613D01*
X603743Y376568D01*
X603749Y376491D01*
X603746Y376413D01*
X603758Y376369D01*
X603762Y376323D01*
X603792Y376251D01*
X603814Y376177D01*
X603840Y376139D01*
X603858Y376097D01*
X603944Y375990D01*
X603954Y375975D01*
X603958Y375972D01*
X603963Y375966D01*
X604844Y375085D01*
X605807Y373759D01*
X606552Y372298D01*
X607058Y370739D01*
X607203Y369823D01*
X597662Y369823D01*
X597642Y369820D01*
X597623Y369822D01*
X597521Y369800D01*
X597419Y369783D01*
X597402Y369774D01*
X597382Y369770D01*
X597293Y369717D01*
X597202Y369668D01*
X597188Y369654D01*
X597171Y369644D01*
X597104Y369565D01*
X597033Y369490D01*
X597024Y369472D01*
X597011Y369457D01*
X596973Y369361D01*
X596929Y369267D01*
X596927Y369247D01*
X596919Y369229D01*
X596901Y369062D01*
X596901Y367538D01*
X596904Y367518D01*
X596902Y367499D01*
X596924Y367397D01*
X596941Y367295D01*
X596950Y367278D01*
X596954Y367258D01*
X597007Y367169D01*
X597056Y367078D01*
X597070Y367064D01*
X597080Y367047D01*
X597159Y366980D01*
X597234Y366909D01*
X597252Y366900D01*
X597267Y366887D01*
X597363Y366848D01*
X597457Y366805D01*
X597477Y366803D01*
X597495Y366795D01*
X597662Y366777D01*
X607203Y366777D01*
X607058Y365861D01*
X606552Y364302D01*
X605807Y362841D01*
X604844Y361515D01*
X603963Y360634D01*
X603936Y360597D01*
X603902Y360566D01*
X603865Y360498D01*
X603819Y360435D01*
X603806Y360391D01*
X603784Y360351D01*
X603770Y360274D01*
X603747Y360200D01*
X603748Y360154D01*
X603740Y360108D01*
X603751Y360031D01*
X603753Y359954D01*
X603769Y359910D01*
X603776Y359865D01*
X603811Y359796D01*
X603838Y359723D01*
X603867Y359687D01*
X603887Y359646D01*
X603943Y359591D01*
X603992Y359531D01*
X604030Y359506D01*
X604063Y359474D01*
X604183Y359408D01*
X604199Y359398D01*
X604203Y359396D01*
X604210Y359393D01*
X607116Y358189D01*
X612189Y353116D01*
X614935Y346487D01*
X614935Y339313D01*
X612189Y332684D01*
X610243Y330738D01*
X610232Y330722D01*
X610216Y330710D01*
X610160Y330622D01*
X610100Y330539D01*
X610094Y330520D01*
X610083Y330503D01*
X610058Y330402D01*
X610027Y330303D01*
X610028Y330284D01*
X610023Y330264D01*
X610031Y330161D01*
X610034Y330058D01*
X610041Y330039D01*
X610042Y330019D01*
X610082Y329924D01*
X610118Y329827D01*
X610131Y329811D01*
X610138Y329793D01*
X610243Y329662D01*
X612189Y327716D01*
X614935Y321087D01*
X614935Y313913D01*
X612189Y307284D01*
X610243Y305338D01*
X610232Y305322D01*
X610216Y305310D01*
X610160Y305222D01*
X610100Y305139D01*
X610094Y305120D01*
X610083Y305103D01*
X610058Y305002D01*
X610027Y304903D01*
X610028Y304884D01*
X610023Y304864D01*
X610031Y304761D01*
X610034Y304658D01*
X610041Y304639D01*
X610042Y304619D01*
X610082Y304524D01*
X610118Y304427D01*
X610131Y304411D01*
X610138Y304393D01*
X610243Y304262D01*
X612189Y302316D01*
X614935Y295687D01*
X614935Y288513D01*
X612189Y281884D01*
X610243Y279938D01*
X610232Y279922D01*
X610216Y279910D01*
X610160Y279822D01*
X610100Y279739D01*
X610094Y279720D01*
X610083Y279703D01*
X610058Y279602D01*
X610027Y279503D01*
X610028Y279484D01*
X610023Y279464D01*
X610031Y279361D01*
X610034Y279258D01*
X610041Y279239D01*
X610042Y279219D01*
X610082Y279124D01*
X610118Y279027D01*
X610131Y279011D01*
X610138Y278993D01*
X610243Y278862D01*
X612189Y276916D01*
X614935Y270287D01*
X614935Y263113D01*
X612189Y256484D01*
X610243Y254538D01*
X610232Y254522D01*
X610216Y254510D01*
X610185Y254462D01*
X610176Y254453D01*
X610169Y254437D01*
X610160Y254422D01*
X610100Y254339D01*
X610094Y254320D01*
X610083Y254303D01*
X610058Y254202D01*
X610027Y254103D01*
X610028Y254084D01*
X610023Y254064D01*
X610031Y253961D01*
X610034Y253858D01*
X610041Y253839D01*
X610042Y253819D01*
X610082Y253724D01*
X610118Y253627D01*
X610131Y253611D01*
X610138Y253593D01*
X610243Y253462D01*
X612189Y251516D01*
X614935Y244887D01*
X614935Y237713D01*
X612189Y231084D01*
X610243Y229138D01*
X610232Y229122D01*
X610216Y229110D01*
X610160Y229022D01*
X610100Y228939D01*
X610094Y228920D01*
X610083Y228903D01*
X610058Y228802D01*
X610027Y228703D01*
X610028Y228684D01*
X610023Y228664D01*
X610031Y228561D01*
X610034Y228458D01*
X610041Y228439D01*
X610042Y228419D01*
X610082Y228324D01*
X610118Y228227D01*
X610131Y228211D01*
X610138Y228193D01*
X610243Y228062D01*
X612189Y226116D01*
X612796Y224650D01*
X612844Y224572D01*
X612886Y224491D01*
X612909Y224468D01*
X612926Y224441D01*
X612996Y224383D01*
X613061Y224319D01*
X613097Y224299D01*
X613115Y224284D01*
X613145Y224272D01*
X613208Y224238D01*
X616075Y223050D01*
X642150Y196975D01*
X643891Y192774D01*
X643891Y73926D01*
X642150Y69725D01*
X616075Y43650D01*
X611874Y41909D01*
X218706Y41909D01*
X214505Y43650D01*
X127470Y130685D01*
X125729Y134886D01*
X125729Y142078D01*
X125715Y142168D01*
X125707Y142259D01*
X125695Y142289D01*
X125690Y142321D01*
X125647Y142401D01*
X125611Y142485D01*
X125585Y142517D01*
X125574Y142538D01*
X125551Y142560D01*
X125506Y142616D01*
X125326Y142796D01*
X123492Y147224D01*
X123430Y147325D01*
X123367Y147428D01*
X123364Y147430D01*
X123363Y147433D01*
X123271Y147509D01*
X123179Y147587D01*
X123176Y147588D01*
X123173Y147590D01*
X123061Y147633D01*
X122950Y147677D01*
X122947Y147677D01*
X122944Y147678D01*
X122824Y147683D01*
X122704Y147689D01*
X122701Y147688D01*
X122698Y147688D01*
X122584Y147655D01*
X122467Y147622D01*
X122465Y147621D01*
X122462Y147620D01*
X122364Y147552D01*
X122264Y147484D01*
X122262Y147481D01*
X122260Y147479D01*
X122253Y147471D01*
X122156Y147355D01*
X121551Y146449D01*
X120251Y145149D01*
X118722Y144128D01*
X117023Y143424D01*
X115823Y143185D01*
X115823Y151638D01*
X115820Y151658D01*
X115822Y151677D01*
X115800Y151779D01*
X115783Y151881D01*
X115774Y151898D01*
X115770Y151918D01*
X115717Y152007D01*
X115668Y152098D01*
X115654Y152112D01*
X115644Y152129D01*
X115565Y152196D01*
X115490Y152267D01*
X115472Y152276D01*
X115457Y152289D01*
X115361Y152327D01*
X115267Y152371D01*
X115247Y152373D01*
X115229Y152381D01*
X115062Y152399D01*
X114299Y152399D01*
X114299Y153162D01*
X114296Y153182D01*
X114298Y153201D01*
X114276Y153303D01*
X114259Y153405D01*
X114250Y153422D01*
X114246Y153442D01*
X114193Y153531D01*
X114144Y153622D01*
X114130Y153636D01*
X114120Y153653D01*
X114041Y153720D01*
X113966Y153791D01*
X113948Y153800D01*
X113933Y153813D01*
X113837Y153852D01*
X113743Y153895D01*
X113723Y153897D01*
X113705Y153905D01*
X113538Y153923D01*
X105085Y153923D01*
X105324Y155123D01*
X105709Y156052D01*
X105731Y156147D01*
X105760Y156240D01*
X105759Y156266D01*
X105765Y156292D01*
X105756Y156389D01*
X105754Y156486D01*
X105745Y156511D01*
X105742Y156537D01*
X105703Y156625D01*
X105669Y156717D01*
X105653Y156738D01*
X105642Y156761D01*
X105576Y156833D01*
X105515Y156909D01*
X105493Y156923D01*
X105476Y156942D01*
X105391Y156989D01*
X105308Y157042D01*
X105283Y157048D01*
X105260Y157061D01*
X105164Y157078D01*
X105070Y157102D01*
X105044Y157100D01*
X105018Y157105D01*
X104922Y157091D01*
X104825Y157083D01*
X104801Y157073D01*
X104775Y157069D01*
X104688Y157025D01*
X104598Y156987D01*
X104573Y156966D01*
X104556Y156958D01*
X104532Y156934D01*
X104467Y156882D01*
X95474Y147888D01*
X95421Y147814D01*
X95361Y147745D01*
X95349Y147715D01*
X95330Y147688D01*
X95303Y147602D01*
X95269Y147517D01*
X95265Y147476D01*
X95258Y147453D01*
X95259Y147421D01*
X95251Y147350D01*
X95251Y73926D01*
X94113Y71179D01*
X94098Y71115D01*
X94073Y71054D01*
X94064Y70971D01*
X94057Y70939D01*
X94058Y70920D01*
X94055Y70887D01*
X94055Y64850D01*
X92895Y62049D01*
X90751Y59905D01*
X87950Y58745D01*
X65250Y58745D01*
X62449Y59905D01*
X60305Y62049D01*
X59145Y64850D01*
X59145Y87550D01*
X60305Y90351D01*
X62449Y92495D01*
X65250Y93655D01*
X71628Y93655D01*
X71648Y93658D01*
X71667Y93656D01*
X71769Y93678D01*
X71871Y93694D01*
X71888Y93704D01*
X71908Y93708D01*
X71997Y93761D01*
X72088Y93810D01*
X72102Y93824D01*
X72119Y93834D01*
X72186Y93913D01*
X72258Y93988D01*
X72266Y94006D01*
X72279Y94021D01*
X72318Y94117D01*
X72361Y94211D01*
X72363Y94231D01*
X72371Y94249D01*
X72389Y94416D01*
X72389Y154674D01*
X74130Y158875D01*
X97887Y182633D01*
X97926Y182686D01*
X97972Y182733D01*
X98012Y182806D01*
X98031Y182833D01*
X98037Y182851D01*
X98053Y182880D01*
X99926Y187404D01*
X102646Y190124D01*
X102699Y190198D01*
X102759Y190267D01*
X102771Y190297D01*
X102790Y190324D01*
X102817Y190411D01*
X102851Y190495D01*
X102855Y190536D01*
X102862Y190559D01*
X102861Y190591D01*
X102869Y190662D01*
X102869Y223254D01*
X104610Y227455D01*
X140746Y263592D01*
X140799Y263666D01*
X140859Y263735D01*
X140871Y263765D01*
X140890Y263792D01*
X140917Y263878D01*
X140951Y263963D01*
X140955Y264004D01*
X140962Y264027D01*
X140961Y264059D01*
X140969Y264130D01*
X140969Y383570D01*
X140955Y383660D01*
X140947Y383751D01*
X140935Y383781D01*
X140930Y383813D01*
X140887Y383893D01*
X140851Y383977D01*
X140825Y384009D01*
X140814Y384030D01*
X140791Y384052D01*
X140746Y384108D01*
X123091Y401764D01*
X123038Y401802D01*
X122991Y401848D01*
X122918Y401888D01*
X122891Y401907D01*
X122873Y401913D01*
X122844Y401929D01*
X117113Y404303D01*
X112203Y409213D01*
X109545Y415628D01*
X109545Y422572D01*
X112203Y428987D01*
X117113Y433897D01*
X123528Y436555D01*
X130472Y436555D01*
X136887Y433897D01*
X141797Y428987D01*
X144455Y422572D01*
X144455Y415628D01*
X143801Y414049D01*
X143774Y413936D01*
X143746Y413822D01*
X143746Y413816D01*
X143745Y413810D01*
X143756Y413693D01*
X143765Y413577D01*
X143767Y413571D01*
X143768Y413565D01*
X143816Y413457D01*
X143861Y413351D01*
X143866Y413345D01*
X143868Y413340D01*
X143880Y413326D01*
X143966Y413220D01*
X158768Y398418D01*
X162090Y395095D01*
X163831Y390894D01*
X163831Y351917D01*
X163834Y351897D01*
X163832Y351878D01*
X163854Y351776D01*
X163870Y351674D01*
X163880Y351657D01*
X163884Y351637D01*
X163937Y351548D01*
X163986Y351457D01*
X164000Y351443D01*
X164010Y351426D01*
X164089Y351359D01*
X164164Y351287D01*
X164182Y351279D01*
X164197Y351266D01*
X164293Y351227D01*
X164387Y351184D01*
X164407Y351182D01*
X164425Y351174D01*
X164592Y351156D01*
X195151Y351156D01*
X195248Y351171D01*
X195345Y351181D01*
X195368Y351191D01*
X195394Y351195D01*
X195480Y351241D01*
X195569Y351281D01*
X195589Y351298D01*
X195612Y351311D01*
X195679Y351381D01*
X195750Y351447D01*
X195763Y351470D01*
X195781Y351489D01*
X195822Y351577D01*
X195869Y351663D01*
X195874Y351688D01*
X195885Y351712D01*
X195895Y351809D01*
X195913Y351905D01*
X195909Y351931D01*
X195912Y351956D01*
X195891Y352052D01*
X195877Y352148D01*
X195865Y352171D01*
X195859Y352197D01*
X195810Y352280D01*
X195765Y352367D01*
X195747Y352386D01*
X195733Y352408D01*
X195659Y352471D01*
X195590Y352539D01*
X195561Y352555D01*
X195546Y352568D01*
X195516Y352580D01*
X195443Y352620D01*
X193313Y353503D01*
X188403Y358413D01*
X185745Y364828D01*
X185745Y369274D01*
X185731Y369364D01*
X185723Y369455D01*
X185711Y369485D01*
X185706Y369517D01*
X185663Y369597D01*
X185627Y369681D01*
X185601Y369713D01*
X185590Y369734D01*
X185567Y369756D01*
X185522Y369812D01*
X176512Y378822D01*
X173190Y382145D01*
X171449Y386346D01*
X171449Y406134D01*
X173190Y410335D01*
X185864Y423009D01*
X185902Y423062D01*
X185948Y423109D01*
X185988Y423182D01*
X186007Y423209D01*
X186013Y423227D01*
X186029Y423256D01*
X188403Y428987D01*
X193313Y433897D01*
X199728Y436555D01*
X199988Y436555D01*
X200053Y436565D01*
X200118Y436566D01*
X200198Y436589D01*
X200231Y436594D01*
X200248Y436604D01*
X200279Y436613D01*
X200926Y436881D01*
X205474Y436881D01*
X206121Y436613D01*
X206185Y436598D01*
X206245Y436573D01*
X206328Y436564D01*
X206360Y436557D01*
X206380Y436558D01*
X206412Y436555D01*
X206672Y436555D01*
X213087Y433897D01*
X217997Y428987D01*
X220655Y422572D01*
X220655Y415628D01*
X217997Y409213D01*
X213087Y404303D01*
X206672Y401645D01*
X199728Y401645D01*
X198149Y402299D01*
X198036Y402326D01*
X197922Y402354D01*
X197916Y402354D01*
X197910Y402355D01*
X197793Y402344D01*
X197677Y402335D01*
X197671Y402333D01*
X197665Y402332D01*
X197558Y402285D01*
X197451Y402239D01*
X197445Y402234D01*
X197440Y402232D01*
X197427Y402220D01*
X197320Y402134D01*
X194534Y399348D01*
X194481Y399274D01*
X194421Y399205D01*
X194409Y399175D01*
X194390Y399148D01*
X194363Y399061D01*
X194329Y398977D01*
X194325Y398936D01*
X194318Y398913D01*
X194319Y398881D01*
X194311Y398810D01*
X194311Y393670D01*
X194325Y393580D01*
X194333Y393489D01*
X194345Y393459D01*
X194350Y393427D01*
X194393Y393347D01*
X194429Y393263D01*
X194455Y393231D01*
X194466Y393210D01*
X194489Y393188D01*
X194534Y393132D01*
X201688Y385978D01*
X201762Y385925D01*
X201831Y385865D01*
X201861Y385853D01*
X201887Y385834D01*
X201975Y385807D01*
X202059Y385773D01*
X202100Y385769D01*
X202123Y385762D01*
X202155Y385763D01*
X202226Y385755D01*
X206672Y385755D01*
X206904Y385659D01*
X207017Y385632D01*
X207131Y385604D01*
X207137Y385604D01*
X207143Y385603D01*
X207260Y385614D01*
X207376Y385623D01*
X207382Y385625D01*
X207388Y385626D01*
X207496Y385674D01*
X207602Y385719D01*
X207608Y385724D01*
X207613Y385726D01*
X207627Y385738D01*
X207733Y385824D01*
X260077Y438168D01*
X263400Y441490D01*
X267601Y443231D01*
X298863Y443231D01*
X298978Y443250D01*
X299094Y443267D01*
X299100Y443269D01*
X299106Y443270D01*
X299208Y443325D01*
X299313Y443378D01*
X299318Y443383D01*
X299323Y443386D01*
X299403Y443470D01*
X299485Y443554D01*
X299489Y443560D01*
X299493Y443564D01*
X299500Y443581D01*
X299566Y443701D01*
X300705Y446451D01*
X302849Y448595D01*
X305650Y449755D01*
X329350Y449755D01*
X332151Y448595D01*
X333073Y447672D01*
X333167Y447605D01*
X333262Y447534D01*
X333268Y447532D01*
X333273Y447529D01*
X333384Y447495D01*
X333496Y447458D01*
X333502Y447458D01*
X333508Y447456D01*
X333625Y447459D01*
X333742Y447461D01*
X333749Y447463D01*
X333754Y447463D01*
X333771Y447469D01*
X333903Y447507D01*
X339329Y449755D01*
X346471Y449755D01*
X353071Y447021D01*
X355062Y445030D01*
X355078Y445019D01*
X355090Y445003D01*
X355177Y444947D01*
X355261Y444887D01*
X355281Y444881D01*
X355297Y444870D01*
X355397Y444845D01*
X355497Y444814D01*
X355516Y444815D01*
X355536Y444810D01*
X355639Y444818D01*
X355742Y444821D01*
X355761Y444827D01*
X355781Y444829D01*
X355876Y444869D01*
X355973Y444905D01*
X355989Y444917D01*
X356007Y444925D01*
X356138Y445030D01*
X356646Y445538D01*
X356700Y445612D01*
X356759Y445682D01*
X356771Y445712D01*
X356790Y445738D01*
X356817Y445825D01*
X356851Y445910D01*
X356855Y445951D01*
X356862Y445973D01*
X356861Y446005D01*
X356869Y446076D01*
X356869Y547400D01*
X356855Y547490D01*
X356847Y547581D01*
X356835Y547611D01*
X356830Y547643D01*
X356787Y547723D01*
X356751Y547807D01*
X356725Y547839D01*
X356714Y547860D01*
X356691Y547882D01*
X356646Y547938D01*
X345910Y558675D01*
X345542Y559562D01*
X345533Y559577D01*
X345528Y559594D01*
X345468Y559681D01*
X345413Y559771D01*
X345399Y559782D01*
X345389Y559797D01*
X345304Y559860D01*
X345223Y559927D01*
X345207Y559934D01*
X345192Y559945D01*
X345036Y560006D01*
X342104Y560791D01*
X339809Y562116D01*
X339768Y562132D01*
X339731Y562156D01*
X339653Y562175D01*
X339578Y562203D01*
X339535Y562205D01*
X339492Y562216D01*
X339413Y562209D01*
X339333Y562212D01*
X339291Y562200D01*
X339247Y562197D01*
X339173Y562165D01*
X339097Y562143D01*
X339061Y562117D01*
X339021Y562100D01*
X338907Y562009D01*
X338895Y562001D01*
X338893Y561998D01*
X338890Y561995D01*
X336031Y559137D01*
X328889Y555014D01*
X320923Y552879D01*
X312677Y552879D01*
X304711Y555014D01*
X297569Y559137D01*
X291737Y564969D01*
X287614Y572111D01*
X285479Y580077D01*
X285479Y588323D01*
X287614Y596289D01*
X290182Y600737D01*
X290215Y600826D01*
X290256Y600913D01*
X290259Y600941D01*
X290269Y600967D01*
X290272Y601063D01*
X290283Y601157D01*
X290277Y601185D01*
X290278Y601213D01*
X290251Y601305D01*
X290231Y601398D01*
X290216Y601422D01*
X290208Y601449D01*
X290153Y601527D01*
X290104Y601609D01*
X290083Y601627D01*
X290067Y601650D01*
X289990Y601707D01*
X289917Y601769D01*
X289891Y601779D01*
X289868Y601796D01*
X289778Y601825D01*
X289689Y601861D01*
X289654Y601865D01*
X289634Y601871D01*
X289601Y601871D01*
X289523Y601879D01*
X234050Y601879D01*
X233954Y601864D01*
X233857Y601854D01*
X233833Y601844D01*
X233808Y601840D01*
X233722Y601794D01*
X233633Y601754D01*
X233613Y601737D01*
X233590Y601724D01*
X233523Y601654D01*
X233451Y601588D01*
X233439Y601565D01*
X233421Y601546D01*
X233380Y601458D01*
X233333Y601372D01*
X233328Y601347D01*
X233317Y601323D01*
X233307Y601226D01*
X233289Y601130D01*
X233293Y601104D01*
X233290Y601079D01*
X233311Y600983D01*
X233325Y600887D01*
X233337Y600864D01*
X233342Y600838D01*
X233392Y600755D01*
X233436Y600668D01*
X233455Y600649D01*
X233469Y600627D01*
X233542Y600564D01*
X233612Y600496D01*
X233641Y600480D01*
X233655Y600467D01*
X233686Y600455D01*
X233759Y600415D01*
X238204Y598574D01*
X242974Y593804D01*
X245555Y587573D01*
X245555Y580827D01*
X242974Y574596D01*
X240416Y572038D01*
X240404Y572022D01*
X240389Y572010D01*
X240333Y571922D01*
X240272Y571839D01*
X240267Y571820D01*
X240256Y571803D01*
X240230Y571702D01*
X240200Y571603D01*
X240201Y571584D01*
X240196Y571564D01*
X240204Y571461D01*
X240206Y571358D01*
X240213Y571339D01*
X240215Y571319D01*
X240255Y571224D01*
X240291Y571127D01*
X240303Y571111D01*
X240311Y571093D01*
X240416Y570962D01*
X242974Y568404D01*
X245555Y562173D01*
X245555Y555427D01*
X242974Y549196D01*
X238204Y544426D01*
X231973Y541845D01*
X225227Y541845D01*
X218996Y544426D01*
X214226Y549196D01*
X211645Y555427D01*
X211645Y562173D01*
X214226Y568404D01*
X216784Y570962D01*
X216796Y570978D01*
X216811Y570990D01*
X216867Y571078D01*
X216928Y571161D01*
X216933Y571180D01*
X216944Y571197D01*
X216970Y571298D01*
X217000Y571397D01*
X216999Y571416D01*
X217004Y571436D01*
X216996Y571539D01*
X216994Y571642D01*
X216987Y571661D01*
X216985Y571681D01*
X216945Y571776D01*
X216909Y571873D01*
X216897Y571889D01*
X216889Y571907D01*
X216784Y572038D01*
X214226Y574596D01*
X211645Y580827D01*
X211645Y587573D01*
X214226Y593804D01*
X218996Y598574D01*
X223441Y600415D01*
X223524Y600466D01*
X223610Y600512D01*
X223628Y600531D01*
X223650Y600544D01*
X223712Y600619D01*
X223779Y600690D01*
X223790Y600714D01*
X223807Y600734D01*
X223842Y600825D01*
X223883Y600913D01*
X223886Y600939D01*
X223895Y600963D01*
X223899Y601061D01*
X223910Y601157D01*
X223904Y601183D01*
X223905Y601209D01*
X223878Y601303D01*
X223858Y601398D01*
X223844Y601420D01*
X223837Y601445D01*
X223781Y601525D01*
X223731Y601609D01*
X223712Y601626D01*
X223697Y601647D01*
X223618Y601706D01*
X223545Y601769D01*
X223520Y601779D01*
X223499Y601794D01*
X223407Y601824D01*
X223316Y601861D01*
X223284Y601864D01*
X223265Y601870D01*
X223232Y601870D01*
X223150Y601879D01*
X81650Y601879D01*
X81554Y601864D01*
X81457Y601854D01*
X81433Y601844D01*
X81408Y601840D01*
X81322Y601794D01*
X81233Y601754D01*
X81213Y601737D01*
X81190Y601724D01*
X81123Y601654D01*
X81051Y601588D01*
X81039Y601565D01*
X81021Y601546D01*
X80980Y601458D01*
X80933Y601372D01*
X80928Y601347D01*
X80917Y601323D01*
X80906Y601226D01*
X80889Y601130D01*
X80893Y601104D01*
X80890Y601079D01*
X80911Y600983D01*
X80925Y600887D01*
X80937Y600864D01*
X80942Y600838D01*
X80992Y600755D01*
X81036Y600668D01*
X81055Y600649D01*
X81069Y600627D01*
X81142Y600564D01*
X81212Y600496D01*
X81241Y600480D01*
X81255Y600467D01*
X81286Y600455D01*
X81359Y600415D01*
X85804Y598574D01*
X90574Y593804D01*
X93155Y587573D01*
X93155Y580827D01*
X90574Y574596D01*
X88016Y572038D01*
X88004Y572022D01*
X87989Y572010D01*
X87933Y571922D01*
X87872Y571839D01*
X87867Y571820D01*
X87856Y571803D01*
X87830Y571702D01*
X87800Y571603D01*
X87801Y571584D01*
X87796Y571564D01*
X87804Y571461D01*
X87806Y571358D01*
X87813Y571339D01*
X87815Y571319D01*
X87855Y571224D01*
X87891Y571127D01*
X87903Y571111D01*
X87911Y571093D01*
X88016Y570962D01*
X90574Y568404D01*
X93155Y562173D01*
X93155Y555427D01*
X90574Y549196D01*
X85804Y544426D01*
X79573Y541845D01*
X72827Y541845D01*
X66596Y544426D01*
X61826Y549196D01*
X59245Y555427D01*
X59245Y562173D01*
X61826Y568404D01*
X64384Y570962D01*
X64396Y570978D01*
X64411Y570990D01*
X64467Y571078D01*
X64528Y571161D01*
X64533Y571180D01*
X64544Y571197D01*
X64570Y571298D01*
X64600Y571397D01*
X64599Y571416D01*
X64604Y571436D01*
X64596Y571539D01*
X64594Y571642D01*
X64587Y571661D01*
X64585Y571681D01*
X64545Y571776D01*
X64509Y571873D01*
X64497Y571889D01*
X64489Y571907D01*
X64384Y572038D01*
X61826Y574596D01*
X59245Y580827D01*
X59245Y587573D01*
X61826Y593804D01*
X66596Y598574D01*
X71041Y600415D01*
X71124Y600466D01*
X71210Y600512D01*
X71228Y600531D01*
X71250Y600544D01*
X71312Y600619D01*
X71379Y600690D01*
X71390Y600714D01*
X71407Y600734D01*
X71442Y600825D01*
X71483Y600913D01*
X71486Y600939D01*
X71495Y600963D01*
X71499Y601061D01*
X71510Y601157D01*
X71504Y601183D01*
X71505Y601209D01*
X71478Y601303D01*
X71458Y601398D01*
X71444Y601420D01*
X71437Y601445D01*
X71381Y601525D01*
X71331Y601609D01*
X71312Y601626D01*
X71297Y601647D01*
X71219Y601706D01*
X71145Y601769D01*
X71120Y601779D01*
X71099Y601794D01*
X71007Y601824D01*
X70916Y601861D01*
X70884Y601864D01*
X70865Y601870D01*
X70832Y601870D01*
X70750Y601879D01*
X58982Y601879D01*
X58962Y601876D01*
X58943Y601878D01*
X58841Y601856D01*
X58739Y601840D01*
X58722Y601830D01*
X58702Y601826D01*
X58613Y601773D01*
X58522Y601724D01*
X58508Y601710D01*
X58491Y601700D01*
X58424Y601621D01*
X58352Y601546D01*
X58344Y601528D01*
X58331Y601513D01*
X58292Y601417D01*
X58249Y601323D01*
X58247Y601303D01*
X58239Y601285D01*
X58221Y601118D01*
X58221Y592579D01*
X55984Y584232D01*
X51663Y576748D01*
X45552Y570637D01*
X38068Y566316D01*
X29721Y564079D01*
X21082Y564079D01*
X21062Y564076D01*
X21043Y564078D01*
X20941Y564056D01*
X20839Y564040D01*
X20822Y564030D01*
X20802Y564026D01*
X20713Y563973D01*
X20622Y563924D01*
X20608Y563910D01*
X20591Y563900D01*
X20524Y563821D01*
X20452Y563746D01*
X20444Y563728D01*
X20431Y563713D01*
X20392Y563617D01*
X20349Y563523D01*
X20347Y563503D01*
X20339Y563485D01*
X20321Y563318D01*
X20321Y58982D01*
X20324Y58962D01*
X20322Y58943D01*
X20344Y58841D01*
X20360Y58739D01*
X20370Y58722D01*
X20374Y58702D01*
X20427Y58613D01*
X20476Y58522D01*
X20490Y58508D01*
X20500Y58491D01*
X20579Y58424D01*
X20654Y58352D01*
X20672Y58344D01*
X20687Y58331D01*
X20783Y58292D01*
X20877Y58249D01*
X20897Y58247D01*
X20915Y58239D01*
X21082Y58221D01*
X29721Y58221D01*
X38068Y55984D01*
X45552Y51663D01*
X51663Y45552D01*
X55984Y38068D01*
X58221Y29721D01*
X58221Y21082D01*
X58224Y21062D01*
X58222Y21043D01*
X58244Y20941D01*
X58260Y20839D01*
X58270Y20822D01*
X58274Y20802D01*
X58327Y20713D01*
X58376Y20622D01*
X58390Y20608D01*
X58400Y20591D01*
X58479Y20524D01*
X58554Y20452D01*
X58572Y20444D01*
X58587Y20431D01*
X58683Y20392D01*
X58777Y20349D01*
X58797Y20347D01*
X58815Y20339D01*
X58982Y20321D01*
X830018Y20321D01*
X830038Y20324D01*
G37*
G36*
X450697Y270522D02*
X450697Y270522D01*
X450768Y270524D01*
X450817Y270542D01*
X450869Y270550D01*
X450932Y270584D01*
X450999Y270609D01*
X451040Y270641D01*
X451086Y270666D01*
X451135Y270718D01*
X451191Y270762D01*
X451220Y270806D01*
X451255Y270844D01*
X451286Y270909D01*
X451324Y270969D01*
X451337Y271020D01*
X451359Y271067D01*
X451367Y271138D01*
X451385Y271208D01*
X451380Y271260D01*
X451386Y271311D01*
X451371Y271382D01*
X451365Y271453D01*
X451345Y271501D01*
X451334Y271552D01*
X451297Y271613D01*
X451269Y271679D01*
X451224Y271735D01*
X451208Y271763D01*
X451190Y271778D01*
X451164Y271810D01*
X448052Y274922D01*
X447978Y274975D01*
X447909Y275035D01*
X447879Y275047D01*
X447852Y275066D01*
X447765Y275093D01*
X447681Y275127D01*
X447640Y275131D01*
X447617Y275138D01*
X447585Y275137D01*
X447514Y275145D01*
X437477Y275145D01*
X427545Y285077D01*
X427545Y299123D01*
X432684Y304262D01*
X432696Y304278D01*
X432711Y304290D01*
X432767Y304378D01*
X432828Y304461D01*
X432833Y304480D01*
X432844Y304497D01*
X432870Y304598D01*
X432900Y304697D01*
X432899Y304716D01*
X432904Y304736D01*
X432896Y304839D01*
X432894Y304942D01*
X432887Y304961D01*
X432885Y304981D01*
X432845Y305076D01*
X432809Y305173D01*
X432797Y305189D01*
X432789Y305207D01*
X432684Y305338D01*
X427545Y310477D01*
X427545Y324523D01*
X437477Y334455D01*
X447514Y334455D01*
X447604Y334469D01*
X447695Y334477D01*
X447725Y334489D01*
X447757Y334494D01*
X447837Y334537D01*
X447921Y334573D01*
X447953Y334599D01*
X447974Y334610D01*
X447996Y334633D01*
X448052Y334678D01*
X460786Y347412D01*
X460839Y347486D01*
X460899Y347555D01*
X460911Y347585D01*
X460930Y347612D01*
X460957Y347698D01*
X460991Y347783D01*
X460995Y347824D01*
X461002Y347847D01*
X461001Y347879D01*
X461009Y347950D01*
X461009Y421374D01*
X462750Y425575D01*
X493122Y455948D01*
X493123Y455948D01*
X496445Y459270D01*
X500646Y461011D01*
X502098Y461011D01*
X502162Y461021D01*
X502228Y461022D01*
X502308Y461045D01*
X502340Y461050D01*
X502358Y461060D01*
X502389Y461069D01*
X504528Y461955D01*
X511472Y461955D01*
X517887Y459297D01*
X521881Y455303D01*
X521897Y455292D01*
X521910Y455276D01*
X521997Y455220D01*
X522081Y455160D01*
X522100Y455154D01*
X522117Y455143D01*
X522217Y455118D01*
X522316Y455087D01*
X522336Y455088D01*
X522355Y455083D01*
X522458Y455091D01*
X522562Y455094D01*
X522581Y455101D01*
X522601Y455102D01*
X522695Y455143D01*
X522793Y455178D01*
X522809Y455191D01*
X522827Y455199D01*
X522958Y455303D01*
X572645Y504990D01*
X576846Y506731D01*
X619494Y506731D01*
X623695Y504990D01*
X657390Y471295D01*
X659131Y467094D01*
X659131Y447010D01*
X659145Y446920D01*
X659153Y446829D01*
X659165Y446799D01*
X659170Y446767D01*
X659213Y446687D01*
X659249Y446603D01*
X659275Y446571D01*
X659286Y446550D01*
X659309Y446528D01*
X659354Y446472D01*
X728412Y377414D01*
X728486Y377361D01*
X728555Y377301D01*
X728585Y377289D01*
X728612Y377270D01*
X728698Y377243D01*
X728783Y377209D01*
X728824Y377205D01*
X728847Y377198D01*
X728879Y377199D01*
X728950Y377191D01*
X732953Y377191D01*
X733068Y377210D01*
X733184Y377227D01*
X733190Y377229D01*
X733196Y377230D01*
X733299Y377285D01*
X733404Y377338D01*
X733408Y377343D01*
X733413Y377346D01*
X733493Y377430D01*
X733576Y377514D01*
X733579Y377520D01*
X733583Y377524D01*
X733591Y377541D01*
X733657Y377661D01*
X734011Y378516D01*
X735957Y380462D01*
X735968Y380478D01*
X735984Y380490D01*
X736040Y380578D01*
X736100Y380661D01*
X736106Y380680D01*
X736117Y380697D01*
X736142Y380798D01*
X736173Y380897D01*
X736172Y380916D01*
X736177Y380936D01*
X736169Y381039D01*
X736166Y381142D01*
X736159Y381161D01*
X736158Y381181D01*
X736118Y381276D01*
X736082Y381373D01*
X736069Y381389D01*
X736062Y381407D01*
X735957Y381538D01*
X734011Y383484D01*
X731265Y390113D01*
X731265Y397287D01*
X734011Y403916D01*
X739084Y408989D01*
X741990Y410193D01*
X742029Y410217D01*
X742072Y410233D01*
X742133Y410281D01*
X742199Y410322D01*
X742228Y410358D01*
X742264Y410386D01*
X742306Y410452D01*
X742356Y410512D01*
X742372Y410555D01*
X742397Y410593D01*
X742416Y410669D01*
X742444Y410741D01*
X742446Y410787D01*
X742457Y410832D01*
X742451Y410909D01*
X742455Y410987D01*
X742442Y411031D01*
X742438Y411077D01*
X742408Y411149D01*
X742386Y411223D01*
X742360Y411261D01*
X742342Y411303D01*
X742256Y411410D01*
X742246Y411425D01*
X742242Y411428D01*
X742237Y411434D01*
X741356Y412315D01*
X740393Y413641D01*
X739648Y415102D01*
X739142Y416661D01*
X738997Y417577D01*
X748538Y417577D01*
X748558Y417580D01*
X748577Y417578D01*
X748679Y417600D01*
X748781Y417617D01*
X748798Y417626D01*
X748818Y417630D01*
X748907Y417683D01*
X748998Y417732D01*
X749012Y417746D01*
X749029Y417756D01*
X749096Y417835D01*
X749167Y417910D01*
X749176Y417928D01*
X749189Y417943D01*
X749227Y418039D01*
X749271Y418133D01*
X749273Y418153D01*
X749281Y418171D01*
X749299Y418338D01*
X749299Y419862D01*
X749296Y419882D01*
X749298Y419901D01*
X749276Y420003D01*
X749259Y420105D01*
X749250Y420122D01*
X749246Y420142D01*
X749193Y420231D01*
X749144Y420322D01*
X749130Y420336D01*
X749120Y420353D01*
X749041Y420420D01*
X748966Y420491D01*
X748948Y420500D01*
X748933Y420513D01*
X748837Y420552D01*
X748743Y420595D01*
X748723Y420597D01*
X748705Y420605D01*
X748538Y420623D01*
X738997Y420623D01*
X739142Y421539D01*
X739648Y423098D01*
X740393Y424559D01*
X741356Y425885D01*
X742237Y426766D01*
X742264Y426803D01*
X742298Y426834D01*
X742335Y426902D01*
X742381Y426965D01*
X742394Y427009D01*
X742416Y427049D01*
X742430Y427126D01*
X742453Y427200D01*
X742452Y427246D01*
X742460Y427292D01*
X742449Y427369D01*
X742447Y427446D01*
X742431Y427490D01*
X742424Y427535D01*
X742389Y427604D01*
X742362Y427677D01*
X742333Y427713D01*
X742313Y427754D01*
X742257Y427809D01*
X742208Y427869D01*
X742170Y427894D01*
X742137Y427926D01*
X742017Y427992D01*
X742001Y428002D01*
X741997Y428004D01*
X741990Y428007D01*
X739084Y429211D01*
X734011Y434284D01*
X731265Y440913D01*
X731265Y448087D01*
X731497Y448648D01*
X731506Y448685D01*
X731513Y448699D01*
X731516Y448727D01*
X731524Y448762D01*
X731553Y448875D01*
X731552Y448881D01*
X731554Y448887D01*
X731543Y449004D01*
X731533Y449120D01*
X731531Y449126D01*
X731530Y449132D01*
X731482Y449240D01*
X731437Y449346D01*
X731433Y449352D01*
X731430Y449357D01*
X731418Y449371D01*
X731332Y449477D01*
X671763Y509046D01*
X671689Y509099D01*
X671620Y509159D01*
X671590Y509171D01*
X671563Y509190D01*
X671477Y509217D01*
X671392Y509251D01*
X671351Y509255D01*
X671328Y509262D01*
X671296Y509261D01*
X671225Y509269D01*
X569577Y509269D01*
X569462Y509250D01*
X569346Y509233D01*
X569340Y509231D01*
X569334Y509230D01*
X569231Y509175D01*
X569126Y509122D01*
X569122Y509117D01*
X569117Y509114D01*
X569037Y509030D01*
X568954Y508946D01*
X568951Y508940D01*
X568947Y508936D01*
X568939Y508919D01*
X568873Y508799D01*
X568490Y507875D01*
X551658Y491042D01*
X551605Y490968D01*
X551545Y490899D01*
X551533Y490869D01*
X551514Y490842D01*
X551487Y490756D01*
X551453Y490671D01*
X551449Y490630D01*
X551442Y490607D01*
X551443Y490575D01*
X551435Y490504D01*
X551435Y490443D01*
X548689Y483814D01*
X543616Y478741D01*
X536987Y475995D01*
X529813Y475995D01*
X523184Y478741D01*
X521454Y480471D01*
X521380Y480524D01*
X521310Y480584D01*
X521280Y480596D01*
X521254Y480615D01*
X521167Y480642D01*
X521082Y480676D01*
X521041Y480680D01*
X521019Y480687D01*
X520987Y480686D01*
X520915Y480694D01*
X380492Y480694D01*
X380472Y480691D01*
X380453Y480693D01*
X380351Y480671D01*
X380249Y480655D01*
X380232Y480645D01*
X380212Y480641D01*
X380123Y480588D01*
X380032Y480539D01*
X380018Y480525D01*
X380001Y480515D01*
X379934Y480436D01*
X379862Y480361D01*
X379854Y480343D01*
X379841Y480328D01*
X379802Y480232D01*
X379759Y480138D01*
X379757Y480118D01*
X379749Y480100D01*
X379731Y479933D01*
X379731Y446076D01*
X379745Y445986D01*
X379753Y445895D01*
X379765Y445866D01*
X379770Y445834D01*
X379813Y445753D01*
X379849Y445669D01*
X379875Y445637D01*
X379886Y445616D01*
X379909Y445594D01*
X379954Y445538D01*
X383521Y441971D01*
X386255Y435371D01*
X386255Y428229D01*
X383521Y421629D01*
X378471Y416579D01*
X371871Y413845D01*
X364729Y413845D01*
X358129Y416579D01*
X356138Y418570D01*
X356122Y418581D01*
X356110Y418597D01*
X356022Y418653D01*
X355939Y418713D01*
X355920Y418719D01*
X355903Y418730D01*
X355802Y418755D01*
X355703Y418786D01*
X355684Y418785D01*
X355664Y418790D01*
X355561Y418782D01*
X355458Y418779D01*
X355439Y418773D01*
X355419Y418771D01*
X355324Y418731D01*
X355227Y418695D01*
X355211Y418682D01*
X355193Y418675D01*
X355062Y418570D01*
X354554Y418062D01*
X354501Y417988D01*
X354441Y417918D01*
X354429Y417888D01*
X354410Y417862D01*
X354383Y417775D01*
X354349Y417690D01*
X354345Y417649D01*
X354338Y417627D01*
X354339Y417595D01*
X354331Y417524D01*
X354331Y397776D01*
X352590Y393575D01*
X349375Y390360D01*
X345174Y388619D01*
X322550Y388619D01*
X322460Y388605D01*
X322369Y388597D01*
X322339Y388585D01*
X322307Y388580D01*
X322227Y388537D01*
X322143Y388501D01*
X322111Y388475D01*
X322090Y388464D01*
X322068Y388441D01*
X322012Y388396D01*
X306929Y373313D01*
X306886Y373254D01*
X306842Y373208D01*
X306834Y373191D01*
X306816Y373170D01*
X306804Y373140D01*
X306785Y373113D01*
X306759Y373029D01*
X306738Y372984D01*
X306737Y372974D01*
X306724Y372942D01*
X306720Y372901D01*
X306713Y372878D01*
X306714Y372846D01*
X306706Y372775D01*
X306706Y369955D01*
X306720Y369865D01*
X306728Y369774D01*
X306740Y369744D01*
X306745Y369712D01*
X306788Y369632D01*
X306824Y369548D01*
X306850Y369515D01*
X306861Y369495D01*
X306884Y369473D01*
X306929Y369417D01*
X307595Y368751D01*
X308755Y365950D01*
X308755Y361223D01*
X308758Y361200D01*
X308756Y361177D01*
X308778Y361079D01*
X308794Y360980D01*
X308805Y360960D01*
X308810Y360937D01*
X308863Y360851D01*
X308910Y360763D01*
X308926Y360747D01*
X308938Y360727D01*
X309015Y360662D01*
X309088Y360593D01*
X309109Y360583D01*
X309126Y360569D01*
X309220Y360532D01*
X309311Y360490D01*
X309334Y360487D01*
X309355Y360479D01*
X309456Y360474D01*
X309555Y360462D01*
X309578Y360467D01*
X309601Y360466D01*
X309698Y360493D01*
X309796Y360515D01*
X309816Y360527D01*
X309838Y360533D01*
X309921Y360589D01*
X310007Y360641D01*
X310022Y360658D01*
X310041Y360671D01*
X310149Y360800D01*
X310438Y361232D01*
X311668Y362462D01*
X313115Y363429D01*
X314723Y364095D01*
X315777Y364305D01*
X315777Y356362D01*
X315780Y356342D01*
X315778Y356323D01*
X315800Y356221D01*
X315817Y356119D01*
X315826Y356102D01*
X315830Y356082D01*
X315883Y355993D01*
X315932Y355902D01*
X315946Y355888D01*
X315956Y355871D01*
X316035Y355804D01*
X316110Y355733D01*
X316128Y355724D01*
X316143Y355711D01*
X316239Y355673D01*
X316333Y355629D01*
X316353Y355627D01*
X316371Y355619D01*
X316538Y355601D01*
X317301Y355601D01*
X317301Y355599D01*
X316538Y355599D01*
X316518Y355596D01*
X316499Y355598D01*
X316397Y355576D01*
X316295Y355559D01*
X316278Y355550D01*
X316258Y355546D01*
X316169Y355493D01*
X316078Y355444D01*
X316064Y355430D01*
X316047Y355420D01*
X315980Y355341D01*
X315909Y355266D01*
X315900Y355248D01*
X315887Y355233D01*
X315848Y355137D01*
X315805Y355043D01*
X315803Y355023D01*
X315795Y355005D01*
X315777Y354838D01*
X315777Y346895D01*
X314723Y347105D01*
X313115Y347771D01*
X311668Y348738D01*
X310438Y349968D01*
X310149Y350400D01*
X310133Y350417D01*
X310122Y350437D01*
X310050Y350507D01*
X309981Y350580D01*
X309961Y350591D01*
X309944Y350607D01*
X309853Y350649D01*
X309765Y350697D01*
X309742Y350701D01*
X309721Y350710D01*
X309621Y350721D01*
X309522Y350739D01*
X309499Y350735D01*
X309477Y350738D01*
X309378Y350716D01*
X309279Y350701D01*
X309259Y350690D01*
X309236Y350685D01*
X309150Y350634D01*
X309061Y350587D01*
X309045Y350571D01*
X309025Y350559D01*
X308960Y350483D01*
X308890Y350411D01*
X308880Y350390D01*
X308865Y350372D01*
X308828Y350279D01*
X308785Y350188D01*
X308782Y350165D01*
X308773Y350144D01*
X308755Y349977D01*
X308755Y345250D01*
X307595Y342449D01*
X305451Y340305D01*
X302650Y339145D01*
X281950Y339145D01*
X279149Y340305D01*
X277005Y342449D01*
X276488Y343699D01*
X276426Y343799D01*
X276366Y343899D01*
X276361Y343903D01*
X276358Y343908D01*
X276267Y343983D01*
X276179Y344059D01*
X276173Y344061D01*
X276169Y344065D01*
X276060Y344107D01*
X275951Y344151D01*
X275944Y344152D01*
X275939Y344153D01*
X275921Y344154D01*
X275784Y344169D01*
X240000Y344169D01*
X239910Y344155D01*
X239819Y344147D01*
X239789Y344135D01*
X239757Y344130D01*
X239677Y344087D01*
X239593Y344051D01*
X239561Y344025D01*
X239540Y344014D01*
X239518Y343991D01*
X239462Y343946D01*
X225550Y330035D01*
X221349Y328294D01*
X218761Y328294D01*
X218716Y328287D01*
X218670Y328289D01*
X218595Y328267D01*
X218518Y328255D01*
X218478Y328233D01*
X218434Y328220D01*
X218370Y328176D01*
X218301Y328139D01*
X218269Y328106D01*
X218232Y328080D01*
X218185Y328017D01*
X218132Y327961D01*
X218112Y327919D01*
X218085Y327883D01*
X218061Y327809D01*
X218028Y327738D01*
X218023Y327692D01*
X218009Y327649D01*
X218009Y327571D01*
X218001Y327494D01*
X218011Y327449D01*
X218011Y327403D01*
X218049Y327271D01*
X218053Y327253D01*
X218056Y327249D01*
X218058Y327242D01*
X220655Y320972D01*
X220655Y313986D01*
X220669Y313896D01*
X220677Y313805D01*
X220689Y313775D01*
X220694Y313743D01*
X220737Y313663D01*
X220773Y313579D01*
X220799Y313547D01*
X220810Y313526D01*
X220833Y313504D01*
X220878Y313448D01*
X263592Y270734D01*
X263666Y270681D01*
X263735Y270621D01*
X263765Y270609D01*
X263792Y270590D01*
X263878Y270563D01*
X263963Y270529D01*
X264004Y270525D01*
X264027Y270518D01*
X264059Y270519D01*
X264130Y270511D01*
X450626Y270511D01*
X450697Y270522D01*
G37*
%LPC*%
G36*
X557783Y319023D02*
X557783Y319023D01*
X557783Y338217D01*
X558699Y338072D01*
X560258Y337566D01*
X561719Y336821D01*
X563045Y335858D01*
X564204Y334699D01*
X565167Y333373D01*
X565912Y331912D01*
X566418Y330353D01*
X566675Y328734D01*
X566675Y319023D01*
X557783Y319023D01*
G37*
%LPD*%
%LPC*%
G36*
X557783Y315977D02*
X557783Y315977D01*
X566675Y315977D01*
X566675Y306266D01*
X566418Y304647D01*
X565912Y303088D01*
X565167Y301627D01*
X564204Y300301D01*
X563045Y299142D01*
X561719Y298179D01*
X560258Y297434D01*
X558699Y296928D01*
X557783Y296783D01*
X557783Y315977D01*
G37*
%LPD*%
%LPC*%
G36*
X560323Y585723D02*
X560323Y585723D01*
X560323Y594503D01*
X561239Y594358D01*
X562798Y593852D01*
X564259Y593107D01*
X565585Y592144D01*
X566744Y590985D01*
X567707Y589659D01*
X568452Y588198D01*
X568958Y586639D01*
X569103Y585723D01*
X560323Y585723D01*
G37*
%LPD*%
%LPC*%
G36*
X534923Y523493D02*
X534923Y523493D01*
X534923Y532273D01*
X535839Y532128D01*
X537398Y531622D01*
X538859Y530877D01*
X540185Y529914D01*
X541344Y528755D01*
X542307Y527429D01*
X543052Y525968D01*
X543558Y524409D01*
X543703Y523493D01*
X534923Y523493D01*
G37*
%LPD*%
%LPC*%
G36*
X560323Y582677D02*
X560323Y582677D01*
X569103Y582677D01*
X568958Y581761D01*
X568452Y580202D01*
X567707Y578741D01*
X566744Y577415D01*
X565585Y576256D01*
X564259Y575293D01*
X562798Y574548D01*
X561239Y574042D01*
X560323Y573897D01*
X560323Y582677D01*
G37*
%LPD*%
%LPC*%
G36*
X523097Y523493D02*
X523097Y523493D01*
X523242Y524409D01*
X523748Y525968D01*
X524493Y527429D01*
X525456Y528755D01*
X526615Y529914D01*
X527941Y530877D01*
X529402Y531622D01*
X530961Y532128D01*
X531877Y532273D01*
X531877Y523493D01*
X523097Y523493D01*
G37*
%LPD*%
%LPC*%
G36*
X814323Y420623D02*
X814323Y420623D01*
X814323Y428816D01*
X815103Y428693D01*
X816575Y428214D01*
X817954Y427511D01*
X819207Y426601D01*
X820301Y425507D01*
X821211Y424254D01*
X821914Y422875D01*
X822393Y421403D01*
X822516Y420623D01*
X814323Y420623D01*
G37*
%LPD*%
%LPC*%
G36*
X128523Y369823D02*
X128523Y369823D01*
X128523Y378016D01*
X129303Y377893D01*
X130775Y377414D01*
X132154Y376711D01*
X133407Y375801D01*
X134501Y374707D01*
X135411Y373454D01*
X136114Y372075D01*
X136593Y370603D01*
X136716Y369823D01*
X128523Y369823D01*
G37*
%LPD*%
%LPC*%
G36*
X128523Y319023D02*
X128523Y319023D01*
X128523Y327216D01*
X129303Y327093D01*
X130775Y326614D01*
X132154Y325911D01*
X133407Y325001D01*
X134501Y323907D01*
X135411Y322654D01*
X136114Y321275D01*
X136593Y319803D01*
X136716Y319023D01*
X128523Y319023D01*
G37*
%LPD*%
%LPC*%
G36*
X128123Y77723D02*
X128123Y77723D01*
X128123Y85916D01*
X128903Y85793D01*
X130375Y85314D01*
X131754Y84611D01*
X133007Y83701D01*
X134101Y82607D01*
X135011Y81354D01*
X135714Y79975D01*
X136193Y78503D01*
X136316Y77723D01*
X128123Y77723D01*
G37*
%LPD*%
%LPC*%
G36*
X803084Y420623D02*
X803084Y420623D01*
X803207Y421403D01*
X803686Y422875D01*
X804389Y424254D01*
X805299Y425507D01*
X806393Y426601D01*
X807646Y427511D01*
X809025Y428214D01*
X810497Y428693D01*
X811277Y428816D01*
X811277Y420623D01*
X803084Y420623D01*
G37*
%LPD*%
%LPC*%
G36*
X814323Y417577D02*
X814323Y417577D01*
X822516Y417577D01*
X822393Y416797D01*
X821914Y415325D01*
X821211Y413946D01*
X820301Y412693D01*
X819207Y411599D01*
X817954Y410689D01*
X816575Y409986D01*
X815103Y409507D01*
X814323Y409384D01*
X814323Y417577D01*
G37*
%LPD*%
%LPC*%
G36*
X117284Y369823D02*
X117284Y369823D01*
X117407Y370603D01*
X117886Y372075D01*
X118589Y373454D01*
X119499Y374707D01*
X120593Y375801D01*
X121846Y376711D01*
X123225Y377414D01*
X124697Y377893D01*
X125477Y378016D01*
X125477Y369823D01*
X117284Y369823D01*
G37*
%LPD*%
%LPC*%
G36*
X128523Y366777D02*
X128523Y366777D01*
X136716Y366777D01*
X136593Y365997D01*
X136114Y364525D01*
X135411Y363146D01*
X134501Y361893D01*
X133407Y360799D01*
X132154Y359889D01*
X130775Y359186D01*
X129303Y358707D01*
X128523Y358584D01*
X128523Y366777D01*
G37*
%LPD*%
%LPC*%
G36*
X117284Y319023D02*
X117284Y319023D01*
X117407Y319803D01*
X117886Y321275D01*
X118589Y322654D01*
X119499Y323907D01*
X120593Y325001D01*
X121846Y325911D01*
X123225Y326614D01*
X124697Y327093D01*
X125477Y327216D01*
X125477Y319023D01*
X117284Y319023D01*
G37*
%LPD*%
%LPC*%
G36*
X128523Y315977D02*
X128523Y315977D01*
X136716Y315977D01*
X136593Y315197D01*
X136114Y313725D01*
X135411Y312346D01*
X134501Y311093D01*
X133407Y309999D01*
X132154Y309089D01*
X130775Y308386D01*
X129303Y307907D01*
X128523Y307784D01*
X128523Y315977D01*
G37*
%LPD*%
%LPC*%
G36*
X116884Y77723D02*
X116884Y77723D01*
X117007Y78503D01*
X117486Y79975D01*
X118189Y81354D01*
X119099Y82607D01*
X120193Y83701D01*
X121446Y84611D01*
X122825Y85314D01*
X124297Y85793D01*
X125077Y85916D01*
X125077Y77723D01*
X116884Y77723D01*
G37*
%LPD*%
%LPC*%
G36*
X128123Y74677D02*
X128123Y74677D01*
X136316Y74677D01*
X136193Y73897D01*
X135714Y72425D01*
X135011Y71046D01*
X134101Y69793D01*
X133007Y68699D01*
X131754Y67789D01*
X130375Y67086D01*
X128903Y66607D01*
X128123Y66484D01*
X128123Y74677D01*
G37*
%LPD*%
%LPC*%
G36*
X810497Y409507D02*
X810497Y409507D01*
X809025Y409986D01*
X807646Y410689D01*
X806393Y411599D01*
X805299Y412693D01*
X804389Y413946D01*
X803686Y415325D01*
X803207Y416797D01*
X803084Y417577D01*
X811277Y417577D01*
X811277Y409384D01*
X810497Y409507D01*
G37*
%LPD*%
%LPC*%
G36*
X124697Y358707D02*
X124697Y358707D01*
X123225Y359186D01*
X121846Y359889D01*
X120593Y360799D01*
X119499Y361893D01*
X118589Y363146D01*
X117886Y364525D01*
X117407Y365997D01*
X117284Y366777D01*
X125477Y366777D01*
X125477Y358584D01*
X124697Y358707D01*
G37*
%LPD*%
%LPC*%
G36*
X124697Y307907D02*
X124697Y307907D01*
X123225Y308386D01*
X121846Y309089D01*
X120593Y309999D01*
X119499Y311093D01*
X118589Y312346D01*
X117886Y313725D01*
X117407Y315197D01*
X117284Y315977D01*
X125477Y315977D01*
X125477Y307784D01*
X124697Y307907D01*
G37*
%LPD*%
%LPC*%
G36*
X124297Y66607D02*
X124297Y66607D01*
X122825Y67086D01*
X121446Y67789D01*
X120193Y68699D01*
X119099Y69793D01*
X118189Y71046D01*
X117486Y72425D01*
X117007Y73897D01*
X116884Y74677D01*
X125077Y74677D01*
X125077Y66484D01*
X124297Y66607D01*
G37*
%LPD*%
%LPC*%
G36*
X111577Y143424D02*
X111577Y143424D01*
X109878Y144128D01*
X108349Y145149D01*
X107049Y146449D01*
X106028Y147978D01*
X105324Y149677D01*
X105085Y150877D01*
X112777Y150877D01*
X112777Y143185D01*
X111577Y143424D01*
G37*
%LPD*%
%LPC*%
G36*
X318823Y357123D02*
X318823Y357123D01*
X318823Y364305D01*
X319877Y364095D01*
X321485Y363429D01*
X322932Y362462D01*
X324162Y361232D01*
X325129Y359785D01*
X325795Y358177D01*
X326005Y357123D01*
X318823Y357123D01*
G37*
%LPD*%
%LPC*%
G36*
X318823Y354077D02*
X318823Y354077D01*
X326005Y354077D01*
X325795Y353023D01*
X325129Y351415D01*
X324162Y349968D01*
X322932Y348738D01*
X321485Y347771D01*
X319877Y347105D01*
X318823Y346895D01*
X318823Y354077D01*
G37*
%LPD*%
%LPC*%
G36*
X812799Y419099D02*
X812799Y419099D01*
X812799Y419101D01*
X812801Y419101D01*
X812801Y419099D01*
X812799Y419099D01*
G37*
%LPD*%
%LPC*%
G36*
X126999Y368299D02*
X126999Y368299D01*
X126999Y368301D01*
X127001Y368301D01*
X127001Y368299D01*
X126999Y368299D01*
G37*
%LPD*%
%LPC*%
G36*
X126999Y317499D02*
X126999Y317499D01*
X126999Y317501D01*
X127001Y317501D01*
X127001Y317499D01*
X126999Y317499D01*
G37*
%LPD*%
%LPC*%
G36*
X126599Y76199D02*
X126599Y76199D01*
X126599Y76201D01*
X126601Y76201D01*
X126601Y76199D01*
X126599Y76199D01*
G37*
%LPD*%
D10*
X533400Y494030D03*
X533400Y521970D03*
D11*
X292300Y355600D03*
D12*
X317300Y355600D03*
D13*
X812800Y292100D03*
X812800Y317500D03*
D10*
X596900Y266700D03*
X596900Y292100D03*
X596900Y317500D03*
X596900Y342900D03*
X596900Y368300D03*
X596900Y393700D03*
X596900Y241300D03*
X596900Y215900D03*
X596900Y190500D03*
X596900Y165100D03*
X596900Y139700D03*
X596900Y114300D03*
X596900Y88900D03*
X596900Y419100D03*
X596900Y444500D03*
X749300Y266700D03*
X749300Y241300D03*
X749300Y215900D03*
X749300Y190500D03*
X749300Y165100D03*
X749300Y139700D03*
X749300Y292100D03*
X749300Y317500D03*
X749300Y342900D03*
X749300Y368300D03*
X749300Y393700D03*
X749300Y419100D03*
X749300Y444500D03*
X749300Y114300D03*
X749300Y88900D03*
X533400Y584200D03*
X558800Y584200D03*
D14*
X556260Y327914D02*
X556260Y307086D01*
X533400Y307086D02*
X533400Y327914D01*
X510540Y327914D02*
X510540Y307086D01*
D15*
X127000Y317500D03*
X203200Y317500D03*
X508000Y368300D03*
X508000Y444500D03*
X812800Y342900D03*
X812800Y419100D03*
X203200Y419100D03*
X127000Y419100D03*
X127000Y368300D03*
X203200Y368300D03*
D16*
X114300Y152400D03*
X139700Y152400D03*
X165100Y152400D03*
X190500Y152400D03*
X114300Y177800D03*
X139700Y177800D03*
X165100Y177800D03*
X190500Y177800D03*
X228600Y558800D03*
X228600Y584200D03*
X76200Y584200D03*
X76200Y558800D03*
D17*
X444500Y317500D03*
X444500Y292100D03*
D18*
X431800Y584200D03*
X391800Y584200D03*
X351800Y584200D03*
D19*
X317500Y431800D03*
D20*
X342900Y431800D03*
X368300Y431800D03*
D15*
X126600Y76200D03*
D21*
X76600Y76200D03*
D22*
X137160Y137160D02*
X137160Y152400D01*
X137160Y137160D02*
X220980Y53340D01*
X609600Y53340D01*
X632460Y76200D01*
X632460Y190500D01*
X609600Y213360D01*
X601980Y213360D01*
X139700Y152400D02*
X137160Y152400D01*
X596900Y215900D02*
X601980Y213360D01*
D23*
X241300Y101600D03*
D22*
X203200Y101600D02*
X165100Y139700D01*
X165100Y152400D01*
X203200Y101600D02*
X241300Y101600D01*
D23*
X685800Y88900D03*
D22*
X749300Y88900D01*
X167640Y182880D02*
X167640Y198120D01*
X182880Y213360D01*
X472440Y213360D01*
X571500Y114300D01*
X596900Y114300D01*
X167640Y182880D02*
X165100Y177800D01*
X190500Y152400D02*
X487680Y152400D01*
X571500Y68580D01*
X579120Y68580D01*
X594360Y83820D01*
X596900Y88900D01*
X472440Y266700D02*
X463233Y275908D01*
X449580Y289560D01*
X444500Y292100D01*
X259080Y259080D02*
X205740Y312420D01*
X259080Y259080D02*
X464820Y259080D01*
X472440Y266700D01*
X205740Y312420D02*
X203200Y317500D01*
X479425Y317500D02*
X510540Y317500D01*
X479425Y317500D02*
X479425Y298450D01*
X465138Y284163D01*
X465138Y277813D01*
X463233Y275908D01*
X812800Y317500D02*
X812800Y342900D01*
X533400Y584200D02*
X488950Y539750D01*
X396875Y539750D01*
X396875Y581025D01*
X393700Y584200D01*
X391800Y584200D01*
X746760Y449580D02*
X749300Y444500D01*
X368300Y492125D02*
X368300Y552450D01*
X368300Y492125D02*
X368300Y431800D01*
X368300Y552450D02*
X355600Y565150D01*
X355600Y581025D01*
X352425Y584200D01*
X351800Y584200D01*
X368300Y492125D02*
X533400Y492125D01*
X533400Y494030D01*
X676275Y520700D02*
X746125Y450850D01*
X676275Y520700D02*
X558800Y520700D01*
X558800Y514350D01*
X536575Y492125D01*
X746125Y450850D02*
X749300Y444500D01*
X536575Y492125D02*
X533400Y494030D01*
X203200Y368300D02*
X182880Y388620D01*
X182880Y403860D01*
X198120Y419100D01*
X203200Y419100D02*
X203200Y425450D01*
X200025Y422275D02*
X203200Y419100D01*
X200025Y422275D02*
X198120Y419100D01*
X206375Y368300D02*
X269875Y431800D01*
X317500Y431800D01*
X206375Y368300D02*
X203200Y368300D01*
X289560Y355600D02*
X292300Y355600D01*
X129540Y411480D02*
X129540Y419100D01*
X129540Y411480D02*
X152400Y388620D01*
X152400Y339725D02*
X152400Y259080D01*
X152400Y339725D02*
X152400Y388620D01*
X129540Y419100D02*
X127000Y419100D01*
X292100Y358775D02*
X295275Y361950D01*
X295275Y377825D01*
X317500Y400050D01*
X342900Y400050D01*
X342900Y431800D01*
X292100Y358775D02*
X292300Y355600D01*
X231775Y355600D01*
X231775Y352425D01*
X219075Y339725D01*
X152400Y339725D01*
X114300Y220980D02*
X114300Y182880D01*
X114300Y220980D02*
X152400Y259080D01*
X83820Y152400D02*
X83820Y76200D01*
X83820Y152400D02*
X114300Y182880D01*
X83820Y76200D02*
X76600Y76200D01*
X114300Y177800D02*
X114300Y182880D01*
X449580Y320040D02*
X472440Y342900D01*
X472440Y419100D01*
X502920Y449580D01*
X449580Y320040D02*
X444500Y317500D01*
X508000Y444500D02*
X502920Y449580D01*
X723900Y365760D02*
X746760Y365760D01*
X723900Y365760D02*
X647700Y441960D01*
X647700Y464820D01*
X617220Y495300D01*
X579120Y495300D01*
X525780Y441960D01*
X510540Y441960D01*
X746760Y365760D02*
X749300Y368300D01*
X510540Y441960D02*
X508000Y444500D01*
X792480Y274320D02*
X807720Y289560D01*
X792480Y274320D02*
X784860Y274320D01*
X769620Y289560D01*
X754380Y289560D01*
X807720Y289560D02*
X812800Y292100D01*
X754380Y289560D02*
X749300Y292100D01*
X746760Y167640D02*
X723900Y167640D01*
X632460Y259080D01*
X632460Y457200D01*
X609600Y480060D01*
X586740Y480060D01*
X541020Y434340D01*
X541020Y398463D02*
X541020Y358140D01*
X541020Y398463D02*
X541020Y434340D01*
X746760Y167640D02*
X749300Y165100D01*
X538163Y398463D02*
X508000Y368300D01*
X538163Y398463D02*
X541020Y398463D01*
X533400Y349250D02*
X533400Y317500D01*
X533400Y349250D02*
X539750Y355600D01*
X541020Y358140D01*
X137160Y198120D02*
X137160Y182880D01*
X137160Y198120D02*
X144780Y205740D01*
X152400Y205740D01*
X175260Y228600D01*
X487680Y228600D01*
X525780Y190500D01*
X596900Y190500D01*
X139700Y177800D02*
X137160Y182880D01*
M02*
