G04 EAGLE Gerber RS-274X export*
G75*
%MOMM*%
%FSLAX34Y34*%
%LPD*%
%IN*%
%IPPOS*%
%AMOC8*
5,1,8,0,0,1.08239X$1,22.5*%
G01*
%ADD10C,0.254000*%


D10*
X0Y0D02*
X885700Y0D01*
X885700Y622200D01*
X0Y622200D01*
X0Y0D01*
X37900Y596409D02*
X37823Y595430D01*
X37669Y594460D01*
X37440Y593504D01*
X37136Y592570D01*
X36761Y591663D01*
X36315Y590788D01*
X35801Y589950D01*
X35224Y589155D01*
X34586Y588408D01*
X33892Y587714D01*
X33145Y587076D01*
X32350Y586499D01*
X31512Y585985D01*
X30637Y585539D01*
X29730Y585164D01*
X28796Y584860D01*
X27841Y584631D01*
X26870Y584477D01*
X25891Y584400D01*
X24909Y584400D01*
X23930Y584477D01*
X22960Y584631D01*
X22004Y584860D01*
X21070Y585164D01*
X20163Y585539D01*
X19288Y585985D01*
X18450Y586499D01*
X17655Y587076D01*
X16908Y587714D01*
X16214Y588408D01*
X15576Y589155D01*
X14999Y589950D01*
X14485Y590788D01*
X14039Y591663D01*
X13664Y592570D01*
X13360Y593504D01*
X13131Y594460D01*
X12977Y595430D01*
X12900Y596409D01*
X12900Y597391D01*
X12977Y598370D01*
X13131Y599341D01*
X13360Y600296D01*
X13664Y601230D01*
X14039Y602137D01*
X14485Y603012D01*
X14999Y603850D01*
X15576Y604645D01*
X16214Y605392D01*
X16908Y606086D01*
X17655Y606724D01*
X18450Y607301D01*
X19288Y607815D01*
X20163Y608261D01*
X21070Y608636D01*
X22004Y608940D01*
X22960Y609169D01*
X23930Y609323D01*
X24909Y609400D01*
X25891Y609400D01*
X26870Y609323D01*
X27841Y609169D01*
X28796Y608940D01*
X29730Y608636D01*
X30637Y608261D01*
X31512Y607815D01*
X32350Y607301D01*
X33145Y606724D01*
X33892Y606086D01*
X34586Y605392D01*
X35224Y604645D01*
X35801Y603850D01*
X36315Y603012D01*
X36761Y602137D01*
X37136Y601230D01*
X37440Y600296D01*
X37669Y599341D01*
X37823Y598370D01*
X37900Y597391D01*
X37900Y596409D01*
X37900Y24909D02*
X37823Y23930D01*
X37669Y22960D01*
X37440Y22004D01*
X37136Y21070D01*
X36761Y20163D01*
X36315Y19288D01*
X35801Y18450D01*
X35224Y17655D01*
X34586Y16908D01*
X33892Y16214D01*
X33145Y15576D01*
X32350Y14999D01*
X31512Y14485D01*
X30637Y14039D01*
X29730Y13664D01*
X28796Y13360D01*
X27841Y13131D01*
X26870Y12977D01*
X25891Y12900D01*
X24909Y12900D01*
X23930Y12977D01*
X22960Y13131D01*
X22004Y13360D01*
X21070Y13664D01*
X20163Y14039D01*
X19288Y14485D01*
X18450Y14999D01*
X17655Y15576D01*
X16908Y16214D01*
X16214Y16908D01*
X15576Y17655D01*
X14999Y18450D01*
X14485Y19288D01*
X14039Y20163D01*
X13664Y21070D01*
X13360Y22004D01*
X13131Y22960D01*
X12977Y23930D01*
X12900Y24909D01*
X12900Y25891D01*
X12977Y26870D01*
X13131Y27841D01*
X13360Y28796D01*
X13664Y29730D01*
X14039Y30637D01*
X14485Y31512D01*
X14999Y32350D01*
X15576Y33145D01*
X16214Y33892D01*
X16908Y34586D01*
X17655Y35224D01*
X18450Y35801D01*
X19288Y36315D01*
X20163Y36761D01*
X21070Y37136D01*
X22004Y37440D01*
X22960Y37669D01*
X23930Y37823D01*
X24909Y37900D01*
X25891Y37900D01*
X26870Y37823D01*
X27841Y37669D01*
X28796Y37440D01*
X29730Y37136D01*
X30637Y36761D01*
X31512Y36315D01*
X32350Y35801D01*
X33145Y35224D01*
X33892Y34586D01*
X34586Y33892D01*
X35224Y33145D01*
X35801Y32350D01*
X36315Y31512D01*
X36761Y30637D01*
X37136Y29730D01*
X37440Y28796D01*
X37669Y27841D01*
X37823Y26870D01*
X37900Y25891D01*
X37900Y24909D01*
X876100Y24909D02*
X876023Y23930D01*
X875869Y22960D01*
X875640Y22004D01*
X875336Y21070D01*
X874961Y20163D01*
X874515Y19288D01*
X874001Y18450D01*
X873424Y17655D01*
X872786Y16908D01*
X872092Y16214D01*
X871345Y15576D01*
X870550Y14999D01*
X869712Y14485D01*
X868837Y14039D01*
X867930Y13664D01*
X866996Y13360D01*
X866041Y13131D01*
X865070Y12977D01*
X864091Y12900D01*
X863109Y12900D01*
X862130Y12977D01*
X861160Y13131D01*
X860204Y13360D01*
X859270Y13664D01*
X858363Y14039D01*
X857488Y14485D01*
X856650Y14999D01*
X855855Y15576D01*
X855108Y16214D01*
X854414Y16908D01*
X853776Y17655D01*
X853199Y18450D01*
X852685Y19288D01*
X852239Y20163D01*
X851864Y21070D01*
X851560Y22004D01*
X851331Y22960D01*
X851177Y23930D01*
X851100Y24909D01*
X851100Y25891D01*
X851177Y26870D01*
X851331Y27841D01*
X851560Y28796D01*
X851864Y29730D01*
X852239Y30637D01*
X852685Y31512D01*
X853199Y32350D01*
X853776Y33145D01*
X854414Y33892D01*
X855108Y34586D01*
X855855Y35224D01*
X856650Y35801D01*
X857488Y36315D01*
X858363Y36761D01*
X859270Y37136D01*
X860204Y37440D01*
X861160Y37669D01*
X862130Y37823D01*
X863109Y37900D01*
X864091Y37900D01*
X865070Y37823D01*
X866041Y37669D01*
X866996Y37440D01*
X867930Y37136D01*
X868837Y36761D01*
X869712Y36315D01*
X870550Y35801D01*
X871345Y35224D01*
X872092Y34586D01*
X872786Y33892D01*
X873424Y33145D01*
X874001Y32350D01*
X874515Y31512D01*
X874961Y30637D01*
X875336Y29730D01*
X875640Y28796D01*
X875869Y27841D01*
X876023Y26870D01*
X876100Y25891D01*
X876100Y24909D01*
X876100Y596409D02*
X876023Y595430D01*
X875869Y594460D01*
X875640Y593504D01*
X875336Y592570D01*
X874961Y591663D01*
X874515Y590788D01*
X874001Y589950D01*
X873424Y589155D01*
X872786Y588408D01*
X872092Y587714D01*
X871345Y587076D01*
X870550Y586499D01*
X869712Y585985D01*
X868837Y585539D01*
X867930Y585164D01*
X866996Y584860D01*
X866041Y584631D01*
X865070Y584477D01*
X864091Y584400D01*
X863109Y584400D01*
X862130Y584477D01*
X861160Y584631D01*
X860204Y584860D01*
X859270Y585164D01*
X858363Y585539D01*
X857488Y585985D01*
X856650Y586499D01*
X855855Y587076D01*
X855108Y587714D01*
X854414Y588408D01*
X853776Y589155D01*
X853199Y589950D01*
X852685Y590788D01*
X852239Y591663D01*
X851864Y592570D01*
X851560Y593504D01*
X851331Y594460D01*
X851177Y595430D01*
X851100Y596409D01*
X851100Y597391D01*
X851177Y598370D01*
X851331Y599341D01*
X851560Y600296D01*
X851864Y601230D01*
X852239Y602137D01*
X852685Y603012D01*
X853199Y603850D01*
X853776Y604645D01*
X854414Y605392D01*
X855108Y606086D01*
X855855Y606724D01*
X856650Y607301D01*
X857488Y607815D01*
X858363Y608261D01*
X859270Y608636D01*
X860204Y608940D01*
X861160Y609169D01*
X862130Y609323D01*
X863109Y609400D01*
X864091Y609400D01*
X865070Y609323D01*
X866041Y609169D01*
X866996Y608940D01*
X867930Y608636D01*
X868837Y608261D01*
X869712Y607815D01*
X870550Y607301D01*
X871345Y606724D01*
X872092Y606086D01*
X872786Y605392D01*
X873424Y604645D01*
X874001Y603850D01*
X874515Y603012D01*
X874961Y602137D01*
X875336Y601230D01*
X875640Y600296D01*
X875869Y599341D01*
X876023Y598370D01*
X876100Y597391D01*
X876100Y596409D01*
X455800Y584632D02*
X455868Y585494D01*
X456003Y586348D01*
X456205Y587188D01*
X456472Y588010D01*
X456803Y588809D01*
X457195Y589579D01*
X457647Y590316D01*
X458155Y591015D01*
X458716Y591673D01*
X459327Y592284D01*
X459985Y592845D01*
X460684Y593353D01*
X461421Y593805D01*
X462191Y594197D01*
X462990Y594528D01*
X463812Y594795D01*
X464652Y594997D01*
X465506Y595132D01*
X466368Y595200D01*
X467232Y595200D01*
X468094Y595132D01*
X468948Y594997D01*
X469788Y594795D01*
X470610Y594528D01*
X471409Y594197D01*
X472179Y593805D01*
X472916Y593353D01*
X473615Y592845D01*
X474273Y592284D01*
X474884Y591673D01*
X475445Y591015D01*
X475953Y590316D01*
X476405Y589579D01*
X476797Y588809D01*
X477128Y588010D01*
X477395Y587188D01*
X477597Y586348D01*
X477732Y585494D01*
X477800Y584632D01*
X477800Y583768D01*
X477732Y582906D01*
X477597Y582052D01*
X477395Y581212D01*
X477128Y580390D01*
X476797Y579591D01*
X476405Y578821D01*
X475953Y578084D01*
X475445Y577385D01*
X474884Y576727D01*
X474273Y576116D01*
X473615Y575555D01*
X472916Y575047D01*
X472179Y574595D01*
X471409Y574203D01*
X470610Y573872D01*
X469788Y573605D01*
X468948Y573403D01*
X468094Y573268D01*
X467232Y573200D01*
X466368Y573200D01*
X465506Y573268D01*
X464652Y573403D01*
X463812Y573605D01*
X462990Y573872D01*
X462191Y574203D01*
X461421Y574595D01*
X460684Y575047D01*
X459985Y575555D01*
X459327Y576116D01*
X458716Y576727D01*
X458155Y577385D01*
X457647Y578084D01*
X457195Y578821D01*
X456803Y579591D01*
X456472Y580390D01*
X456205Y581212D01*
X456003Y582052D01*
X455868Y582906D01*
X455800Y583768D01*
X455800Y584632D01*
X305800Y584632D02*
X305868Y585494D01*
X306003Y586348D01*
X306205Y587188D01*
X306472Y588010D01*
X306803Y588809D01*
X307195Y589579D01*
X307647Y590316D01*
X308155Y591015D01*
X308716Y591673D01*
X309327Y592284D01*
X309985Y592845D01*
X310684Y593353D01*
X311421Y593805D01*
X312191Y594197D01*
X312990Y594528D01*
X313812Y594795D01*
X314652Y594997D01*
X315506Y595132D01*
X316368Y595200D01*
X317232Y595200D01*
X318094Y595132D01*
X318948Y594997D01*
X319788Y594795D01*
X320610Y594528D01*
X321409Y594197D01*
X322179Y593805D01*
X322916Y593353D01*
X323615Y592845D01*
X324273Y592284D01*
X324884Y591673D01*
X325445Y591015D01*
X325953Y590316D01*
X326405Y589579D01*
X326797Y588809D01*
X327128Y588010D01*
X327395Y587188D01*
X327597Y586348D01*
X327732Y585494D01*
X327800Y584632D01*
X327800Y583768D01*
X327732Y582906D01*
X327597Y582052D01*
X327395Y581212D01*
X327128Y580390D01*
X326797Y579591D01*
X326405Y578821D01*
X325953Y578084D01*
X325445Y577385D01*
X324884Y576727D01*
X324273Y576116D01*
X323615Y575555D01*
X322916Y575047D01*
X322179Y574595D01*
X321409Y574203D01*
X320610Y573872D01*
X319788Y573605D01*
X318948Y573403D01*
X318094Y573268D01*
X317232Y573200D01*
X316368Y573200D01*
X315506Y573268D01*
X314652Y573403D01*
X313812Y573605D01*
X312990Y573872D01*
X312191Y574203D01*
X311421Y574595D01*
X310684Y575047D01*
X309985Y575555D01*
X309327Y576116D01*
X308716Y576727D01*
X308155Y577385D01*
X307647Y578084D01*
X307195Y578821D01*
X306803Y579591D01*
X306472Y580390D01*
X306205Y581212D01*
X306003Y582052D01*
X305868Y582906D01*
X305800Y583768D01*
X305800Y584632D01*
M02*
