G04 EAGLE Gerber RS-274X export*
G75*
%MOMM*%
%FSLAX34Y34*%
%LPD*%
%INSilkscreen Top*%
%IPPOS*%
%AMOC8*
5,1,8,0,0,1.08239X$1,22.5*%
G01*
%ADD10C,0.254000*%
%ADD11C,0.203200*%
%ADD12C,0.127000*%
%ADD13C,0.025400*%
%ADD14C,0.152400*%
%ADD15R,0.762000X0.381000*%
%ADD16R,0.508000X0.381000*%
%ADD17C,0.001000*%
%ADD18C,0.101600*%


D10*
X527050Y508000D02*
X539750Y508000D01*
X520700Y481330D02*
X520700Y534670D01*
X546100Y534670D01*
X546100Y481330D01*
X520700Y481330D01*
D11*
X279800Y355600D02*
X279808Y356214D01*
X279830Y356827D01*
X279868Y357439D01*
X279920Y358050D01*
X279988Y358660D01*
X280071Y359268D01*
X280168Y359874D01*
X280280Y360477D01*
X280407Y361078D01*
X280549Y361675D01*
X280706Y362268D01*
X280876Y362857D01*
X281062Y363442D01*
X281261Y364022D01*
X281475Y364597D01*
X281703Y365167D01*
X281945Y365731D01*
X282200Y366289D01*
X282469Y366840D01*
X282752Y367385D01*
X283048Y367922D01*
X283357Y368453D01*
X283679Y368975D01*
X284013Y369489D01*
X284360Y369995D01*
X284720Y370492D01*
X285091Y370981D01*
X285475Y371460D01*
X285870Y371929D01*
X286276Y372389D01*
X286694Y372839D01*
X287122Y373278D01*
X287561Y373706D01*
X288011Y374124D01*
X288471Y374530D01*
X288940Y374925D01*
X289419Y375309D01*
X289908Y375680D01*
X290405Y376040D01*
X290911Y376387D01*
X291425Y376721D01*
X291947Y377043D01*
X292478Y377352D01*
X293015Y377648D01*
X293560Y377931D01*
X294111Y378200D01*
X294669Y378455D01*
X295233Y378697D01*
X295803Y378925D01*
X296378Y379139D01*
X296958Y379338D01*
X297543Y379524D01*
X298132Y379694D01*
X298725Y379851D01*
X299322Y379993D01*
X299923Y380120D01*
X300526Y380232D01*
X301132Y380329D01*
X301740Y380412D01*
X302350Y380480D01*
X302961Y380532D01*
X303573Y380570D01*
X304186Y380592D01*
X304800Y380600D01*
X305414Y380592D01*
X306027Y380570D01*
X306639Y380532D01*
X307250Y380480D01*
X307860Y380412D01*
X308468Y380329D01*
X309074Y380232D01*
X309677Y380120D01*
X310278Y379993D01*
X310875Y379851D01*
X311468Y379694D01*
X312057Y379524D01*
X312642Y379338D01*
X313222Y379139D01*
X313797Y378925D01*
X314367Y378697D01*
X314931Y378455D01*
X315489Y378200D01*
X316040Y377931D01*
X316585Y377648D01*
X317122Y377352D01*
X317653Y377043D01*
X318175Y376721D01*
X318689Y376387D01*
X319195Y376040D01*
X319692Y375680D01*
X320181Y375309D01*
X320660Y374925D01*
X321129Y374530D01*
X321589Y374124D01*
X322039Y373706D01*
X322478Y373278D01*
X322906Y372839D01*
X323324Y372389D01*
X323730Y371929D01*
X324125Y371460D01*
X324509Y370981D01*
X324880Y370492D01*
X325240Y369995D01*
X325587Y369489D01*
X325921Y368975D01*
X326243Y368453D01*
X326552Y367922D01*
X326848Y367385D01*
X327131Y366840D01*
X327400Y366289D01*
X327655Y365731D01*
X327897Y365167D01*
X328125Y364597D01*
X328339Y364022D01*
X328538Y363442D01*
X328724Y362857D01*
X328894Y362268D01*
X329051Y361675D01*
X329193Y361078D01*
X329320Y360477D01*
X329432Y359874D01*
X329529Y359268D01*
X329612Y358660D01*
X329680Y358050D01*
X329732Y357439D01*
X329770Y356827D01*
X329792Y356214D01*
X329800Y355600D01*
X329792Y354986D01*
X329770Y354373D01*
X329732Y353761D01*
X329680Y353150D01*
X329612Y352540D01*
X329529Y351932D01*
X329432Y351326D01*
X329320Y350723D01*
X329193Y350122D01*
X329051Y349525D01*
X328894Y348932D01*
X328724Y348343D01*
X328538Y347758D01*
X328339Y347178D01*
X328125Y346603D01*
X327897Y346033D01*
X327655Y345469D01*
X327400Y344911D01*
X327131Y344360D01*
X326848Y343815D01*
X326552Y343278D01*
X326243Y342747D01*
X325921Y342225D01*
X325587Y341711D01*
X325240Y341205D01*
X324880Y340708D01*
X324509Y340219D01*
X324125Y339740D01*
X323730Y339271D01*
X323324Y338811D01*
X322906Y338361D01*
X322478Y337922D01*
X322039Y337494D01*
X321589Y337076D01*
X321129Y336670D01*
X320660Y336275D01*
X320181Y335891D01*
X319692Y335520D01*
X319195Y335160D01*
X318689Y334813D01*
X318175Y334479D01*
X317653Y334157D01*
X317122Y333848D01*
X316585Y333552D01*
X316040Y333269D01*
X315489Y333000D01*
X314931Y332745D01*
X314367Y332503D01*
X313797Y332275D01*
X313222Y332061D01*
X312642Y331862D01*
X312057Y331676D01*
X311468Y331506D01*
X310875Y331349D01*
X310278Y331207D01*
X309677Y331080D01*
X309074Y330968D01*
X308468Y330871D01*
X307860Y330788D01*
X307250Y330720D01*
X306639Y330668D01*
X306027Y330630D01*
X305414Y330608D01*
X304800Y330600D01*
X304186Y330608D01*
X303573Y330630D01*
X302961Y330668D01*
X302350Y330720D01*
X301740Y330788D01*
X301132Y330871D01*
X300526Y330968D01*
X299923Y331080D01*
X299322Y331207D01*
X298725Y331349D01*
X298132Y331506D01*
X297543Y331676D01*
X296958Y331862D01*
X296378Y332061D01*
X295803Y332275D01*
X295233Y332503D01*
X294669Y332745D01*
X294111Y333000D01*
X293560Y333269D01*
X293015Y333552D01*
X292478Y333848D01*
X291947Y334157D01*
X291425Y334479D01*
X290911Y334813D01*
X290405Y335160D01*
X289908Y335520D01*
X289419Y335891D01*
X288940Y336275D01*
X288471Y336670D01*
X288011Y337076D01*
X287561Y337494D01*
X287122Y337922D01*
X286694Y338361D01*
X286276Y338811D01*
X285870Y339271D01*
X285475Y339740D01*
X285091Y340219D01*
X284720Y340708D01*
X284360Y341205D01*
X284013Y341711D01*
X283679Y342225D01*
X283357Y342747D01*
X283048Y343278D01*
X282752Y343815D01*
X282469Y344360D01*
X282200Y344911D01*
X281945Y345469D01*
X281703Y346033D01*
X281475Y346603D01*
X281261Y347178D01*
X281062Y347758D01*
X280876Y348343D01*
X280706Y348932D01*
X280549Y349525D01*
X280407Y350122D01*
X280280Y350723D01*
X280168Y351326D01*
X280071Y351932D01*
X279988Y352540D01*
X279920Y353150D01*
X279868Y353761D01*
X279830Y354373D01*
X279808Y354986D01*
X279800Y355600D01*
X312220Y341630D02*
X322380Y341630D01*
X297380Y341630D02*
X287220Y341630D01*
X292300Y336550D02*
X292300Y346710D01*
D12*
X302232Y323469D02*
X303304Y323469D01*
X302232Y323469D02*
X302167Y323471D01*
X302103Y323477D01*
X302039Y323487D01*
X301975Y323500D01*
X301913Y323518D01*
X301852Y323539D01*
X301792Y323563D01*
X301734Y323592D01*
X301677Y323624D01*
X301623Y323659D01*
X301571Y323697D01*
X301521Y323739D01*
X301474Y323783D01*
X301430Y323830D01*
X301388Y323880D01*
X301350Y323932D01*
X301315Y323986D01*
X301283Y324043D01*
X301254Y324101D01*
X301230Y324161D01*
X301209Y324222D01*
X301191Y324284D01*
X301178Y324348D01*
X301168Y324412D01*
X301162Y324476D01*
X301160Y324541D01*
X301159Y324541D02*
X301159Y327223D01*
X301160Y327223D02*
X301162Y327288D01*
X301168Y327352D01*
X301178Y327416D01*
X301191Y327480D01*
X301209Y327542D01*
X301230Y327603D01*
X301254Y327663D01*
X301283Y327721D01*
X301315Y327778D01*
X301350Y327832D01*
X301388Y327884D01*
X301430Y327934D01*
X301474Y327981D01*
X301521Y328025D01*
X301571Y328067D01*
X301623Y328105D01*
X301677Y328140D01*
X301734Y328172D01*
X301792Y328201D01*
X301852Y328225D01*
X301913Y328246D01*
X301975Y328264D01*
X302039Y328277D01*
X302103Y328287D01*
X302167Y328293D01*
X302232Y328295D01*
X303304Y328295D01*
X307234Y328295D02*
X307302Y328293D01*
X307369Y328287D01*
X307436Y328278D01*
X307503Y328265D01*
X307568Y328248D01*
X307633Y328227D01*
X307696Y328203D01*
X307758Y328175D01*
X307818Y328144D01*
X307876Y328110D01*
X307932Y328072D01*
X307987Y328032D01*
X308038Y327988D01*
X308087Y327941D01*
X308134Y327892D01*
X308178Y327841D01*
X308218Y327786D01*
X308256Y327730D01*
X308290Y327672D01*
X308321Y327612D01*
X308349Y327550D01*
X308373Y327487D01*
X308394Y327422D01*
X308411Y327357D01*
X308424Y327290D01*
X308433Y327223D01*
X308439Y327156D01*
X308441Y327088D01*
X307234Y328295D02*
X307156Y328293D01*
X307078Y328287D01*
X307001Y328277D01*
X306924Y328264D01*
X306848Y328246D01*
X306773Y328225D01*
X306699Y328200D01*
X306627Y328171D01*
X306556Y328139D01*
X306487Y328103D01*
X306419Y328064D01*
X306354Y328021D01*
X306291Y327975D01*
X306230Y327926D01*
X306172Y327874D01*
X306117Y327819D01*
X306064Y327762D01*
X306015Y327702D01*
X305968Y327639D01*
X305925Y327575D01*
X305885Y327508D01*
X305848Y327439D01*
X305815Y327368D01*
X305785Y327296D01*
X305759Y327223D01*
X308039Y326150D02*
X308088Y326199D01*
X308135Y326251D01*
X308178Y326306D01*
X308219Y326363D01*
X308257Y326422D01*
X308291Y326483D01*
X308322Y326546D01*
X308350Y326610D01*
X308374Y326676D01*
X308394Y326742D01*
X308411Y326810D01*
X308424Y326879D01*
X308433Y326948D01*
X308439Y327018D01*
X308441Y327088D01*
X308039Y326150D02*
X305760Y323469D01*
X308441Y323469D01*
D11*
X793750Y330200D02*
X831850Y330200D01*
D13*
X792963Y331038D02*
X794335Y329209D01*
X794334Y329209D02*
X793743Y328750D01*
X793163Y328277D01*
X792595Y327790D01*
X792039Y327289D01*
X791496Y326775D01*
X790965Y326248D01*
X790447Y325708D01*
X789942Y325155D01*
X789452Y324590D01*
X788975Y324013D01*
X788512Y323425D01*
X788064Y322826D01*
X787631Y322215D01*
X787212Y321595D01*
X786810Y320964D01*
X786422Y320324D01*
X786050Y319675D01*
X785695Y319016D01*
X785355Y318349D01*
X785032Y317674D01*
X784726Y316991D01*
X784436Y316301D01*
X784163Y315605D01*
X783908Y314901D01*
X783670Y314192D01*
X783449Y313477D01*
X783245Y312757D01*
X783060Y312032D01*
X782892Y311303D01*
X782742Y310569D01*
X782610Y309833D01*
X782496Y309093D01*
X782400Y308351D01*
X782322Y307607D01*
X782262Y306861D01*
X782221Y306114D01*
X782198Y305366D01*
X782194Y304617D01*
X782207Y303869D01*
X782239Y303121D01*
X782289Y302375D01*
X782358Y301630D01*
X782444Y300886D01*
X782549Y300145D01*
X782672Y299407D01*
X782813Y298672D01*
X782971Y297941D01*
X783148Y297214D01*
X783342Y296491D01*
X783554Y295773D01*
X783784Y295061D01*
X784031Y294355D01*
X784295Y293654D01*
X784576Y292961D01*
X784873Y292274D01*
X785188Y291595D01*
X785519Y290924D01*
X785866Y290261D01*
X786230Y289607D01*
X786609Y288962D01*
X787004Y288327D01*
X787415Y287701D01*
X787840Y287085D01*
X788281Y286480D01*
X788736Y285886D01*
X789206Y285304D01*
X789690Y284733D01*
X790187Y284174D01*
X790698Y283627D01*
X791222Y283093D01*
X791759Y282572D01*
X792309Y282064D01*
X792871Y281570D01*
X793445Y281090D01*
X794030Y280624D01*
X794627Y280172D01*
X795235Y279735D01*
X795853Y279313D01*
X796481Y278906D01*
X797119Y278515D01*
X797766Y278140D01*
X798422Y277780D01*
X799087Y277437D01*
X799760Y277110D01*
X800441Y276799D01*
X801129Y276505D01*
X801825Y276229D01*
X802526Y275969D01*
X803234Y275726D01*
X803948Y275501D01*
X804667Y275293D01*
X805391Y275103D01*
X806119Y274931D01*
X806851Y274777D01*
X807587Y274640D01*
X808326Y274522D01*
X809068Y274421D01*
X809811Y274339D01*
X810557Y274275D01*
X811304Y274230D01*
X812052Y274202D01*
X812800Y274193D01*
X813548Y274202D01*
X814296Y274230D01*
X815043Y274275D01*
X815789Y274339D01*
X816532Y274421D01*
X817274Y274522D01*
X818013Y274640D01*
X818749Y274777D01*
X819481Y274931D01*
X820209Y275103D01*
X820933Y275293D01*
X821652Y275501D01*
X822366Y275726D01*
X823074Y275969D01*
X823775Y276229D01*
X824471Y276505D01*
X825159Y276799D01*
X825840Y277110D01*
X826513Y277437D01*
X827178Y277780D01*
X827834Y278140D01*
X828481Y278515D01*
X829119Y278906D01*
X829747Y279313D01*
X830365Y279735D01*
X830973Y280172D01*
X831570Y280624D01*
X832155Y281090D01*
X832729Y281570D01*
X833291Y282064D01*
X833841Y282572D01*
X834378Y283093D01*
X834902Y283627D01*
X835413Y284174D01*
X835910Y284733D01*
X836394Y285304D01*
X836864Y285886D01*
X837319Y286480D01*
X837760Y287085D01*
X838185Y287701D01*
X838596Y288327D01*
X838991Y288962D01*
X839370Y289607D01*
X839734Y290261D01*
X840081Y290924D01*
X840412Y291595D01*
X840727Y292274D01*
X841024Y292961D01*
X841305Y293654D01*
X841569Y294355D01*
X841816Y295061D01*
X842046Y295773D01*
X842258Y296491D01*
X842452Y297214D01*
X842629Y297941D01*
X842787Y298672D01*
X842928Y299407D01*
X843051Y300145D01*
X843156Y300886D01*
X843242Y301630D01*
X843311Y302375D01*
X843361Y303121D01*
X843393Y303869D01*
X843406Y304617D01*
X843402Y305366D01*
X843379Y306114D01*
X843338Y306861D01*
X843278Y307607D01*
X843200Y308351D01*
X843104Y309093D01*
X842990Y309833D01*
X842858Y310569D01*
X842708Y311303D01*
X842540Y312032D01*
X842355Y312757D01*
X842151Y313477D01*
X841930Y314192D01*
X841692Y314901D01*
X841437Y315605D01*
X841164Y316301D01*
X840874Y316991D01*
X840568Y317674D01*
X840245Y318349D01*
X839905Y319016D01*
X839550Y319675D01*
X839178Y320324D01*
X838790Y320964D01*
X838388Y321595D01*
X837969Y322215D01*
X837536Y322826D01*
X837088Y323425D01*
X836625Y324013D01*
X836148Y324590D01*
X835658Y325155D01*
X835153Y325708D01*
X834635Y326248D01*
X834104Y326775D01*
X833561Y327289D01*
X833005Y327790D01*
X832437Y328277D01*
X831857Y328750D01*
X831266Y329209D01*
X832637Y331038D01*
X833273Y330545D01*
X833896Y330037D01*
X834507Y329513D01*
X835105Y328975D01*
X835689Y328423D01*
X836260Y327856D01*
X836817Y327276D01*
X837359Y326682D01*
X837887Y326075D01*
X838399Y325455D01*
X838897Y324823D01*
X839379Y324179D01*
X839844Y323523D01*
X840294Y322856D01*
X840727Y322178D01*
X841144Y321490D01*
X841544Y320792D01*
X841926Y320085D01*
X842291Y319368D01*
X842638Y318643D01*
X842968Y317909D01*
X843279Y317167D01*
X843573Y316418D01*
X843848Y315663D01*
X844104Y314900D01*
X844342Y314132D01*
X844560Y313358D01*
X844760Y312579D01*
X844941Y311795D01*
X845102Y311007D01*
X845244Y310215D01*
X845367Y309420D01*
X845470Y308623D01*
X845554Y307823D01*
X845618Y307021D01*
X845662Y306218D01*
X845687Y305414D01*
X845692Y304610D01*
X845678Y303805D01*
X845644Y303002D01*
X845590Y302199D01*
X845517Y301398D01*
X845424Y300599D01*
X845311Y299803D01*
X845179Y299010D01*
X845028Y298220D01*
X844858Y297434D01*
X844668Y296652D01*
X844459Y295875D01*
X844231Y295104D01*
X843985Y294338D01*
X843720Y293579D01*
X843436Y292826D01*
X843134Y292081D01*
X842814Y291343D01*
X842476Y290613D01*
X842120Y289891D01*
X841747Y289179D01*
X841356Y288476D01*
X840949Y287783D01*
X840524Y287099D01*
X840083Y286427D01*
X839626Y285765D01*
X839152Y285115D01*
X838663Y284477D01*
X838159Y283850D01*
X837639Y283236D01*
X837104Y282636D01*
X836555Y282048D01*
X835991Y281474D01*
X835414Y280914D01*
X834823Y280368D01*
X834219Y279837D01*
X833603Y279321D01*
X832973Y278820D01*
X832332Y278334D01*
X831679Y277864D01*
X831015Y277411D01*
X830340Y276974D01*
X829654Y276553D01*
X828959Y276149D01*
X828253Y275763D01*
X827539Y275394D01*
X826815Y275042D01*
X826083Y274708D01*
X825344Y274393D01*
X824596Y274095D01*
X823842Y273816D01*
X823081Y273555D01*
X822314Y273313D01*
X821541Y273090D01*
X820763Y272886D01*
X819981Y272700D01*
X819194Y272534D01*
X818403Y272388D01*
X817609Y272260D01*
X816812Y272153D01*
X816012Y272064D01*
X815211Y271995D01*
X814408Y271946D01*
X813604Y271917D01*
X812800Y271907D01*
X811996Y271917D01*
X811192Y271946D01*
X810389Y271995D01*
X809588Y272064D01*
X808788Y272153D01*
X807991Y272260D01*
X807197Y272388D01*
X806406Y272534D01*
X805619Y272700D01*
X804837Y272886D01*
X804059Y273090D01*
X803286Y273313D01*
X802519Y273555D01*
X801758Y273816D01*
X801004Y274095D01*
X800256Y274393D01*
X799517Y274708D01*
X798785Y275042D01*
X798061Y275394D01*
X797347Y275763D01*
X796641Y276149D01*
X795946Y276553D01*
X795260Y276974D01*
X794585Y277411D01*
X793921Y277864D01*
X793268Y278334D01*
X792627Y278820D01*
X791997Y279321D01*
X791381Y279837D01*
X790777Y280368D01*
X790186Y280914D01*
X789609Y281474D01*
X789045Y282048D01*
X788496Y282636D01*
X787961Y283236D01*
X787441Y283850D01*
X786937Y284477D01*
X786448Y285115D01*
X785974Y285765D01*
X785517Y286427D01*
X785076Y287099D01*
X784651Y287783D01*
X784244Y288476D01*
X783853Y289179D01*
X783480Y289891D01*
X783124Y290613D01*
X782786Y291343D01*
X782466Y292081D01*
X782164Y292826D01*
X781880Y293579D01*
X781615Y294338D01*
X781369Y295104D01*
X781141Y295875D01*
X780932Y296652D01*
X780742Y297434D01*
X780572Y298220D01*
X780421Y299010D01*
X780289Y299803D01*
X780176Y300599D01*
X780083Y301398D01*
X780010Y302199D01*
X779956Y303002D01*
X779922Y303805D01*
X779908Y304610D01*
X779913Y305414D01*
X779938Y306218D01*
X779982Y307021D01*
X780046Y307823D01*
X780130Y308623D01*
X780233Y309420D01*
X780356Y310215D01*
X780498Y311007D01*
X780659Y311795D01*
X780840Y312579D01*
X781040Y313358D01*
X781258Y314132D01*
X781496Y314900D01*
X781752Y315663D01*
X782027Y316418D01*
X782321Y317167D01*
X782632Y317909D01*
X782962Y318643D01*
X783309Y319368D01*
X783674Y320085D01*
X784056Y320792D01*
X784456Y321490D01*
X784873Y322178D01*
X785306Y322856D01*
X785756Y323523D01*
X786221Y324179D01*
X786703Y324823D01*
X787201Y325455D01*
X787713Y326075D01*
X788241Y326682D01*
X788783Y327276D01*
X789340Y327856D01*
X789911Y328423D01*
X790495Y328975D01*
X791093Y329513D01*
X791704Y330037D01*
X792327Y330545D01*
X792963Y331038D01*
X793107Y330846D01*
X792476Y330357D01*
X791857Y329852D01*
X791251Y329333D01*
X790657Y328798D01*
X790077Y328250D01*
X789511Y327687D01*
X788958Y327111D01*
X788420Y326521D01*
X787896Y325919D01*
X787387Y325303D01*
X786893Y324676D01*
X786415Y324037D01*
X785952Y323386D01*
X785506Y322724D01*
X785076Y322051D01*
X784662Y321368D01*
X784266Y320675D01*
X783886Y319973D01*
X783524Y319261D01*
X783179Y318541D01*
X782852Y317813D01*
X782543Y317076D01*
X782252Y316333D01*
X781979Y315583D01*
X781724Y314826D01*
X781488Y314063D01*
X781271Y313295D01*
X781073Y312521D01*
X780894Y311743D01*
X780733Y310961D01*
X780592Y310175D01*
X780471Y309386D01*
X780368Y308594D01*
X780285Y307800D01*
X780221Y307004D01*
X780177Y306207D01*
X780153Y305409D01*
X780148Y304610D01*
X780162Y303812D01*
X780196Y303014D01*
X780249Y302218D01*
X780322Y301423D01*
X780414Y300630D01*
X780526Y299839D01*
X780657Y299051D01*
X780807Y298267D01*
X780976Y297487D01*
X781165Y296711D01*
X781372Y295940D01*
X781598Y295174D01*
X781843Y294414D01*
X782106Y293660D01*
X782388Y292913D01*
X782687Y292173D01*
X783005Y291440D01*
X783341Y290716D01*
X783694Y290000D01*
X784064Y289293D01*
X784452Y288595D01*
X784857Y287906D01*
X785278Y287228D01*
X785716Y286561D01*
X786170Y285904D01*
X786640Y285258D01*
X787126Y284625D01*
X787627Y284003D01*
X788143Y283394D01*
X788673Y282797D01*
X789219Y282214D01*
X789778Y281644D01*
X790351Y281088D01*
X790938Y280546D01*
X791537Y280019D01*
X792149Y279506D01*
X792774Y279009D01*
X793411Y278527D01*
X794059Y278061D01*
X794718Y277611D01*
X795388Y277177D01*
X796069Y276759D01*
X796760Y276358D01*
X797460Y275975D01*
X798169Y275608D01*
X798887Y275259D01*
X799614Y274928D01*
X800348Y274614D01*
X801090Y274319D01*
X801839Y274042D01*
X802594Y273783D01*
X803355Y273543D01*
X804122Y273321D01*
X804895Y273118D01*
X805672Y272935D01*
X806453Y272770D01*
X807238Y272624D01*
X808026Y272498D01*
X808818Y272391D01*
X809611Y272303D01*
X810407Y272235D01*
X811204Y272186D01*
X812002Y272157D01*
X812800Y272147D01*
X813598Y272157D01*
X814396Y272186D01*
X815193Y272235D01*
X815989Y272303D01*
X816782Y272391D01*
X817574Y272498D01*
X818362Y272624D01*
X819147Y272770D01*
X819928Y272935D01*
X820705Y273118D01*
X821478Y273321D01*
X822245Y273543D01*
X823006Y273783D01*
X823761Y274042D01*
X824510Y274319D01*
X825252Y274614D01*
X825986Y274928D01*
X826713Y275259D01*
X827431Y275608D01*
X828140Y275975D01*
X828840Y276358D01*
X829531Y276759D01*
X830212Y277177D01*
X830882Y277611D01*
X831541Y278061D01*
X832189Y278527D01*
X832826Y279009D01*
X833451Y279506D01*
X834063Y280019D01*
X834662Y280546D01*
X835249Y281088D01*
X835822Y281644D01*
X836381Y282214D01*
X836927Y282797D01*
X837457Y283394D01*
X837973Y284003D01*
X838474Y284625D01*
X838960Y285258D01*
X839430Y285904D01*
X839884Y286561D01*
X840322Y287228D01*
X840743Y287906D01*
X841148Y288595D01*
X841536Y289293D01*
X841906Y290000D01*
X842259Y290716D01*
X842595Y291440D01*
X842913Y292173D01*
X843212Y292913D01*
X843494Y293660D01*
X843757Y294414D01*
X844002Y295174D01*
X844228Y295940D01*
X844435Y296711D01*
X844624Y297487D01*
X844793Y298267D01*
X844943Y299051D01*
X845074Y299839D01*
X845186Y300630D01*
X845278Y301423D01*
X845351Y302218D01*
X845404Y303014D01*
X845438Y303812D01*
X845452Y304610D01*
X845447Y305409D01*
X845423Y306207D01*
X845379Y307004D01*
X845315Y307800D01*
X845232Y308594D01*
X845129Y309386D01*
X845008Y310175D01*
X844867Y310961D01*
X844706Y311743D01*
X844527Y312521D01*
X844329Y313295D01*
X844112Y314063D01*
X843876Y314826D01*
X843621Y315583D01*
X843348Y316333D01*
X843057Y317076D01*
X842748Y317813D01*
X842421Y318541D01*
X842076Y319261D01*
X841714Y319973D01*
X841334Y320675D01*
X840938Y321368D01*
X840524Y322051D01*
X840094Y322724D01*
X839648Y323386D01*
X839185Y324037D01*
X838707Y324676D01*
X838213Y325303D01*
X837704Y325919D01*
X837180Y326521D01*
X836642Y327111D01*
X836089Y327687D01*
X835523Y328250D01*
X834943Y328798D01*
X834349Y329333D01*
X833743Y329852D01*
X833124Y330357D01*
X832493Y330846D01*
X832349Y330654D01*
X832976Y330168D01*
X833590Y329667D01*
X834192Y329152D01*
X834781Y328621D01*
X835356Y328077D01*
X835919Y327518D01*
X836467Y326946D01*
X837002Y326361D01*
X837522Y325763D01*
X838027Y325152D01*
X838517Y324529D01*
X838992Y323895D01*
X839451Y323248D01*
X839894Y322591D01*
X840321Y321924D01*
X840731Y321245D01*
X841125Y320558D01*
X841502Y319860D01*
X841861Y319154D01*
X842204Y318439D01*
X842528Y317716D01*
X842835Y316986D01*
X843124Y316248D01*
X843395Y315503D01*
X843648Y314751D01*
X843882Y313994D01*
X844097Y313232D01*
X844294Y312464D01*
X844472Y311691D01*
X844631Y310915D01*
X844771Y310135D01*
X844892Y309352D01*
X844994Y308566D01*
X845076Y307777D01*
X845139Y306987D01*
X845183Y306196D01*
X845207Y305404D01*
X845212Y304611D01*
X845198Y303819D01*
X845164Y303027D01*
X845111Y302236D01*
X845039Y301447D01*
X844947Y300660D01*
X844837Y299875D01*
X844707Y299093D01*
X844558Y298315D01*
X844389Y297540D01*
X844203Y296770D01*
X843997Y296004D01*
X843772Y295244D01*
X843530Y294490D01*
X843268Y293742D01*
X842989Y293000D01*
X842691Y292265D01*
X842376Y291538D01*
X842043Y290819D01*
X841692Y290108D01*
X841324Y289406D01*
X840939Y288713D01*
X840538Y288030D01*
X840119Y287357D01*
X839685Y286694D01*
X839234Y286042D01*
X838767Y285402D01*
X838285Y284773D01*
X837788Y284155D01*
X837276Y283551D01*
X836749Y282959D01*
X836208Y282380D01*
X835653Y281814D01*
X835084Y281262D01*
X834502Y280724D01*
X833906Y280201D01*
X833299Y279692D01*
X832679Y279198D01*
X832047Y278720D01*
X831403Y278257D01*
X830749Y277810D01*
X830084Y277380D01*
X829408Y276965D01*
X828722Y276567D01*
X828027Y276187D01*
X827323Y275823D01*
X826610Y275476D01*
X825889Y275147D01*
X825160Y274836D01*
X824424Y274543D01*
X823681Y274268D01*
X822931Y274011D01*
X822175Y273772D01*
X821414Y273552D01*
X820647Y273351D01*
X819876Y273169D01*
X819100Y273005D01*
X818321Y272861D01*
X817538Y272735D01*
X816753Y272629D01*
X815965Y272542D01*
X815176Y272474D01*
X814385Y272426D01*
X813593Y272397D01*
X812800Y272387D01*
X812007Y272397D01*
X811215Y272426D01*
X810424Y272474D01*
X809635Y272542D01*
X808847Y272629D01*
X808062Y272735D01*
X807279Y272861D01*
X806500Y273005D01*
X805724Y273169D01*
X804953Y273351D01*
X804186Y273552D01*
X803425Y273772D01*
X802669Y274011D01*
X801919Y274268D01*
X801176Y274543D01*
X800440Y274836D01*
X799711Y275147D01*
X798990Y275476D01*
X798277Y275823D01*
X797573Y276187D01*
X796878Y276567D01*
X796192Y276965D01*
X795516Y277380D01*
X794851Y277810D01*
X794197Y278257D01*
X793553Y278720D01*
X792921Y279198D01*
X792301Y279692D01*
X791694Y280201D01*
X791098Y280724D01*
X790516Y281262D01*
X789947Y281814D01*
X789392Y282380D01*
X788851Y282959D01*
X788324Y283551D01*
X787812Y284155D01*
X787315Y284773D01*
X786833Y285402D01*
X786366Y286042D01*
X785915Y286694D01*
X785481Y287357D01*
X785062Y288030D01*
X784661Y288713D01*
X784276Y289406D01*
X783908Y290108D01*
X783557Y290819D01*
X783224Y291538D01*
X782909Y292265D01*
X782611Y293000D01*
X782332Y293742D01*
X782070Y294490D01*
X781828Y295244D01*
X781603Y296004D01*
X781397Y296770D01*
X781211Y297540D01*
X781042Y298315D01*
X780893Y299093D01*
X780763Y299875D01*
X780653Y300660D01*
X780561Y301447D01*
X780489Y302236D01*
X780436Y303027D01*
X780402Y303819D01*
X780388Y304611D01*
X780393Y305404D01*
X780417Y306196D01*
X780461Y306987D01*
X780524Y307777D01*
X780606Y308566D01*
X780708Y309352D01*
X780829Y310135D01*
X780969Y310915D01*
X781128Y311691D01*
X781306Y312464D01*
X781503Y313232D01*
X781718Y313994D01*
X781952Y314751D01*
X782205Y315503D01*
X782476Y316248D01*
X782765Y316986D01*
X783072Y317716D01*
X783396Y318439D01*
X783739Y319154D01*
X784098Y319860D01*
X784475Y320558D01*
X784869Y321245D01*
X785279Y321924D01*
X785706Y322591D01*
X786149Y323248D01*
X786608Y323895D01*
X787083Y324529D01*
X787573Y325152D01*
X788078Y325763D01*
X788598Y326361D01*
X789133Y326946D01*
X789681Y327518D01*
X790244Y328077D01*
X790819Y328621D01*
X791408Y329152D01*
X792010Y329667D01*
X792624Y330168D01*
X793251Y330654D01*
X793395Y330462D01*
X792773Y329980D01*
X792163Y329483D01*
X791566Y328971D01*
X790982Y328444D01*
X790410Y327904D01*
X789852Y327349D01*
X789307Y326782D01*
X788777Y326201D01*
X788261Y325607D01*
X787759Y325001D01*
X787273Y324382D01*
X786802Y323752D01*
X786346Y323111D01*
X785906Y322459D01*
X785483Y321796D01*
X785075Y321123D01*
X784684Y320440D01*
X784310Y319748D01*
X783954Y319047D01*
X783614Y318338D01*
X783292Y317620D01*
X782987Y316895D01*
X782700Y316162D01*
X782431Y315423D01*
X782181Y314677D01*
X781948Y313925D01*
X781734Y313168D01*
X781539Y312406D01*
X781362Y311640D01*
X781205Y310869D01*
X781066Y310095D01*
X780946Y309317D01*
X780845Y308537D01*
X780763Y307755D01*
X780700Y306970D01*
X780657Y306185D01*
X780633Y305399D01*
X780628Y304612D01*
X780642Y303825D01*
X780675Y303039D01*
X780728Y302255D01*
X780800Y301471D01*
X780891Y300690D01*
X781001Y299911D01*
X781130Y299135D01*
X781278Y298362D01*
X781445Y297593D01*
X781630Y296829D01*
X781834Y296069D01*
X782057Y295315D01*
X782298Y294566D01*
X782557Y293823D01*
X782835Y293087D01*
X783130Y292358D01*
X783443Y291636D01*
X783774Y290922D01*
X784122Y290217D01*
X784487Y289520D01*
X784869Y288832D01*
X785268Y288154D01*
X785683Y287486D01*
X786115Y286828D01*
X786562Y286181D01*
X787025Y285545D01*
X787504Y284921D01*
X787997Y284308D01*
X788506Y283708D01*
X789029Y283120D01*
X789566Y282545D01*
X790117Y281984D01*
X790681Y281436D01*
X791259Y280902D01*
X791850Y280383D01*
X792453Y279878D01*
X793069Y279388D01*
X793696Y278913D01*
X794335Y278454D01*
X794984Y278010D01*
X795645Y277582D01*
X796315Y277171D01*
X796996Y276776D01*
X797686Y276398D01*
X798385Y276037D01*
X799092Y275693D01*
X799808Y275367D01*
X800531Y275058D01*
X801262Y274767D01*
X802000Y274494D01*
X802744Y274239D01*
X803494Y274002D01*
X804250Y273784D01*
X805011Y273584D01*
X805777Y273403D01*
X806546Y273241D01*
X807320Y273097D01*
X808097Y272973D01*
X808876Y272867D01*
X809658Y272781D01*
X810442Y272714D01*
X811227Y272665D01*
X812013Y272637D01*
X812800Y272627D01*
X813587Y272637D01*
X814373Y272665D01*
X815158Y272714D01*
X815942Y272781D01*
X816724Y272867D01*
X817503Y272973D01*
X818280Y273097D01*
X819054Y273241D01*
X819823Y273403D01*
X820589Y273584D01*
X821350Y273784D01*
X822106Y274002D01*
X822856Y274239D01*
X823600Y274494D01*
X824338Y274767D01*
X825069Y275058D01*
X825792Y275367D01*
X826508Y275693D01*
X827215Y276037D01*
X827914Y276398D01*
X828604Y276776D01*
X829285Y277171D01*
X829955Y277582D01*
X830616Y278010D01*
X831265Y278454D01*
X831904Y278913D01*
X832531Y279388D01*
X833147Y279878D01*
X833750Y280383D01*
X834341Y280902D01*
X834919Y281436D01*
X835483Y281984D01*
X836034Y282545D01*
X836571Y283120D01*
X837094Y283708D01*
X837603Y284308D01*
X838096Y284921D01*
X838575Y285545D01*
X839038Y286181D01*
X839485Y286828D01*
X839917Y287486D01*
X840332Y288154D01*
X840731Y288832D01*
X841113Y289520D01*
X841478Y290217D01*
X841826Y290922D01*
X842157Y291636D01*
X842470Y292358D01*
X842765Y293087D01*
X843043Y293823D01*
X843302Y294566D01*
X843543Y295315D01*
X843766Y296069D01*
X843970Y296829D01*
X844155Y297593D01*
X844322Y298362D01*
X844470Y299135D01*
X844599Y299911D01*
X844709Y300690D01*
X844800Y301471D01*
X844872Y302255D01*
X844925Y303039D01*
X844958Y303825D01*
X844972Y304612D01*
X844967Y305399D01*
X844943Y306185D01*
X844900Y306970D01*
X844837Y307755D01*
X844755Y308537D01*
X844654Y309317D01*
X844534Y310095D01*
X844395Y310869D01*
X844238Y311640D01*
X844061Y312406D01*
X843866Y313168D01*
X843652Y313925D01*
X843419Y314677D01*
X843169Y315423D01*
X842900Y316162D01*
X842613Y316895D01*
X842308Y317620D01*
X841986Y318338D01*
X841646Y319047D01*
X841290Y319748D01*
X840916Y320440D01*
X840525Y321123D01*
X840117Y321796D01*
X839694Y322459D01*
X839254Y323111D01*
X838798Y323752D01*
X838327Y324382D01*
X837841Y325001D01*
X837339Y325607D01*
X836823Y326201D01*
X836293Y326782D01*
X835748Y327349D01*
X835190Y327904D01*
X834618Y328444D01*
X834034Y328971D01*
X833437Y329483D01*
X832827Y329980D01*
X832205Y330462D01*
X832061Y330270D01*
X832678Y329791D01*
X833283Y329298D01*
X833876Y328790D01*
X834456Y328267D01*
X835024Y327731D01*
X835578Y327181D01*
X836118Y326617D01*
X836645Y326040D01*
X837157Y325451D01*
X837654Y324849D01*
X838137Y324236D01*
X838605Y323610D01*
X839057Y322974D01*
X839493Y322326D01*
X839914Y321669D01*
X840318Y321001D01*
X840706Y320323D01*
X841077Y319636D01*
X841432Y318940D01*
X841769Y318236D01*
X842089Y317524D01*
X842391Y316804D01*
X842676Y316077D01*
X842942Y315343D01*
X843191Y314603D01*
X843422Y313857D01*
X843634Y313105D01*
X843828Y312349D01*
X844003Y311588D01*
X844160Y310823D01*
X844298Y310055D01*
X844417Y309283D01*
X844517Y308509D01*
X844598Y307732D01*
X844660Y306954D01*
X844703Y306174D01*
X844727Y305394D01*
X844732Y304613D01*
X844718Y303832D01*
X844685Y303052D01*
X844633Y302273D01*
X844562Y301495D01*
X844471Y300720D01*
X844362Y299947D01*
X844234Y299176D01*
X844087Y298410D01*
X843921Y297647D01*
X843737Y296888D01*
X843535Y296134D01*
X843313Y295385D01*
X843074Y294642D01*
X842817Y293905D01*
X842541Y293174D01*
X842248Y292450D01*
X841937Y291734D01*
X841609Y291025D01*
X841264Y290325D01*
X840901Y289634D01*
X840522Y288951D01*
X840126Y288278D01*
X839714Y287615D01*
X839286Y286962D01*
X838842Y286320D01*
X838382Y285688D01*
X837908Y285069D01*
X837418Y284461D01*
X836913Y283865D01*
X836394Y283282D01*
X835861Y282711D01*
X835314Y282154D01*
X834753Y281610D01*
X834180Y281080D01*
X833593Y280565D01*
X832995Y280064D01*
X832384Y279577D01*
X831761Y279106D01*
X831127Y278650D01*
X830483Y278210D01*
X829827Y277785D01*
X829162Y277377D01*
X828486Y276985D01*
X827801Y276610D01*
X827108Y276252D01*
X826406Y275910D01*
X825695Y275586D01*
X824977Y275280D01*
X824252Y274991D01*
X823519Y274720D01*
X822781Y274467D01*
X822036Y274232D01*
X821286Y274015D01*
X820531Y273817D01*
X819771Y273637D01*
X819007Y273476D01*
X818239Y273334D01*
X817468Y273210D01*
X816694Y273105D01*
X815918Y273020D01*
X815140Y272953D01*
X814361Y272905D01*
X813581Y272877D01*
X812800Y272867D01*
X812019Y272877D01*
X811239Y272905D01*
X810460Y272953D01*
X809682Y273020D01*
X808906Y273105D01*
X808132Y273210D01*
X807361Y273334D01*
X806593Y273476D01*
X805829Y273637D01*
X805069Y273817D01*
X804314Y274015D01*
X803564Y274232D01*
X802819Y274467D01*
X802081Y274720D01*
X801348Y274991D01*
X800623Y275280D01*
X799905Y275586D01*
X799194Y275910D01*
X798492Y276252D01*
X797799Y276610D01*
X797114Y276985D01*
X796438Y277377D01*
X795773Y277785D01*
X795117Y278210D01*
X794473Y278650D01*
X793839Y279106D01*
X793216Y279577D01*
X792605Y280064D01*
X792007Y280565D01*
X791420Y281080D01*
X790847Y281610D01*
X790286Y282154D01*
X789739Y282711D01*
X789206Y283282D01*
X788687Y283865D01*
X788182Y284461D01*
X787692Y285069D01*
X787218Y285688D01*
X786758Y286320D01*
X786314Y286962D01*
X785886Y287615D01*
X785474Y288278D01*
X785078Y288951D01*
X784699Y289634D01*
X784336Y290325D01*
X783991Y291025D01*
X783663Y291734D01*
X783352Y292450D01*
X783059Y293174D01*
X782783Y293905D01*
X782526Y294642D01*
X782287Y295385D01*
X782065Y296134D01*
X781863Y296888D01*
X781679Y297647D01*
X781513Y298410D01*
X781366Y299176D01*
X781238Y299947D01*
X781129Y300720D01*
X781038Y301495D01*
X780967Y302273D01*
X780915Y303052D01*
X780882Y303832D01*
X780868Y304613D01*
X780873Y305394D01*
X780897Y306174D01*
X780940Y306954D01*
X781002Y307732D01*
X781083Y308509D01*
X781183Y309283D01*
X781302Y310055D01*
X781440Y310823D01*
X781597Y311588D01*
X781772Y312349D01*
X781966Y313105D01*
X782178Y313857D01*
X782409Y314603D01*
X782658Y315343D01*
X782924Y316077D01*
X783209Y316804D01*
X783511Y317524D01*
X783831Y318236D01*
X784168Y318940D01*
X784523Y319636D01*
X784894Y320323D01*
X785282Y321001D01*
X785686Y321669D01*
X786107Y322326D01*
X786543Y322974D01*
X786995Y323610D01*
X787463Y324236D01*
X787946Y324849D01*
X788443Y325451D01*
X788955Y326040D01*
X789482Y326617D01*
X790022Y327181D01*
X790576Y327731D01*
X791144Y328267D01*
X791724Y328790D01*
X792317Y329298D01*
X792922Y329791D01*
X793539Y330270D01*
X793683Y330078D01*
X793070Y329603D01*
X792470Y329113D01*
X791882Y328609D01*
X791306Y328090D01*
X790743Y327558D01*
X790193Y327012D01*
X789657Y326452D01*
X789134Y325880D01*
X788626Y325295D01*
X788132Y324698D01*
X787653Y324089D01*
X787189Y323468D01*
X786740Y322837D01*
X786307Y322194D01*
X785889Y321541D01*
X785488Y320878D01*
X785103Y320206D01*
X784735Y319524D01*
X784383Y318833D01*
X784049Y318134D01*
X783731Y317427D01*
X783431Y316713D01*
X783149Y315991D01*
X782884Y315263D01*
X782637Y314528D01*
X782408Y313788D01*
X782198Y313042D01*
X782005Y312292D01*
X781831Y311536D01*
X781676Y310777D01*
X781539Y310014D01*
X781421Y309249D01*
X781321Y308480D01*
X781241Y307709D01*
X781179Y306937D01*
X781136Y306163D01*
X781112Y305389D01*
X781108Y304614D01*
X781122Y303839D01*
X781155Y303065D01*
X781206Y302291D01*
X781277Y301520D01*
X781367Y300750D01*
X781475Y299983D01*
X781602Y299218D01*
X781748Y298457D01*
X781913Y297700D01*
X782095Y296947D01*
X782297Y296198D01*
X782516Y295455D01*
X782754Y294718D01*
X783009Y293986D01*
X783282Y293261D01*
X783573Y292543D01*
X783882Y291832D01*
X784207Y291129D01*
X784550Y290434D01*
X784910Y289747D01*
X785286Y289070D01*
X785679Y288402D01*
X786088Y287744D01*
X786513Y287096D01*
X786954Y286458D01*
X787410Y285832D01*
X787881Y285217D01*
X788368Y284613D01*
X788868Y284022D01*
X789384Y283443D01*
X789913Y282877D01*
X790456Y282324D01*
X791012Y281784D01*
X791581Y281258D01*
X792163Y280747D01*
X792757Y280249D01*
X793364Y279767D01*
X793981Y279299D01*
X794610Y278846D01*
X795250Y278409D01*
X795901Y277988D01*
X796562Y277583D01*
X797232Y277194D01*
X797911Y276822D01*
X798600Y276466D01*
X799297Y276127D01*
X800002Y275806D01*
X800715Y275502D01*
X801435Y275215D01*
X802161Y274946D01*
X802894Y274695D01*
X803633Y274462D01*
X804378Y274247D01*
X805127Y274050D01*
X805882Y273871D01*
X806640Y273711D01*
X807402Y273570D01*
X808167Y273447D01*
X808935Y273344D01*
X809705Y273258D01*
X810477Y273192D01*
X811251Y273145D01*
X812025Y273116D01*
X812800Y273107D01*
X813575Y273116D01*
X814349Y273145D01*
X815123Y273192D01*
X815895Y273258D01*
X816665Y273344D01*
X817433Y273447D01*
X818198Y273570D01*
X818960Y273711D01*
X819718Y273871D01*
X820473Y274050D01*
X821222Y274247D01*
X821967Y274462D01*
X822706Y274695D01*
X823439Y274946D01*
X824165Y275215D01*
X824885Y275502D01*
X825598Y275806D01*
X826303Y276127D01*
X827000Y276466D01*
X827689Y276822D01*
X828368Y277194D01*
X829038Y277583D01*
X829699Y277988D01*
X830350Y278409D01*
X830990Y278846D01*
X831619Y279299D01*
X832236Y279767D01*
X832843Y280249D01*
X833437Y280747D01*
X834019Y281258D01*
X834588Y281784D01*
X835144Y282324D01*
X835687Y282877D01*
X836216Y283443D01*
X836732Y284022D01*
X837232Y284613D01*
X837719Y285217D01*
X838190Y285832D01*
X838646Y286458D01*
X839087Y287096D01*
X839512Y287744D01*
X839921Y288402D01*
X840314Y289070D01*
X840690Y289747D01*
X841050Y290434D01*
X841393Y291129D01*
X841718Y291832D01*
X842027Y292543D01*
X842318Y293261D01*
X842591Y293986D01*
X842846Y294718D01*
X843084Y295455D01*
X843303Y296198D01*
X843505Y296947D01*
X843687Y297700D01*
X843852Y298457D01*
X843998Y299218D01*
X844125Y299983D01*
X844233Y300750D01*
X844323Y301520D01*
X844394Y302291D01*
X844445Y303065D01*
X844478Y303839D01*
X844492Y304614D01*
X844488Y305389D01*
X844464Y306163D01*
X844421Y306937D01*
X844359Y307709D01*
X844279Y308480D01*
X844179Y309249D01*
X844061Y310014D01*
X843924Y310777D01*
X843769Y311536D01*
X843595Y312292D01*
X843402Y313042D01*
X843192Y313788D01*
X842963Y314528D01*
X842716Y315263D01*
X842451Y315991D01*
X842169Y316713D01*
X841869Y317427D01*
X841551Y318134D01*
X841217Y318833D01*
X840865Y319524D01*
X840497Y320206D01*
X840112Y320878D01*
X839711Y321541D01*
X839293Y322194D01*
X838860Y322837D01*
X838411Y323468D01*
X837947Y324089D01*
X837468Y324698D01*
X836974Y325295D01*
X836466Y325880D01*
X835943Y326452D01*
X835407Y327012D01*
X834857Y327558D01*
X834294Y328090D01*
X833718Y328609D01*
X833130Y329113D01*
X832530Y329603D01*
X831917Y330078D01*
X831773Y329886D01*
X832381Y329415D01*
X832977Y328929D01*
X833561Y328428D01*
X834132Y327913D01*
X834691Y327385D01*
X835237Y326843D01*
X835769Y326288D01*
X836287Y325720D01*
X836792Y325139D01*
X837282Y324547D01*
X837757Y323942D01*
X838218Y323326D01*
X838663Y322699D01*
X839093Y322062D01*
X839507Y321414D01*
X839905Y320756D01*
X840287Y320088D01*
X840653Y319412D01*
X841002Y318726D01*
X841334Y318033D01*
X841649Y317331D01*
X841947Y316622D01*
X842227Y315906D01*
X842490Y315183D01*
X842735Y314454D01*
X842962Y313719D01*
X843171Y312979D01*
X843362Y312234D01*
X843534Y311485D01*
X843689Y310731D01*
X843824Y309974D01*
X843942Y309214D01*
X844040Y308452D01*
X844120Y307687D01*
X844181Y306920D01*
X844224Y306152D01*
X844248Y305383D01*
X844252Y304614D01*
X844239Y303846D01*
X844206Y303077D01*
X844154Y302310D01*
X844084Y301544D01*
X843995Y300780D01*
X843887Y300019D01*
X843761Y299260D01*
X843617Y298505D01*
X843453Y297753D01*
X843272Y297006D01*
X843072Y296263D01*
X842855Y295526D01*
X842619Y294793D01*
X842365Y294067D01*
X842094Y293348D01*
X841805Y292635D01*
X841499Y291929D01*
X841176Y291232D01*
X840836Y290542D01*
X840479Y289861D01*
X840105Y289189D01*
X839715Y288526D01*
X839309Y287872D01*
X838888Y287229D01*
X838450Y286597D01*
X837997Y285975D01*
X837530Y285365D01*
X837047Y284766D01*
X836550Y284179D01*
X836039Y283605D01*
X835514Y283043D01*
X834975Y282494D01*
X834423Y281958D01*
X833858Y281437D01*
X833281Y280929D01*
X832691Y280435D01*
X832089Y279956D01*
X831476Y279492D01*
X830852Y279043D01*
X830216Y278609D01*
X829571Y278191D01*
X828915Y277789D01*
X828250Y277403D01*
X827576Y277034D01*
X826892Y276681D01*
X826201Y276345D01*
X825501Y276025D01*
X824794Y275723D01*
X824079Y275439D01*
X823358Y275172D01*
X822630Y274923D01*
X821897Y274691D01*
X821158Y274478D01*
X820414Y274283D01*
X819666Y274106D01*
X818913Y273947D01*
X818157Y273807D01*
X817398Y273685D01*
X816636Y273582D01*
X815871Y273497D01*
X815105Y273432D01*
X814338Y273385D01*
X813569Y273356D01*
X812800Y273347D01*
X812031Y273356D01*
X811262Y273385D01*
X810495Y273432D01*
X809729Y273497D01*
X808964Y273582D01*
X808202Y273685D01*
X807443Y273807D01*
X806687Y273947D01*
X805934Y274106D01*
X805186Y274283D01*
X804442Y274478D01*
X803703Y274691D01*
X802970Y274923D01*
X802242Y275172D01*
X801521Y275439D01*
X800806Y275723D01*
X800099Y276025D01*
X799399Y276345D01*
X798708Y276681D01*
X798024Y277034D01*
X797350Y277403D01*
X796685Y277789D01*
X796029Y278191D01*
X795384Y278609D01*
X794748Y279043D01*
X794124Y279492D01*
X793511Y279956D01*
X792909Y280435D01*
X792319Y280929D01*
X791742Y281437D01*
X791177Y281958D01*
X790625Y282494D01*
X790086Y283043D01*
X789561Y283605D01*
X789050Y284179D01*
X788553Y284766D01*
X788070Y285365D01*
X787603Y285975D01*
X787150Y286597D01*
X786712Y287229D01*
X786291Y287872D01*
X785885Y288526D01*
X785495Y289189D01*
X785121Y289861D01*
X784764Y290542D01*
X784424Y291232D01*
X784101Y291929D01*
X783795Y292635D01*
X783506Y293348D01*
X783235Y294067D01*
X782981Y294793D01*
X782745Y295526D01*
X782528Y296263D01*
X782328Y297006D01*
X782147Y297753D01*
X781983Y298505D01*
X781839Y299260D01*
X781713Y300019D01*
X781605Y300780D01*
X781516Y301544D01*
X781446Y302310D01*
X781394Y303077D01*
X781361Y303846D01*
X781348Y304614D01*
X781352Y305383D01*
X781376Y306152D01*
X781419Y306920D01*
X781480Y307687D01*
X781560Y308452D01*
X781658Y309214D01*
X781776Y309974D01*
X781911Y310731D01*
X782066Y311485D01*
X782238Y312234D01*
X782429Y312979D01*
X782638Y313719D01*
X782865Y314454D01*
X783110Y315183D01*
X783373Y315906D01*
X783653Y316622D01*
X783951Y317331D01*
X784266Y318033D01*
X784598Y318726D01*
X784947Y319412D01*
X785313Y320088D01*
X785695Y320756D01*
X786093Y321414D01*
X786507Y322062D01*
X786937Y322699D01*
X787382Y323326D01*
X787843Y323942D01*
X788318Y324547D01*
X788808Y325139D01*
X789313Y325720D01*
X789831Y326288D01*
X790363Y326843D01*
X790909Y327385D01*
X791468Y327913D01*
X792039Y328428D01*
X792623Y328929D01*
X793219Y329415D01*
X793827Y329886D01*
X793971Y329694D01*
X793368Y329226D01*
X792776Y328744D01*
X792197Y328247D01*
X791630Y327736D01*
X791075Y327212D01*
X790534Y326674D01*
X790006Y326123D01*
X789491Y325560D01*
X788991Y324983D01*
X788504Y324395D01*
X788033Y323795D01*
X787576Y323184D01*
X787134Y322562D01*
X786707Y321929D01*
X786296Y321286D01*
X785901Y320633D01*
X785522Y319971D01*
X785159Y319299D01*
X784813Y318619D01*
X784483Y317931D01*
X784171Y317235D01*
X783875Y316531D01*
X783597Y315820D01*
X783336Y315103D01*
X783093Y314380D01*
X782868Y313650D01*
X782661Y312916D01*
X782471Y312177D01*
X782300Y311433D01*
X782147Y310685D01*
X782012Y309934D01*
X781896Y309180D01*
X781798Y308423D01*
X781719Y307664D01*
X781658Y306903D01*
X781616Y306141D01*
X781592Y305378D01*
X781588Y304615D01*
X781601Y303852D01*
X781634Y303090D01*
X781685Y302328D01*
X781755Y301568D01*
X781843Y300810D01*
X781950Y300055D01*
X782075Y299302D01*
X782219Y298552D01*
X782381Y297806D01*
X782561Y297065D01*
X782759Y296328D01*
X782975Y295596D01*
X783209Y294869D01*
X783461Y294149D01*
X783730Y293435D01*
X784016Y292727D01*
X784320Y292027D01*
X784641Y291335D01*
X784978Y290650D01*
X785333Y289974D01*
X785703Y289307D01*
X786090Y288649D01*
X786493Y288001D01*
X786912Y287363D01*
X787346Y286735D01*
X787795Y286118D01*
X788259Y285513D01*
X788738Y284918D01*
X789231Y284336D01*
X789739Y283766D01*
X790260Y283208D01*
X790794Y282664D01*
X791342Y282132D01*
X791903Y281615D01*
X792476Y281111D01*
X793061Y280621D01*
X793658Y280145D01*
X794267Y279685D01*
X794886Y279239D01*
X795517Y278809D01*
X796157Y278394D01*
X796808Y277995D01*
X797468Y277612D01*
X798137Y277245D01*
X798815Y276895D01*
X799502Y276562D01*
X800196Y276245D01*
X800898Y275945D01*
X801607Y275663D01*
X802323Y275398D01*
X803045Y275151D01*
X803773Y274921D01*
X804506Y274709D01*
X805244Y274515D01*
X805987Y274340D01*
X806733Y274182D01*
X807484Y274043D01*
X808237Y273922D01*
X808994Y273820D01*
X809752Y273736D01*
X810512Y273671D01*
X811274Y273624D01*
X812037Y273596D01*
X812800Y273587D01*
X813563Y273596D01*
X814326Y273624D01*
X815088Y273671D01*
X815848Y273736D01*
X816606Y273820D01*
X817363Y273922D01*
X818116Y274043D01*
X818867Y274182D01*
X819613Y274340D01*
X820356Y274515D01*
X821094Y274709D01*
X821827Y274921D01*
X822555Y275151D01*
X823277Y275398D01*
X823993Y275663D01*
X824702Y275945D01*
X825404Y276245D01*
X826098Y276562D01*
X826785Y276895D01*
X827463Y277245D01*
X828132Y277612D01*
X828792Y277995D01*
X829443Y278394D01*
X830083Y278809D01*
X830714Y279239D01*
X831333Y279685D01*
X831942Y280145D01*
X832539Y280621D01*
X833124Y281111D01*
X833697Y281615D01*
X834258Y282132D01*
X834806Y282664D01*
X835340Y283208D01*
X835861Y283766D01*
X836369Y284336D01*
X836862Y284918D01*
X837341Y285513D01*
X837805Y286118D01*
X838254Y286735D01*
X838688Y287363D01*
X839107Y288001D01*
X839510Y288649D01*
X839897Y289307D01*
X840267Y289974D01*
X840622Y290650D01*
X840959Y291335D01*
X841280Y292027D01*
X841584Y292727D01*
X841870Y293435D01*
X842139Y294149D01*
X842391Y294869D01*
X842625Y295596D01*
X842841Y296328D01*
X843039Y297065D01*
X843219Y297806D01*
X843381Y298552D01*
X843525Y299302D01*
X843650Y300055D01*
X843757Y300810D01*
X843845Y301568D01*
X843915Y302328D01*
X843966Y303090D01*
X843999Y303852D01*
X844012Y304615D01*
X844008Y305378D01*
X843984Y306141D01*
X843942Y306903D01*
X843881Y307664D01*
X843802Y308423D01*
X843704Y309180D01*
X843588Y309934D01*
X843453Y310685D01*
X843300Y311433D01*
X843129Y312177D01*
X842939Y312916D01*
X842732Y313650D01*
X842507Y314380D01*
X842264Y315103D01*
X842003Y315820D01*
X841725Y316531D01*
X841429Y317235D01*
X841117Y317931D01*
X840787Y318619D01*
X840441Y319299D01*
X840078Y319971D01*
X839699Y320633D01*
X839304Y321286D01*
X838893Y321929D01*
X838466Y322562D01*
X838024Y323184D01*
X837567Y323795D01*
X837096Y324395D01*
X836609Y324983D01*
X836109Y325560D01*
X835594Y326123D01*
X835066Y326674D01*
X834525Y327212D01*
X833970Y327736D01*
X833403Y328247D01*
X832824Y328744D01*
X832232Y329226D01*
X831629Y329694D01*
X831485Y329502D01*
X832084Y329038D01*
X832670Y328559D01*
X833245Y328066D01*
X833808Y327559D01*
X834358Y327039D01*
X834895Y326505D01*
X835420Y325959D01*
X835930Y325399D01*
X836427Y324828D01*
X836909Y324244D01*
X837377Y323649D01*
X837831Y323042D01*
X838269Y322425D01*
X838693Y321797D01*
X839101Y321159D01*
X839493Y320511D01*
X839869Y319853D01*
X840229Y319187D01*
X840572Y318512D01*
X840899Y317829D01*
X841209Y317138D01*
X841503Y316440D01*
X841779Y315735D01*
X842037Y315023D01*
X842278Y314305D01*
X842502Y313582D01*
X842708Y312853D01*
X842896Y312119D01*
X843066Y311381D01*
X843218Y310639D01*
X843351Y309894D01*
X843467Y309146D01*
X843564Y308395D01*
X843642Y307641D01*
X843703Y306886D01*
X843744Y306130D01*
X843768Y305373D01*
X843772Y304616D01*
X843759Y303859D01*
X843726Y303102D01*
X843676Y302347D01*
X843606Y301593D01*
X843519Y300840D01*
X843413Y300090D01*
X843289Y299343D01*
X843146Y298600D01*
X842985Y297860D01*
X842807Y297124D01*
X842610Y296392D01*
X842396Y295666D01*
X842163Y294945D01*
X841914Y294230D01*
X841647Y293522D01*
X841362Y292820D01*
X841061Y292125D01*
X840742Y291438D01*
X840407Y290759D01*
X840056Y290088D01*
X839688Y289426D01*
X839304Y288773D01*
X838904Y288130D01*
X838489Y287497D01*
X838058Y286874D01*
X837613Y286262D01*
X837152Y285661D01*
X836677Y285071D01*
X836187Y284493D01*
X835684Y283927D01*
X835167Y283374D01*
X834636Y282834D01*
X834093Y282307D01*
X833536Y281793D01*
X832968Y281293D01*
X832387Y280807D01*
X831794Y280335D01*
X831191Y279878D01*
X830576Y279436D01*
X829950Y279009D01*
X829315Y278597D01*
X828669Y278201D01*
X828014Y277821D01*
X827350Y277457D01*
X826677Y277110D01*
X825996Y276779D01*
X825307Y276464D01*
X824610Y276167D01*
X823907Y275887D01*
X823197Y275624D01*
X822480Y275379D01*
X821758Y275151D01*
X821030Y274941D01*
X820298Y274748D01*
X819561Y274574D01*
X818820Y274418D01*
X818075Y274280D01*
X817328Y274160D01*
X816577Y274058D01*
X815824Y273975D01*
X815070Y273910D01*
X814314Y273864D01*
X813557Y273836D01*
X812800Y273827D01*
X812043Y273836D01*
X811286Y273864D01*
X810530Y273910D01*
X809776Y273975D01*
X809023Y274058D01*
X808272Y274160D01*
X807525Y274280D01*
X806780Y274418D01*
X806039Y274574D01*
X805302Y274748D01*
X804570Y274941D01*
X803842Y275151D01*
X803120Y275379D01*
X802403Y275624D01*
X801693Y275887D01*
X800990Y276167D01*
X800293Y276464D01*
X799604Y276779D01*
X798923Y277110D01*
X798250Y277457D01*
X797586Y277821D01*
X796931Y278201D01*
X796285Y278597D01*
X795650Y279009D01*
X795024Y279436D01*
X794409Y279878D01*
X793806Y280335D01*
X793213Y280807D01*
X792632Y281293D01*
X792064Y281793D01*
X791507Y282307D01*
X790964Y282834D01*
X790433Y283374D01*
X789916Y283927D01*
X789413Y284493D01*
X788923Y285071D01*
X788448Y285661D01*
X787987Y286262D01*
X787542Y286874D01*
X787111Y287497D01*
X786696Y288130D01*
X786296Y288773D01*
X785912Y289426D01*
X785544Y290088D01*
X785193Y290759D01*
X784858Y291438D01*
X784539Y292125D01*
X784238Y292820D01*
X783953Y293522D01*
X783686Y294230D01*
X783437Y294945D01*
X783204Y295666D01*
X782990Y296392D01*
X782793Y297124D01*
X782615Y297860D01*
X782454Y298600D01*
X782311Y299343D01*
X782187Y300090D01*
X782081Y300840D01*
X781994Y301593D01*
X781924Y302347D01*
X781874Y303102D01*
X781841Y303859D01*
X781828Y304616D01*
X781832Y305373D01*
X781856Y306130D01*
X781897Y306886D01*
X781958Y307641D01*
X782036Y308395D01*
X782133Y309146D01*
X782249Y309894D01*
X782382Y310639D01*
X782534Y311381D01*
X782704Y312119D01*
X782892Y312853D01*
X783098Y313582D01*
X783322Y314305D01*
X783563Y315023D01*
X783821Y315735D01*
X784097Y316440D01*
X784391Y317138D01*
X784701Y317829D01*
X785028Y318512D01*
X785371Y319187D01*
X785731Y319853D01*
X786107Y320511D01*
X786499Y321159D01*
X786907Y321797D01*
X787331Y322425D01*
X787769Y323042D01*
X788223Y323649D01*
X788691Y324244D01*
X789173Y324828D01*
X789670Y325399D01*
X790180Y325959D01*
X790705Y326505D01*
X791242Y327039D01*
X791792Y327559D01*
X792355Y328066D01*
X792930Y328559D01*
X793516Y329038D01*
X794115Y329502D01*
X794259Y329310D01*
X793665Y328849D01*
X793083Y328374D01*
X792512Y327885D01*
X791954Y327382D01*
X791408Y326866D01*
X790875Y326336D01*
X790355Y325794D01*
X789849Y325239D01*
X789356Y324672D01*
X788877Y324093D01*
X788412Y323502D01*
X787962Y322900D01*
X787527Y322287D01*
X787107Y321664D01*
X786703Y321031D01*
X786314Y320388D01*
X785941Y319736D01*
X785583Y319075D01*
X785243Y318405D01*
X784918Y317728D01*
X784610Y317042D01*
X784320Y316349D01*
X784046Y315649D01*
X783789Y314943D01*
X783550Y314231D01*
X783328Y313513D01*
X783124Y312790D01*
X782937Y312062D01*
X782769Y311330D01*
X782618Y310593D01*
X782485Y309854D01*
X782371Y309111D01*
X782275Y308366D01*
X782197Y307619D01*
X782137Y306870D01*
X782095Y306119D01*
X782072Y305368D01*
X782068Y304617D01*
X782081Y303866D01*
X782113Y303115D01*
X782164Y302365D01*
X782232Y301617D01*
X782319Y300870D01*
X782424Y300126D01*
X782548Y299385D01*
X782689Y298647D01*
X782849Y297913D01*
X783026Y297183D01*
X783221Y296457D01*
X783434Y295736D01*
X783664Y295021D01*
X783912Y294312D01*
X784177Y293609D01*
X784459Y292912D01*
X784758Y292223D01*
X785074Y291541D01*
X785407Y290867D01*
X785755Y290202D01*
X786120Y289545D01*
X786501Y288897D01*
X786898Y288259D01*
X787310Y287631D01*
X787738Y287013D01*
X788180Y286405D01*
X788637Y285809D01*
X789109Y285224D01*
X789594Y284650D01*
X790094Y284089D01*
X790607Y283540D01*
X791133Y283004D01*
X791673Y282481D01*
X792225Y281971D01*
X792789Y281475D01*
X793365Y280992D01*
X793953Y280524D01*
X794552Y280071D01*
X795162Y279632D01*
X795783Y279208D01*
X796414Y278800D01*
X797054Y278407D01*
X797704Y278030D01*
X798363Y277669D01*
X799031Y277324D01*
X799707Y276996D01*
X800390Y276684D01*
X801081Y276389D01*
X801779Y276111D01*
X802484Y275850D01*
X803195Y275607D01*
X803912Y275380D01*
X804633Y275172D01*
X805360Y274981D01*
X806091Y274808D01*
X806827Y274653D01*
X807566Y274516D01*
X808308Y274397D01*
X809052Y274296D01*
X809799Y274214D01*
X810548Y274150D01*
X811298Y274104D01*
X812049Y274076D01*
X812800Y274067D01*
X813551Y274076D01*
X814302Y274104D01*
X815052Y274150D01*
X815801Y274214D01*
X816548Y274296D01*
X817292Y274397D01*
X818034Y274516D01*
X818773Y274653D01*
X819509Y274808D01*
X820240Y274981D01*
X820967Y275172D01*
X821688Y275380D01*
X822405Y275607D01*
X823116Y275850D01*
X823821Y276111D01*
X824519Y276389D01*
X825210Y276684D01*
X825893Y276996D01*
X826569Y277324D01*
X827237Y277669D01*
X827896Y278030D01*
X828546Y278407D01*
X829186Y278800D01*
X829817Y279208D01*
X830438Y279632D01*
X831048Y280071D01*
X831647Y280524D01*
X832235Y280992D01*
X832811Y281475D01*
X833375Y281971D01*
X833927Y282481D01*
X834467Y283004D01*
X834993Y283540D01*
X835506Y284089D01*
X836006Y284650D01*
X836491Y285224D01*
X836963Y285809D01*
X837420Y286405D01*
X837862Y287013D01*
X838290Y287631D01*
X838702Y288259D01*
X839099Y288897D01*
X839480Y289545D01*
X839845Y290202D01*
X840193Y290867D01*
X840526Y291541D01*
X840842Y292223D01*
X841141Y292912D01*
X841423Y293609D01*
X841688Y294312D01*
X841936Y295021D01*
X842166Y295736D01*
X842379Y296457D01*
X842574Y297183D01*
X842751Y297913D01*
X842911Y298647D01*
X843052Y299385D01*
X843176Y300126D01*
X843281Y300870D01*
X843368Y301617D01*
X843436Y302365D01*
X843487Y303115D01*
X843519Y303866D01*
X843532Y304617D01*
X843528Y305368D01*
X843505Y306119D01*
X843463Y306870D01*
X843403Y307619D01*
X843325Y308366D01*
X843229Y309111D01*
X843115Y309854D01*
X842982Y310593D01*
X842831Y311330D01*
X842663Y312062D01*
X842476Y312790D01*
X842272Y313513D01*
X842050Y314231D01*
X841811Y314943D01*
X841554Y315649D01*
X841280Y316349D01*
X840990Y317042D01*
X840682Y317728D01*
X840357Y318405D01*
X840017Y319075D01*
X839659Y319736D01*
X839286Y320388D01*
X838897Y321031D01*
X838493Y321664D01*
X838073Y322287D01*
X837638Y322900D01*
X837188Y323502D01*
X836723Y324093D01*
X836244Y324672D01*
X835751Y325239D01*
X835245Y325794D01*
X834725Y326336D01*
X834192Y326866D01*
X833646Y327382D01*
X833088Y327885D01*
X832517Y328374D01*
X831935Y328849D01*
X831341Y329310D01*
D14*
X787400Y304800D02*
X787408Y305423D01*
X787431Y306046D01*
X787469Y306669D01*
X787522Y307290D01*
X787591Y307909D01*
X787675Y308527D01*
X787774Y309142D01*
X787888Y309755D01*
X788017Y310365D01*
X788161Y310972D01*
X788320Y311575D01*
X788494Y312173D01*
X788682Y312768D01*
X788885Y313357D01*
X789102Y313941D01*
X789333Y314520D01*
X789579Y315093D01*
X789839Y315660D01*
X790112Y316220D01*
X790399Y316773D01*
X790700Y317320D01*
X791014Y317858D01*
X791341Y318389D01*
X791681Y318911D01*
X792033Y319426D01*
X792399Y319931D01*
X792776Y320427D01*
X793166Y320914D01*
X793567Y321391D01*
X793980Y321858D01*
X794404Y322314D01*
X794839Y322761D01*
X795286Y323196D01*
X795742Y323620D01*
X796209Y324033D01*
X796686Y324434D01*
X797173Y324824D01*
X797669Y325201D01*
X798174Y325567D01*
X798689Y325919D01*
X799211Y326259D01*
X799742Y326586D01*
X800280Y326900D01*
X800827Y327201D01*
X801380Y327488D01*
X801940Y327761D01*
X802507Y328021D01*
X803080Y328267D01*
X803659Y328498D01*
X804243Y328715D01*
X804832Y328918D01*
X805427Y329106D01*
X806025Y329280D01*
X806628Y329439D01*
X807235Y329583D01*
X807845Y329712D01*
X808458Y329826D01*
X809073Y329925D01*
X809691Y330009D01*
X810310Y330078D01*
X810931Y330131D01*
X811554Y330169D01*
X812177Y330192D01*
X812800Y330200D01*
X813423Y330192D01*
X814046Y330169D01*
X814669Y330131D01*
X815290Y330078D01*
X815909Y330009D01*
X816527Y329925D01*
X817142Y329826D01*
X817755Y329712D01*
X818365Y329583D01*
X818972Y329439D01*
X819575Y329280D01*
X820173Y329106D01*
X820768Y328918D01*
X821357Y328715D01*
X821941Y328498D01*
X822520Y328267D01*
X823093Y328021D01*
X823660Y327761D01*
X824220Y327488D01*
X824773Y327201D01*
X825320Y326900D01*
X825858Y326586D01*
X826389Y326259D01*
X826911Y325919D01*
X827426Y325567D01*
X827931Y325201D01*
X828427Y324824D01*
X828914Y324434D01*
X829391Y324033D01*
X829858Y323620D01*
X830314Y323196D01*
X830761Y322761D01*
X831196Y322314D01*
X831620Y321858D01*
X832033Y321391D01*
X832434Y320914D01*
X832824Y320427D01*
X833201Y319931D01*
X833567Y319426D01*
X833919Y318911D01*
X834259Y318389D01*
X834586Y317858D01*
X834900Y317320D01*
X835201Y316773D01*
X835488Y316220D01*
X835761Y315660D01*
X836021Y315093D01*
X836267Y314520D01*
X836498Y313941D01*
X836715Y313357D01*
X836918Y312768D01*
X837106Y312173D01*
X837280Y311575D01*
X837439Y310972D01*
X837583Y310365D01*
X837712Y309755D01*
X837826Y309142D01*
X837925Y308527D01*
X838009Y307909D01*
X838078Y307290D01*
X838131Y306669D01*
X838169Y306046D01*
X838192Y305423D01*
X838200Y304800D01*
X838192Y304177D01*
X838169Y303554D01*
X838131Y302931D01*
X838078Y302310D01*
X838009Y301691D01*
X837925Y301073D01*
X837826Y300458D01*
X837712Y299845D01*
X837583Y299235D01*
X837439Y298628D01*
X837280Y298025D01*
X837106Y297427D01*
X836918Y296832D01*
X836715Y296243D01*
X836498Y295659D01*
X836267Y295080D01*
X836021Y294507D01*
X835761Y293940D01*
X835488Y293380D01*
X835201Y292827D01*
X834900Y292280D01*
X834586Y291742D01*
X834259Y291211D01*
X833919Y290689D01*
X833567Y290174D01*
X833201Y289669D01*
X832824Y289173D01*
X832434Y288686D01*
X832033Y288209D01*
X831620Y287742D01*
X831196Y287286D01*
X830761Y286839D01*
X830314Y286404D01*
X829858Y285980D01*
X829391Y285567D01*
X828914Y285166D01*
X828427Y284776D01*
X827931Y284399D01*
X827426Y284033D01*
X826911Y283681D01*
X826389Y283341D01*
X825858Y283014D01*
X825320Y282700D01*
X824773Y282399D01*
X824220Y282112D01*
X823660Y281839D01*
X823093Y281579D01*
X822520Y281333D01*
X821941Y281102D01*
X821357Y280885D01*
X820768Y280682D01*
X820173Y280494D01*
X819575Y280320D01*
X818972Y280161D01*
X818365Y280017D01*
X817755Y279888D01*
X817142Y279774D01*
X816527Y279675D01*
X815909Y279591D01*
X815290Y279522D01*
X814669Y279469D01*
X814046Y279431D01*
X813423Y279408D01*
X812800Y279400D01*
X812177Y279408D01*
X811554Y279431D01*
X810931Y279469D01*
X810310Y279522D01*
X809691Y279591D01*
X809073Y279675D01*
X808458Y279774D01*
X807845Y279888D01*
X807235Y280017D01*
X806628Y280161D01*
X806025Y280320D01*
X805427Y280494D01*
X804832Y280682D01*
X804243Y280885D01*
X803659Y281102D01*
X803080Y281333D01*
X802507Y281579D01*
X801940Y281839D01*
X801380Y282112D01*
X800827Y282399D01*
X800280Y282700D01*
X799742Y283014D01*
X799211Y283341D01*
X798689Y283681D01*
X798174Y284033D01*
X797669Y284399D01*
X797173Y284776D01*
X796686Y285166D01*
X796209Y285567D01*
X795742Y285980D01*
X795286Y286404D01*
X794839Y286839D01*
X794404Y287286D01*
X793980Y287742D01*
X793567Y288209D01*
X793166Y288686D01*
X792776Y289173D01*
X792399Y289669D01*
X792033Y290174D01*
X791681Y290689D01*
X791341Y291211D01*
X791014Y291742D01*
X790700Y292280D01*
X790399Y292827D01*
X790112Y293380D01*
X789839Y293940D01*
X789579Y294507D01*
X789333Y295080D01*
X789102Y295659D01*
X788885Y296243D01*
X788682Y296832D01*
X788494Y297427D01*
X788320Y298025D01*
X788161Y298628D01*
X788017Y299235D01*
X787888Y299845D01*
X787774Y300458D01*
X787675Y301073D01*
X787591Y301691D01*
X787522Y302310D01*
X787469Y302931D01*
X787431Y303554D01*
X787408Y304177D01*
X787400Y304800D01*
D12*
X778256Y300625D02*
X773430Y300625D01*
X773430Y301965D01*
X773432Y302035D01*
X773437Y302105D01*
X773447Y302175D01*
X773459Y302244D01*
X773476Y302312D01*
X773496Y302379D01*
X773519Y302446D01*
X773546Y302510D01*
X773576Y302574D01*
X773610Y302636D01*
X773646Y302695D01*
X773686Y302753D01*
X773729Y302809D01*
X773774Y302862D01*
X773823Y302913D01*
X773874Y302962D01*
X773927Y303007D01*
X773983Y303050D01*
X774041Y303090D01*
X774101Y303126D01*
X774162Y303160D01*
X774226Y303190D01*
X774290Y303217D01*
X774357Y303240D01*
X774424Y303260D01*
X774492Y303277D01*
X774561Y303289D01*
X774631Y303299D01*
X774701Y303304D01*
X774771Y303306D01*
X776915Y303306D01*
X776985Y303304D01*
X777055Y303299D01*
X777125Y303289D01*
X777194Y303277D01*
X777262Y303260D01*
X777329Y303240D01*
X777396Y303217D01*
X777460Y303190D01*
X777524Y303160D01*
X777586Y303126D01*
X777645Y303090D01*
X777703Y303050D01*
X777759Y303007D01*
X777812Y302962D01*
X777863Y302913D01*
X777912Y302862D01*
X777957Y302809D01*
X778000Y302753D01*
X778040Y302695D01*
X778076Y302635D01*
X778110Y302574D01*
X778140Y302510D01*
X778167Y302446D01*
X778190Y302379D01*
X778210Y302312D01*
X778227Y302244D01*
X778239Y302175D01*
X778249Y302105D01*
X778254Y302035D01*
X778256Y301965D01*
X778256Y300625D01*
X774502Y306294D02*
X773430Y307635D01*
X778256Y307635D01*
X778256Y308975D02*
X778256Y306294D01*
D11*
X539750Y596900D02*
X527050Y596900D01*
X539750Y596900D02*
X546100Y590550D01*
X546100Y577850D02*
X539750Y571500D01*
X546100Y590550D02*
X552450Y596900D01*
X565150Y596900D01*
X571500Y590550D01*
X571500Y577850D02*
X565150Y571500D01*
X552450Y571500D01*
X546100Y577850D01*
X520700Y577850D02*
X520700Y590550D01*
X527050Y596900D01*
X520700Y577850D02*
X527050Y571500D01*
X539750Y571500D01*
X571500Y577850D02*
X571500Y590550D01*
D12*
X522944Y599877D02*
X522944Y603631D01*
X522943Y599877D02*
X522941Y599812D01*
X522935Y599748D01*
X522925Y599684D01*
X522912Y599620D01*
X522894Y599558D01*
X522873Y599497D01*
X522849Y599437D01*
X522820Y599379D01*
X522788Y599322D01*
X522753Y599268D01*
X522715Y599216D01*
X522673Y599166D01*
X522629Y599119D01*
X522582Y599075D01*
X522532Y599033D01*
X522480Y598995D01*
X522426Y598960D01*
X522369Y598928D01*
X522311Y598899D01*
X522251Y598875D01*
X522190Y598854D01*
X522128Y598836D01*
X522064Y598823D01*
X522000Y598813D01*
X521936Y598807D01*
X521871Y598805D01*
X521335Y598805D01*
X527366Y603631D02*
X527434Y603629D01*
X527501Y603623D01*
X527568Y603614D01*
X527635Y603601D01*
X527700Y603584D01*
X527765Y603563D01*
X527828Y603539D01*
X527890Y603511D01*
X527950Y603480D01*
X528008Y603446D01*
X528064Y603408D01*
X528119Y603368D01*
X528170Y603324D01*
X528219Y603277D01*
X528266Y603228D01*
X528310Y603177D01*
X528350Y603122D01*
X528388Y603066D01*
X528422Y603008D01*
X528453Y602948D01*
X528481Y602886D01*
X528505Y602823D01*
X528526Y602758D01*
X528543Y602693D01*
X528556Y602626D01*
X528565Y602559D01*
X528571Y602492D01*
X528573Y602424D01*
X527366Y603631D02*
X527288Y603629D01*
X527210Y603623D01*
X527133Y603613D01*
X527056Y603600D01*
X526980Y603582D01*
X526905Y603561D01*
X526831Y603536D01*
X526759Y603507D01*
X526688Y603475D01*
X526619Y603439D01*
X526551Y603400D01*
X526486Y603357D01*
X526423Y603311D01*
X526362Y603262D01*
X526304Y603210D01*
X526249Y603155D01*
X526196Y603098D01*
X526147Y603038D01*
X526100Y602975D01*
X526057Y602911D01*
X526017Y602844D01*
X525980Y602775D01*
X525947Y602704D01*
X525917Y602632D01*
X525891Y602559D01*
X528171Y601486D02*
X528220Y601535D01*
X528267Y601587D01*
X528310Y601642D01*
X528351Y601699D01*
X528389Y601758D01*
X528423Y601819D01*
X528454Y601882D01*
X528482Y601946D01*
X528506Y602012D01*
X528526Y602078D01*
X528543Y602146D01*
X528556Y602215D01*
X528565Y602284D01*
X528571Y602354D01*
X528573Y602424D01*
X528171Y601486D02*
X525892Y598805D01*
X528573Y598805D01*
D14*
X572770Y317500D02*
X572770Y306070D01*
X572770Y317500D02*
X570230Y332740D01*
X496570Y332740D02*
X494030Y317500D01*
X494030Y306070D01*
X561340Y332740D02*
X570230Y332740D01*
X551180Y332740D02*
X538480Y332740D01*
X528320Y332740D02*
X515620Y332740D01*
X505460Y332740D02*
X496570Y332740D01*
D15*
X568960Y306705D03*
D16*
X544830Y306705D03*
X521970Y306705D03*
D15*
X497840Y306705D03*
D12*
X554978Y341376D02*
X554978Y346456D01*
X554980Y346567D01*
X554986Y346677D01*
X554995Y346788D01*
X555009Y346898D01*
X555026Y347007D01*
X555047Y347116D01*
X555072Y347224D01*
X555101Y347331D01*
X555133Y347437D01*
X555169Y347542D01*
X555209Y347645D01*
X555252Y347747D01*
X555299Y347848D01*
X555350Y347947D01*
X555403Y348044D01*
X555460Y348138D01*
X555521Y348231D01*
X555584Y348322D01*
X555651Y348411D01*
X555721Y348497D01*
X555794Y348580D01*
X555869Y348662D01*
X555947Y348740D01*
X556029Y348815D01*
X556112Y348888D01*
X556198Y348958D01*
X556287Y349025D01*
X556378Y349088D01*
X556471Y349149D01*
X556566Y349206D01*
X556662Y349259D01*
X556761Y349310D01*
X556862Y349357D01*
X556964Y349400D01*
X557067Y349440D01*
X557172Y349476D01*
X557278Y349508D01*
X557385Y349537D01*
X557493Y349562D01*
X557602Y349583D01*
X557711Y349600D01*
X557821Y349614D01*
X557932Y349623D01*
X558042Y349629D01*
X558153Y349631D01*
X558264Y349629D01*
X558374Y349623D01*
X558485Y349614D01*
X558595Y349600D01*
X558704Y349583D01*
X558813Y349562D01*
X558921Y349537D01*
X559028Y349508D01*
X559134Y349476D01*
X559239Y349440D01*
X559342Y349400D01*
X559444Y349357D01*
X559545Y349310D01*
X559644Y349259D01*
X559741Y349206D01*
X559835Y349149D01*
X559928Y349088D01*
X560019Y349025D01*
X560108Y348958D01*
X560194Y348888D01*
X560277Y348815D01*
X560359Y348740D01*
X560437Y348662D01*
X560512Y348580D01*
X560585Y348497D01*
X560655Y348411D01*
X560722Y348322D01*
X560785Y348231D01*
X560846Y348138D01*
X560903Y348044D01*
X560956Y347947D01*
X561007Y347848D01*
X561054Y347747D01*
X561097Y347645D01*
X561137Y347542D01*
X561173Y347437D01*
X561205Y347331D01*
X561234Y347224D01*
X561259Y347116D01*
X561280Y347007D01*
X561297Y346898D01*
X561311Y346788D01*
X561320Y346677D01*
X561326Y346567D01*
X561328Y346456D01*
X561328Y341376D01*
X561326Y341265D01*
X561320Y341155D01*
X561311Y341044D01*
X561297Y340934D01*
X561280Y340825D01*
X561259Y340716D01*
X561234Y340608D01*
X561205Y340501D01*
X561173Y340395D01*
X561137Y340290D01*
X561097Y340187D01*
X561054Y340085D01*
X561007Y339984D01*
X560956Y339885D01*
X560903Y339788D01*
X560846Y339694D01*
X560785Y339601D01*
X560722Y339510D01*
X560655Y339421D01*
X560585Y339335D01*
X560512Y339252D01*
X560437Y339170D01*
X560359Y339092D01*
X560277Y339017D01*
X560194Y338944D01*
X560108Y338874D01*
X560019Y338807D01*
X559928Y338744D01*
X559835Y338683D01*
X559741Y338626D01*
X559644Y338573D01*
X559545Y338522D01*
X559444Y338475D01*
X559342Y338432D01*
X559239Y338392D01*
X559134Y338356D01*
X559028Y338324D01*
X558921Y338295D01*
X558813Y338270D01*
X558704Y338249D01*
X558595Y338232D01*
X558485Y338218D01*
X558374Y338209D01*
X558264Y338203D01*
X558153Y338201D01*
X558042Y338203D01*
X557932Y338209D01*
X557821Y338218D01*
X557711Y338232D01*
X557602Y338249D01*
X557493Y338270D01*
X557385Y338295D01*
X557278Y338324D01*
X557172Y338356D01*
X557067Y338392D01*
X556964Y338432D01*
X556862Y338475D01*
X556761Y338522D01*
X556662Y338573D01*
X556566Y338626D01*
X556471Y338683D01*
X556378Y338744D01*
X556287Y338807D01*
X556198Y338874D01*
X556112Y338944D01*
X556029Y339017D01*
X555947Y339092D01*
X555869Y339170D01*
X555794Y339252D01*
X555721Y339335D01*
X555651Y339421D01*
X555584Y339510D01*
X555521Y339601D01*
X555460Y339694D01*
X555403Y339789D01*
X555350Y339885D01*
X555299Y339984D01*
X555252Y340085D01*
X555209Y340187D01*
X555169Y340290D01*
X555133Y340395D01*
X555101Y340501D01*
X555072Y340608D01*
X555047Y340716D01*
X555026Y340825D01*
X555009Y340934D01*
X554995Y341044D01*
X554986Y341155D01*
X554980Y341265D01*
X554978Y341376D01*
X560058Y340741D02*
X562598Y338201D01*
X566039Y347091D02*
X569214Y349631D01*
X569214Y338201D01*
X566039Y338201D02*
X572389Y338201D01*
D11*
X190500Y325120D02*
X139700Y325120D01*
X190500Y325120D02*
X190500Y317500D01*
X190500Y309880D01*
X139700Y309880D01*
X139700Y317500D01*
X139700Y325120D01*
X190500Y317500D02*
X193040Y317500D01*
X139700Y317500D02*
X137160Y317500D01*
D12*
X161048Y328295D02*
X161048Y333121D01*
X162389Y333121D01*
X162460Y333119D01*
X162532Y333113D01*
X162602Y333104D01*
X162672Y333091D01*
X162742Y333074D01*
X162810Y333053D01*
X162877Y333029D01*
X162943Y333001D01*
X163007Y332970D01*
X163070Y332935D01*
X163130Y332897D01*
X163189Y332856D01*
X163245Y332812D01*
X163299Y332765D01*
X163350Y332716D01*
X163398Y332663D01*
X163444Y332608D01*
X163486Y332551D01*
X163526Y332491D01*
X163562Y332430D01*
X163595Y332366D01*
X163624Y332301D01*
X163650Y332235D01*
X163673Y332167D01*
X163692Y332098D01*
X163707Y332028D01*
X163718Y331958D01*
X163726Y331887D01*
X163730Y331816D01*
X163730Y331744D01*
X163726Y331673D01*
X163718Y331602D01*
X163707Y331532D01*
X163692Y331462D01*
X163673Y331393D01*
X163650Y331325D01*
X163624Y331259D01*
X163595Y331194D01*
X163562Y331130D01*
X163526Y331069D01*
X163486Y331009D01*
X163444Y330952D01*
X163398Y330897D01*
X163350Y330844D01*
X163299Y330795D01*
X163245Y330748D01*
X163189Y330704D01*
X163130Y330663D01*
X163070Y330625D01*
X163007Y330590D01*
X162943Y330559D01*
X162877Y330531D01*
X162810Y330507D01*
X162742Y330486D01*
X162672Y330469D01*
X162602Y330456D01*
X162532Y330447D01*
X162460Y330441D01*
X162389Y330439D01*
X162389Y330440D02*
X161048Y330440D01*
X162657Y330440D02*
X163729Y328295D01*
X166471Y332049D02*
X167811Y333121D01*
X167811Y328295D01*
X166471Y328295D02*
X169152Y328295D01*
D11*
X500380Y381000D02*
X500380Y431800D01*
X508000Y431800D01*
X515620Y431800D01*
X515620Y381000D01*
X508000Y381000D01*
X500380Y381000D01*
X508000Y431800D02*
X508000Y434340D01*
X508000Y381000D02*
X508000Y378460D01*
D12*
X497205Y402348D02*
X492379Y402348D01*
X492379Y403689D01*
X492381Y403760D01*
X492387Y403832D01*
X492396Y403902D01*
X492409Y403972D01*
X492426Y404042D01*
X492447Y404110D01*
X492471Y404177D01*
X492499Y404243D01*
X492530Y404307D01*
X492565Y404370D01*
X492603Y404430D01*
X492644Y404489D01*
X492688Y404545D01*
X492735Y404599D01*
X492784Y404650D01*
X492837Y404698D01*
X492892Y404744D01*
X492949Y404786D01*
X493009Y404826D01*
X493070Y404862D01*
X493134Y404895D01*
X493199Y404924D01*
X493265Y404950D01*
X493333Y404973D01*
X493402Y404992D01*
X493472Y405007D01*
X493542Y405018D01*
X493613Y405026D01*
X493684Y405030D01*
X493756Y405030D01*
X493827Y405026D01*
X493898Y405018D01*
X493968Y405007D01*
X494038Y404992D01*
X494107Y404973D01*
X494175Y404950D01*
X494241Y404924D01*
X494306Y404895D01*
X494370Y404862D01*
X494431Y404826D01*
X494491Y404786D01*
X494548Y404744D01*
X494603Y404698D01*
X494656Y404650D01*
X494705Y404599D01*
X494752Y404545D01*
X494796Y404489D01*
X494837Y404430D01*
X494875Y404370D01*
X494910Y404307D01*
X494941Y404243D01*
X494969Y404177D01*
X494993Y404110D01*
X495014Y404042D01*
X495031Y403972D01*
X495044Y403902D01*
X495053Y403832D01*
X495059Y403760D01*
X495061Y403689D01*
X495060Y403689D02*
X495060Y402348D01*
X495060Y403957D02*
X497205Y405029D01*
X492379Y409245D02*
X492381Y409313D01*
X492387Y409380D01*
X492396Y409447D01*
X492409Y409514D01*
X492426Y409579D01*
X492447Y409644D01*
X492471Y409707D01*
X492499Y409769D01*
X492530Y409829D01*
X492564Y409887D01*
X492602Y409943D01*
X492642Y409998D01*
X492686Y410049D01*
X492733Y410098D01*
X492782Y410145D01*
X492833Y410189D01*
X492888Y410229D01*
X492944Y410267D01*
X493002Y410301D01*
X493062Y410332D01*
X493124Y410360D01*
X493187Y410384D01*
X493252Y410405D01*
X493317Y410422D01*
X493384Y410435D01*
X493451Y410444D01*
X493518Y410450D01*
X493586Y410452D01*
X492379Y409245D02*
X492381Y409167D01*
X492387Y409089D01*
X492397Y409012D01*
X492410Y408935D01*
X492428Y408859D01*
X492449Y408784D01*
X492474Y408710D01*
X492503Y408638D01*
X492535Y408567D01*
X492571Y408498D01*
X492610Y408430D01*
X492653Y408365D01*
X492699Y408302D01*
X492748Y408241D01*
X492800Y408183D01*
X492855Y408128D01*
X492912Y408075D01*
X492972Y408026D01*
X493035Y407979D01*
X493100Y407936D01*
X493166Y407896D01*
X493235Y407859D01*
X493306Y407826D01*
X493378Y407796D01*
X493452Y407770D01*
X494524Y410050D02*
X494475Y410099D01*
X494423Y410146D01*
X494368Y410189D01*
X494311Y410230D01*
X494252Y410268D01*
X494191Y410302D01*
X494128Y410333D01*
X494064Y410361D01*
X493998Y410385D01*
X493932Y410405D01*
X493864Y410422D01*
X493795Y410435D01*
X493726Y410444D01*
X493656Y410450D01*
X493586Y410452D01*
X494524Y410050D02*
X497205Y407771D01*
X497205Y410452D01*
D11*
X805180Y406400D02*
X805180Y355600D01*
X805180Y406400D02*
X812800Y406400D01*
X820420Y406400D01*
X820420Y355600D01*
X812800Y355600D01*
X805180Y355600D01*
X812800Y406400D02*
X812800Y408940D01*
X812800Y355600D02*
X812800Y353060D01*
X190500Y411480D02*
X139700Y411480D01*
X139700Y419100D01*
X139700Y426720D01*
X190500Y426720D01*
X190500Y419100D01*
X190500Y411480D01*
X139700Y419100D02*
X137160Y419100D01*
X190500Y419100D02*
X193040Y419100D01*
X190500Y375920D02*
X139700Y375920D01*
X190500Y375920D02*
X190500Y368300D01*
X190500Y360680D01*
X139700Y360680D01*
X139700Y368300D01*
X139700Y375920D01*
X190500Y368300D02*
X193040Y368300D01*
X139700Y368300D02*
X137160Y368300D01*
D12*
X148348Y365125D02*
X148348Y360299D01*
X148348Y365125D02*
X149689Y365125D01*
X149760Y365123D01*
X149832Y365117D01*
X149902Y365108D01*
X149972Y365095D01*
X150042Y365078D01*
X150110Y365057D01*
X150177Y365033D01*
X150243Y365005D01*
X150307Y364974D01*
X150370Y364939D01*
X150430Y364901D01*
X150489Y364860D01*
X150545Y364816D01*
X150599Y364769D01*
X150650Y364720D01*
X150698Y364667D01*
X150744Y364612D01*
X150786Y364555D01*
X150826Y364495D01*
X150862Y364434D01*
X150895Y364370D01*
X150924Y364305D01*
X150950Y364239D01*
X150973Y364171D01*
X150992Y364102D01*
X151007Y364032D01*
X151018Y363962D01*
X151026Y363891D01*
X151030Y363820D01*
X151030Y363748D01*
X151026Y363677D01*
X151018Y363606D01*
X151007Y363536D01*
X150992Y363466D01*
X150973Y363397D01*
X150950Y363329D01*
X150924Y363263D01*
X150895Y363198D01*
X150862Y363134D01*
X150826Y363073D01*
X150786Y363013D01*
X150744Y362956D01*
X150698Y362901D01*
X150650Y362848D01*
X150599Y362799D01*
X150545Y362752D01*
X150489Y362708D01*
X150430Y362667D01*
X150370Y362629D01*
X150307Y362594D01*
X150243Y362563D01*
X150177Y362535D01*
X150110Y362511D01*
X150042Y362490D01*
X149972Y362473D01*
X149902Y362460D01*
X149832Y362451D01*
X149760Y362445D01*
X149689Y362443D01*
X149689Y362444D02*
X148348Y362444D01*
X149957Y362444D02*
X151029Y360299D01*
X153771Y360299D02*
X155379Y360299D01*
X155444Y360301D01*
X155508Y360307D01*
X155572Y360317D01*
X155636Y360330D01*
X155698Y360348D01*
X155759Y360369D01*
X155819Y360393D01*
X155877Y360422D01*
X155934Y360454D01*
X155988Y360489D01*
X156040Y360527D01*
X156090Y360569D01*
X156137Y360613D01*
X156181Y360660D01*
X156223Y360710D01*
X156261Y360762D01*
X156296Y360816D01*
X156328Y360873D01*
X156357Y360931D01*
X156381Y360991D01*
X156402Y361052D01*
X156420Y361114D01*
X156433Y361178D01*
X156443Y361242D01*
X156449Y361306D01*
X156451Y361371D01*
X156452Y361371D02*
X156452Y361908D01*
X156451Y361908D02*
X156449Y361973D01*
X156443Y362037D01*
X156433Y362101D01*
X156420Y362165D01*
X156402Y362227D01*
X156381Y362288D01*
X156357Y362348D01*
X156328Y362406D01*
X156296Y362463D01*
X156261Y362517D01*
X156223Y362569D01*
X156181Y362619D01*
X156137Y362666D01*
X156090Y362710D01*
X156040Y362752D01*
X155988Y362790D01*
X155934Y362825D01*
X155877Y362857D01*
X155819Y362886D01*
X155759Y362910D01*
X155698Y362931D01*
X155636Y362949D01*
X155572Y362962D01*
X155508Y362972D01*
X155444Y362978D01*
X155379Y362980D01*
X153771Y362980D01*
X153771Y365125D01*
X156452Y365125D01*
D17*
X69400Y139700D02*
X69400Y596700D01*
X102400Y596700D01*
X156400Y596700D01*
X235400Y596700D01*
X235400Y139700D01*
X69400Y139700D01*
X156400Y596700D02*
X156400Y646700D01*
X102400Y646700D02*
X102400Y596700D01*
X79400Y646700D02*
X179400Y646700D01*
X82400Y916700D02*
X82414Y917853D01*
X82457Y919006D01*
X82527Y920158D01*
X82626Y921307D01*
X82753Y922453D01*
X82909Y923596D01*
X83092Y924735D01*
X83303Y925869D01*
X83542Y926998D01*
X83809Y928120D01*
X84103Y929235D01*
X84424Y930343D01*
X84772Y931443D01*
X85147Y932534D01*
X85549Y933615D01*
X85978Y934686D01*
X86432Y935746D01*
X86913Y936795D01*
X87418Y937832D01*
X87950Y938856D01*
X88506Y939866D01*
X89087Y940863D01*
X89692Y941845D01*
X90321Y942812D01*
X90974Y943763D01*
X91649Y944698D01*
X92348Y945616D01*
X93069Y946516D01*
X93811Y947399D01*
X94575Y948263D01*
X95360Y949108D01*
X96166Y949934D01*
X96992Y950740D01*
X97837Y951525D01*
X98701Y952289D01*
X99584Y953031D01*
X100484Y953752D01*
X101402Y954451D01*
X102337Y955126D01*
X103288Y955779D01*
X104255Y956408D01*
X105237Y957013D01*
X106234Y957594D01*
X107244Y958150D01*
X108268Y958682D01*
X109305Y959187D01*
X110354Y959668D01*
X111414Y960122D01*
X112485Y960551D01*
X113566Y960953D01*
X114657Y961328D01*
X115757Y961676D01*
X116865Y961997D01*
X117980Y962291D01*
X119102Y962558D01*
X120231Y962797D01*
X121365Y963008D01*
X122504Y963191D01*
X123647Y963347D01*
X124793Y963474D01*
X125942Y963573D01*
X127094Y963643D01*
X128247Y963686D01*
X129400Y963700D01*
X130553Y963686D01*
X131706Y963643D01*
X132858Y963573D01*
X134007Y963474D01*
X135153Y963347D01*
X136296Y963191D01*
X137435Y963008D01*
X138569Y962797D01*
X139698Y962558D01*
X140820Y962291D01*
X141935Y961997D01*
X143043Y961676D01*
X144143Y961328D01*
X145234Y960953D01*
X146315Y960551D01*
X147386Y960122D01*
X148446Y959668D01*
X149495Y959187D01*
X150532Y958682D01*
X151556Y958150D01*
X152566Y957594D01*
X153563Y957013D01*
X154545Y956408D01*
X155512Y955779D01*
X156463Y955126D01*
X157398Y954451D01*
X158316Y953752D01*
X159216Y953031D01*
X160099Y952289D01*
X160963Y951525D01*
X161808Y950740D01*
X162634Y949934D01*
X163440Y949108D01*
X164225Y948263D01*
X164989Y947399D01*
X165731Y946516D01*
X166452Y945616D01*
X167151Y944698D01*
X167826Y943763D01*
X168479Y942812D01*
X169108Y941845D01*
X169713Y940863D01*
X170294Y939866D01*
X170850Y938856D01*
X171382Y937832D01*
X171887Y936795D01*
X172368Y935746D01*
X172822Y934686D01*
X173251Y933615D01*
X173653Y932534D01*
X174028Y931443D01*
X174376Y930343D01*
X174697Y929235D01*
X174991Y928120D01*
X175258Y926998D01*
X175497Y925869D01*
X175708Y924735D01*
X175891Y923596D01*
X176047Y922453D01*
X176174Y921307D01*
X176273Y920158D01*
X176343Y919006D01*
X176386Y917853D01*
X176400Y916700D01*
X176386Y915547D01*
X176343Y914394D01*
X176273Y913242D01*
X176174Y912093D01*
X176047Y910947D01*
X175891Y909804D01*
X175708Y908665D01*
X175497Y907531D01*
X175258Y906402D01*
X174991Y905280D01*
X174697Y904165D01*
X174376Y903057D01*
X174028Y901957D01*
X173653Y900866D01*
X173251Y899785D01*
X172822Y898714D01*
X172368Y897654D01*
X171887Y896605D01*
X171382Y895568D01*
X170850Y894544D01*
X170294Y893534D01*
X169713Y892537D01*
X169108Y891555D01*
X168479Y890588D01*
X167826Y889637D01*
X167151Y888702D01*
X166452Y887784D01*
X165731Y886884D01*
X164989Y886001D01*
X164225Y885137D01*
X163440Y884292D01*
X162634Y883466D01*
X161808Y882660D01*
X160963Y881875D01*
X160099Y881111D01*
X159216Y880369D01*
X158316Y879648D01*
X157398Y878949D01*
X156463Y878274D01*
X155512Y877621D01*
X154545Y876992D01*
X153563Y876387D01*
X152566Y875806D01*
X151556Y875250D01*
X150532Y874718D01*
X149495Y874213D01*
X148446Y873732D01*
X147386Y873278D01*
X146315Y872849D01*
X145234Y872447D01*
X144143Y872072D01*
X143043Y871724D01*
X141935Y871403D01*
X140820Y871109D01*
X139698Y870842D01*
X138569Y870603D01*
X137435Y870392D01*
X136296Y870209D01*
X135153Y870053D01*
X134007Y869926D01*
X132858Y869827D01*
X131706Y869757D01*
X130553Y869714D01*
X129400Y869700D01*
X128247Y869714D01*
X127094Y869757D01*
X125942Y869827D01*
X124793Y869926D01*
X123647Y870053D01*
X122504Y870209D01*
X121365Y870392D01*
X120231Y870603D01*
X119102Y870842D01*
X117980Y871109D01*
X116865Y871403D01*
X115757Y871724D01*
X114657Y872072D01*
X113566Y872447D01*
X112485Y872849D01*
X111414Y873278D01*
X110354Y873732D01*
X109305Y874213D01*
X108268Y874718D01*
X107244Y875250D01*
X106234Y875806D01*
X105237Y876387D01*
X104255Y876992D01*
X103288Y877621D01*
X102337Y878274D01*
X101402Y878949D01*
X100484Y879648D01*
X99584Y880369D01*
X98701Y881111D01*
X97837Y881875D01*
X96992Y882660D01*
X96166Y883466D01*
X95360Y884292D01*
X94575Y885137D01*
X93811Y886001D01*
X93069Y886884D01*
X92348Y887784D01*
X91649Y888702D01*
X90974Y889637D01*
X90321Y890588D01*
X89692Y891555D01*
X89087Y892537D01*
X88506Y893534D01*
X87950Y894544D01*
X87418Y895568D01*
X86913Y896605D01*
X86432Y897654D01*
X85978Y898714D01*
X85549Y899785D01*
X85147Y900866D01*
X84772Y901957D01*
X84424Y903057D01*
X84103Y904165D01*
X83809Y905280D01*
X83542Y906402D01*
X83303Y907531D01*
X83092Y908665D01*
X82909Y909804D01*
X82753Y910947D01*
X82626Y912093D01*
X82527Y913242D01*
X82457Y914394D01*
X82414Y915547D01*
X82400Y916700D01*
X176400Y916700D02*
X176400Y744700D01*
X82400Y744700D02*
X82400Y916700D01*
X79400Y744700D02*
X179400Y744700D01*
X179400Y646700D01*
X79400Y646700D02*
X79400Y744700D01*
X89400Y1706700D02*
X89412Y1707674D01*
X89447Y1708648D01*
X89507Y1709620D01*
X89590Y1710590D01*
X89696Y1711559D01*
X89826Y1712524D01*
X89980Y1713486D01*
X90157Y1714444D01*
X90357Y1715397D01*
X90580Y1716345D01*
X90827Y1717288D01*
X91096Y1718224D01*
X91388Y1719153D01*
X91702Y1720075D01*
X92039Y1720989D01*
X92398Y1721895D01*
X92779Y1722791D01*
X93182Y1723678D01*
X93606Y1724555D01*
X94052Y1725421D01*
X94518Y1726277D01*
X95005Y1727120D01*
X95513Y1727952D01*
X96040Y1728771D01*
X96587Y1729577D01*
X97154Y1730369D01*
X97740Y1731147D01*
X98345Y1731911D01*
X98968Y1732659D01*
X99609Y1733393D01*
X100268Y1734110D01*
X100944Y1734812D01*
X101637Y1735496D01*
X102346Y1736164D01*
X103072Y1736814D01*
X103813Y1737446D01*
X104569Y1738060D01*
X105340Y1738655D01*
X106126Y1739232D01*
X106925Y1739789D01*
X107737Y1740326D01*
X108562Y1740844D01*
X109400Y1741341D01*
X110249Y1741818D01*
X111110Y1742274D01*
X111982Y1742709D01*
X112864Y1743122D01*
X113756Y1743514D01*
X114657Y1743884D01*
X115567Y1744232D01*
X116485Y1744558D01*
X117410Y1744861D01*
X118343Y1745142D01*
X119283Y1745399D01*
X120228Y1745634D01*
X121179Y1745846D01*
X122135Y1746035D01*
X123095Y1746200D01*
X124058Y1746342D01*
X125025Y1746460D01*
X125995Y1746555D01*
X126966Y1746626D01*
X127939Y1746673D01*
X128913Y1746697D01*
X129887Y1746697D01*
X130861Y1746673D01*
X131834Y1746626D01*
X132805Y1746555D01*
X133775Y1746460D01*
X134742Y1746342D01*
X135705Y1746200D01*
X136665Y1746035D01*
X137621Y1745846D01*
X138572Y1745634D01*
X139517Y1745399D01*
X140457Y1745142D01*
X141390Y1744861D01*
X142315Y1744558D01*
X143233Y1744232D01*
X144143Y1743884D01*
X145044Y1743514D01*
X145936Y1743122D01*
X146818Y1742709D01*
X147690Y1742274D01*
X148551Y1741818D01*
X149400Y1741341D01*
X150238Y1740844D01*
X151063Y1740326D01*
X151875Y1739789D01*
X152674Y1739232D01*
X153460Y1738655D01*
X154231Y1738060D01*
X154987Y1737446D01*
X155728Y1736814D01*
X156454Y1736164D01*
X157163Y1735496D01*
X157856Y1734812D01*
X158532Y1734110D01*
X159191Y1733393D01*
X159832Y1732659D01*
X160455Y1731911D01*
X161060Y1731147D01*
X161646Y1730369D01*
X162213Y1729577D01*
X162760Y1728771D01*
X163287Y1727952D01*
X163795Y1727120D01*
X164282Y1726277D01*
X164748Y1725421D01*
X165194Y1724555D01*
X165618Y1723678D01*
X166021Y1722791D01*
X166402Y1721895D01*
X166761Y1720989D01*
X167098Y1720075D01*
X167412Y1719153D01*
X167704Y1718224D01*
X167973Y1717288D01*
X168220Y1716345D01*
X168443Y1715397D01*
X168643Y1714444D01*
X168820Y1713486D01*
X168974Y1712524D01*
X169104Y1711559D01*
X169210Y1710590D01*
X169293Y1709620D01*
X169353Y1708648D01*
X169388Y1707674D01*
X169400Y1706700D01*
X176400Y916700D01*
X82400Y916700D02*
X89400Y1706700D01*
X109605Y152400D02*
X109607Y152537D01*
X109613Y152673D01*
X109623Y152809D01*
X109637Y152945D01*
X109655Y153080D01*
X109676Y153215D01*
X109702Y153349D01*
X109732Y153483D01*
X109765Y153615D01*
X109802Y153747D01*
X109843Y153877D01*
X109888Y154006D01*
X109937Y154133D01*
X109989Y154260D01*
X110045Y154384D01*
X110104Y154507D01*
X110167Y154628D01*
X110234Y154747D01*
X110304Y154865D01*
X110377Y154980D01*
X110454Y155093D01*
X110534Y155204D01*
X110617Y155312D01*
X110703Y155418D01*
X110793Y155521D01*
X110885Y155622D01*
X110980Y155720D01*
X111078Y155815D01*
X111179Y155907D01*
X111282Y155997D01*
X111388Y156083D01*
X111496Y156166D01*
X111607Y156246D01*
X111720Y156323D01*
X111835Y156396D01*
X111952Y156466D01*
X112072Y156533D01*
X112193Y156596D01*
X112316Y156655D01*
X112440Y156711D01*
X112567Y156763D01*
X112694Y156812D01*
X112823Y156857D01*
X112953Y156898D01*
X113085Y156935D01*
X113217Y156968D01*
X113351Y156998D01*
X113485Y157024D01*
X113620Y157045D01*
X113755Y157063D01*
X113891Y157077D01*
X114027Y157087D01*
X114163Y157093D01*
X114300Y157095D01*
X114437Y157093D01*
X114573Y157087D01*
X114709Y157077D01*
X114845Y157063D01*
X114980Y157045D01*
X115115Y157024D01*
X115249Y156998D01*
X115383Y156968D01*
X115515Y156935D01*
X115647Y156898D01*
X115777Y156857D01*
X115906Y156812D01*
X116033Y156763D01*
X116160Y156711D01*
X116284Y156655D01*
X116407Y156596D01*
X116528Y156533D01*
X116647Y156466D01*
X116765Y156396D01*
X116880Y156323D01*
X116993Y156246D01*
X117104Y156166D01*
X117212Y156083D01*
X117318Y155997D01*
X117421Y155907D01*
X117522Y155815D01*
X117620Y155720D01*
X117715Y155622D01*
X117807Y155521D01*
X117897Y155418D01*
X117983Y155312D01*
X118066Y155204D01*
X118146Y155093D01*
X118223Y154980D01*
X118296Y154865D01*
X118366Y154747D01*
X118433Y154628D01*
X118496Y154507D01*
X118555Y154384D01*
X118611Y154260D01*
X118663Y154133D01*
X118712Y154006D01*
X118757Y153877D01*
X118798Y153747D01*
X118835Y153615D01*
X118868Y153483D01*
X118898Y153349D01*
X118924Y153215D01*
X118945Y153080D01*
X118963Y152945D01*
X118977Y152809D01*
X118987Y152673D01*
X118993Y152537D01*
X118995Y152400D01*
X118993Y152263D01*
X118987Y152127D01*
X118977Y151991D01*
X118963Y151855D01*
X118945Y151720D01*
X118924Y151585D01*
X118898Y151451D01*
X118868Y151317D01*
X118835Y151185D01*
X118798Y151053D01*
X118757Y150923D01*
X118712Y150794D01*
X118663Y150667D01*
X118611Y150540D01*
X118555Y150416D01*
X118496Y150293D01*
X118433Y150172D01*
X118366Y150052D01*
X118296Y149935D01*
X118223Y149820D01*
X118146Y149707D01*
X118066Y149596D01*
X117983Y149488D01*
X117897Y149382D01*
X117807Y149279D01*
X117715Y149178D01*
X117620Y149080D01*
X117522Y148985D01*
X117421Y148893D01*
X117318Y148803D01*
X117212Y148717D01*
X117104Y148634D01*
X116993Y148554D01*
X116880Y148477D01*
X116765Y148404D01*
X116648Y148334D01*
X116528Y148267D01*
X116407Y148204D01*
X116284Y148145D01*
X116160Y148089D01*
X116033Y148037D01*
X115906Y147988D01*
X115777Y147943D01*
X115647Y147902D01*
X115515Y147865D01*
X115383Y147832D01*
X115249Y147802D01*
X115115Y147776D01*
X114980Y147755D01*
X114845Y147737D01*
X114709Y147723D01*
X114573Y147713D01*
X114437Y147707D01*
X114300Y147705D01*
X114163Y147707D01*
X114027Y147713D01*
X113891Y147723D01*
X113755Y147737D01*
X113620Y147755D01*
X113485Y147776D01*
X113351Y147802D01*
X113217Y147832D01*
X113085Y147865D01*
X112953Y147902D01*
X112823Y147943D01*
X112694Y147988D01*
X112567Y148037D01*
X112440Y148089D01*
X112316Y148145D01*
X112193Y148204D01*
X112072Y148267D01*
X111952Y148334D01*
X111835Y148404D01*
X111720Y148477D01*
X111607Y148554D01*
X111496Y148634D01*
X111388Y148717D01*
X111282Y148803D01*
X111179Y148893D01*
X111078Y148985D01*
X110980Y149080D01*
X110885Y149178D01*
X110793Y149279D01*
X110703Y149382D01*
X110617Y149488D01*
X110534Y149596D01*
X110454Y149707D01*
X110377Y149820D01*
X110304Y149935D01*
X110234Y150052D01*
X110167Y150172D01*
X110104Y150293D01*
X110045Y150416D01*
X109989Y150540D01*
X109937Y150667D01*
X109888Y150794D01*
X109843Y150923D01*
X109802Y151053D01*
X109765Y151185D01*
X109732Y151317D01*
X109702Y151451D01*
X109676Y151585D01*
X109655Y151720D01*
X109637Y151855D01*
X109623Y151991D01*
X109613Y152127D01*
X109607Y152263D01*
X109605Y152400D01*
D18*
X92004Y146558D02*
X89408Y149804D01*
X101092Y149804D01*
X101092Y153049D02*
X101092Y146558D01*
X101092Y241808D02*
X93303Y241808D01*
X93303Y245054D01*
X93305Y245141D01*
X93311Y245229D01*
X93321Y245315D01*
X93334Y245402D01*
X93352Y245487D01*
X93373Y245572D01*
X93398Y245656D01*
X93427Y245738D01*
X93460Y245819D01*
X93496Y245899D01*
X93535Y245977D01*
X93579Y246053D01*
X93625Y246127D01*
X93675Y246198D01*
X93728Y246268D01*
X93784Y246335D01*
X93843Y246399D01*
X93904Y246461D01*
X93969Y246520D01*
X94036Y246576D01*
X94106Y246629D01*
X94177Y246679D01*
X94251Y246725D01*
X94327Y246769D01*
X94405Y246808D01*
X94485Y246844D01*
X94566Y246877D01*
X94648Y246906D01*
X94732Y246931D01*
X94817Y246952D01*
X94902Y246970D01*
X94989Y246983D01*
X95075Y246993D01*
X95163Y246999D01*
X95250Y247001D01*
X101092Y247001D01*
X101092Y252663D02*
X89408Y252663D01*
X89408Y255908D01*
X89410Y256021D01*
X89416Y256134D01*
X89426Y256247D01*
X89440Y256360D01*
X89457Y256472D01*
X89479Y256583D01*
X89504Y256693D01*
X89534Y256803D01*
X89567Y256911D01*
X89604Y257018D01*
X89644Y257124D01*
X89689Y257228D01*
X89737Y257331D01*
X89788Y257432D01*
X89843Y257531D01*
X89901Y257628D01*
X89963Y257723D01*
X90028Y257816D01*
X90096Y257906D01*
X90167Y257994D01*
X90242Y258080D01*
X90319Y258163D01*
X90399Y258243D01*
X90482Y258320D01*
X90568Y258395D01*
X90656Y258466D01*
X90746Y258534D01*
X90839Y258599D01*
X90934Y258661D01*
X91031Y258719D01*
X91130Y258774D01*
X91231Y258825D01*
X91334Y258873D01*
X91438Y258918D01*
X91544Y258958D01*
X91651Y258995D01*
X91759Y259028D01*
X91869Y259058D01*
X91979Y259083D01*
X92090Y259105D01*
X92202Y259122D01*
X92315Y259136D01*
X92428Y259146D01*
X92541Y259152D01*
X92654Y259154D01*
X92767Y259152D01*
X92880Y259146D01*
X92993Y259136D01*
X93106Y259122D01*
X93218Y259105D01*
X93329Y259083D01*
X93439Y259058D01*
X93549Y259028D01*
X93657Y258995D01*
X93764Y258958D01*
X93870Y258918D01*
X93974Y258873D01*
X94077Y258825D01*
X94178Y258774D01*
X94277Y258719D01*
X94374Y258661D01*
X94469Y258599D01*
X94562Y258534D01*
X94652Y258466D01*
X94740Y258395D01*
X94826Y258320D01*
X94909Y258243D01*
X94989Y258163D01*
X95066Y258080D01*
X95141Y257994D01*
X95212Y257906D01*
X95280Y257816D01*
X95345Y257723D01*
X95407Y257628D01*
X95465Y257531D01*
X95520Y257432D01*
X95571Y257331D01*
X95619Y257228D01*
X95664Y257124D01*
X95704Y257018D01*
X95741Y256911D01*
X95774Y256803D01*
X95804Y256693D01*
X95829Y256583D01*
X95851Y256472D01*
X95868Y256360D01*
X95882Y256247D01*
X95892Y256134D01*
X95898Y256021D01*
X95900Y255908D01*
X95899Y255908D02*
X95899Y252663D01*
X95899Y256557D02*
X101092Y259154D01*
X101092Y264422D02*
X89408Y264422D01*
X89408Y269615D01*
X94601Y269615D02*
X94601Y264422D01*
X89408Y277495D02*
X89410Y277602D01*
X89416Y277708D01*
X89426Y277814D01*
X89439Y277920D01*
X89457Y278026D01*
X89478Y278130D01*
X89503Y278234D01*
X89532Y278337D01*
X89564Y278438D01*
X89601Y278538D01*
X89641Y278637D01*
X89684Y278735D01*
X89731Y278831D01*
X89782Y278925D01*
X89836Y279017D01*
X89893Y279107D01*
X89953Y279195D01*
X90017Y279280D01*
X90084Y279363D01*
X90154Y279444D01*
X90226Y279522D01*
X90302Y279598D01*
X90380Y279670D01*
X90461Y279740D01*
X90544Y279807D01*
X90629Y279871D01*
X90717Y279931D01*
X90807Y279988D01*
X90899Y280042D01*
X90993Y280093D01*
X91089Y280140D01*
X91187Y280183D01*
X91286Y280223D01*
X91386Y280260D01*
X91487Y280292D01*
X91590Y280321D01*
X91694Y280346D01*
X91798Y280367D01*
X91904Y280385D01*
X92010Y280398D01*
X92116Y280408D01*
X92222Y280414D01*
X92329Y280416D01*
X89408Y277495D02*
X89410Y277374D01*
X89416Y277253D01*
X89426Y277133D01*
X89439Y277012D01*
X89457Y276893D01*
X89478Y276773D01*
X89503Y276655D01*
X89532Y276538D01*
X89565Y276421D01*
X89601Y276306D01*
X89642Y276192D01*
X89685Y276079D01*
X89733Y275967D01*
X89784Y275858D01*
X89839Y275750D01*
X89897Y275643D01*
X89958Y275539D01*
X90023Y275437D01*
X90091Y275337D01*
X90162Y275239D01*
X90236Y275143D01*
X90313Y275050D01*
X90394Y274960D01*
X90477Y274872D01*
X90563Y274787D01*
X90652Y274704D01*
X90743Y274625D01*
X90837Y274548D01*
X90933Y274475D01*
X91031Y274405D01*
X91132Y274338D01*
X91235Y274274D01*
X91340Y274214D01*
X91447Y274156D01*
X91555Y274103D01*
X91665Y274053D01*
X91777Y274007D01*
X91890Y273964D01*
X92005Y273925D01*
X94601Y279442D02*
X94523Y279521D01*
X94443Y279597D01*
X94360Y279670D01*
X94274Y279740D01*
X94187Y279807D01*
X94096Y279871D01*
X94004Y279931D01*
X93910Y279989D01*
X93813Y280043D01*
X93715Y280093D01*
X93615Y280140D01*
X93514Y280184D01*
X93411Y280224D01*
X93306Y280260D01*
X93201Y280292D01*
X93094Y280321D01*
X92987Y280346D01*
X92878Y280368D01*
X92769Y280385D01*
X92660Y280399D01*
X92550Y280408D01*
X92439Y280414D01*
X92329Y280416D01*
X94601Y279442D02*
X101092Y273925D01*
X101092Y280416D01*
X98496Y285355D02*
X89408Y287951D01*
X98496Y285355D02*
X98496Y291846D01*
X95899Y289899D02*
X101092Y289899D01*
X101092Y297188D02*
X89408Y297188D01*
X101092Y297188D02*
X101092Y302381D01*
X95250Y306690D02*
X95020Y306693D01*
X94790Y306701D01*
X94561Y306715D01*
X94332Y306734D01*
X94103Y306759D01*
X93875Y306789D01*
X93648Y306824D01*
X93422Y306865D01*
X93197Y306911D01*
X92973Y306963D01*
X92750Y307020D01*
X92529Y307082D01*
X92309Y307150D01*
X92091Y307223D01*
X91875Y307301D01*
X91661Y307384D01*
X91449Y307472D01*
X91238Y307565D01*
X91031Y307664D01*
X90941Y307697D01*
X90852Y307733D01*
X90764Y307773D01*
X90679Y307817D01*
X90595Y307864D01*
X90513Y307914D01*
X90433Y307968D01*
X90356Y308024D01*
X90280Y308084D01*
X90207Y308147D01*
X90137Y308212D01*
X90069Y308281D01*
X90005Y308352D01*
X89943Y308425D01*
X89884Y308501D01*
X89828Y308579D01*
X89775Y308660D01*
X89726Y308742D01*
X89680Y308826D01*
X89637Y308913D01*
X89598Y309000D01*
X89562Y309090D01*
X89530Y309180D01*
X89502Y309272D01*
X89477Y309365D01*
X89456Y309459D01*
X89439Y309553D01*
X89425Y309648D01*
X89416Y309744D01*
X89410Y309840D01*
X89408Y309936D01*
X89410Y310032D01*
X89416Y310128D01*
X89425Y310224D01*
X89439Y310319D01*
X89456Y310413D01*
X89477Y310507D01*
X89502Y310600D01*
X89530Y310692D01*
X89562Y310782D01*
X89598Y310872D01*
X89637Y310960D01*
X89680Y311046D01*
X89726Y311130D01*
X89775Y311212D01*
X89828Y311293D01*
X89884Y311371D01*
X89943Y311447D01*
X90005Y311520D01*
X90069Y311591D01*
X90137Y311660D01*
X90207Y311725D01*
X90280Y311788D01*
X90356Y311848D01*
X90433Y311904D01*
X90513Y311958D01*
X90595Y312008D01*
X90679Y312055D01*
X90764Y312099D01*
X90852Y312139D01*
X90941Y312175D01*
X91031Y312208D01*
X91238Y312307D01*
X91449Y312400D01*
X91661Y312488D01*
X91875Y312571D01*
X92091Y312649D01*
X92309Y312722D01*
X92529Y312790D01*
X92750Y312852D01*
X92973Y312909D01*
X93197Y312961D01*
X93422Y313007D01*
X93648Y313048D01*
X93875Y313083D01*
X94103Y313113D01*
X94332Y313138D01*
X94561Y313157D01*
X94790Y313171D01*
X95020Y313179D01*
X95250Y313182D01*
X95250Y306690D02*
X95480Y306693D01*
X95710Y306701D01*
X95939Y306715D01*
X96168Y306734D01*
X96397Y306759D01*
X96625Y306789D01*
X96852Y306824D01*
X97078Y306865D01*
X97303Y306911D01*
X97527Y306963D01*
X97750Y307020D01*
X97971Y307082D01*
X98191Y307150D01*
X98409Y307223D01*
X98625Y307301D01*
X98839Y307384D01*
X99051Y307472D01*
X99262Y307565D01*
X99469Y307664D01*
X99559Y307697D01*
X99648Y307733D01*
X99736Y307774D01*
X99821Y307817D01*
X99905Y307864D01*
X99987Y307914D01*
X100067Y307968D01*
X100144Y308024D01*
X100220Y308084D01*
X100293Y308147D01*
X100363Y308212D01*
X100431Y308281D01*
X100495Y308352D01*
X100557Y308425D01*
X100616Y308501D01*
X100672Y308579D01*
X100725Y308660D01*
X100774Y308742D01*
X100820Y308826D01*
X100863Y308913D01*
X100902Y309000D01*
X100938Y309090D01*
X100970Y309180D01*
X100998Y309272D01*
X101023Y309365D01*
X101044Y309459D01*
X101061Y309553D01*
X101075Y309648D01*
X101084Y309744D01*
X101090Y309840D01*
X101092Y309936D01*
X99469Y312208D02*
X99262Y312307D01*
X99051Y312400D01*
X98839Y312488D01*
X98625Y312571D01*
X98409Y312649D01*
X98191Y312722D01*
X97971Y312790D01*
X97750Y312852D01*
X97527Y312909D01*
X97303Y312961D01*
X97078Y313007D01*
X96852Y313048D01*
X96625Y313083D01*
X96397Y313113D01*
X96168Y313138D01*
X95939Y313157D01*
X95710Y313171D01*
X95480Y313179D01*
X95250Y313182D01*
X99469Y312208D02*
X99559Y312175D01*
X99648Y312139D01*
X99736Y312099D01*
X99821Y312055D01*
X99905Y312008D01*
X99987Y311958D01*
X100067Y311904D01*
X100144Y311848D01*
X100220Y311788D01*
X100293Y311725D01*
X100363Y311660D01*
X100431Y311591D01*
X100495Y311520D01*
X100557Y311447D01*
X100616Y311371D01*
X100672Y311293D01*
X100725Y311212D01*
X100774Y311130D01*
X100820Y311046D01*
X100863Y310959D01*
X100902Y310872D01*
X100938Y310782D01*
X100970Y310692D01*
X100998Y310600D01*
X101023Y310507D01*
X101044Y310413D01*
X101061Y310319D01*
X101075Y310224D01*
X101084Y310128D01*
X101090Y310032D01*
X101092Y309936D01*
X98496Y307340D02*
X92004Y312533D01*
X92004Y318121D02*
X89408Y321366D01*
X101092Y321366D01*
X101092Y318121D02*
X101092Y324612D01*
X114808Y241808D02*
X123246Y241808D01*
X123359Y241810D01*
X123472Y241816D01*
X123585Y241826D01*
X123698Y241840D01*
X123810Y241857D01*
X123921Y241879D01*
X124031Y241904D01*
X124141Y241934D01*
X124249Y241967D01*
X124356Y242004D01*
X124462Y242044D01*
X124566Y242089D01*
X124669Y242137D01*
X124770Y242188D01*
X124869Y242243D01*
X124966Y242301D01*
X125061Y242363D01*
X125154Y242428D01*
X125244Y242496D01*
X125332Y242567D01*
X125418Y242642D01*
X125501Y242719D01*
X125581Y242799D01*
X125658Y242882D01*
X125733Y242968D01*
X125804Y243056D01*
X125872Y243146D01*
X125937Y243239D01*
X125999Y243334D01*
X126057Y243431D01*
X126112Y243530D01*
X126163Y243631D01*
X126211Y243734D01*
X126256Y243838D01*
X126296Y243944D01*
X126333Y244051D01*
X126366Y244159D01*
X126396Y244269D01*
X126421Y244379D01*
X126443Y244490D01*
X126460Y244602D01*
X126474Y244715D01*
X126484Y244828D01*
X126490Y244941D01*
X126492Y245054D01*
X126490Y245167D01*
X126484Y245280D01*
X126474Y245393D01*
X126460Y245506D01*
X126443Y245618D01*
X126421Y245729D01*
X126396Y245839D01*
X126366Y245949D01*
X126333Y246057D01*
X126296Y246164D01*
X126256Y246270D01*
X126211Y246374D01*
X126163Y246477D01*
X126112Y246578D01*
X126057Y246677D01*
X125999Y246774D01*
X125937Y246869D01*
X125872Y246962D01*
X125804Y247052D01*
X125733Y247140D01*
X125658Y247226D01*
X125581Y247309D01*
X125501Y247389D01*
X125418Y247466D01*
X125332Y247541D01*
X125244Y247612D01*
X125154Y247680D01*
X125061Y247745D01*
X124966Y247807D01*
X124869Y247865D01*
X124770Y247920D01*
X124669Y247971D01*
X124566Y248019D01*
X124462Y248064D01*
X124356Y248104D01*
X124249Y248141D01*
X124141Y248174D01*
X124031Y248204D01*
X123921Y248229D01*
X123810Y248251D01*
X123698Y248268D01*
X123585Y248282D01*
X123472Y248292D01*
X123359Y248298D01*
X123246Y248300D01*
X123246Y248299D02*
X114808Y248299D01*
X114808Y256103D02*
X126492Y256103D01*
X120650Y256103D02*
X119676Y254480D01*
X119677Y254479D02*
X119630Y254406D01*
X119581Y254335D01*
X119528Y254266D01*
X119472Y254199D01*
X119413Y254135D01*
X119352Y254073D01*
X119288Y254015D01*
X119221Y253959D01*
X119152Y253907D01*
X119080Y253857D01*
X119006Y253811D01*
X118931Y253768D01*
X118853Y253729D01*
X118774Y253693D01*
X118693Y253661D01*
X118611Y253632D01*
X118528Y253607D01*
X118444Y253586D01*
X118359Y253569D01*
X118273Y253555D01*
X118187Y253546D01*
X118100Y253540D01*
X118013Y253538D01*
X117926Y253540D01*
X117839Y253546D01*
X117753Y253556D01*
X117667Y253569D01*
X117582Y253587D01*
X117498Y253608D01*
X117415Y253633D01*
X117332Y253662D01*
X117252Y253694D01*
X117173Y253730D01*
X117095Y253769D01*
X117020Y253812D01*
X116946Y253859D01*
X116875Y253908D01*
X116805Y253961D01*
X116739Y254016D01*
X116675Y254075D01*
X116613Y254136D01*
X116554Y254200D01*
X116499Y254267D01*
X116446Y254336D01*
X116396Y254408D01*
X116350Y254481D01*
X116307Y254557D01*
X116268Y254634D01*
X116232Y254713D01*
X116199Y254794D01*
X116171Y254876D01*
X116145Y254959D01*
X116124Y255043D01*
X116107Y255128D01*
X116106Y255129D02*
X116082Y255269D01*
X116062Y255411D01*
X116046Y255552D01*
X116035Y255694D01*
X116027Y255837D01*
X116023Y255979D01*
X116022Y256122D01*
X116026Y256265D01*
X116034Y256407D01*
X116046Y256549D01*
X116062Y256691D01*
X116081Y256832D01*
X116105Y256973D01*
X116132Y257113D01*
X116164Y257252D01*
X116199Y257390D01*
X116238Y257528D01*
X116281Y257664D01*
X116327Y257798D01*
X116378Y257932D01*
X116431Y258064D01*
X116489Y258194D01*
X116550Y258323D01*
X116615Y258450D01*
X116683Y258576D01*
X116755Y258699D01*
X120650Y256103D02*
X121624Y257725D01*
X121623Y257726D02*
X121670Y257799D01*
X121719Y257870D01*
X121772Y257940D01*
X121828Y258006D01*
X121887Y258070D01*
X121948Y258132D01*
X122012Y258190D01*
X122079Y258246D01*
X122148Y258298D01*
X122220Y258348D01*
X122294Y258394D01*
X122369Y258437D01*
X122447Y258476D01*
X122526Y258512D01*
X122607Y258544D01*
X122689Y258573D01*
X122772Y258598D01*
X122856Y258619D01*
X122941Y258636D01*
X123027Y258650D01*
X123114Y258659D01*
X123200Y258665D01*
X123287Y258667D01*
X123374Y258665D01*
X123461Y258659D01*
X123547Y258649D01*
X123633Y258636D01*
X123718Y258618D01*
X123802Y258597D01*
X123885Y258572D01*
X123968Y258543D01*
X124048Y258511D01*
X124127Y258475D01*
X124205Y258436D01*
X124280Y258393D01*
X124354Y258346D01*
X124425Y258297D01*
X124495Y258244D01*
X124561Y258189D01*
X124625Y258130D01*
X124687Y258069D01*
X124746Y258004D01*
X124801Y257938D01*
X124854Y257869D01*
X124904Y257797D01*
X124950Y257724D01*
X124993Y257648D01*
X125032Y257571D01*
X125068Y257492D01*
X125101Y257411D01*
X125129Y257329D01*
X125155Y257246D01*
X125176Y257162D01*
X125193Y257076D01*
X125194Y257076D02*
X125218Y256936D01*
X125238Y256794D01*
X125254Y256653D01*
X125265Y256511D01*
X125273Y256368D01*
X125277Y256226D01*
X125278Y256083D01*
X125274Y255940D01*
X125266Y255798D01*
X125254Y255656D01*
X125238Y255514D01*
X125219Y255373D01*
X125195Y255232D01*
X125168Y255092D01*
X125136Y254953D01*
X125101Y254815D01*
X125062Y254677D01*
X125019Y254541D01*
X124973Y254407D01*
X124922Y254273D01*
X124869Y254141D01*
X124811Y254011D01*
X124750Y253882D01*
X124685Y253755D01*
X124617Y253629D01*
X124545Y253506D01*
X117404Y263525D02*
X114808Y266771D01*
X126492Y266771D01*
X126492Y270016D02*
X126492Y263525D01*
X140208Y241808D02*
X151892Y241808D01*
X151892Y248299D02*
X140208Y241808D01*
X140208Y248299D02*
X151892Y248299D01*
X151892Y254074D02*
X140208Y254074D01*
X140208Y257319D01*
X140210Y257432D01*
X140216Y257545D01*
X140226Y257658D01*
X140240Y257771D01*
X140257Y257883D01*
X140279Y257994D01*
X140304Y258104D01*
X140334Y258214D01*
X140367Y258322D01*
X140404Y258429D01*
X140444Y258535D01*
X140489Y258639D01*
X140537Y258742D01*
X140588Y258843D01*
X140643Y258942D01*
X140701Y259039D01*
X140763Y259134D01*
X140828Y259227D01*
X140896Y259317D01*
X140967Y259405D01*
X141042Y259491D01*
X141119Y259574D01*
X141199Y259654D01*
X141282Y259731D01*
X141368Y259806D01*
X141456Y259877D01*
X141546Y259945D01*
X141639Y260010D01*
X141734Y260072D01*
X141831Y260130D01*
X141930Y260185D01*
X142031Y260236D01*
X142134Y260284D01*
X142238Y260329D01*
X142344Y260369D01*
X142451Y260406D01*
X142559Y260439D01*
X142669Y260469D01*
X142779Y260494D01*
X142890Y260516D01*
X143002Y260533D01*
X143115Y260547D01*
X143228Y260557D01*
X143341Y260563D01*
X143454Y260565D01*
X143567Y260563D01*
X143680Y260557D01*
X143793Y260547D01*
X143906Y260533D01*
X144018Y260516D01*
X144129Y260494D01*
X144239Y260469D01*
X144349Y260439D01*
X144457Y260406D01*
X144564Y260369D01*
X144670Y260329D01*
X144774Y260284D01*
X144877Y260236D01*
X144978Y260185D01*
X145077Y260130D01*
X145174Y260072D01*
X145269Y260010D01*
X145362Y259945D01*
X145452Y259877D01*
X145540Y259806D01*
X145626Y259731D01*
X145709Y259654D01*
X145789Y259574D01*
X145866Y259491D01*
X145941Y259405D01*
X146012Y259317D01*
X146080Y259227D01*
X146145Y259134D01*
X146207Y259039D01*
X146265Y258942D01*
X146320Y258843D01*
X146371Y258742D01*
X146419Y258639D01*
X146464Y258535D01*
X146504Y258429D01*
X146541Y258322D01*
X146574Y258214D01*
X146604Y258104D01*
X146629Y257994D01*
X146651Y257883D01*
X146668Y257771D01*
X146682Y257658D01*
X146692Y257545D01*
X146698Y257432D01*
X146700Y257319D01*
X146699Y257319D02*
X146699Y254074D01*
X146699Y257968D02*
X151892Y260565D01*
X151892Y265834D02*
X140208Y265834D01*
X140208Y271026D01*
X145401Y271026D02*
X145401Y265834D01*
X140208Y278906D02*
X140210Y279013D01*
X140216Y279119D01*
X140226Y279225D01*
X140239Y279331D01*
X140257Y279437D01*
X140278Y279541D01*
X140303Y279645D01*
X140332Y279748D01*
X140364Y279849D01*
X140401Y279949D01*
X140441Y280048D01*
X140484Y280146D01*
X140531Y280242D01*
X140582Y280336D01*
X140636Y280428D01*
X140693Y280518D01*
X140753Y280606D01*
X140817Y280691D01*
X140884Y280774D01*
X140954Y280855D01*
X141026Y280933D01*
X141102Y281009D01*
X141180Y281081D01*
X141261Y281151D01*
X141344Y281218D01*
X141429Y281282D01*
X141517Y281342D01*
X141607Y281399D01*
X141699Y281453D01*
X141793Y281504D01*
X141889Y281551D01*
X141987Y281594D01*
X142086Y281634D01*
X142186Y281671D01*
X142287Y281703D01*
X142390Y281732D01*
X142494Y281757D01*
X142598Y281778D01*
X142704Y281796D01*
X142810Y281809D01*
X142916Y281819D01*
X143022Y281825D01*
X143129Y281827D01*
X140208Y278906D02*
X140210Y278785D01*
X140216Y278664D01*
X140226Y278544D01*
X140239Y278423D01*
X140257Y278304D01*
X140278Y278184D01*
X140303Y278066D01*
X140332Y277949D01*
X140365Y277832D01*
X140401Y277717D01*
X140442Y277603D01*
X140485Y277490D01*
X140533Y277378D01*
X140584Y277269D01*
X140639Y277161D01*
X140697Y277054D01*
X140758Y276950D01*
X140823Y276848D01*
X140891Y276748D01*
X140962Y276650D01*
X141036Y276554D01*
X141113Y276461D01*
X141194Y276371D01*
X141277Y276283D01*
X141363Y276198D01*
X141452Y276115D01*
X141543Y276036D01*
X141637Y275959D01*
X141733Y275886D01*
X141831Y275816D01*
X141932Y275749D01*
X142035Y275685D01*
X142140Y275625D01*
X142247Y275567D01*
X142355Y275514D01*
X142465Y275464D01*
X142577Y275418D01*
X142690Y275375D01*
X142805Y275336D01*
X145401Y280853D02*
X145323Y280932D01*
X145243Y281008D01*
X145160Y281081D01*
X145074Y281151D01*
X144987Y281218D01*
X144896Y281282D01*
X144804Y281342D01*
X144710Y281400D01*
X144613Y281454D01*
X144515Y281504D01*
X144415Y281551D01*
X144314Y281595D01*
X144211Y281635D01*
X144106Y281671D01*
X144001Y281703D01*
X143894Y281732D01*
X143787Y281757D01*
X143678Y281779D01*
X143569Y281796D01*
X143460Y281810D01*
X143350Y281819D01*
X143239Y281825D01*
X143129Y281827D01*
X145401Y280853D02*
X151892Y275336D01*
X151892Y281827D01*
X149296Y286766D02*
X140208Y289362D01*
X149296Y286766D02*
X149296Y293257D01*
X146699Y291310D02*
X151892Y291310D01*
X151892Y298599D02*
X140208Y298599D01*
X151892Y298599D02*
X151892Y303792D01*
X146050Y308102D02*
X145820Y308105D01*
X145590Y308113D01*
X145361Y308127D01*
X145132Y308146D01*
X144903Y308171D01*
X144675Y308201D01*
X144448Y308236D01*
X144222Y308277D01*
X143997Y308323D01*
X143773Y308375D01*
X143550Y308432D01*
X143329Y308494D01*
X143109Y308562D01*
X142891Y308635D01*
X142675Y308713D01*
X142461Y308796D01*
X142249Y308884D01*
X142038Y308977D01*
X141831Y309076D01*
X141831Y309075D02*
X141741Y309108D01*
X141652Y309144D01*
X141564Y309184D01*
X141479Y309228D01*
X141395Y309275D01*
X141313Y309325D01*
X141233Y309379D01*
X141156Y309435D01*
X141080Y309495D01*
X141007Y309558D01*
X140937Y309623D01*
X140869Y309692D01*
X140805Y309763D01*
X140743Y309836D01*
X140684Y309912D01*
X140628Y309990D01*
X140575Y310071D01*
X140526Y310153D01*
X140480Y310237D01*
X140437Y310324D01*
X140398Y310411D01*
X140362Y310501D01*
X140330Y310591D01*
X140302Y310683D01*
X140277Y310776D01*
X140256Y310870D01*
X140239Y310964D01*
X140225Y311059D01*
X140216Y311155D01*
X140210Y311251D01*
X140208Y311347D01*
X140210Y311443D01*
X140216Y311539D01*
X140225Y311635D01*
X140239Y311730D01*
X140256Y311824D01*
X140277Y311918D01*
X140302Y312011D01*
X140330Y312103D01*
X140362Y312193D01*
X140398Y312283D01*
X140437Y312371D01*
X140480Y312457D01*
X140526Y312541D01*
X140575Y312623D01*
X140628Y312704D01*
X140684Y312782D01*
X140743Y312858D01*
X140805Y312931D01*
X140869Y313002D01*
X140937Y313071D01*
X141007Y313136D01*
X141080Y313199D01*
X141156Y313259D01*
X141233Y313315D01*
X141313Y313369D01*
X141395Y313419D01*
X141479Y313466D01*
X141564Y313510D01*
X141652Y313550D01*
X141741Y313586D01*
X141831Y313619D01*
X142038Y313718D01*
X142249Y313811D01*
X142461Y313899D01*
X142675Y313982D01*
X142891Y314060D01*
X143109Y314133D01*
X143329Y314201D01*
X143550Y314263D01*
X143773Y314320D01*
X143997Y314372D01*
X144222Y314418D01*
X144448Y314459D01*
X144675Y314494D01*
X144903Y314524D01*
X145132Y314549D01*
X145361Y314568D01*
X145590Y314582D01*
X145820Y314590D01*
X146050Y314593D01*
X146050Y308102D02*
X146280Y308105D01*
X146510Y308113D01*
X146739Y308127D01*
X146968Y308146D01*
X147197Y308171D01*
X147425Y308201D01*
X147652Y308236D01*
X147878Y308277D01*
X148103Y308323D01*
X148327Y308375D01*
X148550Y308432D01*
X148771Y308494D01*
X148991Y308562D01*
X149209Y308635D01*
X149425Y308713D01*
X149639Y308796D01*
X149851Y308884D01*
X150062Y308977D01*
X150269Y309076D01*
X150269Y309075D02*
X150359Y309108D01*
X150448Y309144D01*
X150536Y309185D01*
X150621Y309228D01*
X150705Y309275D01*
X150787Y309325D01*
X150867Y309379D01*
X150944Y309435D01*
X151020Y309495D01*
X151093Y309558D01*
X151163Y309623D01*
X151231Y309692D01*
X151295Y309763D01*
X151357Y309836D01*
X151416Y309912D01*
X151472Y309990D01*
X151525Y310071D01*
X151574Y310153D01*
X151620Y310237D01*
X151663Y310324D01*
X151702Y310411D01*
X151738Y310501D01*
X151770Y310591D01*
X151798Y310683D01*
X151823Y310776D01*
X151844Y310870D01*
X151861Y310964D01*
X151875Y311059D01*
X151884Y311155D01*
X151890Y311251D01*
X151892Y311347D01*
X150269Y313619D02*
X150062Y313718D01*
X149851Y313811D01*
X149639Y313899D01*
X149425Y313982D01*
X149209Y314060D01*
X148991Y314133D01*
X148771Y314201D01*
X148550Y314263D01*
X148327Y314320D01*
X148103Y314372D01*
X147878Y314418D01*
X147652Y314459D01*
X147425Y314494D01*
X147197Y314524D01*
X146968Y314549D01*
X146739Y314568D01*
X146510Y314582D01*
X146280Y314590D01*
X146050Y314593D01*
X150269Y313619D02*
X150359Y313586D01*
X150448Y313550D01*
X150536Y313510D01*
X150621Y313466D01*
X150705Y313419D01*
X150787Y313369D01*
X150867Y313315D01*
X150944Y313259D01*
X151020Y313199D01*
X151093Y313136D01*
X151163Y313071D01*
X151231Y313002D01*
X151295Y312931D01*
X151357Y312858D01*
X151416Y312782D01*
X151472Y312704D01*
X151525Y312623D01*
X151574Y312541D01*
X151620Y312457D01*
X151663Y312370D01*
X151702Y312283D01*
X151738Y312193D01*
X151770Y312103D01*
X151798Y312011D01*
X151823Y311918D01*
X151844Y311824D01*
X151861Y311730D01*
X151875Y311635D01*
X151884Y311539D01*
X151890Y311443D01*
X151892Y311347D01*
X149296Y308751D02*
X142804Y313944D01*
X142804Y319532D02*
X140208Y322777D01*
X151892Y322777D01*
X151892Y319532D02*
X151892Y326023D01*
D11*
X425450Y279400D02*
X463550Y279400D01*
D13*
X464337Y278562D02*
X462965Y280391D01*
X462966Y280391D02*
X463557Y280850D01*
X464137Y281323D01*
X464705Y281810D01*
X465261Y282311D01*
X465804Y282825D01*
X466335Y283352D01*
X466853Y283892D01*
X467358Y284445D01*
X467848Y285010D01*
X468325Y285587D01*
X468788Y286175D01*
X469236Y286774D01*
X469669Y287385D01*
X470088Y288005D01*
X470490Y288636D01*
X470878Y289276D01*
X471250Y289925D01*
X471605Y290584D01*
X471945Y291251D01*
X472268Y291926D01*
X472574Y292609D01*
X472864Y293299D01*
X473137Y293995D01*
X473392Y294699D01*
X473630Y295408D01*
X473851Y296123D01*
X474055Y296843D01*
X474240Y297568D01*
X474408Y298297D01*
X474558Y299031D01*
X474690Y299767D01*
X474804Y300507D01*
X474900Y301249D01*
X474978Y301993D01*
X475038Y302739D01*
X475079Y303486D01*
X475102Y304234D01*
X475106Y304983D01*
X475093Y305731D01*
X475061Y306479D01*
X475011Y307225D01*
X474942Y307970D01*
X474856Y308714D01*
X474751Y309455D01*
X474628Y310193D01*
X474487Y310928D01*
X474329Y311659D01*
X474152Y312386D01*
X473958Y313109D01*
X473746Y313827D01*
X473516Y314539D01*
X473269Y315245D01*
X473005Y315946D01*
X472724Y316639D01*
X472427Y317326D01*
X472112Y318005D01*
X471781Y318676D01*
X471434Y319339D01*
X471070Y319993D01*
X470691Y320638D01*
X470296Y321273D01*
X469885Y321899D01*
X469460Y322515D01*
X469019Y323120D01*
X468564Y323714D01*
X468094Y324296D01*
X467610Y324867D01*
X467113Y325426D01*
X466602Y325973D01*
X466078Y326507D01*
X465541Y327028D01*
X464991Y327536D01*
X464429Y328030D01*
X463855Y328510D01*
X463270Y328976D01*
X462673Y329428D01*
X462065Y329865D01*
X461447Y330287D01*
X460819Y330694D01*
X460181Y331085D01*
X459534Y331460D01*
X458878Y331820D01*
X458213Y332163D01*
X457540Y332490D01*
X456859Y332801D01*
X456171Y333095D01*
X455475Y333371D01*
X454774Y333631D01*
X454066Y333874D01*
X453352Y334099D01*
X452633Y334307D01*
X451909Y334497D01*
X451181Y334669D01*
X450449Y334823D01*
X449713Y334960D01*
X448974Y335078D01*
X448232Y335179D01*
X447489Y335261D01*
X446743Y335325D01*
X445996Y335370D01*
X445248Y335398D01*
X444500Y335407D01*
X443752Y335398D01*
X443004Y335370D01*
X442257Y335325D01*
X441511Y335261D01*
X440768Y335179D01*
X440026Y335078D01*
X439287Y334960D01*
X438551Y334823D01*
X437819Y334669D01*
X437091Y334497D01*
X436367Y334307D01*
X435648Y334099D01*
X434934Y333874D01*
X434226Y333631D01*
X433525Y333371D01*
X432829Y333095D01*
X432141Y332801D01*
X431460Y332490D01*
X430787Y332163D01*
X430122Y331820D01*
X429466Y331460D01*
X428819Y331085D01*
X428181Y330694D01*
X427553Y330287D01*
X426935Y329865D01*
X426327Y329428D01*
X425730Y328976D01*
X425145Y328510D01*
X424571Y328030D01*
X424009Y327536D01*
X423459Y327028D01*
X422922Y326507D01*
X422398Y325973D01*
X421887Y325426D01*
X421390Y324867D01*
X420906Y324296D01*
X420436Y323714D01*
X419981Y323120D01*
X419540Y322515D01*
X419115Y321899D01*
X418704Y321273D01*
X418309Y320638D01*
X417930Y319993D01*
X417566Y319339D01*
X417219Y318676D01*
X416888Y318005D01*
X416573Y317326D01*
X416276Y316639D01*
X415995Y315946D01*
X415731Y315245D01*
X415484Y314539D01*
X415254Y313827D01*
X415042Y313109D01*
X414848Y312386D01*
X414671Y311659D01*
X414513Y310928D01*
X414372Y310193D01*
X414249Y309455D01*
X414144Y308714D01*
X414058Y307970D01*
X413989Y307225D01*
X413939Y306479D01*
X413907Y305731D01*
X413894Y304983D01*
X413898Y304234D01*
X413921Y303486D01*
X413962Y302739D01*
X414022Y301993D01*
X414100Y301249D01*
X414196Y300507D01*
X414310Y299767D01*
X414442Y299031D01*
X414592Y298297D01*
X414760Y297568D01*
X414945Y296843D01*
X415149Y296123D01*
X415370Y295408D01*
X415608Y294699D01*
X415863Y293995D01*
X416136Y293299D01*
X416426Y292609D01*
X416732Y291926D01*
X417055Y291251D01*
X417395Y290584D01*
X417750Y289925D01*
X418122Y289276D01*
X418510Y288636D01*
X418912Y288005D01*
X419331Y287385D01*
X419764Y286774D01*
X420212Y286175D01*
X420675Y285587D01*
X421152Y285010D01*
X421642Y284445D01*
X422147Y283892D01*
X422665Y283352D01*
X423196Y282825D01*
X423739Y282311D01*
X424295Y281810D01*
X424863Y281323D01*
X425443Y280850D01*
X426034Y280391D01*
X424663Y278562D01*
X424027Y279055D01*
X423404Y279563D01*
X422793Y280087D01*
X422195Y280625D01*
X421611Y281177D01*
X421040Y281744D01*
X420483Y282324D01*
X419941Y282918D01*
X419413Y283525D01*
X418901Y284145D01*
X418403Y284777D01*
X417921Y285421D01*
X417456Y286077D01*
X417006Y286744D01*
X416573Y287422D01*
X416156Y288110D01*
X415756Y288808D01*
X415374Y289515D01*
X415009Y290232D01*
X414662Y290957D01*
X414332Y291691D01*
X414021Y292433D01*
X413727Y293182D01*
X413452Y293937D01*
X413196Y294700D01*
X412958Y295468D01*
X412740Y296242D01*
X412540Y297021D01*
X412359Y297805D01*
X412198Y298593D01*
X412056Y299385D01*
X411933Y300180D01*
X411830Y300977D01*
X411746Y301777D01*
X411682Y302579D01*
X411638Y303382D01*
X411613Y304186D01*
X411608Y304990D01*
X411622Y305795D01*
X411656Y306598D01*
X411710Y307401D01*
X411783Y308202D01*
X411876Y309001D01*
X411989Y309797D01*
X412121Y310590D01*
X412272Y311380D01*
X412442Y312166D01*
X412632Y312948D01*
X412841Y313725D01*
X413069Y314496D01*
X413315Y315262D01*
X413580Y316021D01*
X413864Y316774D01*
X414166Y317519D01*
X414486Y318257D01*
X414824Y318987D01*
X415180Y319709D01*
X415553Y320421D01*
X415944Y321124D01*
X416351Y321817D01*
X416776Y322501D01*
X417217Y323173D01*
X417674Y323835D01*
X418148Y324485D01*
X418637Y325123D01*
X419141Y325750D01*
X419661Y326364D01*
X420196Y326964D01*
X420745Y327552D01*
X421309Y328126D01*
X421886Y328686D01*
X422477Y329232D01*
X423081Y329763D01*
X423697Y330279D01*
X424327Y330780D01*
X424968Y331266D01*
X425621Y331736D01*
X426285Y332189D01*
X426960Y332626D01*
X427646Y333047D01*
X428341Y333451D01*
X429047Y333837D01*
X429761Y334206D01*
X430485Y334558D01*
X431217Y334892D01*
X431956Y335207D01*
X432704Y335505D01*
X433458Y335784D01*
X434219Y336045D01*
X434986Y336287D01*
X435759Y336510D01*
X436537Y336714D01*
X437319Y336900D01*
X438106Y337066D01*
X438897Y337212D01*
X439691Y337340D01*
X440488Y337447D01*
X441288Y337536D01*
X442089Y337605D01*
X442892Y337654D01*
X443696Y337683D01*
X444500Y337693D01*
X445304Y337683D01*
X446108Y337654D01*
X446911Y337605D01*
X447712Y337536D01*
X448512Y337447D01*
X449309Y337340D01*
X450103Y337212D01*
X450894Y337066D01*
X451681Y336900D01*
X452463Y336714D01*
X453241Y336510D01*
X454014Y336287D01*
X454781Y336045D01*
X455542Y335784D01*
X456296Y335505D01*
X457044Y335207D01*
X457783Y334892D01*
X458515Y334558D01*
X459239Y334206D01*
X459953Y333837D01*
X460659Y333451D01*
X461354Y333047D01*
X462040Y332626D01*
X462715Y332189D01*
X463379Y331736D01*
X464032Y331266D01*
X464673Y330780D01*
X465303Y330279D01*
X465919Y329763D01*
X466523Y329232D01*
X467114Y328686D01*
X467691Y328126D01*
X468255Y327552D01*
X468804Y326964D01*
X469339Y326364D01*
X469859Y325750D01*
X470363Y325123D01*
X470852Y324485D01*
X471326Y323835D01*
X471783Y323173D01*
X472224Y322501D01*
X472649Y321817D01*
X473056Y321124D01*
X473447Y320421D01*
X473820Y319709D01*
X474176Y318987D01*
X474514Y318257D01*
X474834Y317519D01*
X475136Y316774D01*
X475420Y316021D01*
X475685Y315262D01*
X475931Y314496D01*
X476159Y313725D01*
X476368Y312948D01*
X476558Y312166D01*
X476728Y311380D01*
X476879Y310590D01*
X477011Y309797D01*
X477124Y309001D01*
X477217Y308202D01*
X477290Y307401D01*
X477344Y306598D01*
X477378Y305795D01*
X477392Y304990D01*
X477387Y304186D01*
X477362Y303382D01*
X477318Y302579D01*
X477254Y301777D01*
X477170Y300977D01*
X477067Y300180D01*
X476944Y299385D01*
X476802Y298593D01*
X476641Y297805D01*
X476460Y297021D01*
X476260Y296242D01*
X476042Y295468D01*
X475804Y294700D01*
X475548Y293937D01*
X475273Y293182D01*
X474979Y292433D01*
X474668Y291691D01*
X474338Y290957D01*
X473991Y290232D01*
X473626Y289515D01*
X473244Y288808D01*
X472844Y288110D01*
X472427Y287422D01*
X471994Y286744D01*
X471544Y286077D01*
X471079Y285421D01*
X470597Y284777D01*
X470099Y284145D01*
X469587Y283525D01*
X469059Y282918D01*
X468517Y282324D01*
X467960Y281744D01*
X467389Y281177D01*
X466805Y280625D01*
X466207Y280087D01*
X465596Y279563D01*
X464973Y279055D01*
X464337Y278562D01*
X464193Y278754D01*
X464824Y279243D01*
X465443Y279748D01*
X466049Y280267D01*
X466643Y280802D01*
X467223Y281350D01*
X467789Y281913D01*
X468342Y282489D01*
X468880Y283079D01*
X469404Y283681D01*
X469913Y284297D01*
X470407Y284924D01*
X470885Y285563D01*
X471348Y286214D01*
X471794Y286876D01*
X472224Y287549D01*
X472638Y288232D01*
X473034Y288925D01*
X473414Y289627D01*
X473776Y290339D01*
X474121Y291059D01*
X474448Y291787D01*
X474757Y292524D01*
X475048Y293267D01*
X475321Y294017D01*
X475576Y294774D01*
X475812Y295537D01*
X476029Y296305D01*
X476227Y297079D01*
X476406Y297857D01*
X476567Y298639D01*
X476708Y299425D01*
X476829Y300214D01*
X476932Y301006D01*
X477015Y301800D01*
X477079Y302596D01*
X477123Y303393D01*
X477147Y304191D01*
X477152Y304990D01*
X477138Y305788D01*
X477104Y306586D01*
X477051Y307382D01*
X476978Y308177D01*
X476886Y308970D01*
X476774Y309761D01*
X476643Y310549D01*
X476493Y311333D01*
X476324Y312113D01*
X476135Y312889D01*
X475928Y313660D01*
X475702Y314426D01*
X475457Y315186D01*
X475194Y315940D01*
X474912Y316687D01*
X474613Y317427D01*
X474295Y318160D01*
X473959Y318884D01*
X473606Y319600D01*
X473236Y320307D01*
X472848Y321005D01*
X472443Y321694D01*
X472022Y322372D01*
X471584Y323039D01*
X471130Y323696D01*
X470660Y324342D01*
X470174Y324975D01*
X469673Y325597D01*
X469157Y326206D01*
X468627Y326803D01*
X468081Y327386D01*
X467522Y327956D01*
X466949Y328512D01*
X466362Y329054D01*
X465763Y329581D01*
X465151Y330094D01*
X464526Y330591D01*
X463889Y331073D01*
X463241Y331539D01*
X462582Y331989D01*
X461912Y332423D01*
X461231Y332841D01*
X460540Y333242D01*
X459840Y333625D01*
X459131Y333992D01*
X458413Y334341D01*
X457686Y334672D01*
X456952Y334986D01*
X456210Y335281D01*
X455461Y335558D01*
X454706Y335817D01*
X453945Y336057D01*
X453178Y336279D01*
X452405Y336482D01*
X451628Y336665D01*
X450847Y336830D01*
X450062Y336976D01*
X449274Y337102D01*
X448482Y337209D01*
X447689Y337297D01*
X446893Y337365D01*
X446096Y337414D01*
X445298Y337443D01*
X444500Y337453D01*
X443702Y337443D01*
X442904Y337414D01*
X442107Y337365D01*
X441311Y337297D01*
X440518Y337209D01*
X439726Y337102D01*
X438938Y336976D01*
X438153Y336830D01*
X437372Y336665D01*
X436595Y336482D01*
X435822Y336279D01*
X435055Y336057D01*
X434294Y335817D01*
X433539Y335558D01*
X432790Y335281D01*
X432048Y334986D01*
X431314Y334672D01*
X430587Y334341D01*
X429869Y333992D01*
X429160Y333625D01*
X428460Y333242D01*
X427769Y332841D01*
X427088Y332423D01*
X426418Y331989D01*
X425759Y331539D01*
X425111Y331073D01*
X424474Y330591D01*
X423849Y330094D01*
X423237Y329581D01*
X422638Y329054D01*
X422051Y328512D01*
X421478Y327956D01*
X420919Y327386D01*
X420373Y326803D01*
X419843Y326206D01*
X419327Y325597D01*
X418826Y324975D01*
X418340Y324342D01*
X417870Y323696D01*
X417416Y323039D01*
X416978Y322372D01*
X416557Y321694D01*
X416152Y321005D01*
X415764Y320307D01*
X415394Y319600D01*
X415041Y318884D01*
X414705Y318160D01*
X414387Y317427D01*
X414088Y316687D01*
X413806Y315940D01*
X413543Y315186D01*
X413298Y314426D01*
X413072Y313660D01*
X412865Y312889D01*
X412676Y312113D01*
X412507Y311333D01*
X412357Y310549D01*
X412226Y309761D01*
X412114Y308970D01*
X412022Y308177D01*
X411949Y307382D01*
X411896Y306586D01*
X411862Y305788D01*
X411848Y304990D01*
X411853Y304191D01*
X411877Y303393D01*
X411921Y302596D01*
X411985Y301800D01*
X412068Y301006D01*
X412171Y300214D01*
X412292Y299425D01*
X412433Y298639D01*
X412594Y297857D01*
X412773Y297079D01*
X412971Y296305D01*
X413188Y295537D01*
X413424Y294774D01*
X413679Y294017D01*
X413952Y293267D01*
X414243Y292524D01*
X414552Y291787D01*
X414879Y291059D01*
X415224Y290339D01*
X415586Y289627D01*
X415966Y288925D01*
X416362Y288232D01*
X416776Y287549D01*
X417206Y286876D01*
X417652Y286214D01*
X418115Y285563D01*
X418593Y284924D01*
X419087Y284297D01*
X419596Y283681D01*
X420120Y283079D01*
X420658Y282489D01*
X421211Y281913D01*
X421777Y281350D01*
X422357Y280802D01*
X422951Y280267D01*
X423557Y279748D01*
X424176Y279243D01*
X424807Y278754D01*
X424951Y278946D01*
X424324Y279432D01*
X423710Y279933D01*
X423108Y280448D01*
X422519Y280979D01*
X421944Y281523D01*
X421381Y282082D01*
X420833Y282654D01*
X420298Y283239D01*
X419778Y283837D01*
X419273Y284448D01*
X418783Y285071D01*
X418308Y285705D01*
X417849Y286352D01*
X417406Y287009D01*
X416979Y287676D01*
X416569Y288355D01*
X416175Y289042D01*
X415798Y289740D01*
X415439Y290446D01*
X415096Y291161D01*
X414772Y291884D01*
X414465Y292614D01*
X414176Y293352D01*
X413905Y294097D01*
X413652Y294849D01*
X413418Y295606D01*
X413203Y296368D01*
X413006Y297136D01*
X412828Y297909D01*
X412669Y298685D01*
X412529Y299465D01*
X412408Y300248D01*
X412306Y301034D01*
X412224Y301823D01*
X412161Y302613D01*
X412117Y303404D01*
X412093Y304196D01*
X412088Y304989D01*
X412102Y305781D01*
X412136Y306573D01*
X412189Y307364D01*
X412261Y308153D01*
X412353Y308940D01*
X412463Y309725D01*
X412593Y310507D01*
X412742Y311285D01*
X412911Y312060D01*
X413097Y312830D01*
X413303Y313596D01*
X413528Y314356D01*
X413770Y315110D01*
X414032Y315858D01*
X414311Y316600D01*
X414609Y317335D01*
X414924Y318062D01*
X415257Y318781D01*
X415608Y319492D01*
X415976Y320194D01*
X416361Y320887D01*
X416762Y321570D01*
X417181Y322243D01*
X417615Y322906D01*
X418066Y323558D01*
X418533Y324198D01*
X419015Y324827D01*
X419512Y325445D01*
X420024Y326049D01*
X420551Y326641D01*
X421092Y327220D01*
X421647Y327786D01*
X422216Y328338D01*
X422798Y328876D01*
X423394Y329399D01*
X424001Y329908D01*
X424621Y330402D01*
X425253Y330880D01*
X425897Y331343D01*
X426551Y331790D01*
X427216Y332220D01*
X427892Y332635D01*
X428578Y333033D01*
X429273Y333413D01*
X429977Y333777D01*
X430690Y334124D01*
X431411Y334453D01*
X432140Y334764D01*
X432876Y335057D01*
X433619Y335332D01*
X434369Y335589D01*
X435125Y335828D01*
X435886Y336048D01*
X436653Y336249D01*
X437424Y336431D01*
X438200Y336595D01*
X438979Y336739D01*
X439762Y336865D01*
X440547Y336971D01*
X441335Y337058D01*
X442124Y337126D01*
X442915Y337174D01*
X443707Y337203D01*
X444500Y337213D01*
X445293Y337203D01*
X446085Y337174D01*
X446876Y337126D01*
X447665Y337058D01*
X448453Y336971D01*
X449238Y336865D01*
X450021Y336739D01*
X450800Y336595D01*
X451576Y336431D01*
X452347Y336249D01*
X453114Y336048D01*
X453875Y335828D01*
X454631Y335589D01*
X455381Y335332D01*
X456124Y335057D01*
X456860Y334764D01*
X457589Y334453D01*
X458310Y334124D01*
X459023Y333777D01*
X459727Y333413D01*
X460422Y333033D01*
X461108Y332635D01*
X461784Y332220D01*
X462449Y331790D01*
X463103Y331343D01*
X463747Y330880D01*
X464379Y330402D01*
X464999Y329908D01*
X465606Y329399D01*
X466202Y328876D01*
X466784Y328338D01*
X467353Y327786D01*
X467908Y327220D01*
X468449Y326641D01*
X468976Y326049D01*
X469488Y325445D01*
X469985Y324827D01*
X470467Y324198D01*
X470934Y323558D01*
X471385Y322906D01*
X471819Y322243D01*
X472238Y321570D01*
X472639Y320887D01*
X473024Y320194D01*
X473392Y319492D01*
X473743Y318781D01*
X474076Y318062D01*
X474391Y317335D01*
X474689Y316600D01*
X474968Y315858D01*
X475230Y315110D01*
X475472Y314356D01*
X475697Y313596D01*
X475903Y312830D01*
X476089Y312060D01*
X476258Y311285D01*
X476407Y310507D01*
X476537Y309725D01*
X476647Y308940D01*
X476739Y308153D01*
X476811Y307364D01*
X476864Y306573D01*
X476898Y305781D01*
X476912Y304989D01*
X476907Y304196D01*
X476883Y303404D01*
X476839Y302613D01*
X476776Y301823D01*
X476694Y301034D01*
X476592Y300248D01*
X476471Y299465D01*
X476331Y298685D01*
X476172Y297909D01*
X475994Y297136D01*
X475797Y296368D01*
X475582Y295606D01*
X475348Y294849D01*
X475095Y294097D01*
X474824Y293352D01*
X474535Y292614D01*
X474228Y291884D01*
X473904Y291161D01*
X473561Y290446D01*
X473202Y289740D01*
X472825Y289042D01*
X472431Y288355D01*
X472021Y287676D01*
X471594Y287009D01*
X471151Y286352D01*
X470692Y285705D01*
X470217Y285071D01*
X469727Y284448D01*
X469222Y283837D01*
X468702Y283239D01*
X468167Y282654D01*
X467619Y282082D01*
X467056Y281523D01*
X466481Y280979D01*
X465892Y280448D01*
X465290Y279933D01*
X464676Y279432D01*
X464049Y278946D01*
X463905Y279138D01*
X464527Y279620D01*
X465137Y280117D01*
X465734Y280629D01*
X466318Y281156D01*
X466890Y281696D01*
X467448Y282251D01*
X467993Y282818D01*
X468523Y283399D01*
X469039Y283993D01*
X469541Y284599D01*
X470027Y285218D01*
X470498Y285848D01*
X470954Y286489D01*
X471394Y287141D01*
X471817Y287804D01*
X472225Y288477D01*
X472616Y289160D01*
X472990Y289852D01*
X473346Y290553D01*
X473686Y291262D01*
X474008Y291980D01*
X474313Y292705D01*
X474600Y293438D01*
X474869Y294177D01*
X475119Y294923D01*
X475352Y295675D01*
X475566Y296432D01*
X475761Y297194D01*
X475938Y297960D01*
X476095Y298731D01*
X476234Y299505D01*
X476354Y300283D01*
X476455Y301063D01*
X476537Y301845D01*
X476600Y302630D01*
X476643Y303415D01*
X476667Y304201D01*
X476672Y304988D01*
X476658Y305775D01*
X476625Y306561D01*
X476572Y307345D01*
X476500Y308129D01*
X476409Y308910D01*
X476299Y309689D01*
X476170Y310465D01*
X476022Y311238D01*
X475855Y312007D01*
X475670Y312771D01*
X475466Y313531D01*
X475243Y314285D01*
X475002Y315034D01*
X474743Y315777D01*
X474465Y316513D01*
X474170Y317242D01*
X473857Y317964D01*
X473526Y318678D01*
X473178Y319383D01*
X472813Y320080D01*
X472431Y320768D01*
X472032Y321446D01*
X471617Y322114D01*
X471185Y322772D01*
X470738Y323419D01*
X470275Y324055D01*
X469796Y324679D01*
X469303Y325292D01*
X468794Y325892D01*
X468271Y326480D01*
X467734Y327055D01*
X467183Y327616D01*
X466619Y328164D01*
X466041Y328698D01*
X465450Y329217D01*
X464847Y329722D01*
X464231Y330212D01*
X463604Y330687D01*
X462965Y331146D01*
X462316Y331590D01*
X461655Y332018D01*
X460985Y332429D01*
X460304Y332824D01*
X459614Y333202D01*
X458915Y333563D01*
X458208Y333907D01*
X457492Y334233D01*
X456769Y334542D01*
X456038Y334833D01*
X455300Y335106D01*
X454556Y335361D01*
X453806Y335598D01*
X453050Y335816D01*
X452289Y336016D01*
X451523Y336197D01*
X450754Y336359D01*
X449980Y336503D01*
X449203Y336627D01*
X448424Y336733D01*
X447642Y336819D01*
X446858Y336886D01*
X446073Y336935D01*
X445287Y336963D01*
X444500Y336973D01*
X443713Y336963D01*
X442927Y336935D01*
X442142Y336886D01*
X441358Y336819D01*
X440576Y336733D01*
X439797Y336627D01*
X439020Y336503D01*
X438246Y336359D01*
X437477Y336197D01*
X436711Y336016D01*
X435950Y335816D01*
X435194Y335598D01*
X434444Y335361D01*
X433700Y335106D01*
X432962Y334833D01*
X432231Y334542D01*
X431508Y334233D01*
X430792Y333907D01*
X430085Y333563D01*
X429386Y333202D01*
X428696Y332824D01*
X428015Y332429D01*
X427345Y332018D01*
X426684Y331590D01*
X426035Y331146D01*
X425396Y330687D01*
X424769Y330212D01*
X424153Y329722D01*
X423550Y329217D01*
X422959Y328698D01*
X422381Y328164D01*
X421817Y327616D01*
X421266Y327055D01*
X420729Y326480D01*
X420206Y325892D01*
X419697Y325292D01*
X419204Y324679D01*
X418725Y324055D01*
X418262Y323419D01*
X417815Y322772D01*
X417383Y322114D01*
X416968Y321446D01*
X416569Y320768D01*
X416187Y320080D01*
X415822Y319383D01*
X415474Y318678D01*
X415143Y317964D01*
X414830Y317242D01*
X414535Y316513D01*
X414257Y315777D01*
X413998Y315034D01*
X413757Y314285D01*
X413534Y313531D01*
X413330Y312771D01*
X413145Y312007D01*
X412978Y311238D01*
X412830Y310465D01*
X412701Y309689D01*
X412591Y308910D01*
X412500Y308129D01*
X412428Y307345D01*
X412375Y306561D01*
X412342Y305775D01*
X412328Y304988D01*
X412333Y304201D01*
X412357Y303415D01*
X412400Y302630D01*
X412463Y301845D01*
X412545Y301063D01*
X412646Y300283D01*
X412766Y299505D01*
X412905Y298731D01*
X413062Y297960D01*
X413239Y297194D01*
X413434Y296432D01*
X413648Y295675D01*
X413881Y294923D01*
X414131Y294177D01*
X414400Y293438D01*
X414687Y292705D01*
X414992Y291980D01*
X415314Y291262D01*
X415654Y290553D01*
X416010Y289852D01*
X416384Y289160D01*
X416775Y288477D01*
X417183Y287804D01*
X417606Y287141D01*
X418046Y286489D01*
X418502Y285848D01*
X418973Y285218D01*
X419459Y284599D01*
X419961Y283993D01*
X420477Y283399D01*
X421007Y282818D01*
X421552Y282251D01*
X422110Y281696D01*
X422682Y281156D01*
X423266Y280629D01*
X423863Y280117D01*
X424473Y279620D01*
X425095Y279138D01*
X425239Y279330D01*
X424622Y279809D01*
X424017Y280302D01*
X423424Y280810D01*
X422844Y281333D01*
X422276Y281869D01*
X421722Y282419D01*
X421182Y282983D01*
X420655Y283560D01*
X420143Y284149D01*
X419646Y284751D01*
X419163Y285364D01*
X418695Y285990D01*
X418243Y286626D01*
X417807Y287274D01*
X417386Y287931D01*
X416982Y288599D01*
X416594Y289277D01*
X416223Y289964D01*
X415868Y290660D01*
X415531Y291364D01*
X415211Y292076D01*
X414909Y292796D01*
X414624Y293523D01*
X414358Y294257D01*
X414109Y294997D01*
X413878Y295743D01*
X413666Y296495D01*
X413472Y297251D01*
X413297Y298012D01*
X413140Y298777D01*
X413002Y299545D01*
X412883Y300317D01*
X412783Y301091D01*
X412702Y301868D01*
X412640Y302646D01*
X412597Y303426D01*
X412573Y304206D01*
X412568Y304987D01*
X412582Y305768D01*
X412615Y306548D01*
X412667Y307327D01*
X412738Y308105D01*
X412829Y308880D01*
X412938Y309653D01*
X413066Y310424D01*
X413213Y311190D01*
X413379Y311953D01*
X413563Y312712D01*
X413765Y313466D01*
X413987Y314215D01*
X414226Y314958D01*
X414483Y315695D01*
X414759Y316426D01*
X415052Y317150D01*
X415363Y317866D01*
X415691Y318575D01*
X416036Y319275D01*
X416399Y319966D01*
X416778Y320649D01*
X417174Y321322D01*
X417586Y321985D01*
X418014Y322638D01*
X418458Y323280D01*
X418918Y323912D01*
X419392Y324531D01*
X419882Y325139D01*
X420387Y325735D01*
X420906Y326318D01*
X421439Y326889D01*
X421986Y327446D01*
X422547Y327990D01*
X423120Y328520D01*
X423707Y329035D01*
X424305Y329536D01*
X424916Y330023D01*
X425539Y330494D01*
X426173Y330950D01*
X426817Y331390D01*
X427473Y331815D01*
X428138Y332223D01*
X428814Y332615D01*
X429499Y332990D01*
X430192Y333348D01*
X430894Y333690D01*
X431605Y334014D01*
X432323Y334320D01*
X433048Y334609D01*
X433781Y334880D01*
X434519Y335133D01*
X435264Y335368D01*
X436014Y335585D01*
X436769Y335783D01*
X437529Y335963D01*
X438293Y336124D01*
X439061Y336266D01*
X439832Y336390D01*
X440606Y336495D01*
X441382Y336580D01*
X442160Y336647D01*
X442939Y336695D01*
X443719Y336723D01*
X444500Y336733D01*
X445281Y336723D01*
X446061Y336695D01*
X446840Y336647D01*
X447618Y336580D01*
X448394Y336495D01*
X449168Y336390D01*
X449939Y336266D01*
X450707Y336124D01*
X451471Y335963D01*
X452231Y335783D01*
X452986Y335585D01*
X453736Y335368D01*
X454481Y335133D01*
X455219Y334880D01*
X455952Y334609D01*
X456677Y334320D01*
X457395Y334014D01*
X458106Y333690D01*
X458808Y333348D01*
X459501Y332990D01*
X460186Y332615D01*
X460862Y332223D01*
X461527Y331815D01*
X462183Y331390D01*
X462827Y330950D01*
X463461Y330494D01*
X464084Y330023D01*
X464695Y329536D01*
X465293Y329035D01*
X465880Y328520D01*
X466453Y327990D01*
X467014Y327446D01*
X467561Y326889D01*
X468094Y326318D01*
X468613Y325735D01*
X469118Y325139D01*
X469608Y324531D01*
X470082Y323912D01*
X470542Y323280D01*
X470986Y322638D01*
X471414Y321985D01*
X471826Y321322D01*
X472222Y320649D01*
X472601Y319966D01*
X472964Y319275D01*
X473309Y318575D01*
X473637Y317866D01*
X473948Y317150D01*
X474241Y316426D01*
X474517Y315695D01*
X474774Y314958D01*
X475013Y314215D01*
X475235Y313466D01*
X475437Y312712D01*
X475621Y311953D01*
X475787Y311190D01*
X475934Y310424D01*
X476062Y309653D01*
X476171Y308880D01*
X476262Y308105D01*
X476333Y307327D01*
X476385Y306548D01*
X476418Y305768D01*
X476432Y304987D01*
X476427Y304206D01*
X476403Y303426D01*
X476360Y302646D01*
X476298Y301868D01*
X476217Y301091D01*
X476117Y300317D01*
X475998Y299545D01*
X475860Y298777D01*
X475703Y298012D01*
X475528Y297251D01*
X475334Y296495D01*
X475122Y295743D01*
X474891Y294997D01*
X474642Y294257D01*
X474376Y293523D01*
X474091Y292796D01*
X473789Y292076D01*
X473469Y291364D01*
X473132Y290660D01*
X472777Y289964D01*
X472406Y289277D01*
X472018Y288599D01*
X471614Y287931D01*
X471193Y287274D01*
X470757Y286626D01*
X470305Y285990D01*
X469837Y285364D01*
X469354Y284751D01*
X468857Y284149D01*
X468345Y283560D01*
X467818Y282983D01*
X467278Y282419D01*
X466724Y281869D01*
X466156Y281333D01*
X465576Y280810D01*
X464983Y280302D01*
X464378Y279809D01*
X463761Y279330D01*
X463617Y279522D01*
X464230Y279997D01*
X464830Y280487D01*
X465418Y280991D01*
X465994Y281510D01*
X466557Y282042D01*
X467107Y282588D01*
X467643Y283148D01*
X468166Y283720D01*
X468674Y284305D01*
X469168Y284902D01*
X469647Y285511D01*
X470111Y286132D01*
X470560Y286763D01*
X470993Y287406D01*
X471411Y288059D01*
X471812Y288722D01*
X472197Y289394D01*
X472565Y290076D01*
X472917Y290767D01*
X473251Y291466D01*
X473569Y292173D01*
X473869Y292887D01*
X474151Y293609D01*
X474416Y294337D01*
X474663Y295072D01*
X474892Y295812D01*
X475102Y296558D01*
X475295Y297308D01*
X475469Y298064D01*
X475624Y298823D01*
X475761Y299586D01*
X475879Y300351D01*
X475979Y301120D01*
X476059Y301891D01*
X476121Y302663D01*
X476164Y303437D01*
X476188Y304211D01*
X476192Y304986D01*
X476178Y305761D01*
X476145Y306535D01*
X476094Y307309D01*
X476023Y308080D01*
X475933Y308850D01*
X475825Y309617D01*
X475698Y310382D01*
X475552Y311143D01*
X475387Y311900D01*
X475205Y312653D01*
X475003Y313402D01*
X474784Y314145D01*
X474546Y314882D01*
X474291Y315614D01*
X474018Y316339D01*
X473727Y317057D01*
X473418Y317768D01*
X473093Y318471D01*
X472750Y319166D01*
X472390Y319853D01*
X472014Y320530D01*
X471621Y321198D01*
X471212Y321856D01*
X470787Y322504D01*
X470346Y323142D01*
X469890Y323768D01*
X469419Y324383D01*
X468932Y324987D01*
X468432Y325578D01*
X467916Y326157D01*
X467387Y326723D01*
X466844Y327276D01*
X466288Y327816D01*
X465719Y328342D01*
X465137Y328853D01*
X464543Y329351D01*
X463936Y329833D01*
X463319Y330301D01*
X462690Y330754D01*
X462050Y331191D01*
X461399Y331612D01*
X460738Y332017D01*
X460068Y332406D01*
X459389Y332778D01*
X458700Y333134D01*
X458003Y333473D01*
X457298Y333794D01*
X456585Y334098D01*
X455865Y334385D01*
X455139Y334654D01*
X454406Y334905D01*
X453667Y335138D01*
X452922Y335353D01*
X452173Y335550D01*
X451418Y335729D01*
X450660Y335889D01*
X449898Y336030D01*
X449133Y336153D01*
X448365Y336256D01*
X447595Y336342D01*
X446823Y336408D01*
X446049Y336455D01*
X445275Y336484D01*
X444500Y336493D01*
X443725Y336484D01*
X442951Y336455D01*
X442177Y336408D01*
X441405Y336342D01*
X440635Y336256D01*
X439867Y336153D01*
X439102Y336030D01*
X438340Y335889D01*
X437582Y335729D01*
X436827Y335550D01*
X436078Y335353D01*
X435333Y335138D01*
X434594Y334905D01*
X433861Y334654D01*
X433135Y334385D01*
X432415Y334098D01*
X431702Y333794D01*
X430997Y333473D01*
X430300Y333134D01*
X429611Y332778D01*
X428932Y332406D01*
X428262Y332017D01*
X427601Y331612D01*
X426950Y331191D01*
X426310Y330754D01*
X425681Y330301D01*
X425064Y329833D01*
X424457Y329351D01*
X423863Y328853D01*
X423281Y328342D01*
X422712Y327816D01*
X422156Y327276D01*
X421613Y326723D01*
X421084Y326157D01*
X420568Y325578D01*
X420068Y324987D01*
X419581Y324383D01*
X419110Y323768D01*
X418654Y323142D01*
X418213Y322504D01*
X417788Y321856D01*
X417379Y321198D01*
X416986Y320530D01*
X416610Y319853D01*
X416250Y319166D01*
X415907Y318471D01*
X415582Y317768D01*
X415273Y317057D01*
X414982Y316339D01*
X414709Y315614D01*
X414454Y314882D01*
X414216Y314145D01*
X413997Y313402D01*
X413795Y312653D01*
X413613Y311900D01*
X413448Y311143D01*
X413302Y310382D01*
X413175Y309617D01*
X413067Y308850D01*
X412977Y308080D01*
X412906Y307309D01*
X412855Y306535D01*
X412822Y305761D01*
X412808Y304986D01*
X412812Y304211D01*
X412836Y303437D01*
X412879Y302663D01*
X412941Y301891D01*
X413021Y301120D01*
X413121Y300351D01*
X413239Y299586D01*
X413376Y298823D01*
X413531Y298064D01*
X413705Y297308D01*
X413898Y296558D01*
X414108Y295812D01*
X414337Y295072D01*
X414584Y294337D01*
X414849Y293609D01*
X415131Y292887D01*
X415431Y292173D01*
X415749Y291466D01*
X416083Y290767D01*
X416435Y290076D01*
X416803Y289394D01*
X417188Y288722D01*
X417589Y288059D01*
X418007Y287406D01*
X418440Y286763D01*
X418889Y286132D01*
X419353Y285511D01*
X419832Y284902D01*
X420326Y284305D01*
X420834Y283720D01*
X421357Y283148D01*
X421893Y282588D01*
X422443Y282042D01*
X423006Y281510D01*
X423582Y280991D01*
X424170Y280487D01*
X424770Y279997D01*
X425383Y279522D01*
X425527Y279714D01*
X424919Y280185D01*
X424323Y280671D01*
X423739Y281172D01*
X423168Y281687D01*
X422609Y282215D01*
X422063Y282757D01*
X421531Y283312D01*
X421013Y283880D01*
X420508Y284461D01*
X420018Y285053D01*
X419543Y285658D01*
X419082Y286274D01*
X418637Y286901D01*
X418207Y287538D01*
X417793Y288186D01*
X417395Y288844D01*
X417013Y289512D01*
X416647Y290188D01*
X416298Y290874D01*
X415966Y291567D01*
X415651Y292269D01*
X415353Y292978D01*
X415073Y293694D01*
X414810Y294417D01*
X414565Y295146D01*
X414338Y295881D01*
X414129Y296621D01*
X413938Y297366D01*
X413766Y298115D01*
X413611Y298869D01*
X413476Y299626D01*
X413358Y300386D01*
X413260Y301148D01*
X413180Y301913D01*
X413119Y302680D01*
X413076Y303448D01*
X413052Y304217D01*
X413048Y304986D01*
X413061Y305754D01*
X413094Y306523D01*
X413146Y307290D01*
X413216Y308056D01*
X413305Y308820D01*
X413413Y309581D01*
X413539Y310340D01*
X413683Y311095D01*
X413847Y311847D01*
X414028Y312594D01*
X414228Y313337D01*
X414445Y314074D01*
X414681Y314807D01*
X414935Y315533D01*
X415206Y316252D01*
X415495Y316965D01*
X415801Y317671D01*
X416124Y318368D01*
X416464Y319058D01*
X416821Y319739D01*
X417195Y320411D01*
X417585Y321074D01*
X417991Y321728D01*
X418412Y322371D01*
X418850Y323003D01*
X419303Y323625D01*
X419770Y324235D01*
X420253Y324834D01*
X420750Y325421D01*
X421261Y325995D01*
X421786Y326557D01*
X422325Y327106D01*
X422877Y327642D01*
X423442Y328163D01*
X424019Y328671D01*
X424609Y329165D01*
X425211Y329644D01*
X425824Y330108D01*
X426448Y330557D01*
X427084Y330991D01*
X427729Y331409D01*
X428385Y331811D01*
X429050Y332197D01*
X429724Y332566D01*
X430408Y332919D01*
X431099Y333255D01*
X431799Y333575D01*
X432506Y333877D01*
X433221Y334161D01*
X433942Y334428D01*
X434670Y334677D01*
X435403Y334909D01*
X436142Y335122D01*
X436886Y335317D01*
X437634Y335494D01*
X438387Y335653D01*
X439143Y335793D01*
X439902Y335915D01*
X440664Y336018D01*
X441429Y336103D01*
X442195Y336168D01*
X442962Y336215D01*
X443731Y336244D01*
X444500Y336253D01*
X445269Y336244D01*
X446038Y336215D01*
X446805Y336168D01*
X447571Y336103D01*
X448336Y336018D01*
X449098Y335915D01*
X449857Y335793D01*
X450613Y335653D01*
X451366Y335494D01*
X452114Y335317D01*
X452858Y335122D01*
X453597Y334909D01*
X454330Y334677D01*
X455058Y334428D01*
X455779Y334161D01*
X456494Y333877D01*
X457201Y333575D01*
X457901Y333255D01*
X458592Y332919D01*
X459276Y332566D01*
X459950Y332197D01*
X460615Y331811D01*
X461271Y331409D01*
X461916Y330991D01*
X462552Y330557D01*
X463176Y330108D01*
X463789Y329644D01*
X464391Y329165D01*
X464981Y328671D01*
X465558Y328163D01*
X466123Y327642D01*
X466675Y327106D01*
X467214Y326557D01*
X467739Y325995D01*
X468250Y325421D01*
X468747Y324834D01*
X469230Y324235D01*
X469697Y323625D01*
X470150Y323003D01*
X470588Y322371D01*
X471009Y321728D01*
X471415Y321074D01*
X471805Y320411D01*
X472179Y319739D01*
X472536Y319058D01*
X472876Y318368D01*
X473199Y317671D01*
X473505Y316965D01*
X473794Y316252D01*
X474065Y315533D01*
X474319Y314807D01*
X474555Y314074D01*
X474772Y313337D01*
X474972Y312594D01*
X475153Y311847D01*
X475317Y311095D01*
X475461Y310340D01*
X475587Y309581D01*
X475695Y308820D01*
X475784Y308056D01*
X475854Y307290D01*
X475906Y306523D01*
X475939Y305754D01*
X475952Y304986D01*
X475948Y304217D01*
X475924Y303448D01*
X475881Y302680D01*
X475820Y301913D01*
X475740Y301148D01*
X475642Y300386D01*
X475524Y299626D01*
X475389Y298869D01*
X475234Y298115D01*
X475062Y297366D01*
X474871Y296621D01*
X474662Y295881D01*
X474435Y295146D01*
X474190Y294417D01*
X473927Y293694D01*
X473647Y292978D01*
X473349Y292269D01*
X473034Y291567D01*
X472702Y290874D01*
X472353Y290188D01*
X471987Y289512D01*
X471605Y288844D01*
X471207Y288186D01*
X470793Y287538D01*
X470363Y286901D01*
X469918Y286274D01*
X469457Y285658D01*
X468982Y285053D01*
X468492Y284461D01*
X467987Y283880D01*
X467469Y283312D01*
X466937Y282757D01*
X466391Y282215D01*
X465832Y281687D01*
X465261Y281172D01*
X464677Y280671D01*
X464081Y280185D01*
X463473Y279714D01*
X463329Y279906D01*
X463932Y280374D01*
X464524Y280856D01*
X465103Y281353D01*
X465670Y281864D01*
X466225Y282388D01*
X466766Y282926D01*
X467294Y283477D01*
X467809Y284040D01*
X468309Y284617D01*
X468796Y285205D01*
X469267Y285805D01*
X469724Y286416D01*
X470166Y287038D01*
X470593Y287671D01*
X471004Y288314D01*
X471399Y288967D01*
X471778Y289629D01*
X472141Y290301D01*
X472487Y290981D01*
X472817Y291669D01*
X473129Y292365D01*
X473425Y293069D01*
X473703Y293780D01*
X473964Y294497D01*
X474207Y295220D01*
X474432Y295950D01*
X474639Y296684D01*
X474829Y297423D01*
X475000Y298167D01*
X475153Y298915D01*
X475288Y299666D01*
X475404Y300420D01*
X475502Y301177D01*
X475581Y301936D01*
X475642Y302697D01*
X475684Y303459D01*
X475708Y304222D01*
X475712Y304985D01*
X475699Y305748D01*
X475666Y306510D01*
X475615Y307272D01*
X475545Y308032D01*
X475457Y308790D01*
X475350Y309545D01*
X475225Y310298D01*
X475081Y311048D01*
X474919Y311794D01*
X474739Y312535D01*
X474541Y313272D01*
X474325Y314004D01*
X474091Y314731D01*
X473839Y315451D01*
X473570Y316165D01*
X473284Y316873D01*
X472980Y317573D01*
X472659Y318265D01*
X472322Y318950D01*
X471967Y319626D01*
X471597Y320293D01*
X471210Y320951D01*
X470807Y321599D01*
X470388Y322237D01*
X469954Y322865D01*
X469505Y323482D01*
X469041Y324087D01*
X468562Y324682D01*
X468069Y325264D01*
X467561Y325834D01*
X467040Y326392D01*
X466506Y326936D01*
X465958Y327468D01*
X465397Y327985D01*
X464824Y328489D01*
X464239Y328979D01*
X463642Y329455D01*
X463033Y329915D01*
X462414Y330361D01*
X461783Y330791D01*
X461143Y331206D01*
X460492Y331605D01*
X459832Y331988D01*
X459163Y332355D01*
X458485Y332705D01*
X457798Y333038D01*
X457104Y333355D01*
X456402Y333655D01*
X455693Y333937D01*
X454977Y334202D01*
X454255Y334449D01*
X453527Y334679D01*
X452794Y334891D01*
X452056Y335085D01*
X451313Y335260D01*
X450567Y335418D01*
X449816Y335557D01*
X449063Y335678D01*
X448306Y335780D01*
X447548Y335864D01*
X446788Y335929D01*
X446026Y335976D01*
X445263Y336004D01*
X444500Y336013D01*
X443737Y336004D01*
X442974Y335976D01*
X442212Y335929D01*
X441452Y335864D01*
X440694Y335780D01*
X439937Y335678D01*
X439184Y335557D01*
X438433Y335418D01*
X437687Y335260D01*
X436944Y335085D01*
X436206Y334891D01*
X435473Y334679D01*
X434745Y334449D01*
X434023Y334202D01*
X433307Y333937D01*
X432598Y333655D01*
X431896Y333355D01*
X431202Y333038D01*
X430515Y332705D01*
X429837Y332355D01*
X429168Y331988D01*
X428508Y331605D01*
X427857Y331206D01*
X427217Y330791D01*
X426586Y330361D01*
X425967Y329915D01*
X425358Y329455D01*
X424761Y328979D01*
X424176Y328489D01*
X423603Y327985D01*
X423042Y327468D01*
X422494Y326936D01*
X421960Y326392D01*
X421439Y325834D01*
X420931Y325264D01*
X420438Y324682D01*
X419959Y324087D01*
X419495Y323482D01*
X419046Y322865D01*
X418612Y322237D01*
X418193Y321599D01*
X417790Y320951D01*
X417403Y320293D01*
X417033Y319626D01*
X416678Y318950D01*
X416341Y318265D01*
X416020Y317573D01*
X415716Y316873D01*
X415430Y316165D01*
X415161Y315451D01*
X414909Y314731D01*
X414675Y314004D01*
X414459Y313272D01*
X414261Y312535D01*
X414081Y311794D01*
X413919Y311048D01*
X413775Y310298D01*
X413650Y309545D01*
X413543Y308790D01*
X413455Y308032D01*
X413385Y307272D01*
X413334Y306510D01*
X413301Y305748D01*
X413288Y304985D01*
X413292Y304222D01*
X413316Y303459D01*
X413358Y302697D01*
X413419Y301936D01*
X413498Y301177D01*
X413596Y300420D01*
X413712Y299666D01*
X413847Y298915D01*
X414000Y298167D01*
X414171Y297423D01*
X414361Y296684D01*
X414568Y295950D01*
X414793Y295220D01*
X415036Y294497D01*
X415297Y293780D01*
X415575Y293069D01*
X415871Y292365D01*
X416183Y291669D01*
X416513Y290981D01*
X416859Y290301D01*
X417222Y289629D01*
X417601Y288967D01*
X417996Y288314D01*
X418407Y287671D01*
X418834Y287038D01*
X419276Y286416D01*
X419733Y285805D01*
X420204Y285205D01*
X420691Y284617D01*
X421191Y284040D01*
X421706Y283477D01*
X422234Y282926D01*
X422775Y282388D01*
X423330Y281864D01*
X423897Y281353D01*
X424476Y280856D01*
X425068Y280374D01*
X425671Y279906D01*
X425815Y280098D01*
X425216Y280562D01*
X424630Y281041D01*
X424055Y281534D01*
X423492Y282041D01*
X422942Y282561D01*
X422405Y283095D01*
X421880Y283641D01*
X421370Y284201D01*
X420873Y284772D01*
X420391Y285356D01*
X419923Y285951D01*
X419469Y286558D01*
X419031Y287175D01*
X418607Y287803D01*
X418199Y288441D01*
X417807Y289089D01*
X417431Y289747D01*
X417071Y290413D01*
X416728Y291088D01*
X416401Y291771D01*
X416091Y292462D01*
X415797Y293160D01*
X415521Y293865D01*
X415263Y294577D01*
X415022Y295295D01*
X414798Y296018D01*
X414592Y296747D01*
X414404Y297481D01*
X414234Y298219D01*
X414082Y298961D01*
X413949Y299706D01*
X413833Y300454D01*
X413736Y301205D01*
X413658Y301959D01*
X413597Y302714D01*
X413556Y303470D01*
X413532Y304227D01*
X413528Y304984D01*
X413541Y305741D01*
X413574Y306498D01*
X413624Y307253D01*
X413694Y308007D01*
X413781Y308760D01*
X413887Y309510D01*
X414011Y310257D01*
X414154Y311000D01*
X414315Y311740D01*
X414493Y312476D01*
X414690Y313208D01*
X414904Y313934D01*
X415137Y314655D01*
X415386Y315370D01*
X415653Y316078D01*
X415938Y316780D01*
X416239Y317475D01*
X416558Y318162D01*
X416893Y318841D01*
X417244Y319512D01*
X417612Y320174D01*
X417996Y320827D01*
X418396Y321470D01*
X418811Y322103D01*
X419242Y322726D01*
X419687Y323338D01*
X420148Y323939D01*
X420623Y324529D01*
X421113Y325107D01*
X421616Y325673D01*
X422133Y326226D01*
X422664Y326766D01*
X423207Y327293D01*
X423764Y327807D01*
X424332Y328307D01*
X424913Y328793D01*
X425506Y329265D01*
X426109Y329722D01*
X426724Y330164D01*
X427350Y330591D01*
X427985Y331003D01*
X428631Y331399D01*
X429286Y331779D01*
X429950Y332143D01*
X430623Y332490D01*
X431304Y332821D01*
X431993Y333136D01*
X432690Y333433D01*
X433393Y333713D01*
X434103Y333976D01*
X434820Y334221D01*
X435542Y334449D01*
X436270Y334659D01*
X437002Y334852D01*
X437739Y335026D01*
X438480Y335182D01*
X439225Y335320D01*
X439972Y335440D01*
X440723Y335542D01*
X441476Y335625D01*
X442230Y335690D01*
X442986Y335736D01*
X443743Y335764D01*
X444500Y335773D01*
X445257Y335764D01*
X446014Y335736D01*
X446770Y335690D01*
X447524Y335625D01*
X448277Y335542D01*
X449028Y335440D01*
X449775Y335320D01*
X450520Y335182D01*
X451261Y335026D01*
X451998Y334852D01*
X452730Y334659D01*
X453458Y334449D01*
X454180Y334221D01*
X454897Y333976D01*
X455607Y333713D01*
X456310Y333433D01*
X457007Y333136D01*
X457696Y332821D01*
X458377Y332490D01*
X459050Y332143D01*
X459714Y331779D01*
X460369Y331399D01*
X461015Y331003D01*
X461650Y330591D01*
X462276Y330164D01*
X462891Y329722D01*
X463494Y329265D01*
X464087Y328793D01*
X464668Y328307D01*
X465236Y327807D01*
X465793Y327293D01*
X466336Y326766D01*
X466867Y326226D01*
X467384Y325673D01*
X467887Y325107D01*
X468377Y324529D01*
X468852Y323939D01*
X469313Y323338D01*
X469758Y322726D01*
X470189Y322103D01*
X470604Y321470D01*
X471004Y320827D01*
X471388Y320174D01*
X471756Y319512D01*
X472107Y318841D01*
X472442Y318162D01*
X472761Y317475D01*
X473062Y316780D01*
X473347Y316078D01*
X473614Y315370D01*
X473863Y314655D01*
X474096Y313934D01*
X474310Y313208D01*
X474507Y312476D01*
X474685Y311740D01*
X474846Y311000D01*
X474989Y310257D01*
X475113Y309510D01*
X475219Y308760D01*
X475306Y308007D01*
X475376Y307253D01*
X475426Y306498D01*
X475459Y305741D01*
X475472Y304984D01*
X475468Y304227D01*
X475444Y303470D01*
X475403Y302714D01*
X475342Y301959D01*
X475264Y301205D01*
X475167Y300454D01*
X475051Y299706D01*
X474918Y298961D01*
X474766Y298219D01*
X474596Y297481D01*
X474408Y296747D01*
X474202Y296018D01*
X473978Y295295D01*
X473737Y294577D01*
X473479Y293865D01*
X473203Y293160D01*
X472909Y292462D01*
X472599Y291771D01*
X472272Y291088D01*
X471929Y290413D01*
X471569Y289747D01*
X471193Y289089D01*
X470801Y288441D01*
X470393Y287803D01*
X469969Y287175D01*
X469531Y286558D01*
X469077Y285951D01*
X468609Y285356D01*
X468127Y284772D01*
X467630Y284201D01*
X467120Y283641D01*
X466595Y283095D01*
X466058Y282561D01*
X465508Y282041D01*
X464945Y281534D01*
X464370Y281041D01*
X463784Y280562D01*
X463185Y280098D01*
X463041Y280290D01*
X463635Y280751D01*
X464217Y281226D01*
X464788Y281715D01*
X465346Y282218D01*
X465892Y282734D01*
X466425Y283264D01*
X466945Y283806D01*
X467451Y284361D01*
X467944Y284928D01*
X468423Y285507D01*
X468888Y286098D01*
X469338Y286700D01*
X469773Y287313D01*
X470193Y287936D01*
X470597Y288569D01*
X470986Y289212D01*
X471359Y289864D01*
X471717Y290525D01*
X472057Y291195D01*
X472382Y291872D01*
X472690Y292558D01*
X472980Y293251D01*
X473254Y293951D01*
X473511Y294657D01*
X473750Y295369D01*
X473972Y296087D01*
X474176Y296810D01*
X474363Y297538D01*
X474531Y298270D01*
X474682Y299007D01*
X474815Y299746D01*
X474929Y300489D01*
X475025Y301234D01*
X475103Y301981D01*
X475163Y302730D01*
X475205Y303481D01*
X475228Y304232D01*
X475232Y304983D01*
X475219Y305734D01*
X475187Y306485D01*
X475136Y307235D01*
X475068Y307983D01*
X474981Y308730D01*
X474876Y309474D01*
X474752Y310215D01*
X474611Y310953D01*
X474451Y311687D01*
X474274Y312417D01*
X474079Y313143D01*
X473866Y313864D01*
X473636Y314579D01*
X473388Y315288D01*
X473123Y315991D01*
X472841Y316688D01*
X472542Y317377D01*
X472226Y318059D01*
X471893Y318733D01*
X471545Y319398D01*
X471180Y320055D01*
X470799Y320703D01*
X470402Y321341D01*
X469990Y321969D01*
X469562Y322587D01*
X469120Y323195D01*
X468663Y323791D01*
X468191Y324376D01*
X467706Y324950D01*
X467206Y325511D01*
X466693Y326060D01*
X466167Y326596D01*
X465627Y327119D01*
X465075Y327629D01*
X464511Y328125D01*
X463935Y328608D01*
X463347Y329076D01*
X462748Y329529D01*
X462138Y329968D01*
X461517Y330392D01*
X460886Y330800D01*
X460246Y331193D01*
X459596Y331570D01*
X458937Y331931D01*
X458269Y332276D01*
X457593Y332604D01*
X456910Y332916D01*
X456219Y333211D01*
X455521Y333489D01*
X454816Y333750D01*
X454105Y333993D01*
X453388Y334220D01*
X452667Y334428D01*
X451940Y334619D01*
X451209Y334792D01*
X450473Y334947D01*
X449734Y335084D01*
X448992Y335203D01*
X448248Y335304D01*
X447501Y335386D01*
X446752Y335450D01*
X446002Y335496D01*
X445251Y335524D01*
X444500Y335533D01*
X443749Y335524D01*
X442998Y335496D01*
X442248Y335450D01*
X441499Y335386D01*
X440752Y335304D01*
X440008Y335203D01*
X439266Y335084D01*
X438527Y334947D01*
X437791Y334792D01*
X437060Y334619D01*
X436333Y334428D01*
X435612Y334220D01*
X434895Y333993D01*
X434184Y333750D01*
X433479Y333489D01*
X432781Y333211D01*
X432090Y332916D01*
X431407Y332604D01*
X430731Y332276D01*
X430063Y331931D01*
X429404Y331570D01*
X428754Y331193D01*
X428114Y330800D01*
X427483Y330392D01*
X426862Y329968D01*
X426252Y329529D01*
X425653Y329076D01*
X425065Y328608D01*
X424489Y328125D01*
X423925Y327629D01*
X423373Y327119D01*
X422833Y326596D01*
X422307Y326060D01*
X421794Y325511D01*
X421294Y324950D01*
X420809Y324376D01*
X420337Y323791D01*
X419880Y323195D01*
X419438Y322587D01*
X419010Y321969D01*
X418598Y321341D01*
X418201Y320703D01*
X417820Y320055D01*
X417455Y319398D01*
X417107Y318733D01*
X416774Y318059D01*
X416458Y317377D01*
X416159Y316688D01*
X415877Y315991D01*
X415612Y315288D01*
X415364Y314579D01*
X415134Y313864D01*
X414921Y313143D01*
X414726Y312417D01*
X414549Y311687D01*
X414389Y310953D01*
X414248Y310215D01*
X414124Y309474D01*
X414019Y308730D01*
X413932Y307983D01*
X413864Y307235D01*
X413813Y306485D01*
X413781Y305734D01*
X413768Y304983D01*
X413772Y304232D01*
X413795Y303481D01*
X413837Y302730D01*
X413897Y301981D01*
X413975Y301234D01*
X414071Y300489D01*
X414185Y299746D01*
X414318Y299007D01*
X414469Y298270D01*
X414637Y297538D01*
X414824Y296810D01*
X415028Y296087D01*
X415250Y295369D01*
X415489Y294657D01*
X415746Y293951D01*
X416020Y293251D01*
X416310Y292558D01*
X416618Y291872D01*
X416943Y291195D01*
X417283Y290525D01*
X417641Y289864D01*
X418014Y289212D01*
X418403Y288569D01*
X418807Y287936D01*
X419227Y287313D01*
X419662Y286700D01*
X420112Y286098D01*
X420577Y285507D01*
X421056Y284928D01*
X421549Y284361D01*
X422055Y283806D01*
X422575Y283264D01*
X423108Y282734D01*
X423654Y282218D01*
X424212Y281715D01*
X424783Y281226D01*
X425365Y280751D01*
X425959Y280290D01*
D14*
X419100Y304800D02*
X419108Y305423D01*
X419131Y306046D01*
X419169Y306669D01*
X419222Y307290D01*
X419291Y307909D01*
X419375Y308527D01*
X419474Y309142D01*
X419588Y309755D01*
X419717Y310365D01*
X419861Y310972D01*
X420020Y311575D01*
X420194Y312173D01*
X420382Y312768D01*
X420585Y313357D01*
X420802Y313941D01*
X421033Y314520D01*
X421279Y315093D01*
X421539Y315660D01*
X421812Y316220D01*
X422099Y316773D01*
X422400Y317320D01*
X422714Y317858D01*
X423041Y318389D01*
X423381Y318911D01*
X423733Y319426D01*
X424099Y319931D01*
X424476Y320427D01*
X424866Y320914D01*
X425267Y321391D01*
X425680Y321858D01*
X426104Y322314D01*
X426539Y322761D01*
X426986Y323196D01*
X427442Y323620D01*
X427909Y324033D01*
X428386Y324434D01*
X428873Y324824D01*
X429369Y325201D01*
X429874Y325567D01*
X430389Y325919D01*
X430911Y326259D01*
X431442Y326586D01*
X431980Y326900D01*
X432527Y327201D01*
X433080Y327488D01*
X433640Y327761D01*
X434207Y328021D01*
X434780Y328267D01*
X435359Y328498D01*
X435943Y328715D01*
X436532Y328918D01*
X437127Y329106D01*
X437725Y329280D01*
X438328Y329439D01*
X438935Y329583D01*
X439545Y329712D01*
X440158Y329826D01*
X440773Y329925D01*
X441391Y330009D01*
X442010Y330078D01*
X442631Y330131D01*
X443254Y330169D01*
X443877Y330192D01*
X444500Y330200D01*
X445123Y330192D01*
X445746Y330169D01*
X446369Y330131D01*
X446990Y330078D01*
X447609Y330009D01*
X448227Y329925D01*
X448842Y329826D01*
X449455Y329712D01*
X450065Y329583D01*
X450672Y329439D01*
X451275Y329280D01*
X451873Y329106D01*
X452468Y328918D01*
X453057Y328715D01*
X453641Y328498D01*
X454220Y328267D01*
X454793Y328021D01*
X455360Y327761D01*
X455920Y327488D01*
X456473Y327201D01*
X457020Y326900D01*
X457558Y326586D01*
X458089Y326259D01*
X458611Y325919D01*
X459126Y325567D01*
X459631Y325201D01*
X460127Y324824D01*
X460614Y324434D01*
X461091Y324033D01*
X461558Y323620D01*
X462014Y323196D01*
X462461Y322761D01*
X462896Y322314D01*
X463320Y321858D01*
X463733Y321391D01*
X464134Y320914D01*
X464524Y320427D01*
X464901Y319931D01*
X465267Y319426D01*
X465619Y318911D01*
X465959Y318389D01*
X466286Y317858D01*
X466600Y317320D01*
X466901Y316773D01*
X467188Y316220D01*
X467461Y315660D01*
X467721Y315093D01*
X467967Y314520D01*
X468198Y313941D01*
X468415Y313357D01*
X468618Y312768D01*
X468806Y312173D01*
X468980Y311575D01*
X469139Y310972D01*
X469283Y310365D01*
X469412Y309755D01*
X469526Y309142D01*
X469625Y308527D01*
X469709Y307909D01*
X469778Y307290D01*
X469831Y306669D01*
X469869Y306046D01*
X469892Y305423D01*
X469900Y304800D01*
X469892Y304177D01*
X469869Y303554D01*
X469831Y302931D01*
X469778Y302310D01*
X469709Y301691D01*
X469625Y301073D01*
X469526Y300458D01*
X469412Y299845D01*
X469283Y299235D01*
X469139Y298628D01*
X468980Y298025D01*
X468806Y297427D01*
X468618Y296832D01*
X468415Y296243D01*
X468198Y295659D01*
X467967Y295080D01*
X467721Y294507D01*
X467461Y293940D01*
X467188Y293380D01*
X466901Y292827D01*
X466600Y292280D01*
X466286Y291742D01*
X465959Y291211D01*
X465619Y290689D01*
X465267Y290174D01*
X464901Y289669D01*
X464524Y289173D01*
X464134Y288686D01*
X463733Y288209D01*
X463320Y287742D01*
X462896Y287286D01*
X462461Y286839D01*
X462014Y286404D01*
X461558Y285980D01*
X461091Y285567D01*
X460614Y285166D01*
X460127Y284776D01*
X459631Y284399D01*
X459126Y284033D01*
X458611Y283681D01*
X458089Y283341D01*
X457558Y283014D01*
X457020Y282700D01*
X456473Y282399D01*
X455920Y282112D01*
X455360Y281839D01*
X454793Y281579D01*
X454220Y281333D01*
X453641Y281102D01*
X453057Y280885D01*
X452468Y280682D01*
X451873Y280494D01*
X451275Y280320D01*
X450672Y280161D01*
X450065Y280017D01*
X449455Y279888D01*
X448842Y279774D01*
X448227Y279675D01*
X447609Y279591D01*
X446990Y279522D01*
X446369Y279469D01*
X445746Y279431D01*
X445123Y279408D01*
X444500Y279400D01*
X443877Y279408D01*
X443254Y279431D01*
X442631Y279469D01*
X442010Y279522D01*
X441391Y279591D01*
X440773Y279675D01*
X440158Y279774D01*
X439545Y279888D01*
X438935Y280017D01*
X438328Y280161D01*
X437725Y280320D01*
X437127Y280494D01*
X436532Y280682D01*
X435943Y280885D01*
X435359Y281102D01*
X434780Y281333D01*
X434207Y281579D01*
X433640Y281839D01*
X433080Y282112D01*
X432527Y282399D01*
X431980Y282700D01*
X431442Y283014D01*
X430911Y283341D01*
X430389Y283681D01*
X429874Y284033D01*
X429369Y284399D01*
X428873Y284776D01*
X428386Y285166D01*
X427909Y285567D01*
X427442Y285980D01*
X426986Y286404D01*
X426539Y286839D01*
X426104Y287286D01*
X425680Y287742D01*
X425267Y288209D01*
X424866Y288686D01*
X424476Y289173D01*
X424099Y289669D01*
X423733Y290174D01*
X423381Y290689D01*
X423041Y291211D01*
X422714Y291742D01*
X422400Y292280D01*
X422099Y292827D01*
X421812Y293380D01*
X421539Y293940D01*
X421279Y294507D01*
X421033Y295080D01*
X420802Y295659D01*
X420585Y296243D01*
X420382Y296832D01*
X420194Y297427D01*
X420020Y298025D01*
X419861Y298628D01*
X419717Y299235D01*
X419588Y299845D01*
X419474Y300458D01*
X419375Y301073D01*
X419291Y301691D01*
X419222Y302310D01*
X419169Y302931D01*
X419131Y303554D01*
X419108Y304177D01*
X419100Y304800D01*
D12*
X450469Y244348D02*
X458724Y244348D01*
X458835Y244350D01*
X458945Y244356D01*
X459056Y244365D01*
X459166Y244379D01*
X459275Y244396D01*
X459384Y244417D01*
X459492Y244442D01*
X459599Y244471D01*
X459705Y244503D01*
X459810Y244539D01*
X459913Y244579D01*
X460015Y244622D01*
X460116Y244669D01*
X460215Y244720D01*
X460312Y244773D01*
X460406Y244830D01*
X460499Y244891D01*
X460590Y244954D01*
X460679Y245021D01*
X460765Y245091D01*
X460848Y245164D01*
X460930Y245239D01*
X461008Y245317D01*
X461083Y245399D01*
X461156Y245482D01*
X461226Y245568D01*
X461293Y245657D01*
X461356Y245748D01*
X461417Y245841D01*
X461474Y245935D01*
X461527Y246032D01*
X461578Y246131D01*
X461625Y246232D01*
X461668Y246334D01*
X461708Y246437D01*
X461744Y246542D01*
X461776Y246648D01*
X461805Y246755D01*
X461830Y246863D01*
X461851Y246972D01*
X461868Y247081D01*
X461882Y247191D01*
X461891Y247302D01*
X461897Y247412D01*
X461899Y247523D01*
X461897Y247634D01*
X461891Y247744D01*
X461882Y247855D01*
X461868Y247965D01*
X461851Y248074D01*
X461830Y248183D01*
X461805Y248291D01*
X461776Y248398D01*
X461744Y248504D01*
X461708Y248609D01*
X461668Y248712D01*
X461625Y248814D01*
X461578Y248915D01*
X461527Y249014D01*
X461474Y249110D01*
X461417Y249205D01*
X461356Y249298D01*
X461293Y249389D01*
X461226Y249478D01*
X461156Y249564D01*
X461083Y249647D01*
X461008Y249729D01*
X460930Y249807D01*
X460848Y249882D01*
X460765Y249955D01*
X460679Y250025D01*
X460590Y250092D01*
X460499Y250155D01*
X460406Y250216D01*
X460312Y250273D01*
X460215Y250326D01*
X460116Y250377D01*
X460015Y250424D01*
X459913Y250467D01*
X459810Y250507D01*
X459705Y250543D01*
X459599Y250575D01*
X459492Y250604D01*
X459384Y250629D01*
X459275Y250650D01*
X459166Y250667D01*
X459056Y250681D01*
X458945Y250690D01*
X458835Y250696D01*
X458724Y250698D01*
X450469Y250698D01*
X450469Y258572D02*
X461899Y258572D01*
X456184Y258572D02*
X455232Y256985D01*
X455232Y256984D02*
X455185Y256911D01*
X455136Y256840D01*
X455083Y256771D01*
X455027Y256705D01*
X454968Y256641D01*
X454907Y256580D01*
X454843Y256522D01*
X454776Y256467D01*
X454706Y256415D01*
X454635Y256367D01*
X454561Y256321D01*
X454485Y256279D01*
X454407Y256241D01*
X454328Y256206D01*
X454247Y256175D01*
X454165Y256148D01*
X454082Y256124D01*
X453997Y256104D01*
X453912Y256088D01*
X453826Y256076D01*
X453740Y256068D01*
X453654Y256064D01*
X453567Y256063D01*
X453480Y256067D01*
X453394Y256075D01*
X453308Y256086D01*
X453223Y256102D01*
X453139Y256121D01*
X453055Y256144D01*
X452973Y256171D01*
X452892Y256202D01*
X452812Y256237D01*
X452735Y256274D01*
X452659Y256316D01*
X452584Y256361D01*
X452513Y256409D01*
X452443Y256461D01*
X452376Y256515D01*
X452311Y256573D01*
X452249Y256633D01*
X452190Y256697D01*
X452134Y256763D01*
X452080Y256831D01*
X452031Y256902D01*
X451984Y256975D01*
X451941Y257050D01*
X451901Y257127D01*
X451865Y257205D01*
X451832Y257286D01*
X451803Y257367D01*
X451778Y257450D01*
X451756Y257534D01*
X451739Y257619D01*
X451739Y257620D02*
X451716Y257757D01*
X451696Y257896D01*
X451681Y258034D01*
X451669Y258173D01*
X451661Y258313D01*
X451658Y258452D01*
X451657Y258592D01*
X451661Y258731D01*
X451669Y258870D01*
X451680Y259009D01*
X451696Y259148D01*
X451715Y259286D01*
X451738Y259424D01*
X451765Y259561D01*
X451796Y259697D01*
X451830Y259832D01*
X451868Y259966D01*
X451910Y260100D01*
X451956Y260231D01*
X452005Y260362D01*
X452058Y260491D01*
X452114Y260619D01*
X452174Y260745D01*
X452237Y260869D01*
X452304Y260992D01*
X452374Y261112D01*
X456184Y258572D02*
X457137Y260160D01*
X457136Y260160D02*
X457183Y260233D01*
X457232Y260304D01*
X457285Y260373D01*
X457341Y260439D01*
X457400Y260503D01*
X457461Y260564D01*
X457525Y260622D01*
X457592Y260677D01*
X457662Y260729D01*
X457733Y260777D01*
X457807Y260823D01*
X457883Y260865D01*
X457961Y260903D01*
X458040Y260938D01*
X458121Y260969D01*
X458203Y260996D01*
X458286Y261020D01*
X458371Y261040D01*
X458456Y261056D01*
X458542Y261068D01*
X458628Y261076D01*
X458714Y261080D01*
X458801Y261081D01*
X458888Y261077D01*
X458974Y261069D01*
X459060Y261058D01*
X459145Y261042D01*
X459229Y261023D01*
X459313Y261000D01*
X459395Y260973D01*
X459476Y260942D01*
X459556Y260907D01*
X459633Y260870D01*
X459709Y260828D01*
X459784Y260783D01*
X459855Y260735D01*
X459925Y260683D01*
X459992Y260629D01*
X460057Y260571D01*
X460119Y260511D01*
X460178Y260447D01*
X460234Y260381D01*
X460288Y260313D01*
X460337Y260242D01*
X460384Y260169D01*
X460427Y260094D01*
X460467Y260017D01*
X460503Y259939D01*
X460536Y259858D01*
X460565Y259777D01*
X460590Y259694D01*
X460612Y259610D01*
X460629Y259525D01*
X460629Y259524D02*
X460652Y259387D01*
X460672Y259248D01*
X460687Y259110D01*
X460699Y258971D01*
X460707Y258831D01*
X460710Y258692D01*
X460711Y258552D01*
X460707Y258413D01*
X460699Y258274D01*
X460688Y258135D01*
X460672Y257996D01*
X460653Y257858D01*
X460630Y257720D01*
X460603Y257583D01*
X460572Y257447D01*
X460538Y257312D01*
X460500Y257178D01*
X460458Y257044D01*
X460412Y256913D01*
X460363Y256782D01*
X460310Y256653D01*
X460254Y256525D01*
X460194Y256399D01*
X460131Y256275D01*
X460064Y256152D01*
X459994Y256032D01*
X450469Y269558D02*
X450471Y269662D01*
X450477Y269767D01*
X450486Y269871D01*
X450499Y269974D01*
X450517Y270077D01*
X450537Y270179D01*
X450562Y270281D01*
X450590Y270381D01*
X450622Y270481D01*
X450658Y270579D01*
X450697Y270676D01*
X450739Y270771D01*
X450785Y270865D01*
X450835Y270957D01*
X450887Y271047D01*
X450943Y271135D01*
X451003Y271221D01*
X451065Y271305D01*
X451130Y271386D01*
X451198Y271465D01*
X451270Y271542D01*
X451343Y271615D01*
X451420Y271687D01*
X451499Y271755D01*
X451580Y271820D01*
X451664Y271882D01*
X451750Y271942D01*
X451838Y271998D01*
X451928Y272050D01*
X452020Y272100D01*
X452114Y272146D01*
X452209Y272188D01*
X452306Y272227D01*
X452404Y272263D01*
X452504Y272295D01*
X452604Y272323D01*
X452706Y272348D01*
X452808Y272368D01*
X452911Y272386D01*
X453014Y272399D01*
X453118Y272408D01*
X453223Y272414D01*
X453327Y272416D01*
X450469Y269558D02*
X450471Y269440D01*
X450477Y269321D01*
X450486Y269203D01*
X450499Y269086D01*
X450517Y268969D01*
X450537Y268852D01*
X450562Y268736D01*
X450590Y268621D01*
X450623Y268508D01*
X450658Y268395D01*
X450698Y268283D01*
X450740Y268173D01*
X450787Y268064D01*
X450837Y267956D01*
X450890Y267851D01*
X450947Y267747D01*
X451007Y267645D01*
X451070Y267545D01*
X451137Y267447D01*
X451206Y267351D01*
X451279Y267258D01*
X451355Y267167D01*
X451433Y267078D01*
X451515Y266992D01*
X451599Y266909D01*
X451685Y266828D01*
X451775Y266751D01*
X451866Y266676D01*
X451960Y266604D01*
X452057Y266535D01*
X452155Y266470D01*
X452256Y266407D01*
X452359Y266348D01*
X452463Y266292D01*
X452569Y266240D01*
X452677Y266191D01*
X452786Y266146D01*
X452897Y266104D01*
X453009Y266066D01*
X455549Y271463D02*
X455474Y271539D01*
X455395Y271614D01*
X455314Y271685D01*
X455230Y271754D01*
X455144Y271819D01*
X455056Y271881D01*
X454966Y271941D01*
X454874Y271997D01*
X454779Y272050D01*
X454683Y272099D01*
X454585Y272145D01*
X454486Y272188D01*
X454385Y272227D01*
X454283Y272262D01*
X454180Y272294D01*
X454076Y272322D01*
X453971Y272347D01*
X453864Y272368D01*
X453758Y272385D01*
X453651Y272398D01*
X453543Y272407D01*
X453435Y272413D01*
X453327Y272415D01*
X455549Y271463D02*
X461899Y266065D01*
X461899Y272415D01*
X448800Y560700D02*
X334800Y560700D01*
X334800Y607700D02*
X448800Y607700D01*
X486800Y602700D02*
X486800Y565700D01*
X296800Y565700D02*
X296800Y602700D01*
X421800Y599200D02*
X421800Y569200D01*
X421800Y599200D02*
X416800Y599200D01*
X411800Y599200D01*
X406800Y599200D01*
X401800Y599200D01*
X396800Y599200D01*
X361800Y599200D01*
X361800Y569200D01*
X396800Y569200D01*
X401800Y569200D01*
X406800Y569200D01*
X411800Y569200D01*
X416800Y569200D01*
X421800Y569200D01*
X396800Y569200D02*
X396800Y599200D01*
X401800Y599200D02*
X401800Y569200D01*
X406800Y569200D02*
X406800Y599200D01*
X411800Y599200D02*
X411800Y569200D01*
X416800Y569200D02*
X416800Y599200D01*
X448800Y565700D02*
X448800Y560700D01*
X448800Y565700D02*
X486800Y565700D01*
X334800Y565700D02*
X296800Y565700D01*
X334800Y565700D02*
X334800Y560700D01*
X448800Y602700D02*
X448800Y607700D01*
X448800Y602700D02*
X486800Y602700D01*
X334800Y602700D02*
X296800Y602700D01*
X334800Y602700D02*
X334800Y607700D01*
X455620Y584200D02*
X455623Y584474D01*
X455633Y584749D01*
X455650Y585022D01*
X455674Y585296D01*
X455704Y585569D01*
X455741Y585840D01*
X455785Y586111D01*
X455835Y586381D01*
X455892Y586650D01*
X455955Y586917D01*
X456025Y587182D01*
X456101Y587445D01*
X456184Y587707D01*
X456274Y587966D01*
X456369Y588224D01*
X456471Y588478D01*
X456579Y588731D01*
X456693Y588980D01*
X456814Y589227D01*
X456940Y589470D01*
X457072Y589711D01*
X457211Y589948D01*
X457355Y590181D01*
X457504Y590411D01*
X457659Y590638D01*
X457820Y590860D01*
X457986Y591078D01*
X458158Y591293D01*
X458334Y591502D01*
X458516Y591708D01*
X458703Y591909D01*
X458895Y592105D01*
X459091Y592297D01*
X459292Y592484D01*
X459498Y592666D01*
X459707Y592842D01*
X459922Y593014D01*
X460140Y593180D01*
X460362Y593341D01*
X460589Y593496D01*
X460819Y593645D01*
X461052Y593789D01*
X461289Y593928D01*
X461530Y594060D01*
X461773Y594186D01*
X462020Y594307D01*
X462269Y594421D01*
X462522Y594529D01*
X462776Y594631D01*
X463034Y594726D01*
X463293Y594816D01*
X463555Y594899D01*
X463818Y594975D01*
X464083Y595045D01*
X464350Y595108D01*
X464619Y595165D01*
X464889Y595215D01*
X465160Y595259D01*
X465431Y595296D01*
X465704Y595326D01*
X465978Y595350D01*
X466251Y595367D01*
X466526Y595377D01*
X466800Y595380D01*
X467074Y595377D01*
X467349Y595367D01*
X467622Y595350D01*
X467896Y595326D01*
X468169Y595296D01*
X468440Y595259D01*
X468711Y595215D01*
X468981Y595165D01*
X469250Y595108D01*
X469517Y595045D01*
X469782Y594975D01*
X470045Y594899D01*
X470307Y594816D01*
X470566Y594726D01*
X470824Y594631D01*
X471078Y594529D01*
X471331Y594421D01*
X471580Y594307D01*
X471827Y594186D01*
X472070Y594060D01*
X472311Y593928D01*
X472548Y593789D01*
X472781Y593645D01*
X473011Y593496D01*
X473238Y593341D01*
X473460Y593180D01*
X473678Y593014D01*
X473893Y592842D01*
X474102Y592666D01*
X474308Y592484D01*
X474509Y592297D01*
X474705Y592105D01*
X474897Y591909D01*
X475084Y591708D01*
X475266Y591502D01*
X475442Y591293D01*
X475614Y591078D01*
X475780Y590860D01*
X475941Y590638D01*
X476096Y590411D01*
X476245Y590181D01*
X476389Y589948D01*
X476528Y589711D01*
X476660Y589470D01*
X476786Y589227D01*
X476907Y588980D01*
X477021Y588731D01*
X477129Y588478D01*
X477231Y588224D01*
X477326Y587966D01*
X477416Y587707D01*
X477499Y587445D01*
X477575Y587182D01*
X477645Y586917D01*
X477708Y586650D01*
X477765Y586381D01*
X477815Y586111D01*
X477859Y585840D01*
X477896Y585569D01*
X477926Y585296D01*
X477950Y585022D01*
X477967Y584749D01*
X477977Y584474D01*
X477980Y584200D01*
X477977Y583926D01*
X477967Y583651D01*
X477950Y583378D01*
X477926Y583104D01*
X477896Y582831D01*
X477859Y582560D01*
X477815Y582289D01*
X477765Y582019D01*
X477708Y581750D01*
X477645Y581483D01*
X477575Y581218D01*
X477499Y580955D01*
X477416Y580693D01*
X477326Y580434D01*
X477231Y580176D01*
X477129Y579922D01*
X477021Y579669D01*
X476907Y579420D01*
X476786Y579173D01*
X476660Y578930D01*
X476528Y578689D01*
X476389Y578452D01*
X476245Y578219D01*
X476096Y577989D01*
X475941Y577762D01*
X475780Y577540D01*
X475614Y577322D01*
X475442Y577107D01*
X475266Y576898D01*
X475084Y576692D01*
X474897Y576491D01*
X474705Y576295D01*
X474509Y576103D01*
X474308Y575916D01*
X474102Y575734D01*
X473893Y575558D01*
X473678Y575386D01*
X473460Y575220D01*
X473238Y575059D01*
X473011Y574904D01*
X472781Y574755D01*
X472548Y574611D01*
X472311Y574472D01*
X472070Y574340D01*
X471827Y574214D01*
X471580Y574093D01*
X471331Y573979D01*
X471078Y573871D01*
X470824Y573769D01*
X470566Y573674D01*
X470307Y573584D01*
X470045Y573501D01*
X469782Y573425D01*
X469517Y573355D01*
X469250Y573292D01*
X468981Y573235D01*
X468711Y573185D01*
X468440Y573141D01*
X468169Y573104D01*
X467896Y573074D01*
X467622Y573050D01*
X467349Y573033D01*
X467074Y573023D01*
X466800Y573020D01*
X466526Y573023D01*
X466251Y573033D01*
X465978Y573050D01*
X465704Y573074D01*
X465431Y573104D01*
X465160Y573141D01*
X464889Y573185D01*
X464619Y573235D01*
X464350Y573292D01*
X464083Y573355D01*
X463818Y573425D01*
X463555Y573501D01*
X463293Y573584D01*
X463034Y573674D01*
X462776Y573769D01*
X462522Y573871D01*
X462269Y573979D01*
X462020Y574093D01*
X461773Y574214D01*
X461530Y574340D01*
X461289Y574472D01*
X461052Y574611D01*
X460819Y574755D01*
X460589Y574904D01*
X460362Y575059D01*
X460140Y575220D01*
X459922Y575386D01*
X459707Y575558D01*
X459498Y575734D01*
X459292Y575916D01*
X459091Y576103D01*
X458895Y576295D01*
X458703Y576491D01*
X458516Y576692D01*
X458334Y576898D01*
X458158Y577107D01*
X457986Y577322D01*
X457820Y577540D01*
X457659Y577762D01*
X457504Y577989D01*
X457355Y578219D01*
X457211Y578452D01*
X457072Y578689D01*
X456940Y578930D01*
X456814Y579173D01*
X456693Y579420D01*
X456579Y579669D01*
X456471Y579922D01*
X456369Y580176D01*
X456274Y580434D01*
X456184Y580693D01*
X456101Y580955D01*
X456025Y581218D01*
X455955Y581483D01*
X455892Y581750D01*
X455835Y582019D01*
X455785Y582289D01*
X455741Y582560D01*
X455704Y582831D01*
X455674Y583104D01*
X455650Y583378D01*
X455633Y583651D01*
X455623Y583926D01*
X455620Y584200D01*
X305620Y584200D02*
X305623Y584474D01*
X305633Y584749D01*
X305650Y585022D01*
X305674Y585296D01*
X305704Y585569D01*
X305741Y585840D01*
X305785Y586111D01*
X305835Y586381D01*
X305892Y586650D01*
X305955Y586917D01*
X306025Y587182D01*
X306101Y587445D01*
X306184Y587707D01*
X306274Y587966D01*
X306369Y588224D01*
X306471Y588478D01*
X306579Y588731D01*
X306693Y588980D01*
X306814Y589227D01*
X306940Y589470D01*
X307072Y589711D01*
X307211Y589948D01*
X307355Y590181D01*
X307504Y590411D01*
X307659Y590638D01*
X307820Y590860D01*
X307986Y591078D01*
X308158Y591293D01*
X308334Y591502D01*
X308516Y591708D01*
X308703Y591909D01*
X308895Y592105D01*
X309091Y592297D01*
X309292Y592484D01*
X309498Y592666D01*
X309707Y592842D01*
X309922Y593014D01*
X310140Y593180D01*
X310362Y593341D01*
X310589Y593496D01*
X310819Y593645D01*
X311052Y593789D01*
X311289Y593928D01*
X311530Y594060D01*
X311773Y594186D01*
X312020Y594307D01*
X312269Y594421D01*
X312522Y594529D01*
X312776Y594631D01*
X313034Y594726D01*
X313293Y594816D01*
X313555Y594899D01*
X313818Y594975D01*
X314083Y595045D01*
X314350Y595108D01*
X314619Y595165D01*
X314889Y595215D01*
X315160Y595259D01*
X315431Y595296D01*
X315704Y595326D01*
X315978Y595350D01*
X316251Y595367D01*
X316526Y595377D01*
X316800Y595380D01*
X317074Y595377D01*
X317349Y595367D01*
X317622Y595350D01*
X317896Y595326D01*
X318169Y595296D01*
X318440Y595259D01*
X318711Y595215D01*
X318981Y595165D01*
X319250Y595108D01*
X319517Y595045D01*
X319782Y594975D01*
X320045Y594899D01*
X320307Y594816D01*
X320566Y594726D01*
X320824Y594631D01*
X321078Y594529D01*
X321331Y594421D01*
X321580Y594307D01*
X321827Y594186D01*
X322070Y594060D01*
X322311Y593928D01*
X322548Y593789D01*
X322781Y593645D01*
X323011Y593496D01*
X323238Y593341D01*
X323460Y593180D01*
X323678Y593014D01*
X323893Y592842D01*
X324102Y592666D01*
X324308Y592484D01*
X324509Y592297D01*
X324705Y592105D01*
X324897Y591909D01*
X325084Y591708D01*
X325266Y591502D01*
X325442Y591293D01*
X325614Y591078D01*
X325780Y590860D01*
X325941Y590638D01*
X326096Y590411D01*
X326245Y590181D01*
X326389Y589948D01*
X326528Y589711D01*
X326660Y589470D01*
X326786Y589227D01*
X326907Y588980D01*
X327021Y588731D01*
X327129Y588478D01*
X327231Y588224D01*
X327326Y587966D01*
X327416Y587707D01*
X327499Y587445D01*
X327575Y587182D01*
X327645Y586917D01*
X327708Y586650D01*
X327765Y586381D01*
X327815Y586111D01*
X327859Y585840D01*
X327896Y585569D01*
X327926Y585296D01*
X327950Y585022D01*
X327967Y584749D01*
X327977Y584474D01*
X327980Y584200D01*
X327977Y583926D01*
X327967Y583651D01*
X327950Y583378D01*
X327926Y583104D01*
X327896Y582831D01*
X327859Y582560D01*
X327815Y582289D01*
X327765Y582019D01*
X327708Y581750D01*
X327645Y581483D01*
X327575Y581218D01*
X327499Y580955D01*
X327416Y580693D01*
X327326Y580434D01*
X327231Y580176D01*
X327129Y579922D01*
X327021Y579669D01*
X326907Y579420D01*
X326786Y579173D01*
X326660Y578930D01*
X326528Y578689D01*
X326389Y578452D01*
X326245Y578219D01*
X326096Y577989D01*
X325941Y577762D01*
X325780Y577540D01*
X325614Y577322D01*
X325442Y577107D01*
X325266Y576898D01*
X325084Y576692D01*
X324897Y576491D01*
X324705Y576295D01*
X324509Y576103D01*
X324308Y575916D01*
X324102Y575734D01*
X323893Y575558D01*
X323678Y575386D01*
X323460Y575220D01*
X323238Y575059D01*
X323011Y574904D01*
X322781Y574755D01*
X322548Y574611D01*
X322311Y574472D01*
X322070Y574340D01*
X321827Y574214D01*
X321580Y574093D01*
X321331Y573979D01*
X321078Y573871D01*
X320824Y573769D01*
X320566Y573674D01*
X320307Y573584D01*
X320045Y573501D01*
X319782Y573425D01*
X319517Y573355D01*
X319250Y573292D01*
X318981Y573235D01*
X318711Y573185D01*
X318440Y573141D01*
X318169Y573104D01*
X317896Y573074D01*
X317622Y573050D01*
X317349Y573033D01*
X317074Y573023D01*
X316800Y573020D01*
X316526Y573023D01*
X316251Y573033D01*
X315978Y573050D01*
X315704Y573074D01*
X315431Y573104D01*
X315160Y573141D01*
X314889Y573185D01*
X314619Y573235D01*
X314350Y573292D01*
X314083Y573355D01*
X313818Y573425D01*
X313555Y573501D01*
X313293Y573584D01*
X313034Y573674D01*
X312776Y573769D01*
X312522Y573871D01*
X312269Y573979D01*
X312020Y574093D01*
X311773Y574214D01*
X311530Y574340D01*
X311289Y574472D01*
X311052Y574611D01*
X310819Y574755D01*
X310589Y574904D01*
X310362Y575059D01*
X310140Y575220D01*
X309922Y575386D01*
X309707Y575558D01*
X309498Y575734D01*
X309292Y575916D01*
X309091Y576103D01*
X308895Y576295D01*
X308703Y576491D01*
X308516Y576692D01*
X308334Y576898D01*
X308158Y577107D01*
X307986Y577322D01*
X307820Y577540D01*
X307659Y577762D01*
X307504Y577989D01*
X307355Y578219D01*
X307211Y578452D01*
X307072Y578689D01*
X306940Y578930D01*
X306814Y579173D01*
X306693Y579420D01*
X306579Y579669D01*
X306471Y579922D01*
X306369Y580176D01*
X306274Y580434D01*
X306184Y580693D01*
X306101Y580955D01*
X306025Y581218D01*
X305955Y581483D01*
X305892Y581750D01*
X305835Y582019D01*
X305785Y582289D01*
X305741Y582560D01*
X305704Y582831D01*
X305674Y583104D01*
X305650Y583378D01*
X305633Y583651D01*
X305623Y583926D01*
X305620Y584200D01*
D18*
X411034Y557692D02*
X411034Y549254D01*
X411033Y549254D02*
X411035Y549141D01*
X411041Y549028D01*
X411051Y548915D01*
X411065Y548802D01*
X411082Y548690D01*
X411104Y548579D01*
X411129Y548469D01*
X411159Y548359D01*
X411192Y548251D01*
X411229Y548144D01*
X411269Y548038D01*
X411314Y547934D01*
X411362Y547831D01*
X411413Y547730D01*
X411468Y547631D01*
X411526Y547534D01*
X411588Y547439D01*
X411653Y547346D01*
X411721Y547256D01*
X411792Y547168D01*
X411867Y547082D01*
X411944Y546999D01*
X412024Y546919D01*
X412107Y546842D01*
X412193Y546767D01*
X412281Y546696D01*
X412371Y546628D01*
X412464Y546563D01*
X412559Y546501D01*
X412656Y546443D01*
X412755Y546388D01*
X412856Y546337D01*
X412959Y546289D01*
X413063Y546244D01*
X413169Y546204D01*
X413276Y546167D01*
X413384Y546134D01*
X413494Y546104D01*
X413604Y546079D01*
X413715Y546057D01*
X413827Y546040D01*
X413940Y546026D01*
X414053Y546016D01*
X414166Y546010D01*
X414279Y546008D01*
X414392Y546010D01*
X414505Y546016D01*
X414618Y546026D01*
X414731Y546040D01*
X414843Y546057D01*
X414954Y546079D01*
X415064Y546104D01*
X415174Y546134D01*
X415282Y546167D01*
X415389Y546204D01*
X415495Y546244D01*
X415599Y546289D01*
X415702Y546337D01*
X415803Y546388D01*
X415902Y546443D01*
X415999Y546501D01*
X416094Y546563D01*
X416187Y546628D01*
X416277Y546696D01*
X416365Y546767D01*
X416451Y546842D01*
X416534Y546919D01*
X416614Y546999D01*
X416691Y547082D01*
X416766Y547168D01*
X416837Y547256D01*
X416905Y547346D01*
X416970Y547439D01*
X417032Y547534D01*
X417090Y547631D01*
X417145Y547730D01*
X417196Y547831D01*
X417244Y547934D01*
X417289Y548038D01*
X417329Y548144D01*
X417366Y548251D01*
X417399Y548359D01*
X417429Y548469D01*
X417454Y548579D01*
X417476Y548690D01*
X417493Y548802D01*
X417507Y548915D01*
X417517Y549028D01*
X417523Y549141D01*
X417525Y549254D01*
X417525Y557692D01*
X425328Y557692D02*
X425328Y546008D01*
X425328Y551850D02*
X423706Y552824D01*
X423705Y552823D02*
X423632Y552870D01*
X423561Y552919D01*
X423491Y552972D01*
X423425Y553028D01*
X423361Y553087D01*
X423299Y553148D01*
X423241Y553212D01*
X423185Y553279D01*
X423133Y553348D01*
X423083Y553420D01*
X423037Y553494D01*
X422994Y553569D01*
X422955Y553647D01*
X422919Y553726D01*
X422887Y553807D01*
X422858Y553889D01*
X422833Y553972D01*
X422812Y554056D01*
X422795Y554141D01*
X422781Y554227D01*
X422772Y554313D01*
X422766Y554400D01*
X422764Y554487D01*
X422766Y554574D01*
X422772Y554661D01*
X422782Y554747D01*
X422795Y554833D01*
X422813Y554918D01*
X422834Y555002D01*
X422859Y555085D01*
X422888Y555168D01*
X422920Y555248D01*
X422956Y555327D01*
X422995Y555405D01*
X423038Y555480D01*
X423085Y555554D01*
X423134Y555625D01*
X423187Y555695D01*
X423242Y555761D01*
X423301Y555825D01*
X423362Y555887D01*
X423427Y555946D01*
X423493Y556001D01*
X423562Y556054D01*
X423634Y556104D01*
X423707Y556150D01*
X423783Y556193D01*
X423860Y556232D01*
X423939Y556268D01*
X424020Y556301D01*
X424102Y556329D01*
X424185Y556355D01*
X424269Y556376D01*
X424355Y556393D01*
X424355Y556394D02*
X424495Y556418D01*
X424637Y556438D01*
X424778Y556454D01*
X424920Y556465D01*
X425063Y556473D01*
X425205Y556477D01*
X425348Y556478D01*
X425491Y556474D01*
X425633Y556466D01*
X425775Y556454D01*
X425917Y556438D01*
X426058Y556419D01*
X426199Y556395D01*
X426339Y556368D01*
X426478Y556336D01*
X426616Y556301D01*
X426754Y556262D01*
X426890Y556219D01*
X427024Y556173D01*
X427158Y556122D01*
X427290Y556069D01*
X427420Y556011D01*
X427549Y555950D01*
X427676Y555885D01*
X427802Y555817D01*
X427925Y555745D01*
X425328Y551850D02*
X426951Y550876D01*
X426952Y550877D02*
X427025Y550830D01*
X427096Y550781D01*
X427166Y550728D01*
X427232Y550672D01*
X427296Y550613D01*
X427358Y550552D01*
X427416Y550488D01*
X427472Y550421D01*
X427524Y550352D01*
X427574Y550280D01*
X427620Y550206D01*
X427663Y550131D01*
X427702Y550053D01*
X427738Y549974D01*
X427770Y549893D01*
X427799Y549811D01*
X427824Y549728D01*
X427845Y549644D01*
X427862Y549559D01*
X427876Y549473D01*
X427885Y549387D01*
X427891Y549300D01*
X427893Y549213D01*
X427891Y549126D01*
X427885Y549039D01*
X427875Y548953D01*
X427862Y548867D01*
X427844Y548782D01*
X427823Y548698D01*
X427798Y548615D01*
X427769Y548532D01*
X427737Y548452D01*
X427701Y548373D01*
X427662Y548295D01*
X427619Y548220D01*
X427572Y548146D01*
X427523Y548075D01*
X427470Y548005D01*
X427415Y547939D01*
X427356Y547875D01*
X427295Y547813D01*
X427230Y547754D01*
X427164Y547699D01*
X427095Y547646D01*
X427023Y547596D01*
X426950Y547550D01*
X426874Y547507D01*
X426797Y547468D01*
X426718Y547432D01*
X426637Y547399D01*
X426555Y547371D01*
X426472Y547345D01*
X426388Y547324D01*
X426303Y547307D01*
X426302Y547306D02*
X426162Y547282D01*
X426020Y547262D01*
X425879Y547246D01*
X425737Y547235D01*
X425594Y547227D01*
X425452Y547223D01*
X425309Y547222D01*
X425166Y547226D01*
X425024Y547234D01*
X424882Y547246D01*
X424740Y547262D01*
X424599Y547281D01*
X424458Y547305D01*
X424318Y547332D01*
X424179Y547364D01*
X424041Y547399D01*
X423903Y547438D01*
X423767Y547481D01*
X423633Y547527D01*
X423499Y547578D01*
X423367Y547631D01*
X423237Y547689D01*
X423108Y547750D01*
X422981Y547815D01*
X422855Y547883D01*
X422732Y547955D01*
X432751Y546008D02*
X435996Y546008D01*
X436109Y546010D01*
X436222Y546016D01*
X436335Y546026D01*
X436448Y546040D01*
X436560Y546057D01*
X436671Y546079D01*
X436781Y546104D01*
X436891Y546134D01*
X436999Y546167D01*
X437106Y546204D01*
X437212Y546244D01*
X437316Y546289D01*
X437419Y546337D01*
X437520Y546388D01*
X437619Y546443D01*
X437716Y546501D01*
X437811Y546563D01*
X437904Y546628D01*
X437994Y546696D01*
X438082Y546767D01*
X438168Y546842D01*
X438251Y546919D01*
X438331Y546999D01*
X438408Y547082D01*
X438483Y547168D01*
X438554Y547256D01*
X438622Y547346D01*
X438687Y547439D01*
X438749Y547534D01*
X438807Y547631D01*
X438862Y547730D01*
X438913Y547831D01*
X438961Y547934D01*
X439006Y548038D01*
X439046Y548144D01*
X439083Y548251D01*
X439116Y548359D01*
X439146Y548469D01*
X439171Y548579D01*
X439193Y548690D01*
X439210Y548802D01*
X439224Y548915D01*
X439234Y549028D01*
X439240Y549141D01*
X439242Y549254D01*
X439240Y549367D01*
X439234Y549480D01*
X439224Y549593D01*
X439210Y549706D01*
X439193Y549818D01*
X439171Y549929D01*
X439146Y550039D01*
X439116Y550149D01*
X439083Y550257D01*
X439046Y550364D01*
X439006Y550470D01*
X438961Y550574D01*
X438913Y550677D01*
X438862Y550778D01*
X438807Y550877D01*
X438749Y550974D01*
X438687Y551069D01*
X438622Y551162D01*
X438554Y551252D01*
X438483Y551340D01*
X438408Y551426D01*
X438331Y551509D01*
X438251Y551589D01*
X438168Y551666D01*
X438082Y551741D01*
X437994Y551812D01*
X437904Y551880D01*
X437811Y551945D01*
X437716Y552007D01*
X437619Y552065D01*
X437520Y552120D01*
X437419Y552171D01*
X437316Y552219D01*
X437212Y552264D01*
X437106Y552304D01*
X436999Y552341D01*
X436891Y552374D01*
X436781Y552404D01*
X436671Y552429D01*
X436560Y552451D01*
X436448Y552468D01*
X436335Y552482D01*
X436222Y552492D01*
X436109Y552498D01*
X435996Y552500D01*
X436646Y557692D02*
X432751Y557692D01*
X436646Y557692D02*
X436747Y557690D01*
X436847Y557684D01*
X436947Y557674D01*
X437047Y557661D01*
X437146Y557643D01*
X437245Y557622D01*
X437342Y557597D01*
X437439Y557568D01*
X437534Y557535D01*
X437628Y557499D01*
X437720Y557459D01*
X437811Y557416D01*
X437900Y557369D01*
X437987Y557319D01*
X438073Y557265D01*
X438156Y557208D01*
X438236Y557148D01*
X438315Y557085D01*
X438391Y557018D01*
X438464Y556949D01*
X438534Y556877D01*
X438602Y556803D01*
X438667Y556726D01*
X438728Y556646D01*
X438787Y556564D01*
X438842Y556480D01*
X438894Y556394D01*
X438943Y556306D01*
X438988Y556216D01*
X439030Y556124D01*
X439068Y556031D01*
X439102Y555936D01*
X439133Y555841D01*
X439160Y555744D01*
X439183Y555646D01*
X439203Y555547D01*
X439218Y555447D01*
X439230Y555347D01*
X439238Y555247D01*
X439242Y555146D01*
X439242Y555046D01*
X439238Y554945D01*
X439230Y554845D01*
X439218Y554745D01*
X439203Y554645D01*
X439183Y554546D01*
X439160Y554448D01*
X439133Y554351D01*
X439102Y554256D01*
X439068Y554161D01*
X439030Y554068D01*
X438988Y553976D01*
X438943Y553886D01*
X438894Y553798D01*
X438842Y553712D01*
X438787Y553628D01*
X438728Y553546D01*
X438667Y553466D01*
X438602Y553389D01*
X438534Y553315D01*
X438464Y553243D01*
X438391Y553174D01*
X438315Y553107D01*
X438236Y553044D01*
X438156Y552984D01*
X438073Y552927D01*
X437987Y552873D01*
X437900Y552823D01*
X437811Y552776D01*
X437720Y552733D01*
X437628Y552693D01*
X437534Y552657D01*
X437439Y552624D01*
X437342Y552595D01*
X437245Y552570D01*
X437146Y552549D01*
X437047Y552531D01*
X436947Y552518D01*
X436847Y552508D01*
X436747Y552502D01*
X436646Y552500D01*
X436646Y552499D02*
X434049Y552499D01*
D11*
X393700Y412750D02*
X292100Y412750D01*
X292100Y450850D01*
X292100Y457200D01*
X393700Y457200D01*
X393700Y450850D01*
X393700Y412750D01*
X393700Y450850D02*
X292100Y450850D01*
X133350Y50800D02*
X120650Y50800D01*
X51600Y76200D02*
X51615Y77427D01*
X51660Y78653D01*
X51735Y79878D01*
X51841Y81101D01*
X51976Y82321D01*
X52141Y83537D01*
X52336Y84748D01*
X52561Y85955D01*
X52815Y87155D01*
X53098Y88349D01*
X53411Y89536D01*
X53753Y90714D01*
X54124Y91884D01*
X54523Y93044D01*
X54950Y94195D01*
X55406Y95334D01*
X55890Y96462D01*
X56401Y97578D01*
X56939Y98681D01*
X57504Y99770D01*
X58096Y100845D01*
X58714Y101905D01*
X59357Y102950D01*
X60027Y103979D01*
X60721Y104990D01*
X61440Y105985D01*
X62183Y106962D01*
X62949Y107920D01*
X63740Y108859D01*
X64552Y109778D01*
X65388Y110677D01*
X66245Y111555D01*
X67123Y112412D01*
X68022Y113248D01*
X68941Y114060D01*
X69880Y114851D01*
X70838Y115617D01*
X71815Y116360D01*
X72810Y117079D01*
X73821Y117773D01*
X74850Y118443D01*
X75895Y119086D01*
X76955Y119704D01*
X78030Y120296D01*
X79119Y120861D01*
X80222Y121399D01*
X81338Y121910D01*
X82466Y122394D01*
X83605Y122850D01*
X84756Y123277D01*
X85916Y123676D01*
X87086Y124047D01*
X88264Y124389D01*
X89451Y124702D01*
X90645Y124985D01*
X91845Y125239D01*
X93052Y125464D01*
X94263Y125659D01*
X95479Y125824D01*
X96699Y125959D01*
X97922Y126065D01*
X99147Y126140D01*
X100373Y126185D01*
X101600Y126200D01*
X102827Y126185D01*
X104053Y126140D01*
X105278Y126065D01*
X106501Y125959D01*
X107721Y125824D01*
X108937Y125659D01*
X110148Y125464D01*
X111355Y125239D01*
X112555Y124985D01*
X113749Y124702D01*
X114936Y124389D01*
X116114Y124047D01*
X117284Y123676D01*
X118444Y123277D01*
X119595Y122850D01*
X120734Y122394D01*
X121862Y121910D01*
X122978Y121399D01*
X124081Y120861D01*
X125170Y120296D01*
X126245Y119704D01*
X127305Y119086D01*
X128350Y118443D01*
X129379Y117773D01*
X130390Y117079D01*
X131385Y116360D01*
X132362Y115617D01*
X133320Y114851D01*
X134259Y114060D01*
X135178Y113248D01*
X136077Y112412D01*
X136955Y111555D01*
X137812Y110677D01*
X138648Y109778D01*
X139460Y108859D01*
X140251Y107920D01*
X141017Y106962D01*
X141760Y105985D01*
X142479Y104990D01*
X143173Y103979D01*
X143843Y102950D01*
X144486Y101905D01*
X145104Y100845D01*
X145696Y99770D01*
X146261Y98681D01*
X146799Y97578D01*
X147310Y96462D01*
X147794Y95334D01*
X148250Y94195D01*
X148677Y93044D01*
X149076Y91884D01*
X149447Y90714D01*
X149789Y89536D01*
X150102Y88349D01*
X150385Y87155D01*
X150639Y85955D01*
X150864Y84748D01*
X151059Y83537D01*
X151224Y82321D01*
X151359Y81101D01*
X151465Y79878D01*
X151540Y78653D01*
X151585Y77427D01*
X151600Y76200D01*
X151585Y74973D01*
X151540Y73747D01*
X151465Y72522D01*
X151359Y71299D01*
X151224Y70079D01*
X151059Y68863D01*
X150864Y67652D01*
X150639Y66445D01*
X150385Y65245D01*
X150102Y64051D01*
X149789Y62864D01*
X149447Y61686D01*
X149076Y60516D01*
X148677Y59356D01*
X148250Y58205D01*
X147794Y57066D01*
X147310Y55938D01*
X146799Y54822D01*
X146261Y53719D01*
X145696Y52630D01*
X145104Y51555D01*
X144486Y50495D01*
X143843Y49450D01*
X143173Y48421D01*
X142479Y47410D01*
X141760Y46415D01*
X141017Y45438D01*
X140251Y44480D01*
X139460Y43541D01*
X138648Y42622D01*
X137812Y41723D01*
X136955Y40845D01*
X136077Y39988D01*
X135178Y39152D01*
X134259Y38340D01*
X133320Y37549D01*
X132362Y36783D01*
X131385Y36040D01*
X130390Y35321D01*
X129379Y34627D01*
X128350Y33957D01*
X127305Y33314D01*
X126245Y32696D01*
X125170Y32104D01*
X124081Y31539D01*
X122978Y31001D01*
X121862Y30490D01*
X120734Y30006D01*
X119595Y29550D01*
X118444Y29123D01*
X117284Y28724D01*
X116114Y28353D01*
X114936Y28011D01*
X113749Y27698D01*
X112555Y27415D01*
X111355Y27161D01*
X110148Y26936D01*
X108937Y26741D01*
X107721Y26576D01*
X106501Y26441D01*
X105278Y26335D01*
X104053Y26260D01*
X102827Y26215D01*
X101600Y26200D01*
X100373Y26215D01*
X99147Y26260D01*
X97922Y26335D01*
X96699Y26441D01*
X95479Y26576D01*
X94263Y26741D01*
X93052Y26936D01*
X91845Y27161D01*
X90645Y27415D01*
X89451Y27698D01*
X88264Y28011D01*
X87086Y28353D01*
X85916Y28724D01*
X84756Y29123D01*
X83605Y29550D01*
X82466Y30006D01*
X81338Y30490D01*
X80222Y31001D01*
X79119Y31539D01*
X78030Y32104D01*
X76955Y32696D01*
X75895Y33314D01*
X74850Y33957D01*
X73821Y34627D01*
X72810Y35321D01*
X71815Y36040D01*
X70838Y36783D01*
X69880Y37549D01*
X68941Y38340D01*
X68022Y39152D01*
X67123Y39988D01*
X66245Y40845D01*
X65388Y41723D01*
X64552Y42622D01*
X63740Y43541D01*
X62949Y44480D01*
X62183Y45438D01*
X61440Y46415D01*
X60721Y47410D01*
X60027Y48421D01*
X59357Y49450D01*
X58714Y50495D01*
X58096Y51555D01*
X57504Y52630D01*
X56939Y53719D01*
X56401Y54822D01*
X55890Y55938D01*
X55406Y57066D01*
X54950Y58205D01*
X54523Y59356D01*
X54124Y60516D01*
X53753Y61686D01*
X53411Y62864D01*
X53098Y64051D01*
X52815Y65245D01*
X52561Y66445D01*
X52336Y67652D01*
X52141Y68863D01*
X51976Y70079D01*
X51841Y71299D01*
X51735Y72522D01*
X51660Y73747D01*
X51615Y74973D01*
X51600Y76200D01*
X69850Y50800D02*
X82550Y50800D01*
X76200Y44450D02*
X76200Y57150D01*
D12*
X99032Y18669D02*
X100104Y18669D01*
X99032Y18669D02*
X98967Y18671D01*
X98903Y18677D01*
X98839Y18687D01*
X98775Y18700D01*
X98713Y18718D01*
X98652Y18739D01*
X98592Y18763D01*
X98534Y18792D01*
X98477Y18824D01*
X98423Y18859D01*
X98371Y18897D01*
X98321Y18939D01*
X98274Y18983D01*
X98230Y19030D01*
X98188Y19080D01*
X98150Y19132D01*
X98115Y19186D01*
X98083Y19243D01*
X98054Y19301D01*
X98030Y19361D01*
X98009Y19422D01*
X97991Y19484D01*
X97978Y19548D01*
X97968Y19612D01*
X97962Y19676D01*
X97960Y19741D01*
X97959Y19741D02*
X97959Y22423D01*
X97960Y22423D02*
X97962Y22488D01*
X97968Y22552D01*
X97978Y22616D01*
X97991Y22680D01*
X98009Y22742D01*
X98030Y22803D01*
X98054Y22863D01*
X98083Y22921D01*
X98115Y22978D01*
X98150Y23032D01*
X98188Y23084D01*
X98230Y23134D01*
X98274Y23181D01*
X98321Y23225D01*
X98371Y23267D01*
X98423Y23305D01*
X98477Y23340D01*
X98534Y23372D01*
X98592Y23401D01*
X98652Y23425D01*
X98713Y23446D01*
X98775Y23464D01*
X98839Y23477D01*
X98903Y23487D01*
X98967Y23493D01*
X99032Y23495D01*
X100104Y23495D01*
X102560Y18669D02*
X103900Y18669D01*
X103971Y18671D01*
X104043Y18677D01*
X104113Y18686D01*
X104183Y18699D01*
X104253Y18716D01*
X104321Y18737D01*
X104388Y18761D01*
X104454Y18789D01*
X104518Y18820D01*
X104581Y18855D01*
X104641Y18893D01*
X104700Y18934D01*
X104756Y18978D01*
X104810Y19025D01*
X104861Y19074D01*
X104909Y19127D01*
X104955Y19182D01*
X104997Y19239D01*
X105037Y19299D01*
X105073Y19360D01*
X105106Y19424D01*
X105135Y19489D01*
X105161Y19555D01*
X105184Y19623D01*
X105203Y19692D01*
X105218Y19762D01*
X105229Y19832D01*
X105237Y19903D01*
X105241Y19974D01*
X105241Y20046D01*
X105237Y20117D01*
X105229Y20188D01*
X105218Y20258D01*
X105203Y20328D01*
X105184Y20397D01*
X105161Y20465D01*
X105135Y20531D01*
X105106Y20596D01*
X105073Y20660D01*
X105037Y20721D01*
X104997Y20781D01*
X104955Y20838D01*
X104909Y20893D01*
X104861Y20946D01*
X104810Y20995D01*
X104756Y21042D01*
X104700Y21086D01*
X104641Y21127D01*
X104581Y21165D01*
X104518Y21200D01*
X104454Y21231D01*
X104388Y21259D01*
X104321Y21283D01*
X104253Y21304D01*
X104183Y21321D01*
X104113Y21334D01*
X104043Y21343D01*
X103971Y21349D01*
X103900Y21351D01*
X104168Y23495D02*
X102560Y23495D01*
X104168Y23495D02*
X104233Y23493D01*
X104297Y23487D01*
X104361Y23477D01*
X104425Y23464D01*
X104487Y23446D01*
X104548Y23425D01*
X104608Y23401D01*
X104666Y23372D01*
X104723Y23340D01*
X104777Y23305D01*
X104829Y23267D01*
X104879Y23225D01*
X104926Y23181D01*
X104970Y23134D01*
X105012Y23084D01*
X105050Y23032D01*
X105085Y22978D01*
X105117Y22921D01*
X105146Y22863D01*
X105170Y22803D01*
X105191Y22742D01*
X105209Y22680D01*
X105222Y22616D01*
X105232Y22552D01*
X105238Y22488D01*
X105240Y22423D01*
X105238Y22358D01*
X105232Y22294D01*
X105222Y22230D01*
X105209Y22166D01*
X105191Y22104D01*
X105170Y22043D01*
X105146Y21983D01*
X105117Y21925D01*
X105085Y21868D01*
X105050Y21814D01*
X105012Y21762D01*
X104970Y21712D01*
X104926Y21665D01*
X104879Y21621D01*
X104829Y21579D01*
X104777Y21541D01*
X104723Y21506D01*
X104666Y21474D01*
X104608Y21445D01*
X104548Y21421D01*
X104487Y21400D01*
X104425Y21382D01*
X104361Y21369D01*
X104297Y21359D01*
X104233Y21353D01*
X104168Y21351D01*
X104168Y21350D02*
X103096Y21350D01*
M02*
