G04 EAGLE Gerber RS-274X export*
G75*
%MOMM*%
%FSLAX34Y34*%
%LPD*%
%INSoldermask Bottom*%
%IPPOS*%
%AMOC8*
5,1,8,0,0,1.08239X$1,22.5*%
G01*
%ADD10C,2.703200*%
%ADD11R,1.970000X1.970000*%
%ADD12C,1.970000*%
%ADD13C,2.286000*%
%ADD14C,2.286000*%
%ADD15C,2.170000*%
%ADD16C,2.070000*%
%ADD17P,2.240547X8X292.500000*%
%ADD18C,3.703200*%
%ADD19C,2.403200*%
%ADD20R,2.270000X2.270000*%
%ADD21C,2.270000*%
%ADD22R,2.170000X2.170000*%
%ADD23C,2.373200*%

G36*
X533577Y511793D02*
X533577Y511793D01*
X533649Y511791D01*
X535485Y511996D01*
X535531Y512010D01*
X535606Y512022D01*
X537367Y512582D01*
X537409Y512605D01*
X537481Y512631D01*
X539098Y513524D01*
X539136Y513554D01*
X539201Y513594D01*
X540613Y514785D01*
X540644Y514822D01*
X540700Y514874D01*
X541853Y516318D01*
X541876Y516360D01*
X541920Y516422D01*
X542769Y518063D01*
X542784Y518109D01*
X542815Y518178D01*
X543328Y519953D01*
X543333Y520001D01*
X543351Y520076D01*
X543507Y521916D01*
X543503Y521960D01*
X543507Y522025D01*
X543347Y523856D01*
X543334Y523902D01*
X543324Y523978D01*
X542810Y525742D01*
X542789Y525786D01*
X542764Y525858D01*
X541915Y527488D01*
X541886Y527526D01*
X541847Y527592D01*
X540697Y529025D01*
X540661Y529057D01*
X540610Y529114D01*
X539202Y530295D01*
X539161Y530319D01*
X539100Y530365D01*
X537488Y531249D01*
X537443Y531264D01*
X537374Y531298D01*
X535621Y531850D01*
X535574Y531856D01*
X535500Y531876D01*
X533673Y532076D01*
X533627Y532072D01*
X533558Y532078D01*
X531882Y531955D01*
X531839Y531944D01*
X531773Y531938D01*
X530143Y531527D01*
X530103Y531508D01*
X530039Y531490D01*
X528506Y530802D01*
X528469Y530777D01*
X528409Y530748D01*
X527019Y529804D01*
X526987Y529773D01*
X526933Y529735D01*
X525727Y528564D01*
X525701Y528528D01*
X525655Y528480D01*
X524671Y527118D01*
X524652Y527077D01*
X524615Y527023D01*
X523882Y525510D01*
X523870Y525467D01*
X523843Y525407D01*
X523385Y523790D01*
X523380Y523745D01*
X523364Y523681D01*
X523193Y522009D01*
X523197Y521961D01*
X523193Y521882D01*
X523359Y520210D01*
X523371Y520167D01*
X523380Y520102D01*
X523834Y518484D01*
X523853Y518443D01*
X523873Y518380D01*
X524601Y516866D01*
X524627Y516830D01*
X524657Y516771D01*
X525638Y515406D01*
X525670Y515375D01*
X525710Y515322D01*
X526912Y514148D01*
X526949Y514123D01*
X526997Y514078D01*
X528385Y513131D01*
X528426Y513113D01*
X528482Y513077D01*
X530013Y512385D01*
X530056Y512374D01*
X530117Y512348D01*
X531746Y511933D01*
X531790Y511930D01*
X531855Y511915D01*
X533530Y511789D01*
X533577Y511793D01*
G37*
G36*
X533577Y483802D02*
X533577Y483802D01*
X533649Y483800D01*
X535485Y484005D01*
X535531Y484019D01*
X535606Y484031D01*
X537367Y484591D01*
X537409Y484614D01*
X537481Y484640D01*
X539098Y485533D01*
X539136Y485563D01*
X539201Y485603D01*
X540613Y486794D01*
X540644Y486831D01*
X540700Y486883D01*
X541853Y488327D01*
X541876Y488369D01*
X541920Y488431D01*
X542769Y490072D01*
X542784Y490118D01*
X542815Y490187D01*
X543328Y491962D01*
X543333Y492010D01*
X543351Y492085D01*
X543507Y493925D01*
X543503Y493969D01*
X543507Y494034D01*
X543347Y495865D01*
X543334Y495911D01*
X543324Y495987D01*
X542810Y497751D01*
X542789Y497795D01*
X542764Y497867D01*
X541915Y499497D01*
X541886Y499535D01*
X541847Y499601D01*
X540697Y501034D01*
X540661Y501066D01*
X540610Y501123D01*
X539202Y502304D01*
X539161Y502328D01*
X539100Y502374D01*
X537488Y503258D01*
X537443Y503273D01*
X537374Y503307D01*
X535621Y503859D01*
X535574Y503865D01*
X535500Y503885D01*
X533673Y504085D01*
X533627Y504081D01*
X533558Y504087D01*
X531882Y503964D01*
X531839Y503953D01*
X531773Y503947D01*
X530143Y503536D01*
X530103Y503517D01*
X530039Y503499D01*
X528506Y502811D01*
X528469Y502786D01*
X528409Y502757D01*
X527019Y501813D01*
X526987Y501782D01*
X526933Y501744D01*
X525727Y500573D01*
X525701Y500537D01*
X525655Y500489D01*
X524671Y499127D01*
X524652Y499086D01*
X524615Y499032D01*
X523882Y497519D01*
X523870Y497476D01*
X523843Y497416D01*
X523385Y495799D01*
X523380Y495754D01*
X523364Y495690D01*
X523193Y494018D01*
X523197Y493970D01*
X523193Y493891D01*
X523359Y492219D01*
X523371Y492176D01*
X523380Y492111D01*
X523834Y490493D01*
X523853Y490452D01*
X523873Y490389D01*
X524601Y488875D01*
X524627Y488839D01*
X524657Y488780D01*
X525638Y487415D01*
X525670Y487384D01*
X525710Y487331D01*
X526912Y486157D01*
X526949Y486132D01*
X526997Y486087D01*
X528385Y485140D01*
X528426Y485122D01*
X528482Y485086D01*
X530013Y484394D01*
X530056Y484383D01*
X530117Y484357D01*
X531746Y483942D01*
X531790Y483939D01*
X531855Y483924D01*
X533530Y483798D01*
X533577Y483802D01*
G37*
G36*
X813027Y307348D02*
X813027Y307348D01*
X813099Y307346D01*
X814935Y307551D01*
X814981Y307565D01*
X815056Y307577D01*
X816817Y308137D01*
X816859Y308160D01*
X816931Y308186D01*
X818548Y309079D01*
X818586Y309109D01*
X818651Y309149D01*
X820063Y310340D01*
X820094Y310377D01*
X820150Y310429D01*
X821303Y311873D01*
X821326Y311915D01*
X821370Y311977D01*
X822219Y313618D01*
X822234Y313664D01*
X822265Y313733D01*
X822778Y315508D01*
X822783Y315556D01*
X822801Y315631D01*
X822957Y317471D01*
X822953Y317515D01*
X822957Y317580D01*
X822797Y319411D01*
X822784Y319457D01*
X822774Y319533D01*
X822260Y321297D01*
X822239Y321341D01*
X822214Y321413D01*
X821365Y323043D01*
X821336Y323081D01*
X821297Y323147D01*
X820147Y324580D01*
X820111Y324612D01*
X820060Y324669D01*
X818652Y325850D01*
X818611Y325874D01*
X818550Y325920D01*
X816938Y326804D01*
X816893Y326819D01*
X816824Y326853D01*
X815071Y327405D01*
X815024Y327411D01*
X814950Y327431D01*
X813123Y327631D01*
X813077Y327627D01*
X813008Y327633D01*
X811332Y327510D01*
X811289Y327499D01*
X811223Y327493D01*
X809593Y327082D01*
X809553Y327063D01*
X809489Y327045D01*
X807956Y326357D01*
X807919Y326332D01*
X807859Y326303D01*
X806469Y325359D01*
X806437Y325328D01*
X806383Y325290D01*
X805177Y324119D01*
X805151Y324083D01*
X805105Y324035D01*
X804121Y322673D01*
X804102Y322632D01*
X804065Y322578D01*
X803332Y321065D01*
X803320Y321022D01*
X803293Y320962D01*
X802835Y319345D01*
X802830Y319300D01*
X802814Y319236D01*
X802643Y317564D01*
X802647Y317516D01*
X802643Y317437D01*
X802809Y315765D01*
X802821Y315722D01*
X802830Y315657D01*
X803284Y314039D01*
X803303Y313998D01*
X803323Y313935D01*
X804051Y312421D01*
X804077Y312385D01*
X804107Y312326D01*
X805088Y310961D01*
X805120Y310930D01*
X805160Y310877D01*
X806362Y309703D01*
X806399Y309678D01*
X806447Y309633D01*
X807835Y308686D01*
X807876Y308668D01*
X807932Y308632D01*
X809463Y307940D01*
X809506Y307929D01*
X809567Y307903D01*
X811196Y307488D01*
X811240Y307485D01*
X811305Y307470D01*
X812980Y307344D01*
X813027Y307348D01*
G37*
G36*
X813027Y281948D02*
X813027Y281948D01*
X813099Y281946D01*
X814935Y282151D01*
X814981Y282165D01*
X815056Y282177D01*
X816817Y282737D01*
X816859Y282760D01*
X816931Y282786D01*
X818548Y283679D01*
X818586Y283709D01*
X818651Y283749D01*
X820063Y284940D01*
X820094Y284977D01*
X820150Y285029D01*
X821303Y286473D01*
X821326Y286515D01*
X821370Y286577D01*
X822219Y288218D01*
X822234Y288264D01*
X822265Y288333D01*
X822778Y290108D01*
X822783Y290156D01*
X822801Y290231D01*
X822957Y292071D01*
X822953Y292115D01*
X822957Y292180D01*
X822797Y294011D01*
X822784Y294057D01*
X822774Y294133D01*
X822260Y295897D01*
X822239Y295941D01*
X822214Y296013D01*
X821365Y297643D01*
X821336Y297681D01*
X821297Y297747D01*
X820147Y299180D01*
X820111Y299212D01*
X820060Y299269D01*
X818652Y300450D01*
X818611Y300474D01*
X818550Y300520D01*
X816938Y301404D01*
X816893Y301419D01*
X816824Y301453D01*
X815071Y302005D01*
X815024Y302011D01*
X814950Y302031D01*
X813123Y302231D01*
X813077Y302227D01*
X813008Y302233D01*
X811332Y302110D01*
X811289Y302099D01*
X811223Y302093D01*
X809593Y301682D01*
X809553Y301663D01*
X809489Y301645D01*
X807956Y300957D01*
X807919Y300932D01*
X807859Y300903D01*
X806469Y299959D01*
X806437Y299928D01*
X806383Y299890D01*
X805177Y298719D01*
X805151Y298683D01*
X805105Y298635D01*
X804121Y297273D01*
X804102Y297232D01*
X804065Y297178D01*
X803332Y295665D01*
X803320Y295622D01*
X803293Y295562D01*
X802835Y293945D01*
X802830Y293900D01*
X802814Y293836D01*
X802643Y292164D01*
X802647Y292116D01*
X802643Y292037D01*
X802809Y290365D01*
X802821Y290322D01*
X802830Y290257D01*
X803284Y288639D01*
X803303Y288598D01*
X803323Y288535D01*
X804051Y287021D01*
X804077Y286985D01*
X804107Y286926D01*
X805088Y285561D01*
X805120Y285530D01*
X805160Y285477D01*
X806362Y284303D01*
X806399Y284278D01*
X806447Y284233D01*
X807835Y283286D01*
X807876Y283268D01*
X807932Y283232D01*
X809463Y282540D01*
X809506Y282529D01*
X809567Y282503D01*
X811196Y282088D01*
X811240Y282085D01*
X811305Y282070D01*
X812980Y281944D01*
X813027Y281948D01*
G37*
D10*
X25400Y596900D03*
X25400Y25400D03*
X863600Y25400D03*
X863600Y596900D03*
D11*
X292300Y355600D03*
D12*
X317300Y355600D03*
D13*
X596900Y266700D03*
X596900Y292100D03*
X596900Y317500D03*
X596900Y342900D03*
X596900Y368300D03*
X596900Y393700D03*
X596900Y241300D03*
X596900Y215900D03*
X596900Y190500D03*
X596900Y165100D03*
X596900Y139700D03*
X596900Y114300D03*
X596900Y88900D03*
X596900Y419100D03*
X596900Y444500D03*
X749300Y266700D03*
X749300Y241300D03*
X749300Y215900D03*
X749300Y190500D03*
X749300Y165100D03*
X749300Y139700D03*
X749300Y292100D03*
X749300Y317500D03*
X749300Y342900D03*
X749300Y368300D03*
X749300Y393700D03*
X749300Y419100D03*
X749300Y444500D03*
X749300Y114300D03*
X749300Y88900D03*
X533400Y584200D03*
X558800Y584200D03*
D14*
X556260Y327914D02*
X556260Y307086D01*
X533400Y307086D02*
X533400Y327914D01*
X510540Y327914D02*
X510540Y307086D01*
D15*
X127000Y317500D03*
X203200Y317500D03*
X508000Y368300D03*
X508000Y444500D03*
X812800Y342900D03*
X812800Y419100D03*
X203200Y419100D03*
X127000Y419100D03*
X127000Y368300D03*
X203200Y368300D03*
D16*
X114300Y152400D03*
X139700Y152400D03*
X165100Y152400D03*
X190500Y152400D03*
X114300Y177800D03*
X139700Y177800D03*
X165100Y177800D03*
X190500Y177800D03*
X228600Y558800D03*
X228600Y584200D03*
X76200Y584200D03*
X76200Y558800D03*
D17*
X444500Y317500D03*
X444500Y292100D03*
D18*
X431800Y584200D03*
X391800Y584200D03*
X351800Y584200D03*
D19*
X466800Y584200D03*
X316800Y584200D03*
D20*
X317500Y431800D03*
D21*
X342900Y431800D03*
X368300Y431800D03*
D15*
X126600Y76200D03*
D22*
X76600Y76200D03*
D23*
X241300Y101600D03*
X685800Y88900D03*
M02*
