G04 EAGLE Gerber RS-274X export*
G75*
%MOMM*%
%FSLAX34Y34*%
%LPD*%
%INSoldermask Top*%
%IPPOS*%
%AMOC8*
5,1,8,0,0,1.08239X$1,22.5*%
G01*
%ADD10C,2.703200*%
%ADD11R,1.970000X1.970000*%
%ADD12C,1.970000*%
%ADD13C,2.286000*%
%ADD14C,2.286000*%
%ADD15C,2.170000*%
%ADD16C,2.070000*%
%ADD17P,2.240547X8X292.500000*%
%ADD18C,3.703200*%
%ADD19C,2.403200*%
%ADD20R,2.270000X2.270000*%
%ADD21C,2.270000*%
%ADD22R,2.170000X2.170000*%
%ADD23C,2.373200*%

G36*
X533548Y516873D02*
X533548Y516873D01*
X533639Y516872D01*
X534603Y517003D01*
X534651Y517019D01*
X534740Y517038D01*
X535651Y517380D01*
X535694Y517406D01*
X535778Y517445D01*
X536589Y517982D01*
X536625Y518017D01*
X536698Y518073D01*
X537370Y518777D01*
X537398Y518819D01*
X537456Y518890D01*
X537954Y519726D01*
X537955Y519729D01*
X537957Y519731D01*
X537963Y519750D01*
X537972Y519773D01*
X538012Y519855D01*
X538312Y520781D01*
X538319Y520831D01*
X538341Y520920D01*
X538427Y521889D01*
X538423Y521936D01*
X538426Y522011D01*
X538324Y522987D01*
X538310Y523035D01*
X538294Y523125D01*
X537978Y524054D01*
X537954Y524098D01*
X537917Y524183D01*
X537403Y525018D01*
X537369Y525055D01*
X537315Y525130D01*
X536627Y525830D01*
X536586Y525859D01*
X536517Y525919D01*
X535690Y526448D01*
X535644Y526467D01*
X535563Y526511D01*
X534640Y526843D01*
X534590Y526851D01*
X534501Y526876D01*
X533527Y526994D01*
X533477Y526991D01*
X533391Y526995D01*
X532389Y526900D01*
X532340Y526886D01*
X532250Y526870D01*
X531294Y526554D01*
X531249Y526530D01*
X531165Y526495D01*
X530304Y525973D01*
X530266Y525940D01*
X530191Y525887D01*
X529467Y525187D01*
X529438Y525146D01*
X529377Y525077D01*
X528827Y524234D01*
X528807Y524188D01*
X528763Y524107D01*
X528415Y523163D01*
X528406Y523113D01*
X528381Y523025D01*
X528251Y522027D01*
X528253Y521984D01*
X528252Y521858D01*
X528391Y520847D01*
X528407Y520799D01*
X528426Y520709D01*
X528788Y519754D01*
X528814Y519711D01*
X528853Y519627D01*
X529417Y518777D01*
X529452Y518740D01*
X529509Y518668D01*
X530249Y517964D01*
X530291Y517936D01*
X530362Y517878D01*
X531240Y517357D01*
X531287Y517339D01*
X531369Y517298D01*
X532341Y516985D01*
X532391Y516978D01*
X532480Y516957D01*
X533498Y516868D01*
X533548Y516873D01*
G37*
G36*
X533548Y488882D02*
X533548Y488882D01*
X533639Y488881D01*
X534603Y489012D01*
X534651Y489028D01*
X534740Y489047D01*
X535651Y489389D01*
X535694Y489415D01*
X535778Y489454D01*
X536589Y489991D01*
X536625Y490026D01*
X536698Y490082D01*
X537370Y490786D01*
X537398Y490828D01*
X537456Y490899D01*
X537954Y491735D01*
X537955Y491738D01*
X537957Y491740D01*
X537963Y491759D01*
X537972Y491782D01*
X538012Y491864D01*
X538312Y492790D01*
X538319Y492840D01*
X538341Y492929D01*
X538427Y493898D01*
X538423Y493945D01*
X538426Y494020D01*
X538324Y494996D01*
X538310Y495044D01*
X538294Y495134D01*
X537978Y496063D01*
X537954Y496107D01*
X537917Y496192D01*
X537403Y497027D01*
X537369Y497064D01*
X537315Y497139D01*
X536627Y497839D01*
X536586Y497868D01*
X536517Y497928D01*
X535690Y498457D01*
X535644Y498476D01*
X535563Y498520D01*
X534640Y498852D01*
X534590Y498860D01*
X534501Y498885D01*
X533527Y499003D01*
X533477Y499000D01*
X533391Y499004D01*
X532389Y498909D01*
X532340Y498895D01*
X532250Y498879D01*
X531294Y498563D01*
X531249Y498539D01*
X531165Y498504D01*
X530304Y497982D01*
X530266Y497949D01*
X530191Y497896D01*
X529467Y497196D01*
X529438Y497155D01*
X529377Y497086D01*
X528827Y496243D01*
X528807Y496197D01*
X528763Y496116D01*
X528415Y495172D01*
X528406Y495122D01*
X528381Y495034D01*
X528251Y494036D01*
X528253Y493993D01*
X528252Y493867D01*
X528391Y492856D01*
X528407Y492808D01*
X528426Y492718D01*
X528788Y491763D01*
X528814Y491720D01*
X528853Y491636D01*
X529417Y490786D01*
X529452Y490749D01*
X529509Y490677D01*
X530249Y489973D01*
X530291Y489945D01*
X530362Y489887D01*
X531240Y489366D01*
X531287Y489348D01*
X531369Y489307D01*
X532341Y488994D01*
X532391Y488987D01*
X532480Y488966D01*
X533498Y488877D01*
X533548Y488882D01*
G37*
G36*
X812998Y312428D02*
X812998Y312428D01*
X813089Y312427D01*
X814053Y312558D01*
X814101Y312574D01*
X814190Y312593D01*
X815101Y312935D01*
X815144Y312961D01*
X815228Y313000D01*
X816039Y313537D01*
X816075Y313572D01*
X816148Y313628D01*
X816820Y314332D01*
X816848Y314374D01*
X816906Y314445D01*
X817404Y315281D01*
X817405Y315284D01*
X817407Y315286D01*
X817413Y315305D01*
X817422Y315328D01*
X817462Y315410D01*
X817762Y316336D01*
X817769Y316386D01*
X817791Y316475D01*
X817877Y317444D01*
X817873Y317491D01*
X817876Y317566D01*
X817774Y318542D01*
X817760Y318590D01*
X817744Y318680D01*
X817428Y319609D01*
X817404Y319653D01*
X817367Y319738D01*
X816853Y320573D01*
X816819Y320610D01*
X816765Y320685D01*
X816077Y321385D01*
X816036Y321414D01*
X815967Y321474D01*
X815140Y322003D01*
X815094Y322022D01*
X815013Y322066D01*
X814090Y322398D01*
X814040Y322406D01*
X813951Y322431D01*
X812977Y322549D01*
X812927Y322546D01*
X812841Y322550D01*
X811839Y322455D01*
X811790Y322441D01*
X811700Y322425D01*
X810744Y322109D01*
X810699Y322085D01*
X810615Y322050D01*
X809754Y321528D01*
X809716Y321495D01*
X809641Y321442D01*
X808917Y320742D01*
X808888Y320701D01*
X808827Y320632D01*
X808277Y319789D01*
X808257Y319743D01*
X808213Y319662D01*
X807865Y318718D01*
X807856Y318668D01*
X807831Y318580D01*
X807701Y317582D01*
X807703Y317539D01*
X807702Y317413D01*
X807841Y316402D01*
X807857Y316354D01*
X807876Y316264D01*
X808238Y315309D01*
X808264Y315266D01*
X808303Y315182D01*
X808867Y314332D01*
X808902Y314295D01*
X808959Y314223D01*
X809699Y313519D01*
X809741Y313491D01*
X809812Y313433D01*
X810690Y312912D01*
X810737Y312894D01*
X810819Y312853D01*
X811791Y312540D01*
X811841Y312533D01*
X811930Y312512D01*
X812948Y312423D01*
X812998Y312428D01*
G37*
G36*
X812998Y287028D02*
X812998Y287028D01*
X813089Y287027D01*
X814053Y287158D01*
X814101Y287174D01*
X814190Y287193D01*
X815101Y287535D01*
X815144Y287561D01*
X815228Y287600D01*
X816039Y288137D01*
X816075Y288172D01*
X816148Y288228D01*
X816820Y288932D01*
X816848Y288974D01*
X816906Y289045D01*
X817404Y289881D01*
X817405Y289884D01*
X817407Y289886D01*
X817413Y289905D01*
X817422Y289928D01*
X817462Y290010D01*
X817762Y290936D01*
X817769Y290986D01*
X817791Y291075D01*
X817877Y292044D01*
X817873Y292091D01*
X817876Y292166D01*
X817774Y293142D01*
X817760Y293190D01*
X817744Y293280D01*
X817428Y294209D01*
X817404Y294253D01*
X817367Y294338D01*
X816853Y295173D01*
X816819Y295210D01*
X816765Y295285D01*
X816077Y295985D01*
X816036Y296014D01*
X815967Y296074D01*
X815140Y296603D01*
X815094Y296622D01*
X815013Y296666D01*
X814090Y296998D01*
X814040Y297006D01*
X813951Y297031D01*
X812977Y297149D01*
X812927Y297146D01*
X812841Y297150D01*
X811839Y297055D01*
X811790Y297041D01*
X811700Y297025D01*
X810744Y296709D01*
X810699Y296685D01*
X810615Y296650D01*
X809754Y296128D01*
X809716Y296095D01*
X809641Y296042D01*
X808917Y295342D01*
X808888Y295301D01*
X808827Y295232D01*
X808277Y294389D01*
X808257Y294343D01*
X808213Y294262D01*
X807865Y293318D01*
X807856Y293268D01*
X807831Y293180D01*
X807701Y292182D01*
X807703Y292139D01*
X807702Y292013D01*
X807841Y291002D01*
X807857Y290954D01*
X807876Y290864D01*
X808238Y289909D01*
X808264Y289866D01*
X808303Y289782D01*
X808867Y288932D01*
X808902Y288895D01*
X808959Y288823D01*
X809699Y288119D01*
X809741Y288091D01*
X809812Y288033D01*
X810690Y287512D01*
X810737Y287494D01*
X810819Y287453D01*
X811791Y287140D01*
X811841Y287133D01*
X811930Y287112D01*
X812948Y287023D01*
X812998Y287028D01*
G37*
D10*
X25400Y596900D03*
X25400Y25400D03*
X863600Y25400D03*
X863600Y596900D03*
D11*
X292300Y355600D03*
D12*
X317300Y355600D03*
D13*
X596900Y266700D03*
X596900Y292100D03*
X596900Y317500D03*
X596900Y342900D03*
X596900Y368300D03*
X596900Y393700D03*
X596900Y241300D03*
X596900Y215900D03*
X596900Y190500D03*
X596900Y165100D03*
X596900Y139700D03*
X596900Y114300D03*
X596900Y88900D03*
X596900Y419100D03*
X596900Y444500D03*
X749300Y266700D03*
X749300Y241300D03*
X749300Y215900D03*
X749300Y190500D03*
X749300Y165100D03*
X749300Y139700D03*
X749300Y292100D03*
X749300Y317500D03*
X749300Y342900D03*
X749300Y368300D03*
X749300Y393700D03*
X749300Y419100D03*
X749300Y444500D03*
X749300Y114300D03*
X749300Y88900D03*
X533400Y584200D03*
X558800Y584200D03*
D14*
X556260Y327914D02*
X556260Y307086D01*
X533400Y307086D02*
X533400Y327914D01*
X510540Y327914D02*
X510540Y307086D01*
D15*
X127000Y317500D03*
X203200Y317500D03*
X508000Y368300D03*
X508000Y444500D03*
X812800Y342900D03*
X812800Y419100D03*
X203200Y419100D03*
X127000Y419100D03*
X127000Y368300D03*
X203200Y368300D03*
D16*
X114300Y152400D03*
X139700Y152400D03*
X165100Y152400D03*
X190500Y152400D03*
X114300Y177800D03*
X139700Y177800D03*
X165100Y177800D03*
X190500Y177800D03*
X228600Y558800D03*
X228600Y584200D03*
X76200Y584200D03*
X76200Y558800D03*
D17*
X444500Y317500D03*
X444500Y292100D03*
D18*
X431800Y584200D03*
X391800Y584200D03*
X351800Y584200D03*
D19*
X466800Y584200D03*
X316800Y584200D03*
D20*
X317500Y431800D03*
D21*
X342900Y431800D03*
X368300Y431800D03*
D15*
X126600Y76200D03*
D22*
X76600Y76200D03*
D23*
X241300Y101600D03*
X685800Y88900D03*
M02*
