solid OpenSCAD_Model
  facet normal 0.951056 -0.309019 0
    outer loop
      vertex -49.9727 -36.2401 6.65
      vertex -49.8919 -35.9916 -9.25
      vertex -49.8919 -35.9916 6.65
    endloop
  endfacet
  facet normal 0.951056 -0.309019 0
    outer loop
      vertex -49.8919 -35.9916 -9.25
      vertex -49.9727 -36.2401 6.65
      vertex -49.9727 -36.2401 -9.25
    endloop
  endfacet
  facet normal -0.866025 -0.500001 0
    outer loop
      vertex -47.6081 -35.9916 -9.25
      vertex -47.7387 -35.7653 6.65
      vertex -47.7387 -35.7653 -9.25
    endloop
  endfacet
  facet normal -0.866025 -0.500001 0
    outer loop
      vertex -47.7387 -35.7653 6.65
      vertex -47.6081 -35.9916 -9.25
      vertex -47.6081 -35.9916 6.65
    endloop
  endfacet
  facet normal -0.951056 -0.309019 0
    outer loop
      vertex -47.5273 -36.2401 -9.25
      vertex -47.6081 -35.9916 6.65
      vertex -47.6081 -35.9916 -9.25
    endloop
  endfacet
  facet normal -0.951056 -0.309019 0
    outer loop
      vertex -47.6081 -35.9916 6.65
      vertex -47.5273 -36.2401 -9.25
      vertex -47.5273 -36.2401 6.65
    endloop
  endfacet
  facet normal -0.207915 -0.978147 0
    outer loop
      vertex -48.6193 -35.2568 -9.25
      vertex -48.3637 -35.3112 6.65
      vertex -48.6193 -35.2568 6.65
    endloop
  endfacet
  facet normal -0.207915 -0.978147 -0
    outer loop
      vertex -48.3637 -35.3112 6.65
      vertex -48.6193 -35.2568 -9.25
      vertex -48.3637 -35.3112 -9.25
    endloop
  endfacet
  facet normal -0.406738 -0.913545 0
    outer loop
      vertex -48.3637 -35.3112 -9.25
      vertex -48.125 -35.4175 6.65
      vertex -48.3637 -35.3112 6.65
    endloop
  endfacet
  facet normal -0.406738 -0.913545 -0
    outer loop
      vertex -48.125 -35.4175 6.65
      vertex -48.3637 -35.3112 -9.25
      vertex -48.125 -35.4175 -9.25
    endloop
  endfacet
  facet normal 0.406733 -0.913547 0
    outer loop
      vertex -49.375 -35.4175 -9.25
      vertex -49.1363 -35.3112 6.65
      vertex -49.375 -35.4175 6.65
    endloop
  endfacet
  facet normal 0.406733 -0.913547 0
    outer loop
      vertex -49.1363 -35.3112 6.65
      vertex -49.375 -35.4175 -9.25
      vertex -49.1363 -35.3112 -9.25
    endloop
  endfacet
  facet normal 0.866025 -0.500001 0
    outer loop
      vertex -49.8919 -35.9916 6.65
      vertex -49.7613 -35.7653 -9.25
      vertex -49.7613 -35.7653 6.65
    endloop
  endfacet
  facet normal 0.866025 -0.500001 0
    outer loop
      vertex -49.7613 -35.7653 -9.25
      vertex -49.8919 -35.9916 6.65
      vertex -49.8919 -35.9916 -9.25
    endloop
  endfacet
  facet normal 0.587785 -0.809017 0
    outer loop
      vertex -49.5864 -35.5711 -9.25
      vertex -49.375 -35.4175 6.65
      vertex -49.5864 -35.5711 6.65
    endloop
  endfacet
  facet normal 0.587785 -0.809017 0
    outer loop
      vertex -49.375 -35.4175 6.65
      vertex -49.5864 -35.5711 -9.25
      vertex -49.375 -35.4175 -9.25
    endloop
  endfacet
  facet normal -0.994523 0.104521 0
    outer loop
      vertex -47.5273 -36.7599 -9.25
      vertex -47.5 -36.5 6.65
      vertex -47.5 -36.5 -9.25
    endloop
  endfacet
  facet normal -0.994523 0.104521 0
    outer loop
      vertex -47.5 -36.5 6.65
      vertex -47.5273 -36.7599 -9.25
      vertex -47.5273 -36.7599 6.65
    endloop
  endfacet
  facet normal -0.207915 0.978147 0
    outer loop
      vertex -48.3637 -37.6888 -9.25
      vertex -48.6193 -37.7432 6.65
      vertex -48.3637 -37.6888 6.65
    endloop
  endfacet
  facet normal -0.207915 0.978147 0
    outer loop
      vertex -48.6193 -37.7432 6.65
      vertex -48.3637 -37.6888 -9.25
      vertex -48.6193 -37.7432 -9.25
    endloop
  endfacet
  facet normal -0.743143 -0.669132 0
    outer loop
      vertex -47.7387 -35.7653 -9.25
      vertex -47.9136 -35.5711 6.65
      vertex -47.9136 -35.5711 -9.25
    endloop
  endfacet
  facet normal -0.743143 -0.669132 0
    outer loop
      vertex -47.9136 -35.5711 6.65
      vertex -47.7387 -35.7653 -9.25
      vertex -47.7387 -35.7653 6.65
    endloop
  endfacet
  facet normal 0 -1 0
    outer loop
      vertex -48.8807 -35.2568 -9.25
      vertex -48.6193 -35.2568 6.65
      vertex -48.8807 -35.2568 6.65
    endloop
  endfacet
  facet normal 0 -1 -0
    outer loop
      vertex -48.6193 -35.2568 6.65
      vertex -48.8807 -35.2568 -9.25
      vertex -48.6193 -35.2568 -9.25
    endloop
  endfacet
  facet normal -0.587778 -0.809022 0
    outer loop
      vertex -48.125 -35.4175 -9.25
      vertex -47.9136 -35.5711 6.65
      vertex -48.125 -35.4175 6.65
    endloop
  endfacet
  facet normal -0.587778 -0.809022 -0
    outer loop
      vertex -47.9136 -35.5711 6.65
      vertex -48.125 -35.4175 -9.25
      vertex -47.9136 -35.5711 -9.25
    endloop
  endfacet
  facet normal 0.994521 -0.104534 0
    outer loop
      vertex -50 -36.5 6.65
      vertex -49.9727 -36.2401 -9.25
      vertex -49.9727 -36.2401 6.65
    endloop
  endfacet
  facet normal 0.994521 -0.104534 0
    outer loop
      vertex -49.9727 -36.2401 -9.25
      vertex -50 -36.5 6.65
      vertex -50 -36.5 -9.25
    endloop
  endfacet
  facet normal 0.743143 -0.669132 0
    outer loop
      vertex -49.7613 -35.7653 6.65
      vertex -49.5864 -35.5711 -9.25
      vertex -49.5864 -35.5711 6.65
    endloop
  endfacet
  facet normal 0.743143 -0.669132 0
    outer loop
      vertex -49.5864 -35.5711 -9.25
      vertex -49.7613 -35.7653 6.65
      vertex -49.7613 -35.7653 -9.25
    endloop
  endfacet
  facet normal 0.207918 -0.978146 0
    outer loop
      vertex -49.1363 -35.3112 -9.25
      vertex -48.8807 -35.2568 6.65
      vertex -49.1363 -35.3112 6.65
    endloop
  endfacet
  facet normal 0.207918 -0.978146 0
    outer loop
      vertex -48.8807 -35.2568 6.65
      vertex -49.1363 -35.3112 -9.25
      vertex -48.8807 -35.2568 -9.25
    endloop
  endfacet
  facet normal -0.994523 -0.104519 0
    outer loop
      vertex -47.5 -36.5 -9.25
      vertex -47.5273 -36.2401 6.65
      vertex -47.5273 -36.2401 -9.25
    endloop
  endfacet
  facet normal -0.994523 -0.104519 0
    outer loop
      vertex -47.5273 -36.2401 6.65
      vertex -47.5 -36.5 -9.25
      vertex -47.5 -36.5 6.65
    endloop
  endfacet
  facet normal -0.587778 0.809022 0
    outer loop
      vertex -47.9136 -37.4289 -9.25
      vertex -48.125 -37.5825 6.65
      vertex -47.9136 -37.4289 6.65
    endloop
  endfacet
  facet normal -0.587778 0.809022 0
    outer loop
      vertex -48.125 -37.5825 6.65
      vertex -47.9136 -37.4289 -9.25
      vertex -48.125 -37.5825 -9.25
    endloop
  endfacet
  facet normal -0.951056 0.309019 0
    outer loop
      vertex -47.6081 -37.0084 -9.25
      vertex -47.5273 -36.7599 6.65
      vertex -47.5273 -36.7599 -9.25
    endloop
  endfacet
  facet normal -0.951056 0.309019 0
    outer loop
      vertex -47.5273 -36.7599 6.65
      vertex -47.6081 -37.0084 -9.25
      vertex -47.6081 -37.0084 6.65
    endloop
  endfacet
  facet normal 0.587785 0.809017 -0
    outer loop
      vertex -49.375 -37.5825 -9.25
      vertex -49.5864 -37.4289 6.65
      vertex -49.375 -37.5825 6.65
    endloop
  endfacet
  facet normal 0.587785 0.809017 0
    outer loop
      vertex -49.5864 -37.4289 6.65
      vertex -49.375 -37.5825 -9.25
      vertex -49.5864 -37.4289 -9.25
    endloop
  endfacet
  facet normal 0.866025 0.500001 0
    outer loop
      vertex -49.7613 -37.2347 6.65
      vertex -49.8919 -37.0084 -9.25
      vertex -49.8919 -37.0084 6.65
    endloop
  endfacet
  facet normal 0.866025 0.500001 0
    outer loop
      vertex -49.8919 -37.0084 -9.25
      vertex -49.7613 -37.2347 6.65
      vertex -49.7613 -37.2347 -9.25
    endloop
  endfacet
  facet normal -0.866025 0.500001 0
    outer loop
      vertex -47.7387 -37.2347 -9.25
      vertex -47.6081 -37.0084 6.65
      vertex -47.6081 -37.0084 -9.25
    endloop
  endfacet
  facet normal -0.866025 0.500001 0
    outer loop
      vertex -47.6081 -37.0084 6.65
      vertex -47.7387 -37.2347 -9.25
      vertex -47.7387 -37.2347 6.65
    endloop
  endfacet
  facet normal 0 1 -0
    outer loop
      vertex -48.6193 -37.7432 -9.25
      vertex -48.8807 -37.7432 6.65
      vertex -48.6193 -37.7432 6.65
    endloop
  endfacet
  facet normal 0 1 0
    outer loop
      vertex -48.8807 -37.7432 6.65
      vertex -48.6193 -37.7432 -9.25
      vertex -48.8807 -37.7432 -9.25
    endloop
  endfacet
  facet normal 0.74315 0.669125 0
    outer loop
      vertex -49.5864 -37.4289 6.65
      vertex -49.7613 -37.2347 -9.25
      vertex -49.7613 -37.2347 6.65
    endloop
  endfacet
  facet normal 0.74315 0.669125 0
    outer loop
      vertex -49.7613 -37.2347 -9.25
      vertex -49.5864 -37.4289 6.65
      vertex -49.5864 -37.4289 -9.25
    endloop
  endfacet
  facet normal -0.406738 0.913545 0
    outer loop
      vertex -48.125 -37.5825 -9.25
      vertex -48.3637 -37.6888 6.65
      vertex -48.125 -37.5825 6.65
    endloop
  endfacet
  facet normal -0.406738 0.913545 0
    outer loop
      vertex -48.3637 -37.6888 6.65
      vertex -48.125 -37.5825 -9.25
      vertex -48.3637 -37.6888 -9.25
    endloop
  endfacet
  facet normal -0.74315 0.669125 0
    outer loop
      vertex -47.9136 -37.4289 -9.25
      vertex -47.7387 -37.2347 6.65
      vertex -47.7387 -37.2347 -9.25
    endloop
  endfacet
  facet normal -0.74315 0.669125 0
    outer loop
      vertex -47.7387 -37.2347 6.65
      vertex -47.9136 -37.4289 -9.25
      vertex -47.9136 -37.4289 6.65
    endloop
  endfacet
  facet normal 0.406733 0.913547 -0
    outer loop
      vertex -49.1363 -37.6888 -9.25
      vertex -49.375 -37.5825 6.65
      vertex -49.1363 -37.6888 6.65
    endloop
  endfacet
  facet normal 0.406733 0.913547 0
    outer loop
      vertex -49.375 -37.5825 6.65
      vertex -49.1363 -37.6888 -9.25
      vertex -49.375 -37.5825 -9.25
    endloop
  endfacet
  facet normal 0.951056 0.309019 0
    outer loop
      vertex -49.8919 -37.0084 6.65
      vertex -49.9727 -36.7599 -9.25
      vertex -49.9727 -36.7599 6.65
    endloop
  endfacet
  facet normal 0.951056 0.309019 0
    outer loop
      vertex -49.9727 -36.7599 -9.25
      vertex -49.8919 -37.0084 6.65
      vertex -49.8919 -37.0084 -9.25
    endloop
  endfacet
  facet normal 0.994521 0.104535 0
    outer loop
      vertex -49.9727 -36.7599 6.65
      vertex -50 -36.5 -9.25
      vertex -50 -36.5 6.65
    endloop
  endfacet
  facet normal 0.994521 0.104535 0
    outer loop
      vertex -50 -36.5 -9.25
      vertex -49.9727 -36.7599 6.65
      vertex -49.9727 -36.7599 -9.25
    endloop
  endfacet
  facet normal 0.207918 0.978146 -0
    outer loop
      vertex -48.8807 -37.7432 -9.25
      vertex -49.1363 -37.6888 6.65
      vertex -48.8807 -37.7432 6.65
    endloop
  endfacet
  facet normal 0.207918 0.978146 0
    outer loop
      vertex -49.1363 -37.6888 6.65
      vertex -48.8807 -37.7432 -9.25
      vertex -49.1363 -37.6888 -9.25
    endloop
  endfacet
  facet normal -0.994521 -0.104534 0
    outer loop
      vertex 50 -36.5 -9.25
      vertex 49.9727 -36.2401 6.65
      vertex 49.9727 -36.2401 -9.25
    endloop
  endfacet
  facet normal -0.994521 -0.104534 0
    outer loop
      vertex 49.9727 -36.2401 6.65
      vertex 50 -36.5 -9.25
      vertex 50 -36.5 6.65
    endloop
  endfacet
  facet normal 0.207915 -0.978147 0
    outer loop
      vertex 48.3637 -35.3112 -9.25
      vertex 48.6193 -35.2568 6.65
      vertex 48.3637 -35.3112 6.65
    endloop
  endfacet
  facet normal 0.207915 -0.978147 0
    outer loop
      vertex 48.6193 -35.2568 6.65
      vertex 48.3637 -35.3112 -9.25
      vertex 48.6193 -35.2568 -9.25
    endloop
  endfacet
  facet normal -0.207918 0.978146 0
    outer loop
      vertex 49.1363 -37.6888 -9.25
      vertex 48.8807 -37.7432 6.65
      vertex 49.1363 -37.6888 6.65
    endloop
  endfacet
  facet normal -0.207918 0.978146 0
    outer loop
      vertex 48.8807 -37.7432 6.65
      vertex 49.1363 -37.6888 -9.25
      vertex 48.8807 -37.7432 -9.25
    endloop
  endfacet
  facet normal -0.587785 -0.809017 0
    outer loop
      vertex 49.375 -35.4175 -9.25
      vertex 49.5864 -35.5711 6.65
      vertex 49.375 -35.4175 6.65
    endloop
  endfacet
  facet normal -0.587785 -0.809017 -0
    outer loop
      vertex 49.5864 -35.5711 6.65
      vertex 49.375 -35.4175 -9.25
      vertex 49.5864 -35.5711 -9.25
    endloop
  endfacet
  facet normal 0.866025 -0.500001 0
    outer loop
      vertex 47.6081 -35.9916 6.65
      vertex 47.7387 -35.7653 -9.25
      vertex 47.7387 -35.7653 6.65
    endloop
  endfacet
  facet normal 0.866025 -0.500001 0
    outer loop
      vertex 47.7387 -35.7653 -9.25
      vertex 47.6081 -35.9916 6.65
      vertex 47.6081 -35.9916 -9.25
    endloop
  endfacet
  facet normal 0.951056 -0.309019 0
    outer loop
      vertex 47.5273 -36.2401 6.65
      vertex 47.6081 -35.9916 -9.25
      vertex 47.6081 -35.9916 6.65
    endloop
  endfacet
  facet normal 0.951056 -0.309019 0
    outer loop
      vertex 47.6081 -35.9916 -9.25
      vertex 47.5273 -36.2401 6.65
      vertex 47.5273 -36.2401 -9.25
    endloop
  endfacet
  facet normal 0.587778 -0.809022 0
    outer loop
      vertex 47.9136 -35.5711 -9.25
      vertex 48.125 -35.4175 6.65
      vertex 47.9136 -35.5711 6.65
    endloop
  endfacet
  facet normal 0.587778 -0.809022 0
    outer loop
      vertex 48.125 -35.4175 6.65
      vertex 47.9136 -35.5711 -9.25
      vertex 48.125 -35.4175 -9.25
    endloop
  endfacet
  facet normal -0.866025 -0.500001 0
    outer loop
      vertex 49.8919 -35.9916 -9.25
      vertex 49.7613 -35.7653 6.65
      vertex 49.7613 -35.7653 -9.25
    endloop
  endfacet
  facet normal -0.866025 -0.500001 0
    outer loop
      vertex 49.7613 -35.7653 6.65
      vertex 49.8919 -35.9916 -9.25
      vertex 49.8919 -35.9916 6.65
    endloop
  endfacet
  facet normal -0.951056 -0.309019 0
    outer loop
      vertex 49.9727 -36.2401 -9.25
      vertex 49.8919 -35.9916 6.65
      vertex 49.8919 -35.9916 -9.25
    endloop
  endfacet
  facet normal -0.951056 -0.309019 0
    outer loop
      vertex 49.8919 -35.9916 6.65
      vertex 49.9727 -36.2401 -9.25
      vertex 49.9727 -36.2401 6.65
    endloop
  endfacet
  facet normal -0.743143 -0.669132 0
    outer loop
      vertex 49.7613 -35.7653 -9.25
      vertex 49.5864 -35.5711 6.65
      vertex 49.5864 -35.5711 -9.25
    endloop
  endfacet
  facet normal -0.743143 -0.669132 0
    outer loop
      vertex 49.5864 -35.5711 6.65
      vertex 49.7613 -35.7653 -9.25
      vertex 49.7613 -35.7653 6.65
    endloop
  endfacet
  facet normal -0.207918 -0.978146 0
    outer loop
      vertex 48.8807 -35.2568 -9.25
      vertex 49.1363 -35.3112 6.65
      vertex 48.8807 -35.2568 6.65
    endloop
  endfacet
  facet normal -0.207918 -0.978146 -0
    outer loop
      vertex 49.1363 -35.3112 6.65
      vertex 48.8807 -35.2568 -9.25
      vertex 49.1363 -35.3112 -9.25
    endloop
  endfacet
  facet normal 0 -1 0
    outer loop
      vertex 48.6193 -35.2568 -9.25
      vertex 48.8807 -35.2568 6.65
      vertex 48.6193 -35.2568 6.65
    endloop
  endfacet
  facet normal 0 -1 -0
    outer loop
      vertex 48.8807 -35.2568 6.65
      vertex 48.6193 -35.2568 -9.25
      vertex 48.8807 -35.2568 -9.25
    endloop
  endfacet
  facet normal -0.406733 -0.913547 0
    outer loop
      vertex 49.1363 -35.3112 -9.25
      vertex 49.375 -35.4175 6.65
      vertex 49.1363 -35.3112 6.65
    endloop
  endfacet
  facet normal -0.406733 -0.913547 -0
    outer loop
      vertex 49.375 -35.4175 6.65
      vertex 49.1363 -35.3112 -9.25
      vertex 49.375 -35.4175 -9.25
    endloop
  endfacet
  facet normal 0.994523 -0.104519 0
    outer loop
      vertex 47.5 -36.5 6.65
      vertex 47.5273 -36.2401 -9.25
      vertex 47.5273 -36.2401 6.65
    endloop
  endfacet
  facet normal 0.994523 -0.104519 0
    outer loop
      vertex 47.5273 -36.2401 -9.25
      vertex 47.5 -36.5 6.65
      vertex 47.5 -36.5 -9.25
    endloop
  endfacet
  facet normal 0.743143 -0.669132 0
    outer loop
      vertex 47.7387 -35.7653 6.65
      vertex 47.9136 -35.5711 -9.25
      vertex 47.9136 -35.5711 6.65
    endloop
  endfacet
  facet normal 0.743143 -0.669132 0
    outer loop
      vertex 47.9136 -35.5711 -9.25
      vertex 47.7387 -35.7653 6.65
      vertex 47.7387 -35.7653 -9.25
    endloop
  endfacet
  facet normal 0.406738 -0.913545 0
    outer loop
      vertex 48.125 -35.4175 -9.25
      vertex 48.3637 -35.3112 6.65
      vertex 48.125 -35.4175 6.65
    endloop
  endfacet
  facet normal 0.406738 -0.913545 0
    outer loop
      vertex 48.3637 -35.3112 6.65
      vertex 48.125 -35.4175 -9.25
      vertex 48.3637 -35.3112 -9.25
    endloop
  endfacet
  facet normal -0.994521 0.104535 0
    outer loop
      vertex 49.9727 -36.7599 -9.25
      vertex 50 -36.5 6.65
      vertex 50 -36.5 -9.25
    endloop
  endfacet
  facet normal -0.994521 0.104535 0
    outer loop
      vertex 50 -36.5 6.65
      vertex 49.9727 -36.7599 -9.25
      vertex 49.9727 -36.7599 6.65
    endloop
  endfacet
  facet normal -0.406733 0.913547 0
    outer loop
      vertex 49.375 -37.5825 -9.25
      vertex 49.1363 -37.6888 6.65
      vertex 49.375 -37.5825 6.65
    endloop
  endfacet
  facet normal -0.406733 0.913547 0
    outer loop
      vertex 49.1363 -37.6888 6.65
      vertex 49.375 -37.5825 -9.25
      vertex 49.1363 -37.6888 -9.25
    endloop
  endfacet
  facet normal -0.951056 0.309019 0
    outer loop
      vertex 49.8919 -37.0084 -9.25
      vertex 49.9727 -36.7599 6.65
      vertex 49.9727 -36.7599 -9.25
    endloop
  endfacet
  facet normal -0.951056 0.309019 0
    outer loop
      vertex 49.9727 -36.7599 6.65
      vertex 49.8919 -37.0084 -9.25
      vertex 49.8919 -37.0084 6.65
    endloop
  endfacet
  facet normal 0.994523 0.104521 0
    outer loop
      vertex 47.5273 -36.7599 6.65
      vertex 47.5 -36.5 -9.25
      vertex 47.5 -36.5 6.65
    endloop
  endfacet
  facet normal 0.994523 0.104521 0
    outer loop
      vertex 47.5 -36.5 -9.25
      vertex 47.5273 -36.7599 6.65
      vertex 47.5273 -36.7599 -9.25
    endloop
  endfacet
  facet normal -0.74315 0.669125 0
    outer loop
      vertex 49.5864 -37.4289 -9.25
      vertex 49.7613 -37.2347 6.65
      vertex 49.7613 -37.2347 -9.25
    endloop
  endfacet
  facet normal -0.74315 0.669125 0
    outer loop
      vertex 49.7613 -37.2347 6.65
      vertex 49.5864 -37.4289 -9.25
      vertex 49.5864 -37.4289 6.65
    endloop
  endfacet
  facet normal -0.587785 0.809017 0
    outer loop
      vertex 49.5864 -37.4289 -9.25
      vertex 49.375 -37.5825 6.65
      vertex 49.5864 -37.4289 6.65
    endloop
  endfacet
  facet normal -0.587785 0.809017 0
    outer loop
      vertex 49.375 -37.5825 6.65
      vertex 49.5864 -37.4289 -9.25
      vertex 49.375 -37.5825 -9.25
    endloop
  endfacet
  facet normal 0.587778 0.809022 -0
    outer loop
      vertex 48.125 -37.5825 -9.25
      vertex 47.9136 -37.4289 6.65
      vertex 48.125 -37.5825 6.65
    endloop
  endfacet
  facet normal 0.587778 0.809022 0
    outer loop
      vertex 47.9136 -37.4289 6.65
      vertex 48.125 -37.5825 -9.25
      vertex 47.9136 -37.4289 -9.25
    endloop
  endfacet
  facet normal 0.74315 0.669125 0
    outer loop
      vertex 47.9136 -37.4289 6.65
      vertex 47.7387 -37.2347 -9.25
      vertex 47.7387 -37.2347 6.65
    endloop
  endfacet
  facet normal 0.74315 0.669125 0
    outer loop
      vertex 47.7387 -37.2347 -9.25
      vertex 47.9136 -37.4289 6.65
      vertex 47.9136 -37.4289 -9.25
    endloop
  endfacet
  facet normal 0.866025 0.500001 0
    outer loop
      vertex 47.7387 -37.2347 6.65
      vertex 47.6081 -37.0084 -9.25
      vertex 47.6081 -37.0084 6.65
    endloop
  endfacet
  facet normal 0.866025 0.500001 0
    outer loop
      vertex 47.6081 -37.0084 -9.25
      vertex 47.7387 -37.2347 6.65
      vertex 47.7387 -37.2347 -9.25
    endloop
  endfacet
  facet normal 0.951056 0.309019 0
    outer loop
      vertex 47.6081 -37.0084 6.65
      vertex 47.5273 -36.7599 -9.25
      vertex 47.5273 -36.7599 6.65
    endloop
  endfacet
  facet normal 0.951056 0.309019 0
    outer loop
      vertex 47.5273 -36.7599 -9.25
      vertex 47.6081 -37.0084 6.65
      vertex 47.6081 -37.0084 -9.25
    endloop
  endfacet
  facet normal -0.866025 0.500001 0
    outer loop
      vertex 49.7613 -37.2347 -9.25
      vertex 49.8919 -37.0084 6.65
      vertex 49.8919 -37.0084 -9.25
    endloop
  endfacet
  facet normal -0.866025 0.500001 0
    outer loop
      vertex 49.8919 -37.0084 6.65
      vertex 49.7613 -37.2347 -9.25
      vertex 49.7613 -37.2347 6.65
    endloop
  endfacet
  facet normal 0.207915 0.978147 -0
    outer loop
      vertex 48.6193 -37.7432 -9.25
      vertex 48.3637 -37.6888 6.65
      vertex 48.6193 -37.7432 6.65
    endloop
  endfacet
  facet normal 0.207915 0.978147 0
    outer loop
      vertex 48.3637 -37.6888 6.65
      vertex 48.6193 -37.7432 -9.25
      vertex 48.3637 -37.6888 -9.25
    endloop
  endfacet
  facet normal 0.406738 0.913545 -0
    outer loop
      vertex 48.3637 -37.6888 -9.25
      vertex 48.125 -37.5825 6.65
      vertex 48.3637 -37.6888 6.65
    endloop
  endfacet
  facet normal 0.406738 0.913545 0
    outer loop
      vertex 48.125 -37.5825 6.65
      vertex 48.3637 -37.6888 -9.25
      vertex 48.125 -37.5825 -9.25
    endloop
  endfacet
  facet normal 0 1 -0
    outer loop
      vertex 48.8807 -37.7432 -9.25
      vertex 48.6193 -37.7432 6.65
      vertex 48.8807 -37.7432 6.65
    endloop
  endfacet
  facet normal 0 1 0
    outer loop
      vertex 48.6193 -37.7432 6.65
      vertex 48.8807 -37.7432 -9.25
      vertex 48.6193 -37.7432 -9.25
    endloop
  endfacet
  facet normal -1 0 0
    outer loop
      vertex -52.5 -47.5 -9.25
      vertex -52.5 -28.5 9.25
      vertex -52.5 -28.5 -9.25
    endloop
  endfacet
  facet normal -1 -0 0
    outer loop
      vertex -52.5 -28.5 9.25
      vertex -52.5 -47.5 -9.25
      vertex -52.5 -47.5 9.25
    endloop
  endfacet
  facet normal 0 0 1
    outer loop
      vertex -51.1 -28.5 9.25
      vertex -52.5 -28.5 9.25
      vertex -51.1 -46.1 9.25
    endloop
  endfacet
  facet normal 0 0 1
    outer loop
      vertex 51.1 -46.1 9.25
      vertex 52.5 -28.5 9.25
      vertex 51.1 -28.5 9.25
    endloop
  endfacet
  facet normal 0 0 1
    outer loop
      vertex 52.5 -28.5 9.25
      vertex 51.1 -46.1 9.25
      vertex 52.5 -47.5 9.25
    endloop
  endfacet
  facet normal -0 0 1
    outer loop
      vertex -51.1 -46.1 9.25
      vertex 52.5 -47.5 9.25
      vertex 51.1 -46.1 9.25
    endloop
  endfacet
  facet normal 0 0 1
    outer loop
      vertex -51.1 -46.1 9.25
      vertex -52.5 -47.5 9.25
      vertex 52.5 -47.5 9.25
    endloop
  endfacet
  facet normal 0 0 1
    outer loop
      vertex -52.5 -47.5 9.25
      vertex -51.1 -46.1 9.25
      vertex -52.5 -28.5 9.25
    endloop
  endfacet
  facet normal 1 -0 0
    outer loop
      vertex 52.5 -47.5 9.25
      vertex 52.5 -28.5 -9.25
      vertex 52.5 -28.5 9.25
    endloop
  endfacet
  facet normal 1 0 0
    outer loop
      vertex 52.5 -28.5 -9.25
      vertex 52.5 -47.5 9.25
      vertex 52.5 -47.5 -9.25
    endloop
  endfacet
  facet normal 0 0 -1
    outer loop
      vertex 52.5 -47.5 -9.25
      vertex 50 -36.5 -9.25
      vertex 52.5 -28.5 -9.25
    endloop
  endfacet
  facet normal 0 0 -1
    outer loop
      vertex 52.5 -47.5 -9.25
      vertex 49.9727 -36.7599 -9.25
      vertex 50 -36.5 -9.25
    endloop
  endfacet
  facet normal 0 0 -1
    outer loop
      vertex 52.5 -47.5 -9.25
      vertex 49.8919 -37.0084 -9.25
      vertex 49.9727 -36.7599 -9.25
    endloop
  endfacet
  facet normal 0 0 -1
    outer loop
      vertex 52.5 -47.5 -9.25
      vertex 49.7613 -37.2347 -9.25
      vertex 49.8919 -37.0084 -9.25
    endloop
  endfacet
  facet normal 0 0 -1
    outer loop
      vertex 52.5 -47.5 -9.25
      vertex 49.5864 -37.4289 -9.25
      vertex 49.7613 -37.2347 -9.25
    endloop
  endfacet
  facet normal 0 0 -1
    outer loop
      vertex 52.5 -47.5 -9.25
      vertex 49.375 -37.5825 -9.25
      vertex 49.5864 -37.4289 -9.25
    endloop
  endfacet
  facet normal 0 0 -1
    outer loop
      vertex 52.5 -47.5 -9.25
      vertex 49.1363 -37.6888 -9.25
      vertex 49.375 -37.5825 -9.25
    endloop
  endfacet
  facet normal 0 0 -1
    outer loop
      vertex 52.5 -47.5 -9.25
      vertex 48.8807 -37.7432 -9.25
      vertex 49.1363 -37.6888 -9.25
    endloop
  endfacet
  facet normal 0 0 -1
    outer loop
      vertex 52.5 -47.5 -9.25
      vertex 48.6193 -37.7432 -9.25
      vertex 48.8807 -37.7432 -9.25
    endloop
  endfacet
  facet normal 0 0 -1
    outer loop
      vertex 52.5 -47.5 -9.25
      vertex 48.3637 -37.6888 -9.25
      vertex 48.6193 -37.7432 -9.25
    endloop
  endfacet
  facet normal 0 0 -1
    outer loop
      vertex 52.5 -47.5 -9.25
      vertex 48.125 -37.5825 -9.25
      vertex 48.3637 -37.6888 -9.25
    endloop
  endfacet
  facet normal 0 0 -1
    outer loop
      vertex 52.5 -47.5 -9.25
      vertex 47.9136 -37.4289 -9.25
      vertex 48.125 -37.5825 -9.25
    endloop
  endfacet
  facet normal 0 0 -1
    outer loop
      vertex 52.5 -47.5 -9.25
      vertex 47.7387 -37.2347 -9.25
      vertex 47.9136 -37.4289 -9.25
    endloop
  endfacet
  facet normal 0 0 -1
    outer loop
      vertex -47.7387 -37.2347 -9.25
      vertex 47.7387 -37.2347 -9.25
      vertex 52.5 -47.5 -9.25
    endloop
  endfacet
  facet normal 0 0 -1
    outer loop
      vertex 47.5273 -36.7599 -9.25
      vertex -47.5 -36.5 -9.25
      vertex 47.5 -36.5 -9.25
    endloop
  endfacet
  facet normal 0 0 -1
    outer loop
      vertex -47.5273 -36.7599 -9.25
      vertex 47.5273 -36.7599 -9.25
      vertex 47.6081 -37.0084 -9.25
    endloop
  endfacet
  facet normal 0 0 -1
    outer loop
      vertex 47.7387 -37.2347 -9.25
      vertex -47.7387 -37.2347 -9.25
      vertex 47.6081 -37.0084 -9.25
    endloop
  endfacet
  facet normal 0 0 -1
    outer loop
      vertex 47.5273 -36.7599 -9.25
      vertex -47.5273 -36.7599 -9.25
      vertex -47.5 -36.5 -9.25
    endloop
  endfacet
  facet normal 0 0 -1
    outer loop
      vertex 47.6081 -37.0084 -9.25
      vertex -47.6081 -37.0084 -9.25
      vertex -47.5273 -36.7599 -9.25
    endloop
  endfacet
  facet normal -0 0 -1
    outer loop
      vertex 47.6081 -37.0084 -9.25
      vertex -47.7387 -37.2347 -9.25
      vertex -47.6081 -37.0084 -9.25
    endloop
  endfacet
  facet normal 0 0 -1
    outer loop
      vertex -52.5 -47.5 -9.25
      vertex -47.7387 -37.2347 -9.25
      vertex 52.5 -47.5 -9.25
    endloop
  endfacet
  facet normal 0 0 -1
    outer loop
      vertex -47.7387 -37.2347 -9.25
      vertex -52.5 -47.5 -9.25
      vertex -47.9136 -37.4289 -9.25
    endloop
  endfacet
  facet normal 0 0 -1
    outer loop
      vertex -47.9136 -37.4289 -9.25
      vertex -52.5 -47.5 -9.25
      vertex -48.125 -37.5825 -9.25
    endloop
  endfacet
  facet normal 0 0 -1
    outer loop
      vertex -48.125 -37.5825 -9.25
      vertex -52.5 -47.5 -9.25
      vertex -48.3637 -37.6888 -9.25
    endloop
  endfacet
  facet normal 0 0 -1
    outer loop
      vertex -48.3637 -37.6888 -9.25
      vertex -52.5 -47.5 -9.25
      vertex -48.6193 -37.7432 -9.25
    endloop
  endfacet
  facet normal -0 0 -1
    outer loop
      vertex -49.9727 -36.7599 -9.25
      vertex -52.5 -47.5 -9.25
      vertex -50 -36.5 -9.25
    endloop
  endfacet
  facet normal -0 0 -1
    outer loop
      vertex -49.8919 -37.0084 -9.25
      vertex -52.5 -47.5 -9.25
      vertex -49.9727 -36.7599 -9.25
    endloop
  endfacet
  facet normal -0 0 -1
    outer loop
      vertex -49.7613 -37.2347 -9.25
      vertex -52.5 -47.5 -9.25
      vertex -49.8919 -37.0084 -9.25
    endloop
  endfacet
  facet normal -0 0 -1
    outer loop
      vertex -49.5864 -37.4289 -9.25
      vertex -52.5 -47.5 -9.25
      vertex -49.7613 -37.2347 -9.25
    endloop
  endfacet
  facet normal -0 0 -1
    outer loop
      vertex -49.375 -37.5825 -9.25
      vertex -52.5 -47.5 -9.25
      vertex -49.5864 -37.4289 -9.25
    endloop
  endfacet
  facet normal -0 0 -1
    outer loop
      vertex -49.1363 -37.6888 -9.25
      vertex -52.5 -47.5 -9.25
      vertex -49.375 -37.5825 -9.25
    endloop
  endfacet
  facet normal -0 0 -1
    outer loop
      vertex -48.8807 -37.7432 -9.25
      vertex -52.5 -47.5 -9.25
      vertex -49.1363 -37.6888 -9.25
    endloop
  endfacet
  facet normal -0 0 -1
    outer loop
      vertex -48.6193 -37.7432 -9.25
      vertex -52.5 -47.5 -9.25
      vertex -48.8807 -37.7432 -9.25
    endloop
  endfacet
  facet normal 0 0 -1
    outer loop
      vertex 49.9727 -36.2401 -9.25
      vertex 52.5 -28.5 -9.25
      vertex 50 -36.5 -9.25
    endloop
  endfacet
  facet normal 0 0 -1
    outer loop
      vertex 49.8919 -35.9916 -9.25
      vertex 52.5 -28.5 -9.25
      vertex 49.9727 -36.2401 -9.25
    endloop
  endfacet
  facet normal 0 0 -1
    outer loop
      vertex 49.7613 -35.7653 -9.25
      vertex 52.5 -28.5 -9.25
      vertex 49.8919 -35.9916 -9.25
    endloop
  endfacet
  facet normal 0 0 -1
    outer loop
      vertex 49.5864 -35.5711 -9.25
      vertex 52.5 -28.5 -9.25
      vertex 49.7613 -35.7653 -9.25
    endloop
  endfacet
  facet normal 0 0 -1
    outer loop
      vertex 49.375 -35.4175 -9.25
      vertex 52.5 -28.5 -9.25
      vertex 49.5864 -35.5711 -9.25
    endloop
  endfacet
  facet normal 0 0 -1
    outer loop
      vertex 49.1363 -35.3112 -9.25
      vertex 52.5 -28.5 -9.25
      vertex 49.375 -35.4175 -9.25
    endloop
  endfacet
  facet normal 0 0 -1
    outer loop
      vertex 48.8807 -35.2568 -9.25
      vertex 52.5 -28.5 -9.25
      vertex 49.1363 -35.3112 -9.25
    endloop
  endfacet
  facet normal 0 0 -1
    outer loop
      vertex 48.6193 -35.2568 -9.25
      vertex 52.5 -28.5 -9.25
      vertex 48.8807 -35.2568 -9.25
    endloop
  endfacet
  facet normal 0 0 -1
    outer loop
      vertex 48.3637 -35.3112 -9.25
      vertex 52.5 -28.5 -9.25
      vertex 48.6193 -35.2568 -9.25
    endloop
  endfacet
  facet normal 0 0 -1
    outer loop
      vertex 48.125 -35.4175 -9.25
      vertex 52.5 -28.5 -9.25
      vertex 48.3637 -35.3112 -9.25
    endloop
  endfacet
  facet normal 0 0 -1
    outer loop
      vertex 47.9136 -35.5711 -9.25
      vertex 52.5 -28.5 -9.25
      vertex 48.125 -35.4175 -9.25
    endloop
  endfacet
  facet normal 0 0 -1
    outer loop
      vertex 47.7387 -35.7653 -9.25
      vertex 52.5 -28.5 -9.25
      vertex 47.9136 -35.5711 -9.25
    endloop
  endfacet
  facet normal 0 0 -1
    outer loop
      vertex -47.5 -36.5 -9.25
      vertex 47.5273 -36.2401 -9.25
      vertex 47.5 -36.5 -9.25
    endloop
  endfacet
  facet normal 0 0 -1
    outer loop
      vertex -47.5273 -36.2401 -9.25
      vertex 47.5273 -36.2401 -9.25
      vertex -47.5 -36.5 -9.25
    endloop
  endfacet
  facet normal 0 0 -1
    outer loop
      vertex 47.5273 -36.2401 -9.25
      vertex -47.5273 -36.2401 -9.25
      vertex 47.6081 -35.9916 -9.25
    endloop
  endfacet
  facet normal 0 0 -1
    outer loop
      vertex -47.6081 -35.9916 -9.25
      vertex 47.6081 -35.9916 -9.25
      vertex -47.5273 -36.2401 -9.25
    endloop
  endfacet
  facet normal 0 0 -1
    outer loop
      vertex 47.6081 -35.9916 -9.25
      vertex -47.6081 -35.9916 -9.25
      vertex 47.7387 -35.7653 -9.25
    endloop
  endfacet
  facet normal 0 0 -1
    outer loop
      vertex -47.7387 -35.7653 -9.25
      vertex 47.7387 -35.7653 -9.25
      vertex -47.6081 -35.9916 -9.25
    endloop
  endfacet
  facet normal 0 0 -1
    outer loop
      vertex 47.7387 -35.7653 -9.25
      vertex -47.7387 -35.7653 -9.25
      vertex 52.5 -28.5 -9.25
    endloop
  endfacet
  facet normal 0 0 -1
    outer loop
      vertex -52.5 -28.5 -9.25
      vertex -47.7387 -35.7653 -9.25
      vertex -47.9136 -35.5711 -9.25
    endloop
  endfacet
  facet normal 0 0 -1
    outer loop
      vertex -52.5 -28.5 -9.25
      vertex -47.9136 -35.5711 -9.25
      vertex -48.125 -35.4175 -9.25
    endloop
  endfacet
  facet normal 0 0 -1
    outer loop
      vertex -52.5 -28.5 -9.25
      vertex -48.125 -35.4175 -9.25
      vertex -48.3637 -35.3112 -9.25
    endloop
  endfacet
  facet normal 0 0 -1
    outer loop
      vertex -52.5 -28.5 -9.25
      vertex -48.3637 -35.3112 -9.25
      vertex -48.6193 -35.2568 -9.25
    endloop
  endfacet
  facet normal 0 0 -1
    outer loop
      vertex -52.5 -28.5 -9.25
      vertex -48.6193 -35.2568 -9.25
      vertex -48.8807 -35.2568 -9.25
    endloop
  endfacet
  facet normal 0 0 -1
    outer loop
      vertex -52.5 -28.5 -9.25
      vertex -50 -36.5 -9.25
      vertex -52.5 -47.5 -9.25
    endloop
  endfacet
  facet normal 0 0 -1
    outer loop
      vertex -47.7387 -35.7653 -9.25
      vertex -52.5 -28.5 -9.25
      vertex 52.5 -28.5 -9.25
    endloop
  endfacet
  facet normal 0 0 -1
    outer loop
      vertex -49.1363 -35.3112 -9.25
      vertex -52.5 -28.5 -9.25
      vertex -48.8807 -35.2568 -9.25
    endloop
  endfacet
  facet normal 0 0 -1
    outer loop
      vertex -49.375 -35.4175 -9.25
      vertex -52.5 -28.5 -9.25
      vertex -49.1363 -35.3112 -9.25
    endloop
  endfacet
  facet normal 0 0 -1
    outer loop
      vertex -49.5864 -35.5711 -9.25
      vertex -52.5 -28.5 -9.25
      vertex -49.375 -35.4175 -9.25
    endloop
  endfacet
  facet normal 0 0 -1
    outer loop
      vertex -49.7613 -35.7653 -9.25
      vertex -52.5 -28.5 -9.25
      vertex -49.5864 -35.5711 -9.25
    endloop
  endfacet
  facet normal 0 0 -1
    outer loop
      vertex -49.8919 -35.9916 -9.25
      vertex -52.5 -28.5 -9.25
      vertex -49.7613 -35.7653 -9.25
    endloop
  endfacet
  facet normal 0 0 -1
    outer loop
      vertex -49.9727 -36.2401 -9.25
      vertex -52.5 -28.5 -9.25
      vertex -49.8919 -35.9916 -9.25
    endloop
  endfacet
  facet normal 0 0 -1
    outer loop
      vertex -50 -36.5 -9.25
      vertex -52.5 -28.5 -9.25
      vertex -49.9727 -36.2401 -9.25
    endloop
  endfacet
  facet normal 0 -1 0
    outer loop
      vertex -52.5 -47.5 -9.25
      vertex 52.5 -47.5 9.25
      vertex -52.5 -47.5 9.25
    endloop
  endfacet
  facet normal 0 -1 -0
    outer loop
      vertex 52.5 -47.5 9.25
      vertex -52.5 -47.5 -9.25
      vertex 52.5 -47.5 -9.25
    endloop
  endfacet
  facet normal 1 -0 0
    outer loop
      vertex -50 -45 6.65
      vertex -50 -38.6651 -6.74
      vertex -50 -38.6651 6.65
    endloop
  endfacet
  facet normal 1 0 0
    outer loop
      vertex -50 -38.6651 -6.74
      vertex -50 -45 6.65
      vertex -50 -45 -6.74
    endloop
  endfacet
  facet normal 1 -0 0
    outer loop
      vertex -50 -34.3349 6.65
      vertex -50 -28.5 -6.74
      vertex -50 -28.5 6.65
    endloop
  endfacet
  facet normal 1 0 0
    outer loop
      vertex -50 -28.5 -6.74
      vertex -50 -34.3349 6.65
      vertex -50 -34.3349 -6.74
    endloop
  endfacet
  facet normal -1 0 0
    outer loop
      vertex 50 -45 -6.74
      vertex 50 -38.6651 6.65
      vertex 50 -38.6651 -6.74
    endloop
  endfacet
  facet normal -1 -0 0
    outer loop
      vertex 50 -38.6651 6.65
      vertex 50 -45 -6.74
      vertex 50 -45 6.65
    endloop
  endfacet
  facet normal -1 0 0
    outer loop
      vertex 50 -34.3349 -6.74
      vertex 50 -28.5 6.65
      vertex 50 -28.5 -6.74
    endloop
  endfacet
  facet normal -1 -0 0
    outer loop
      vertex 50 -28.5 6.65
      vertex 50 -34.3349 -6.74
      vertex 50 -34.3349 6.65
    endloop
  endfacet
  facet normal 0 0 1
    outer loop
      vertex 50 -28.5 -6.74
      vertex 49.5225 -34.1224 -6.74
      vertex 50 -34.3349 -6.74
    endloop
  endfacet
  facet normal 0 0 1
    outer loop
      vertex 50 -28.5 -6.74
      vertex 49.0113 -34.0137 -6.74
      vertex 49.5225 -34.1224 -6.74
    endloop
  endfacet
  facet normal 0 0 1
    outer loop
      vertex 50 -28.5 -6.74
      vertex 48.4887 -34.0137 -6.74
      vertex 49.0113 -34.0137 -6.74
    endloop
  endfacet
  facet normal 0 0 1
    outer loop
      vertex 50 -28.5 -6.74
      vertex 47.9775 -34.1224 -6.74
      vertex 48.4887 -34.0137 -6.74
    endloop
  endfacet
  facet normal 0 0 1
    outer loop
      vertex 50 -28.5 -6.74
      vertex 47.5 -34.3349 -6.74
      vertex 47.9775 -34.1224 -6.74
    endloop
  endfacet
  facet normal 0 0 1
    outer loop
      vertex 50 -28.5 -6.74
      vertex 47.0772 -34.6421 -6.74
      vertex 47.5 -34.3349 -6.74
    endloop
  endfacet
  facet normal 0 0 1
    outer loop
      vertex 50 -28.5 -6.74
      vertex 46.7275 -35.0305 -6.74
      vertex 47.0772 -34.6421 -6.74
    endloop
  endfacet
  facet normal 0 0 1
    outer loop
      vertex -46.7275 -35.0305 -6.74
      vertex 46.7275 -35.0305 -6.74
      vertex 50 -28.5 -6.74
    endloop
  endfacet
  facet normal 0 0 1
    outer loop
      vertex 46.3046 -35.9802 -6.74
      vertex -46.25 -36.5 -6.74
      vertex 46.25 -36.5 -6.74
    endloop
  endfacet
  facet normal 0 0 1
    outer loop
      vertex -46.3046 -35.9802 -6.74
      vertex 46.3046 -35.9802 -6.74
      vertex 46.4661 -35.4832 -6.74
    endloop
  endfacet
  facet normal 0 0 1
    outer loop
      vertex 46.7275 -35.0305 -6.74
      vertex -46.7275 -35.0305 -6.74
      vertex 46.4661 -35.4832 -6.74
    endloop
  endfacet
  facet normal 0 0 1
    outer loop
      vertex 46.3046 -35.9802 -6.74
      vertex -46.3046 -35.9802 -6.74
      vertex -46.25 -36.5 -6.74
    endloop
  endfacet
  facet normal 0 0 1
    outer loop
      vertex 46.4661 -35.4832 -6.74
      vertex -46.4661 -35.4832 -6.74
      vertex -46.3046 -35.9802 -6.74
    endloop
  endfacet
  facet normal 0 0 1
    outer loop
      vertex 46.4661 -35.4832 -6.74
      vertex -46.7275 -35.0305 -6.74
      vertex -46.4661 -35.4832 -6.74
    endloop
  endfacet
  facet normal -0 0 1
    outer loop
      vertex -50 -28.5 -6.74
      vertex -46.7275 -35.0305 -6.74
      vertex 50 -28.5 -6.74
    endloop
  endfacet
  facet normal 0 0 1
    outer loop
      vertex -46.7275 -35.0305 -6.74
      vertex -50 -28.5 -6.74
      vertex -47.0772 -34.6421 -6.74
    endloop
  endfacet
  facet normal 0 0 1
    outer loop
      vertex -47.0772 -34.6421 -6.74
      vertex -50 -28.5 -6.74
      vertex -47.5 -34.3349 -6.74
    endloop
  endfacet
  facet normal 0 0 1
    outer loop
      vertex -47.5 -34.3349 -6.74
      vertex -50 -28.5 -6.74
      vertex -47.9775 -34.1224 -6.74
    endloop
  endfacet
  facet normal 0 0 1
    outer loop
      vertex -47.9775 -34.1224 -6.74
      vertex -50 -28.5 -6.74
      vertex -48.4887 -34.0137 -6.74
    endloop
  endfacet
  facet normal 0 0 1
    outer loop
      vertex -48.4887 -34.0137 -6.74
      vertex -50 -28.5 -6.74
      vertex -49.0113 -34.0137 -6.74
    endloop
  endfacet
  facet normal 0 0 1
    outer loop
      vertex -50 -28.5 -6.74
      vertex -49.5225 -34.1224 -6.74
      vertex -49.0113 -34.0137 -6.74
    endloop
  endfacet
  facet normal 0 0 1
    outer loop
      vertex -49.5225 -34.1224 -6.74
      vertex -50 -28.5 -6.74
      vertex -50 -34.3349 -6.74
    endloop
  endfacet
  facet normal -0 0 1
    outer loop
      vertex 49.5225 -38.8776 -6.74
      vertex 50 -45 -6.74
      vertex 50 -38.6651 -6.74
    endloop
  endfacet
  facet normal -0 0 1
    outer loop
      vertex 49.0113 -38.9863 -6.74
      vertex 50 -45 -6.74
      vertex 49.5225 -38.8776 -6.74
    endloop
  endfacet
  facet normal -0 0 1
    outer loop
      vertex 48.4887 -38.9863 -6.74
      vertex 50 -45 -6.74
      vertex 49.0113 -38.9863 -6.74
    endloop
  endfacet
  facet normal 0 0 1
    outer loop
      vertex 47.9775 -38.8776 -6.74
      vertex 50 -45 -6.74
      vertex 48.4887 -38.9863 -6.74
    endloop
  endfacet
  facet normal 0 0 1
    outer loop
      vertex 47.5 -38.6651 -6.74
      vertex 50 -45 -6.74
      vertex 47.9775 -38.8776 -6.74
    endloop
  endfacet
  facet normal 0 0 1
    outer loop
      vertex 47.0772 -38.3579 -6.74
      vertex 50 -45 -6.74
      vertex 47.5 -38.6651 -6.74
    endloop
  endfacet
  facet normal 0 0 1
    outer loop
      vertex 46.7275 -37.9695 -6.74
      vertex 50 -45 -6.74
      vertex 47.0772 -38.3579 -6.74
    endloop
  endfacet
  facet normal 0 0 1
    outer loop
      vertex 46.4661 -37.5168 -6.74
      vertex 50 -45 -6.74
      vertex 46.7275 -37.9695 -6.74
    endloop
  endfacet
  facet normal -0 0 1
    outer loop
      vertex -46.25 -36.5 -6.74
      vertex 46.3046 -37.0198 -6.74
      vertex 46.25 -36.5 -6.74
    endloop
  endfacet
  facet normal 0 0 1
    outer loop
      vertex -46.3046 -37.0198 -6.74
      vertex 46.3046 -37.0198 -6.74
      vertex -46.25 -36.5 -6.74
    endloop
  endfacet
  facet normal 0 0 1
    outer loop
      vertex 46.3046 -37.0198 -6.74
      vertex -46.3046 -37.0198 -6.74
      vertex 46.4661 -37.5168 -6.74
    endloop
  endfacet
  facet normal 0 0 1
    outer loop
      vertex -46.4661 -37.5168 -6.74
      vertex 46.4661 -37.5168 -6.74
      vertex -46.3046 -37.0198 -6.74
    endloop
  endfacet
  facet normal 0 0 1
    outer loop
      vertex 46.4661 -37.5168 -6.74
      vertex -46.4661 -37.5168 -6.74
      vertex 50 -45 -6.74
    endloop
  endfacet
  facet normal 0 0 1
    outer loop
      vertex -50 -45 -6.74
      vertex -46.4661 -37.5168 -6.74
      vertex -46.7275 -37.9695 -6.74
    endloop
  endfacet
  facet normal 0 0 1
    outer loop
      vertex -50 -45 -6.74
      vertex -46.7275 -37.9695 -6.74
      vertex -47.0772 -38.3579 -6.74
    endloop
  endfacet
  facet normal 0 0 1
    outer loop
      vertex -50 -45 -6.74
      vertex -47.0772 -38.3579 -6.74
      vertex -47.5 -38.6651 -6.74
    endloop
  endfacet
  facet normal 0 0 1
    outer loop
      vertex -50 -45 -6.74
      vertex -47.5 -38.6651 -6.74
      vertex -47.9775 -38.8776 -6.74
    endloop
  endfacet
  facet normal 0 0 1
    outer loop
      vertex -50 -45 -6.74
      vertex -47.9775 -38.8776 -6.74
      vertex -48.4887 -38.9863 -6.74
    endloop
  endfacet
  facet normal 0 0 1
    outer loop
      vertex -50 -45 -6.74
      vertex -48.4887 -38.9863 -6.74
      vertex -49.0113 -38.9863 -6.74
    endloop
  endfacet
  facet normal 0 0 1
    outer loop
      vertex -46.4661 -37.5168 -6.74
      vertex -50 -45 -6.74
      vertex 50 -45 -6.74
    endloop
  endfacet
  facet normal 0 0 1
    outer loop
      vertex -49.5225 -38.8776 -6.74
      vertex -50 -45 -6.74
      vertex -49.0113 -38.9863 -6.74
    endloop
  endfacet
  facet normal 0 0 1
    outer loop
      vertex -50 -45 -6.74
      vertex -49.5225 -38.8776 -6.74
      vertex -50 -38.6651 -6.74
    endloop
  endfacet
  facet normal 0 1 -0
    outer loop
      vertex 50 -45 -6.74
      vertex -50 -45 6.65
      vertex 50 -45 6.65
    endloop
  endfacet
  facet normal 0 1 0
    outer loop
      vertex -50 -45 6.65
      vertex 50 -45 -6.74
      vertex -50 -45 -6.74
    endloop
  endfacet
  facet normal 0.866028 0.499996 0
    outer loop
      vertex -46.4661 -35.4832 6.65
      vertex -46.7275 -35.0305 -6.74
      vertex -46.7275 -35.0305 6.65
    endloop
  endfacet
  facet normal 0.866028 0.499996 0
    outer loop
      vertex -46.7275 -35.0305 -6.74
      vertex -46.4661 -35.4832 6.65
      vertex -46.4661 -35.4832 -6.74
    endloop
  endfacet
  facet normal 0.743146 0.669129 0
    outer loop
      vertex -46.7275 -35.0305 6.65
      vertex -47.0772 -34.6421 -6.74
      vertex -47.0772 -34.6421 6.65
    endloop
  endfacet
  facet normal 0.743146 0.669129 0
    outer loop
      vertex -47.0772 -34.6421 -6.74
      vertex -46.7275 -35.0305 6.65
      vertex -46.7275 -35.0305 -6.74
    endloop
  endfacet
  facet normal 0.406738 0.913545 -0
    outer loop
      vertex -47.5 -34.3349 -6.74
      vertex -47.9775 -34.1224 6.65
      vertex -47.5 -34.3349 6.65
    endloop
  endfacet
  facet normal 0.406738 0.913545 0
    outer loop
      vertex -47.9775 -34.1224 6.65
      vertex -47.5 -34.3349 -6.74
      vertex -47.9775 -34.1224 -6.74
    endloop
  endfacet
  facet normal -0.406736 0.913546 0
    outer loop
      vertex -49.5225 -34.1224 -6.74
      vertex -50 -34.3349 6.65
      vertex -49.5225 -34.1224 6.65
    endloop
  endfacet
  facet normal -0.406736 0.913546 0
    outer loop
      vertex -50 -34.3349 6.65
      vertex -49.5225 -34.1224 -6.74
      vertex -50 -34.3349 -6.74
    endloop
  endfacet
  facet normal 0.994522 -0.104527 0
    outer loop
      vertex -46.3046 -37.0198 6.65
      vertex -46.25 -36.5 -6.74
      vertex -46.25 -36.5 6.65
    endloop
  endfacet
  facet normal 0.994522 -0.104527 0
    outer loop
      vertex -46.25 -36.5 -6.74
      vertex -46.3046 -37.0198 6.65
      vertex -46.3046 -37.0198 -6.74
    endloop
  endfacet
  facet normal 0.207915 -0.978147 0
    outer loop
      vertex -48.4887 -38.9863 -6.74
      vertex -47.9775 -38.8776 6.65
      vertex -48.4887 -38.9863 6.65
    endloop
  endfacet
  facet normal 0.207915 -0.978147 0
    outer loop
      vertex -47.9775 -38.8776 6.65
      vertex -48.4887 -38.9863 -6.74
      vertex -47.9775 -38.8776 -6.74
    endloop
  endfacet
  facet normal 0 1 -0
    outer loop
      vertex -48.4887 -34.0137 -6.74
      vertex -49.0113 -34.0137 6.65
      vertex -48.4887 -34.0137 6.65
    endloop
  endfacet
  facet normal 0 1 0
    outer loop
      vertex -49.0113 -34.0137 6.65
      vertex -48.4887 -34.0137 -6.74
      vertex -49.0113 -34.0137 -6.74
    endloop
  endfacet
  facet normal 0.587778 0.809022 -0
    outer loop
      vertex -47.0772 -34.6421 -6.74
      vertex -47.5 -34.3349 6.65
      vertex -47.0772 -34.6421 6.65
    endloop
  endfacet
  facet normal 0.587778 0.809022 0
    outer loop
      vertex -47.5 -34.3349 6.65
      vertex -47.0772 -34.6421 -6.74
      vertex -47.5 -34.3349 -6.74
    endloop
  endfacet
  facet normal -0.207916 0.978147 0
    outer loop
      vertex -49.0113 -34.0137 -6.74
      vertex -49.5225 -34.1224 6.65
      vertex -49.0113 -34.0137 6.65
    endloop
  endfacet
  facet normal -0.207916 0.978147 0
    outer loop
      vertex -49.5225 -34.1224 6.65
      vertex -49.0113 -34.0137 -6.74
      vertex -49.5225 -34.1224 -6.74
    endloop
  endfacet
  facet normal 0.994522 0.104527 0
    outer loop
      vertex -46.25 -36.5 6.65
      vertex -46.3046 -35.9802 -6.74
      vertex -46.3046 -35.9802 6.65
    endloop
  endfacet
  facet normal 0.994522 0.104527 0
    outer loop
      vertex -46.3046 -35.9802 -6.74
      vertex -46.25 -36.5 6.65
      vertex -46.25 -36.5 -6.74
    endloop
  endfacet
  facet normal 0.587783 -0.809018 0
    outer loop
      vertex -47.5 -38.6651 -6.74
      vertex -47.0772 -38.3579 6.65
      vertex -47.5 -38.6651 6.65
    endloop
  endfacet
  facet normal 0.587783 -0.809018 0
    outer loop
      vertex -47.0772 -38.3579 6.65
      vertex -47.5 -38.6651 -6.74
      vertex -47.0772 -38.3579 -6.74
    endloop
  endfacet
  facet normal 0.951056 -0.309019 0
    outer loop
      vertex -46.4661 -37.5168 6.65
      vertex -46.3046 -37.0198 -6.74
      vertex -46.3046 -37.0198 6.65
    endloop
  endfacet
  facet normal 0.951056 -0.309019 0
    outer loop
      vertex -46.3046 -37.0198 -6.74
      vertex -46.4661 -37.5168 6.65
      vertex -46.4661 -37.5168 -6.74
    endloop
  endfacet
  facet normal -0.207916 -0.978147 0
    outer loop
      vertex -49.5225 -38.8776 -6.74
      vertex -49.0113 -38.9863 6.65
      vertex -49.5225 -38.8776 6.65
    endloop
  endfacet
  facet normal -0.207916 -0.978147 -0
    outer loop
      vertex -49.0113 -38.9863 6.65
      vertex -49.5225 -38.8776 -6.74
      vertex -49.0113 -38.9863 -6.74
    endloop
  endfacet
  facet normal 0.951056 0.309019 0
    outer loop
      vertex -46.3046 -35.9802 6.65
      vertex -46.4661 -35.4832 -6.74
      vertex -46.4661 -35.4832 6.65
    endloop
  endfacet
  facet normal 0.951056 0.309019 0
    outer loop
      vertex -46.4661 -35.4832 -6.74
      vertex -46.3046 -35.9802 6.65
      vertex -46.3046 -35.9802 -6.74
    endloop
  endfacet
  facet normal 0.207915 0.978147 -0
    outer loop
      vertex -47.9775 -34.1224 -6.74
      vertex -48.4887 -34.0137 6.65
      vertex -47.9775 -34.1224 6.65
    endloop
  endfacet
  facet normal 0.207915 0.978147 0
    outer loop
      vertex -48.4887 -34.0137 6.65
      vertex -47.9775 -34.1224 -6.74
      vertex -48.4887 -34.0137 -6.74
    endloop
  endfacet
  facet normal 0.743143 -0.669132 0
    outer loop
      vertex -47.0772 -38.3579 6.65
      vertex -46.7275 -37.9695 -6.74
      vertex -46.7275 -37.9695 6.65
    endloop
  endfacet
  facet normal 0.743143 -0.669132 0
    outer loop
      vertex -46.7275 -37.9695 -6.74
      vertex -47.0772 -38.3579 6.65
      vertex -47.0772 -38.3579 -6.74
    endloop
  endfacet
  facet normal 0.866028 -0.499996 0
    outer loop
      vertex -46.7275 -37.9695 6.65
      vertex -46.4661 -37.5168 -6.74
      vertex -46.4661 -37.5168 6.65
    endloop
  endfacet
  facet normal 0.866028 -0.499996 0
    outer loop
      vertex -46.4661 -37.5168 -6.74
      vertex -46.7275 -37.9695 6.65
      vertex -46.7275 -37.9695 -6.74
    endloop
  endfacet
  facet normal 0 -1 0
    outer loop
      vertex -49.0113 -38.9863 -6.74
      vertex -48.4887 -38.9863 6.65
      vertex -49.0113 -38.9863 6.65
    endloop
  endfacet
  facet normal 0 -1 -0
    outer loop
      vertex -48.4887 -38.9863 6.65
      vertex -49.0113 -38.9863 -6.74
      vertex -48.4887 -38.9863 -6.74
    endloop
  endfacet
  facet normal 0.406738 -0.913545 0
    outer loop
      vertex -47.9775 -38.8776 -6.74
      vertex -47.5 -38.6651 6.65
      vertex -47.9775 -38.8776 6.65
    endloop
  endfacet
  facet normal 0.406738 -0.913545 0
    outer loop
      vertex -47.5 -38.6651 6.65
      vertex -47.9775 -38.8776 -6.74
      vertex -47.5 -38.6651 -6.74
    endloop
  endfacet
  facet normal -0.406736 -0.913546 0
    outer loop
      vertex -50 -38.6651 -6.74
      vertex -49.5225 -38.8776 6.65
      vertex -50 -38.6651 6.65
    endloop
  endfacet
  facet normal -0.406736 -0.913546 -0
    outer loop
      vertex -49.5225 -38.8776 6.65
      vertex -50 -38.6651 -6.74
      vertex -49.5225 -38.8776 -6.74
    endloop
  endfacet
  facet normal 0 1 -0
    outer loop
      vertex 49.0113 -34.0137 -6.74
      vertex 48.4887 -34.0137 6.65
      vertex 49.0113 -34.0137 6.65
    endloop
  endfacet
  facet normal 0 1 0
    outer loop
      vertex 48.4887 -34.0137 6.65
      vertex 49.0113 -34.0137 -6.74
      vertex 48.4887 -34.0137 -6.74
    endloop
  endfacet
  facet normal 0 -1 0
    outer loop
      vertex 48.4887 -38.9863 -6.74
      vertex 49.0113 -38.9863 6.65
      vertex 48.4887 -38.9863 6.65
    endloop
  endfacet
  facet normal 0 -1 -0
    outer loop
      vertex 49.0113 -38.9863 6.65
      vertex 48.4887 -38.9863 -6.74
      vertex 49.0113 -38.9863 -6.74
    endloop
  endfacet
  facet normal -0.743146 0.669129 0
    outer loop
      vertex 46.7275 -35.0305 -6.74
      vertex 47.0772 -34.6421 6.65
      vertex 47.0772 -34.6421 -6.74
    endloop
  endfacet
  facet normal -0.743146 0.669129 0
    outer loop
      vertex 47.0772 -34.6421 6.65
      vertex 46.7275 -35.0305 -6.74
      vertex 46.7275 -35.0305 6.65
    endloop
  endfacet
  facet normal -0.406738 0.913545 0
    outer loop
      vertex 47.9775 -34.1224 -6.74
      vertex 47.5 -34.3349 6.65
      vertex 47.9775 -34.1224 6.65
    endloop
  endfacet
  facet normal -0.406738 0.913545 0
    outer loop
      vertex 47.5 -34.3349 6.65
      vertex 47.9775 -34.1224 -6.74
      vertex 47.5 -34.3349 -6.74
    endloop
  endfacet
  facet normal -0.951056 -0.309019 0
    outer loop
      vertex 46.4661 -37.5168 -6.74
      vertex 46.3046 -37.0198 6.65
      vertex 46.3046 -37.0198 -6.74
    endloop
  endfacet
  facet normal -0.951056 -0.309019 0
    outer loop
      vertex 46.3046 -37.0198 6.65
      vertex 46.4661 -37.5168 -6.74
      vertex 46.4661 -37.5168 6.65
    endloop
  endfacet
  facet normal 0.207916 0.978147 -0
    outer loop
      vertex 49.5225 -34.1224 -6.74
      vertex 49.0113 -34.0137 6.65
      vertex 49.5225 -34.1224 6.65
    endloop
  endfacet
  facet normal 0.207916 0.978147 0
    outer loop
      vertex 49.0113 -34.0137 6.65
      vertex 49.5225 -34.1224 -6.74
      vertex 49.0113 -34.0137 -6.74
    endloop
  endfacet
  facet normal 0.406736 0.913546 -0
    outer loop
      vertex 50 -34.3349 -6.74
      vertex 49.5225 -34.1224 6.65
      vertex 50 -34.3349 6.65
    endloop
  endfacet
  facet normal 0.406736 0.913546 0
    outer loop
      vertex 49.5225 -34.1224 6.65
      vertex 50 -34.3349 -6.74
      vertex 49.5225 -34.1224 -6.74
    endloop
  endfacet
  facet normal -0.951056 0.309019 0
    outer loop
      vertex 46.3046 -35.9802 -6.74
      vertex 46.4661 -35.4832 6.65
      vertex 46.4661 -35.4832 -6.74
    endloop
  endfacet
  facet normal -0.951056 0.309019 0
    outer loop
      vertex 46.4661 -35.4832 6.65
      vertex 46.3046 -35.9802 -6.74
      vertex 46.3046 -35.9802 6.65
    endloop
  endfacet
  facet normal -0.866028 0.499996 0
    outer loop
      vertex 46.4661 -35.4832 -6.74
      vertex 46.7275 -35.0305 6.65
      vertex 46.7275 -35.0305 -6.74
    endloop
  endfacet
  facet normal -0.866028 0.499996 0
    outer loop
      vertex 46.7275 -35.0305 6.65
      vertex 46.4661 -35.4832 -6.74
      vertex 46.4661 -35.4832 6.65
    endloop
  endfacet
  facet normal -0.994522 0.104527 0
    outer loop
      vertex 46.25 -36.5 -6.74
      vertex 46.3046 -35.9802 6.65
      vertex 46.3046 -35.9802 -6.74
    endloop
  endfacet
  facet normal -0.994522 0.104527 0
    outer loop
      vertex 46.3046 -35.9802 6.65
      vertex 46.25 -36.5 -6.74
      vertex 46.25 -36.5 6.65
    endloop
  endfacet
  facet normal -0.587778 0.809022 0
    outer loop
      vertex 47.5 -34.3349 -6.74
      vertex 47.0772 -34.6421 6.65
      vertex 47.5 -34.3349 6.65
    endloop
  endfacet
  facet normal -0.587778 0.809022 0
    outer loop
      vertex 47.0772 -34.6421 6.65
      vertex 47.5 -34.3349 -6.74
      vertex 47.0772 -34.6421 -6.74
    endloop
  endfacet
  facet normal -0.207915 0.978147 0
    outer loop
      vertex 48.4887 -34.0137 -6.74
      vertex 47.9775 -34.1224 6.65
      vertex 48.4887 -34.0137 6.65
    endloop
  endfacet
  facet normal -0.207915 0.978147 0
    outer loop
      vertex 47.9775 -34.1224 6.65
      vertex 48.4887 -34.0137 -6.74
      vertex 47.9775 -34.1224 -6.74
    endloop
  endfacet
  facet normal 0.207916 -0.978147 0
    outer loop
      vertex 49.0113 -38.9863 -6.74
      vertex 49.5225 -38.8776 6.65
      vertex 49.0113 -38.9863 6.65
    endloop
  endfacet
  facet normal 0.207916 -0.978147 0
    outer loop
      vertex 49.5225 -38.8776 6.65
      vertex 49.0113 -38.9863 -6.74
      vertex 49.5225 -38.8776 -6.74
    endloop
  endfacet
  facet normal -0.587783 -0.809018 0
    outer loop
      vertex 47.0772 -38.3579 -6.74
      vertex 47.5 -38.6651 6.65
      vertex 47.0772 -38.3579 6.65
    endloop
  endfacet
  facet normal -0.587783 -0.809018 -0
    outer loop
      vertex 47.5 -38.6651 6.65
      vertex 47.0772 -38.3579 -6.74
      vertex 47.5 -38.6651 -6.74
    endloop
  endfacet
  facet normal -0.207915 -0.978147 0
    outer loop
      vertex 47.9775 -38.8776 -6.74
      vertex 48.4887 -38.9863 6.65
      vertex 47.9775 -38.8776 6.65
    endloop
  endfacet
  facet normal -0.207915 -0.978147 -0
    outer loop
      vertex 48.4887 -38.9863 6.65
      vertex 47.9775 -38.8776 -6.74
      vertex 48.4887 -38.9863 -6.74
    endloop
  endfacet
  facet normal -0.743143 -0.669132 0
    outer loop
      vertex 47.0772 -38.3579 -6.74
      vertex 46.7275 -37.9695 6.65
      vertex 46.7275 -37.9695 -6.74
    endloop
  endfacet
  facet normal -0.743143 -0.669132 0
    outer loop
      vertex 46.7275 -37.9695 6.65
      vertex 47.0772 -38.3579 -6.74
      vertex 47.0772 -38.3579 6.65
    endloop
  endfacet
  facet normal -0.994522 -0.104527 0
    outer loop
      vertex 46.3046 -37.0198 -6.74
      vertex 46.25 -36.5 6.65
      vertex 46.25 -36.5 -6.74
    endloop
  endfacet
  facet normal -0.994522 -0.104527 0
    outer loop
      vertex 46.25 -36.5 6.65
      vertex 46.3046 -37.0198 -6.74
      vertex 46.3046 -37.0198 6.65
    endloop
  endfacet
  facet normal 0.406736 -0.913546 0
    outer loop
      vertex 49.5225 -38.8776 -6.74
      vertex 50 -38.6651 6.65
      vertex 49.5225 -38.8776 6.65
    endloop
  endfacet
  facet normal 0.406736 -0.913546 0
    outer loop
      vertex 50 -38.6651 6.65
      vertex 49.5225 -38.8776 -6.74
      vertex 50 -38.6651 -6.74
    endloop
  endfacet
  facet normal -0.406738 -0.913545 0
    outer loop
      vertex 47.5 -38.6651 -6.74
      vertex 47.9775 -38.8776 6.65
      vertex 47.5 -38.6651 6.65
    endloop
  endfacet
  facet normal -0.406738 -0.913545 -0
    outer loop
      vertex 47.9775 -38.8776 6.65
      vertex 47.5 -38.6651 -6.74
      vertex 47.9775 -38.8776 -6.74
    endloop
  endfacet
  facet normal -0.866028 -0.499996 0
    outer loop
      vertex 46.7275 -37.9695 -6.74
      vertex 46.4661 -37.5168 6.65
      vertex 46.4661 -37.5168 -6.74
    endloop
  endfacet
  facet normal -0.866028 -0.499996 0
    outer loop
      vertex 46.4661 -37.5168 6.65
      vertex 46.7275 -37.9695 -6.74
      vertex 46.7275 -37.9695 6.65
    endloop
  endfacet
  facet normal 1 -0 0
    outer loop
      vertex -51.1 -46.1 9.25
      vertex -51.1 -28.5 6.65
      vertex -51.1 -28.5 9.25
    endloop
  endfacet
  facet normal 1 0 0
    outer loop
      vertex -51.1 -28.5 6.65
      vertex -51.1 -46.1 9.25
      vertex -51.1 -46.1 6.65
    endloop
  endfacet
  facet normal -1 0 0
    outer loop
      vertex 51.1 -46.1 6.65
      vertex 51.1 -28.5 9.25
      vertex 51.1 -28.5 6.65
    endloop
  endfacet
  facet normal -1 -0 0
    outer loop
      vertex 51.1 -28.5 9.25
      vertex 51.1 -46.1 6.65
      vertex 51.1 -46.1 9.25
    endloop
  endfacet
  facet normal -0 0 1
    outer loop
      vertex -51.1 -28.5 6.65
      vertex -50 -34.3349 6.65
      vertex -50 -28.5 6.65
    endloop
  endfacet
  facet normal 0 0 1
    outer loop
      vertex -50 -34.3349 6.65
      vertex -51.1 -28.5 6.65
      vertex -50 -36.5 6.65
    endloop
  endfacet
  facet normal 0 0 1
    outer loop
      vertex -51.1 -46.1 6.65
      vertex -50 -36.5 6.65
      vertex -51.1 -28.5 6.65
    endloop
  endfacet
  facet normal 0 0 1
    outer loop
      vertex -50 -36.5 6.65
      vertex -51.1 -46.1 6.65
      vertex -50 -38.6651 6.65
    endloop
  endfacet
  facet normal 0 0 1
    outer loop
      vertex -46.3046 -35.9802 6.65
      vertex -47.5273 -36.2401 6.65
      vertex -47.5 -36.5 6.65
    endloop
  endfacet
  facet normal 0 0 1
    outer loop
      vertex -47.0772 -34.6421 6.65
      vertex -47.6081 -35.9916 6.65
      vertex -47.5273 -36.2401 6.65
    endloop
  endfacet
  facet normal 0 0 1
    outer loop
      vertex -47.0772 -34.6421 6.65
      vertex -47.7387 -35.7653 6.65
      vertex -47.6081 -35.9916 6.65
    endloop
  endfacet
  facet normal 0 0 1
    outer loop
      vertex -47.0772 -34.6421 6.65
      vertex -47.9136 -35.5711 6.65
      vertex -47.7387 -35.7653 6.65
    endloop
  endfacet
  facet normal 0 0 1
    outer loop
      vertex -48.125 -35.4175 6.65
      vertex -47.5 -34.3349 6.65
      vertex -47.9775 -34.1224 6.65
    endloop
  endfacet
  facet normal 0 0 1
    outer loop
      vertex -47.5 -34.3349 6.65
      vertex -48.125 -35.4175 6.65
      vertex -47.9136 -35.5711 6.65
    endloop
  endfacet
  facet normal 0 0 1
    outer loop
      vertex -47.9775 -34.1224 6.65
      vertex -48.3637 -35.3112 6.65
      vertex -48.125 -35.4175 6.65
    endloop
  endfacet
  facet normal 0 0 1
    outer loop
      vertex -48.4887 -34.0137 6.65
      vertex -48.3637 -35.3112 6.65
      vertex -47.9775 -34.1224 6.65
    endloop
  endfacet
  facet normal 0 0 1
    outer loop
      vertex -48.4887 -34.0137 6.65
      vertex -48.6193 -35.2568 6.65
      vertex -48.3637 -35.3112 6.65
    endloop
  endfacet
  facet normal 0 0 1
    outer loop
      vertex -48.4887 -34.0137 6.65
      vertex -48.8807 -35.2568 6.65
      vertex -48.6193 -35.2568 6.65
    endloop
  endfacet
  facet normal -0 0 1
    outer loop
      vertex -49.0113 -34.0137 6.65
      vertex -48.8807 -35.2568 6.65
      vertex -48.4887 -34.0137 6.65
    endloop
  endfacet
  facet normal 0 0 1
    outer loop
      vertex -49.0113 -34.0137 6.65
      vertex -49.1363 -35.3112 6.65
      vertex -48.8807 -35.2568 6.65
    endloop
  endfacet
  facet normal -0 0 1
    outer loop
      vertex -49.5225 -34.1224 6.65
      vertex -49.1363 -35.3112 6.65
      vertex -49.0113 -34.0137 6.65
    endloop
  endfacet
  facet normal 0 0 1
    outer loop
      vertex -49.1363 -35.3112 6.65
      vertex -49.5225 -34.1224 6.65
      vertex -49.375 -35.4175 6.65
    endloop
  endfacet
  facet normal -0 0 1
    outer loop
      vertex -50 -34.3349 6.65
      vertex -49.375 -35.4175 6.65
      vertex -49.5225 -34.1224 6.65
    endloop
  endfacet
  facet normal 0 0 1
    outer loop
      vertex -49.375 -35.4175 6.65
      vertex -50 -34.3349 6.65
      vertex -49.5864 -35.5711 6.65
    endloop
  endfacet
  facet normal 0 0 1
    outer loop
      vertex -49.5864 -35.5711 6.65
      vertex -50 -34.3349 6.65
      vertex -49.7613 -35.7653 6.65
    endloop
  endfacet
  facet normal 0 0 1
    outer loop
      vertex -49.7613 -35.7653 6.65
      vertex -50 -34.3349 6.65
      vertex -49.8919 -35.9916 6.65
    endloop
  endfacet
  facet normal 0 0 1
    outer loop
      vertex -49.8919 -35.9916 6.65
      vertex -50 -34.3349 6.65
      vertex -49.9727 -36.2401 6.65
    endloop
  endfacet
  facet normal 0 0 1
    outer loop
      vertex -49.9727 -36.2401 6.65
      vertex -50 -34.3349 6.65
      vertex -50 -36.5 6.65
    endloop
  endfacet
  facet normal 0 0 1
    outer loop
      vertex -47.5 -36.5 6.65
      vertex -46.25 -36.5 6.65
      vertex -46.3046 -35.9802 6.65
    endloop
  endfacet
  facet normal 0 0 1
    outer loop
      vertex -47.5273 -36.2401 6.65
      vertex -46.3046 -35.9802 6.65
      vertex -46.4661 -35.4832 6.65
    endloop
  endfacet
  facet normal 0 0 1
    outer loop
      vertex -46.25 -36.5 6.65
      vertex -47.5 -36.5 6.65
      vertex -46.3046 -37.0198 6.65
    endloop
  endfacet
  facet normal 0 0 1
    outer loop
      vertex -47.5273 -36.2401 6.65
      vertex -46.4661 -35.4832 6.65
      vertex -46.7275 -35.0305 6.65
    endloop
  endfacet
  facet normal -0 0 1
    outer loop
      vertex -47.5273 -36.7599 6.65
      vertex -46.3046 -37.0198 6.65
      vertex -47.5 -36.5 6.65
    endloop
  endfacet
  facet normal 0 0 1
    outer loop
      vertex -47.5273 -36.2401 6.65
      vertex -46.7275 -35.0305 6.65
      vertex -47.0772 -34.6421 6.65
    endloop
  endfacet
  facet normal 0 0 1
    outer loop
      vertex -46.3046 -37.0198 6.65
      vertex -47.5273 -36.7599 6.65
      vertex -46.4661 -37.5168 6.65
    endloop
  endfacet
  facet normal 0 0 1
    outer loop
      vertex -47.9136 -35.5711 6.65
      vertex -47.0772 -34.6421 6.65
      vertex -47.5 -34.3349 6.65
    endloop
  endfacet
  facet normal -0 0 1
    outer loop
      vertex -47.6081 -37.0084 6.65
      vertex -46.4661 -37.5168 6.65
      vertex -47.5273 -36.7599 6.65
    endloop
  endfacet
  facet normal 0 0 1
    outer loop
      vertex -46.4661 -37.5168 6.65
      vertex -47.6081 -37.0084 6.65
      vertex -46.7275 -37.9695 6.65
    endloop
  endfacet
  facet normal -0 0 1
    outer loop
      vertex -47.7387 -37.2347 6.65
      vertex -46.7275 -37.9695 6.65
      vertex -47.6081 -37.0084 6.65
    endloop
  endfacet
  facet normal 0 0 1
    outer loop
      vertex -46.7275 -37.9695 6.65
      vertex -47.7387 -37.2347 6.65
      vertex -47.0772 -38.3579 6.65
    endloop
  endfacet
  facet normal -0 0 1
    outer loop
      vertex -47.9136 -37.4289 6.65
      vertex -47.0772 -38.3579 6.65
      vertex -47.7387 -37.2347 6.65
    endloop
  endfacet
  facet normal 0 0 1
    outer loop
      vertex -47.0772 -38.3579 6.65
      vertex -47.9136 -37.4289 6.65
      vertex -47.5 -38.6651 6.65
    endloop
  endfacet
  facet normal -0 0 1
    outer loop
      vertex -48.125 -37.5825 6.65
      vertex -47.5 -38.6651 6.65
      vertex -47.9136 -37.4289 6.65
    endloop
  endfacet
  facet normal 0 0 1
    outer loop
      vertex -47.5 -38.6651 6.65
      vertex -48.125 -37.5825 6.65
      vertex -47.9775 -38.8776 6.65
    endloop
  endfacet
  facet normal -0 0 1
    outer loop
      vertex -48.3637 -37.6888 6.65
      vertex -47.9775 -38.8776 6.65
      vertex -48.125 -37.5825 6.65
    endloop
  endfacet
  facet normal 0 0 1
    outer loop
      vertex -48.3637 -37.6888 6.65
      vertex -48.4887 -38.9863 6.65
      vertex -47.9775 -38.8776 6.65
    endloop
  endfacet
  facet normal -0 0 1
    outer loop
      vertex -48.6193 -37.7432 6.65
      vertex -48.4887 -38.9863 6.65
      vertex -48.3637 -37.6888 6.65
    endloop
  endfacet
  facet normal -0 0 1
    outer loop
      vertex -48.8807 -37.7432 6.65
      vertex -48.4887 -38.9863 6.65
      vertex -48.6193 -37.7432 6.65
    endloop
  endfacet
  facet normal 0 0 1
    outer loop
      vertex -48.8807 -37.7432 6.65
      vertex -49.0113 -38.9863 6.65
      vertex -48.4887 -38.9863 6.65
    endloop
  endfacet
  facet normal 0 0 1
    outer loop
      vertex -49.1363 -37.6888 6.65
      vertex -49.0113 -38.9863 6.65
      vertex -48.8807 -37.7432 6.65
    endloop
  endfacet
  facet normal 0 0 1
    outer loop
      vertex -49.5225 -38.8776 6.65
      vertex -49.1363 -37.6888 6.65
      vertex -49.375 -37.5825 6.65
    endloop
  endfacet
  facet normal 0 0 1
    outer loop
      vertex -49.1363 -37.6888 6.65
      vertex -49.5225 -38.8776 6.65
      vertex -49.0113 -38.9863 6.65
    endloop
  endfacet
  facet normal 0 0 1
    outer loop
      vertex -50 -38.6651 6.65
      vertex -49.375 -37.5825 6.65
      vertex -49.5864 -37.4289 6.65
    endloop
  endfacet
  facet normal 0 0 1
    outer loop
      vertex -50 -38.6651 6.65
      vertex -49.5864 -37.4289 6.65
      vertex -49.7613 -37.2347 6.65
    endloop
  endfacet
  facet normal 0 0 1
    outer loop
      vertex -50 -38.6651 6.65
      vertex -49.7613 -37.2347 6.65
      vertex -49.8919 -37.0084 6.65
    endloop
  endfacet
  facet normal 0 0 1
    outer loop
      vertex -50 -38.6651 6.65
      vertex -49.8919 -37.0084 6.65
      vertex -49.9727 -36.7599 6.65
    endloop
  endfacet
  facet normal 0 0 1
    outer loop
      vertex -49.375 -37.5825 6.65
      vertex -50 -38.6651 6.65
      vertex -49.5225 -38.8776 6.65
    endloop
  endfacet
  facet normal 0 0 1
    outer loop
      vertex -50 -38.6651 6.65
      vertex -49.9727 -36.7599 6.65
      vertex -50 -36.5 6.65
    endloop
  endfacet
  facet normal -0 0 1
    outer loop
      vertex 49.9727 -36.7599 6.65
      vertex 50 -38.6651 6.65
      vertex 50 -36.5 6.65
    endloop
  endfacet
  facet normal -0 0 1
    outer loop
      vertex 49.8919 -37.0084 6.65
      vertex 50 -38.6651 6.65
      vertex 49.9727 -36.7599 6.65
    endloop
  endfacet
  facet normal -0 0 1
    outer loop
      vertex 49.7613 -37.2347 6.65
      vertex 50 -38.6651 6.65
      vertex 49.8919 -37.0084 6.65
    endloop
  endfacet
  facet normal -0 0 1
    outer loop
      vertex 49.5864 -37.4289 6.65
      vertex 50 -38.6651 6.65
      vertex 49.7613 -37.2347 6.65
    endloop
  endfacet
  facet normal -0 0 1
    outer loop
      vertex 49.375 -37.5825 6.65
      vertex 50 -38.6651 6.65
      vertex 49.5864 -37.4289 6.65
    endloop
  endfacet
  facet normal 0 0 1
    outer loop
      vertex 50 -38.6651 6.65
      vertex 49.375 -37.5825 6.65
      vertex 49.5225 -38.8776 6.65
    endloop
  endfacet
  facet normal -0 0 1
    outer loop
      vertex 49.1363 -37.6888 6.65
      vertex 49.5225 -38.8776 6.65
      vertex 49.375 -37.5825 6.65
    endloop
  endfacet
  facet normal 0 0 1
    outer loop
      vertex 49.1363 -37.6888 6.65
      vertex 49.0113 -38.9863 6.65
      vertex 49.5225 -38.8776 6.65
    endloop
  endfacet
  facet normal -0 0 1
    outer loop
      vertex 48.8807 -37.7432 6.65
      vertex 49.0113 -38.9863 6.65
      vertex 49.1363 -37.6888 6.65
    endloop
  endfacet
  facet normal -0 0 1
    outer loop
      vertex 48.6193 -37.7432 6.65
      vertex 49.0113 -38.9863 6.65
      vertex 48.8807 -37.7432 6.65
    endloop
  endfacet
  facet normal 0 0 1
    outer loop
      vertex 48.6193 -37.7432 6.65
      vertex 48.4887 -38.9863 6.65
      vertex 49.0113 -38.9863 6.65
    endloop
  endfacet
  facet normal 0 0 1
    outer loop
      vertex 48.3637 -37.6888 6.65
      vertex 48.4887 -38.9863 6.65
      vertex 48.6193 -37.7432 6.65
    endloop
  endfacet
  facet normal 0 0 1
    outer loop
      vertex 47.9775 -38.8776 6.65
      vertex 48.3637 -37.6888 6.65
      vertex 48.125 -37.5825 6.65
    endloop
  endfacet
  facet normal 0 0 1
    outer loop
      vertex 48.3637 -37.6888 6.65
      vertex 47.9775 -38.8776 6.65
      vertex 48.4887 -38.9863 6.65
    endloop
  endfacet
  facet normal 0 0 1
    outer loop
      vertex 47.5 -38.6651 6.65
      vertex 48.125 -37.5825 6.65
      vertex 47.9136 -37.4289 6.65
    endloop
  endfacet
  facet normal 0 0 1
    outer loop
      vertex 47.0772 -38.3579 6.65
      vertex 47.9136 -37.4289 6.65
      vertex 47.7387 -37.2347 6.65
    endloop
  endfacet
  facet normal 0 0 1
    outer loop
      vertex 46.7275 -37.9695 6.65
      vertex 47.7387 -37.2347 6.65
      vertex 47.6081 -37.0084 6.65
    endloop
  endfacet
  facet normal 0 0 1
    outer loop
      vertex 46.4661 -37.5168 6.65
      vertex 47.6081 -37.0084 6.65
      vertex 47.5273 -36.7599 6.65
    endloop
  endfacet
  facet normal 0 0 1
    outer loop
      vertex 48.125 -37.5825 6.65
      vertex 47.5 -38.6651 6.65
      vertex 47.9775 -38.8776 6.65
    endloop
  endfacet
  facet normal 0 0 1
    outer loop
      vertex 46.3046 -37.0198 6.65
      vertex 47.5273 -36.7599 6.65
      vertex 47.5 -36.5 6.65
    endloop
  endfacet
  facet normal 0 0 1
    outer loop
      vertex 50 -34.3349 6.65
      vertex 49.9727 -36.2401 6.65
      vertex 50 -36.5 6.65
    endloop
  endfacet
  facet normal 0 0 1
    outer loop
      vertex 50 -34.3349 6.65
      vertex 49.8919 -35.9916 6.65
      vertex 49.9727 -36.2401 6.65
    endloop
  endfacet
  facet normal 0 0 1
    outer loop
      vertex 50 -34.3349 6.65
      vertex 49.7613 -35.7653 6.65
      vertex 49.8919 -35.9916 6.65
    endloop
  endfacet
  facet normal 0 0 1
    outer loop
      vertex 50 -34.3349 6.65
      vertex 49.5864 -35.5711 6.65
      vertex 49.7613 -35.7653 6.65
    endloop
  endfacet
  facet normal 0 0 1
    outer loop
      vertex 49.375 -35.4175 6.65
      vertex 50 -34.3349 6.65
      vertex 49.5225 -34.1224 6.65
    endloop
  endfacet
  facet normal 0 0 1
    outer loop
      vertex 50 -34.3349 6.65
      vertex 49.375 -35.4175 6.65
      vertex 49.5864 -35.5711 6.65
    endloop
  endfacet
  facet normal 0 0 1
    outer loop
      vertex 49.5225 -34.1224 6.65
      vertex 49.1363 -35.3112 6.65
      vertex 49.375 -35.4175 6.65
    endloop
  endfacet
  facet normal 0 0 1
    outer loop
      vertex 49.0113 -34.0137 6.65
      vertex 49.1363 -35.3112 6.65
      vertex 49.5225 -34.1224 6.65
    endloop
  endfacet
  facet normal 0 0 1
    outer loop
      vertex 49.0113 -34.0137 6.65
      vertex 48.8807 -35.2568 6.65
      vertex 49.1363 -35.3112 6.65
    endloop
  endfacet
  facet normal 0 0 1
    outer loop
      vertex 49.0113 -34.0137 6.65
      vertex 48.6193 -35.2568 6.65
      vertex 48.8807 -35.2568 6.65
    endloop
  endfacet
  facet normal -0 0 1
    outer loop
      vertex 48.4887 -34.0137 6.65
      vertex 48.6193 -35.2568 6.65
      vertex 49.0113 -34.0137 6.65
    endloop
  endfacet
  facet normal 0 0 1
    outer loop
      vertex 48.4887 -34.0137 6.65
      vertex 48.3637 -35.3112 6.65
      vertex 48.6193 -35.2568 6.65
    endloop
  endfacet
  facet normal -0 0 1
    outer loop
      vertex 47.9775 -34.1224 6.65
      vertex 48.3637 -35.3112 6.65
      vertex 48.4887 -34.0137 6.65
    endloop
  endfacet
  facet normal 0 0 1
    outer loop
      vertex 48.3637 -35.3112 6.65
      vertex 47.9775 -34.1224 6.65
      vertex 48.125 -35.4175 6.65
    endloop
  endfacet
  facet normal -0 0 1
    outer loop
      vertex 47.5 -34.3349 6.65
      vertex 48.125 -35.4175 6.65
      vertex 47.9775 -34.1224 6.65
    endloop
  endfacet
  facet normal 0 0 1
    outer loop
      vertex 48.125 -35.4175 6.65
      vertex 47.5 -34.3349 6.65
      vertex 47.9136 -35.5711 6.65
    endloop
  endfacet
  facet normal -0 0 1
    outer loop
      vertex 47.0772 -34.6421 6.65
      vertex 47.9136 -35.5711 6.65
      vertex 47.5 -34.3349 6.65
    endloop
  endfacet
  facet normal 0 0 1
    outer loop
      vertex 47.9136 -35.5711 6.65
      vertex 47.0772 -34.6421 6.65
      vertex 47.7387 -35.7653 6.65
    endloop
  endfacet
  facet normal -0 0 1
    outer loop
      vertex 46.7275 -35.0305 6.65
      vertex 47.7387 -35.7653 6.65
      vertex 47.0772 -34.6421 6.65
    endloop
  endfacet
  facet normal 0 0 1
    outer loop
      vertex 47.7387 -35.7653 6.65
      vertex 46.7275 -35.0305 6.65
      vertex 47.6081 -35.9916 6.65
    endloop
  endfacet
  facet normal -0 0 1
    outer loop
      vertex 46.4661 -35.4832 6.65
      vertex 47.6081 -35.9916 6.65
      vertex 46.7275 -35.0305 6.65
    endloop
  endfacet
  facet normal 0 0 1
    outer loop
      vertex 47.6081 -35.9916 6.65
      vertex 46.4661 -35.4832 6.65
      vertex 47.5273 -36.2401 6.65
    endloop
  endfacet
  facet normal 0 0 1
    outer loop
      vertex 47.9136 -37.4289 6.65
      vertex 47.0772 -38.3579 6.65
      vertex 47.5 -38.6651 6.65
    endloop
  endfacet
  facet normal -0 0 1
    outer loop
      vertex 46.3046 -35.9802 6.65
      vertex 47.5273 -36.2401 6.65
      vertex 46.4661 -35.4832 6.65
    endloop
  endfacet
  facet normal 0 0 1
    outer loop
      vertex 47.7387 -37.2347 6.65
      vertex 46.7275 -37.9695 6.65
      vertex 47.0772 -38.3579 6.65
    endloop
  endfacet
  facet normal 0 0 1
    outer loop
      vertex 47.5273 -36.2401 6.65
      vertex 46.3046 -35.9802 6.65
      vertex 47.5 -36.5 6.65
    endloop
  endfacet
  facet normal 0 0 1
    outer loop
      vertex 47.6081 -37.0084 6.65
      vertex 46.4661 -37.5168 6.65
      vertex 46.7275 -37.9695 6.65
    endloop
  endfacet
  facet normal 0 0 1
    outer loop
      vertex 46.25 -36.5 6.65
      vertex 47.5 -36.5 6.65
      vertex 46.3046 -35.9802 6.65
    endloop
  endfacet
  facet normal 0 0 1
    outer loop
      vertex 47.5273 -36.7599 6.65
      vertex 46.3046 -37.0198 6.65
      vertex 46.4661 -37.5168 6.65
    endloop
  endfacet
  facet normal 0 0 1
    outer loop
      vertex 47.5 -36.5 6.65
      vertex 46.25 -36.5 6.65
      vertex 46.3046 -37.0198 6.65
    endloop
  endfacet
  facet normal 0 0 1
    outer loop
      vertex 50 -34.3349 6.65
      vertex 51.1 -28.5 6.65
      vertex 50 -28.5 6.65
    endloop
  endfacet
  facet normal 0 0 1
    outer loop
      vertex 50 -36.5 6.65
      vertex 51.1 -28.5 6.65
      vertex 50 -34.3349 6.65
    endloop
  endfacet
  facet normal 0 0 1
    outer loop
      vertex 51.1 -28.5 6.65
      vertex 50 -36.5 6.65
      vertex 51.1 -46.1 6.65
    endloop
  endfacet
  facet normal -0 0 1
    outer loop
      vertex 50 -38.6651 6.65
      vertex 51.1 -46.1 6.65
      vertex 50 -36.5 6.65
    endloop
  endfacet
  facet normal -0 0 1
    outer loop
      vertex 50 -45 6.65
      vertex 51.1 -46.1 6.65
      vertex 50 -38.6651 6.65
    endloop
  endfacet
  facet normal -0 0 1
    outer loop
      vertex -50 -45 6.65
      vertex 51.1 -46.1 6.65
      vertex 50 -45 6.65
    endloop
  endfacet
  facet normal 0 0 1
    outer loop
      vertex -50 -45 6.65
      vertex -51.1 -46.1 6.65
      vertex 51.1 -46.1 6.65
    endloop
  endfacet
  facet normal 0 0 1
    outer loop
      vertex -50 -38.6651 6.65
      vertex -51.1 -46.1 6.65
      vertex -50 -45 6.65
    endloop
  endfacet
  facet normal 0 1 -0
    outer loop
      vertex 51.1 -46.1 6.65
      vertex -51.1 -46.1 9.25
      vertex 51.1 -46.1 9.25
    endloop
  endfacet
  facet normal 0 1 0
    outer loop
      vertex -51.1 -46.1 9.25
      vertex 51.1 -46.1 6.65
      vertex -51.1 -46.1 6.65
    endloop
  endfacet
  facet normal 0 1 0
    outer loop
      vertex 52.5 -28.5 9.25
      vertex 51.1 -28.5 6.65
      vertex 51.1 -28.5 9.25
    endloop
  endfacet
  facet normal 0 1 0
    outer loop
      vertex 51.1 -28.5 6.65
      vertex 50 -28.5 -6.74
      vertex 50 -28.5 6.65
    endloop
  endfacet
  facet normal 0 1 -0
    outer loop
      vertex 52.5 -28.5 -9.25
      vertex 51.1 -28.5 6.65
      vertex 52.5 -28.5 9.25
    endloop
  endfacet
  facet normal 0 1 0
    outer loop
      vertex 50 -28.5 -6.74
      vertex 52.5 -28.5 -9.25
      vertex -50 -28.5 -6.74
    endloop
  endfacet
  facet normal 0 1 0
    outer loop
      vertex 51.1 -28.5 6.65
      vertex 52.5 -28.5 -9.25
      vertex 50 -28.5 -6.74
    endloop
  endfacet
  facet normal 0 1 0
    outer loop
      vertex -50 -28.5 6.65
      vertex -50 -28.5 -6.74
      vertex -51.1 -28.5 6.65
    endloop
  endfacet
  facet normal 0 1 -0
    outer loop
      vertex -51.1 -28.5 6.65
      vertex -52.5 -28.5 9.25
      vertex -51.1 -28.5 9.25
    endloop
  endfacet
  facet normal 0 1 0
    outer loop
      vertex -52.5 -28.5 -9.25
      vertex -51.1 -28.5 6.65
      vertex -50 -28.5 -6.74
    endloop
  endfacet
  facet normal 0 1 0
    outer loop
      vertex -51.1 -28.5 6.65
      vertex -52.5 -28.5 -9.25
      vertex -52.5 -28.5 9.25
    endloop
  endfacet
  facet normal 0 1 0
    outer loop
      vertex -52.5 -28.5 -9.25
      vertex -50 -28.5 -6.74
      vertex 52.5 -28.5 -9.25
    endloop
  endfacet
endsolid OpenSCAD_Model
