G04 EAGLE Gerber RS-274X export*
G75*
%MOMM*%
%FSLAX34Y34*%
%LPD*%
%INSilkscreen Top*%
%IPPOS*%
%AMOC8*
5,1,8,0,0,1.08239X$1,22.5*%
G01*
%ADD10C,0.254000*%
%ADD11C,0.203200*%
%ADD12C,0.127000*%
%ADD13C,0.001000*%
%ADD14C,0.101600*%
%ADD15C,0.152400*%


D10*
X355600Y717550D02*
X355600Y704850D01*
X328930Y723900D02*
X382270Y723900D01*
X382270Y698500D01*
X328930Y698500D01*
X328930Y723900D01*
D11*
X229000Y685800D02*
X229008Y686414D01*
X229030Y687027D01*
X229068Y687639D01*
X229120Y688250D01*
X229188Y688860D01*
X229271Y689468D01*
X229368Y690074D01*
X229480Y690677D01*
X229607Y691278D01*
X229749Y691875D01*
X229906Y692468D01*
X230076Y693057D01*
X230262Y693642D01*
X230461Y694222D01*
X230675Y694797D01*
X230903Y695367D01*
X231145Y695931D01*
X231400Y696489D01*
X231669Y697040D01*
X231952Y697585D01*
X232248Y698122D01*
X232557Y698653D01*
X232879Y699175D01*
X233213Y699689D01*
X233560Y700195D01*
X233920Y700692D01*
X234291Y701181D01*
X234675Y701660D01*
X235070Y702129D01*
X235476Y702589D01*
X235894Y703039D01*
X236322Y703478D01*
X236761Y703906D01*
X237211Y704324D01*
X237671Y704730D01*
X238140Y705125D01*
X238619Y705509D01*
X239108Y705880D01*
X239605Y706240D01*
X240111Y706587D01*
X240625Y706921D01*
X241147Y707243D01*
X241678Y707552D01*
X242215Y707848D01*
X242760Y708131D01*
X243311Y708400D01*
X243869Y708655D01*
X244433Y708897D01*
X245003Y709125D01*
X245578Y709339D01*
X246158Y709538D01*
X246743Y709724D01*
X247332Y709894D01*
X247925Y710051D01*
X248522Y710193D01*
X249123Y710320D01*
X249726Y710432D01*
X250332Y710529D01*
X250940Y710612D01*
X251550Y710680D01*
X252161Y710732D01*
X252773Y710770D01*
X253386Y710792D01*
X254000Y710800D01*
X254614Y710792D01*
X255227Y710770D01*
X255839Y710732D01*
X256450Y710680D01*
X257060Y710612D01*
X257668Y710529D01*
X258274Y710432D01*
X258877Y710320D01*
X259478Y710193D01*
X260075Y710051D01*
X260668Y709894D01*
X261257Y709724D01*
X261842Y709538D01*
X262422Y709339D01*
X262997Y709125D01*
X263567Y708897D01*
X264131Y708655D01*
X264689Y708400D01*
X265240Y708131D01*
X265785Y707848D01*
X266322Y707552D01*
X266853Y707243D01*
X267375Y706921D01*
X267889Y706587D01*
X268395Y706240D01*
X268892Y705880D01*
X269381Y705509D01*
X269860Y705125D01*
X270329Y704730D01*
X270789Y704324D01*
X271239Y703906D01*
X271678Y703478D01*
X272106Y703039D01*
X272524Y702589D01*
X272930Y702129D01*
X273325Y701660D01*
X273709Y701181D01*
X274080Y700692D01*
X274440Y700195D01*
X274787Y699689D01*
X275121Y699175D01*
X275443Y698653D01*
X275752Y698122D01*
X276048Y697585D01*
X276331Y697040D01*
X276600Y696489D01*
X276855Y695931D01*
X277097Y695367D01*
X277325Y694797D01*
X277539Y694222D01*
X277738Y693642D01*
X277924Y693057D01*
X278094Y692468D01*
X278251Y691875D01*
X278393Y691278D01*
X278520Y690677D01*
X278632Y690074D01*
X278729Y689468D01*
X278812Y688860D01*
X278880Y688250D01*
X278932Y687639D01*
X278970Y687027D01*
X278992Y686414D01*
X279000Y685800D01*
X278992Y685186D01*
X278970Y684573D01*
X278932Y683961D01*
X278880Y683350D01*
X278812Y682740D01*
X278729Y682132D01*
X278632Y681526D01*
X278520Y680923D01*
X278393Y680322D01*
X278251Y679725D01*
X278094Y679132D01*
X277924Y678543D01*
X277738Y677958D01*
X277539Y677378D01*
X277325Y676803D01*
X277097Y676233D01*
X276855Y675669D01*
X276600Y675111D01*
X276331Y674560D01*
X276048Y674015D01*
X275752Y673478D01*
X275443Y672947D01*
X275121Y672425D01*
X274787Y671911D01*
X274440Y671405D01*
X274080Y670908D01*
X273709Y670419D01*
X273325Y669940D01*
X272930Y669471D01*
X272524Y669011D01*
X272106Y668561D01*
X271678Y668122D01*
X271239Y667694D01*
X270789Y667276D01*
X270329Y666870D01*
X269860Y666475D01*
X269381Y666091D01*
X268892Y665720D01*
X268395Y665360D01*
X267889Y665013D01*
X267375Y664679D01*
X266853Y664357D01*
X266322Y664048D01*
X265785Y663752D01*
X265240Y663469D01*
X264689Y663200D01*
X264131Y662945D01*
X263567Y662703D01*
X262997Y662475D01*
X262422Y662261D01*
X261842Y662062D01*
X261257Y661876D01*
X260668Y661706D01*
X260075Y661549D01*
X259478Y661407D01*
X258877Y661280D01*
X258274Y661168D01*
X257668Y661071D01*
X257060Y660988D01*
X256450Y660920D01*
X255839Y660868D01*
X255227Y660830D01*
X254614Y660808D01*
X254000Y660800D01*
X253386Y660808D01*
X252773Y660830D01*
X252161Y660868D01*
X251550Y660920D01*
X250940Y660988D01*
X250332Y661071D01*
X249726Y661168D01*
X249123Y661280D01*
X248522Y661407D01*
X247925Y661549D01*
X247332Y661706D01*
X246743Y661876D01*
X246158Y662062D01*
X245578Y662261D01*
X245003Y662475D01*
X244433Y662703D01*
X243869Y662945D01*
X243311Y663200D01*
X242760Y663469D01*
X242215Y663752D01*
X241678Y664048D01*
X241147Y664357D01*
X240625Y664679D01*
X240111Y665013D01*
X239605Y665360D01*
X239108Y665720D01*
X238619Y666091D01*
X238140Y666475D01*
X237671Y666870D01*
X237211Y667276D01*
X236761Y667694D01*
X236322Y668122D01*
X235894Y668561D01*
X235476Y669011D01*
X235070Y669471D01*
X234675Y669940D01*
X234291Y670419D01*
X233920Y670908D01*
X233560Y671405D01*
X233213Y671911D01*
X232879Y672425D01*
X232557Y672947D01*
X232248Y673478D01*
X231952Y674015D01*
X231669Y674560D01*
X231400Y675111D01*
X231145Y675669D01*
X230903Y676233D01*
X230675Y676803D01*
X230461Y677378D01*
X230262Y677958D01*
X230076Y678543D01*
X229906Y679132D01*
X229749Y679725D01*
X229607Y680322D01*
X229480Y680923D01*
X229368Y681526D01*
X229271Y682132D01*
X229188Y682740D01*
X229120Y683350D01*
X229068Y683961D01*
X229030Y684573D01*
X229008Y685186D01*
X229000Y685800D01*
X236420Y699770D02*
X246580Y699770D01*
X261420Y699770D02*
X271580Y699770D01*
X266500Y704850D02*
X266500Y694690D01*
D12*
X252504Y713105D02*
X251432Y713105D01*
X251367Y713107D01*
X251303Y713113D01*
X251239Y713123D01*
X251175Y713136D01*
X251113Y713154D01*
X251052Y713175D01*
X250992Y713199D01*
X250934Y713228D01*
X250877Y713260D01*
X250823Y713295D01*
X250771Y713333D01*
X250721Y713375D01*
X250674Y713419D01*
X250630Y713466D01*
X250588Y713516D01*
X250550Y713568D01*
X250515Y713622D01*
X250483Y713679D01*
X250454Y713737D01*
X250430Y713797D01*
X250409Y713858D01*
X250391Y713920D01*
X250378Y713984D01*
X250368Y714048D01*
X250362Y714112D01*
X250360Y714177D01*
X250359Y714177D02*
X250359Y716859D01*
X250360Y716859D02*
X250362Y716924D01*
X250368Y716988D01*
X250378Y717052D01*
X250391Y717116D01*
X250409Y717178D01*
X250430Y717239D01*
X250454Y717299D01*
X250483Y717357D01*
X250515Y717414D01*
X250550Y717468D01*
X250588Y717520D01*
X250630Y717570D01*
X250674Y717617D01*
X250721Y717661D01*
X250771Y717703D01*
X250823Y717741D01*
X250877Y717776D01*
X250934Y717808D01*
X250992Y717837D01*
X251052Y717861D01*
X251113Y717882D01*
X251175Y717900D01*
X251239Y717913D01*
X251303Y717923D01*
X251367Y717929D01*
X251432Y717931D01*
X252504Y717931D01*
X256434Y717931D02*
X256502Y717929D01*
X256569Y717923D01*
X256636Y717914D01*
X256703Y717901D01*
X256768Y717884D01*
X256833Y717863D01*
X256896Y717839D01*
X256958Y717811D01*
X257018Y717780D01*
X257076Y717746D01*
X257132Y717708D01*
X257187Y717668D01*
X257238Y717624D01*
X257287Y717577D01*
X257334Y717528D01*
X257378Y717477D01*
X257418Y717422D01*
X257456Y717366D01*
X257490Y717308D01*
X257521Y717248D01*
X257549Y717186D01*
X257573Y717123D01*
X257594Y717058D01*
X257611Y716993D01*
X257624Y716926D01*
X257633Y716859D01*
X257639Y716792D01*
X257641Y716724D01*
X256434Y717931D02*
X256356Y717929D01*
X256278Y717923D01*
X256201Y717913D01*
X256124Y717900D01*
X256048Y717882D01*
X255973Y717861D01*
X255899Y717836D01*
X255827Y717807D01*
X255756Y717775D01*
X255687Y717739D01*
X255619Y717700D01*
X255554Y717657D01*
X255491Y717611D01*
X255430Y717562D01*
X255372Y717510D01*
X255317Y717455D01*
X255264Y717398D01*
X255215Y717338D01*
X255168Y717275D01*
X255125Y717211D01*
X255085Y717144D01*
X255048Y717075D01*
X255015Y717004D01*
X254985Y716932D01*
X254959Y716859D01*
X257239Y715786D02*
X257288Y715835D01*
X257335Y715887D01*
X257378Y715942D01*
X257419Y715999D01*
X257457Y716058D01*
X257491Y716119D01*
X257522Y716182D01*
X257550Y716246D01*
X257574Y716312D01*
X257594Y716378D01*
X257611Y716446D01*
X257624Y716515D01*
X257633Y716584D01*
X257639Y716654D01*
X257641Y716724D01*
X257239Y715786D02*
X254960Y713105D01*
X257641Y713105D01*
D11*
X69850Y241300D02*
X57150Y241300D01*
X38900Y215900D02*
X38915Y217127D01*
X38960Y218353D01*
X39035Y219578D01*
X39141Y220801D01*
X39276Y222021D01*
X39441Y223237D01*
X39636Y224448D01*
X39861Y225655D01*
X40115Y226855D01*
X40398Y228049D01*
X40711Y229236D01*
X41053Y230414D01*
X41424Y231584D01*
X41823Y232744D01*
X42250Y233895D01*
X42706Y235034D01*
X43190Y236162D01*
X43701Y237278D01*
X44239Y238381D01*
X44804Y239470D01*
X45396Y240545D01*
X46014Y241605D01*
X46657Y242650D01*
X47327Y243679D01*
X48021Y244690D01*
X48740Y245685D01*
X49483Y246662D01*
X50249Y247620D01*
X51040Y248559D01*
X51852Y249478D01*
X52688Y250377D01*
X53545Y251255D01*
X54423Y252112D01*
X55322Y252948D01*
X56241Y253760D01*
X57180Y254551D01*
X58138Y255317D01*
X59115Y256060D01*
X60110Y256779D01*
X61121Y257473D01*
X62150Y258143D01*
X63195Y258786D01*
X64255Y259404D01*
X65330Y259996D01*
X66419Y260561D01*
X67522Y261099D01*
X68638Y261610D01*
X69766Y262094D01*
X70905Y262550D01*
X72056Y262977D01*
X73216Y263376D01*
X74386Y263747D01*
X75564Y264089D01*
X76751Y264402D01*
X77945Y264685D01*
X79145Y264939D01*
X80352Y265164D01*
X81563Y265359D01*
X82779Y265524D01*
X83999Y265659D01*
X85222Y265765D01*
X86447Y265840D01*
X87673Y265885D01*
X88900Y265900D01*
X90127Y265885D01*
X91353Y265840D01*
X92578Y265765D01*
X93801Y265659D01*
X95021Y265524D01*
X96237Y265359D01*
X97448Y265164D01*
X98655Y264939D01*
X99855Y264685D01*
X101049Y264402D01*
X102236Y264089D01*
X103414Y263747D01*
X104584Y263376D01*
X105744Y262977D01*
X106895Y262550D01*
X108034Y262094D01*
X109162Y261610D01*
X110278Y261099D01*
X111381Y260561D01*
X112470Y259996D01*
X113545Y259404D01*
X114605Y258786D01*
X115650Y258143D01*
X116679Y257473D01*
X117690Y256779D01*
X118685Y256060D01*
X119662Y255317D01*
X120620Y254551D01*
X121559Y253760D01*
X122478Y252948D01*
X123377Y252112D01*
X124255Y251255D01*
X125112Y250377D01*
X125948Y249478D01*
X126760Y248559D01*
X127551Y247620D01*
X128317Y246662D01*
X129060Y245685D01*
X129779Y244690D01*
X130473Y243679D01*
X131143Y242650D01*
X131786Y241605D01*
X132404Y240545D01*
X132996Y239470D01*
X133561Y238381D01*
X134099Y237278D01*
X134610Y236162D01*
X135094Y235034D01*
X135550Y233895D01*
X135977Y232744D01*
X136376Y231584D01*
X136747Y230414D01*
X137089Y229236D01*
X137402Y228049D01*
X137685Y226855D01*
X137939Y225655D01*
X138164Y224448D01*
X138359Y223237D01*
X138524Y222021D01*
X138659Y220801D01*
X138765Y219578D01*
X138840Y218353D01*
X138885Y217127D01*
X138900Y215900D01*
X138885Y214673D01*
X138840Y213447D01*
X138765Y212222D01*
X138659Y210999D01*
X138524Y209779D01*
X138359Y208563D01*
X138164Y207352D01*
X137939Y206145D01*
X137685Y204945D01*
X137402Y203751D01*
X137089Y202564D01*
X136747Y201386D01*
X136376Y200216D01*
X135977Y199056D01*
X135550Y197905D01*
X135094Y196766D01*
X134610Y195638D01*
X134099Y194522D01*
X133561Y193419D01*
X132996Y192330D01*
X132404Y191255D01*
X131786Y190195D01*
X131143Y189150D01*
X130473Y188121D01*
X129779Y187110D01*
X129060Y186115D01*
X128317Y185138D01*
X127551Y184180D01*
X126760Y183241D01*
X125948Y182322D01*
X125112Y181423D01*
X124255Y180545D01*
X123377Y179688D01*
X122478Y178852D01*
X121559Y178040D01*
X120620Y177249D01*
X119662Y176483D01*
X118685Y175740D01*
X117690Y175021D01*
X116679Y174327D01*
X115650Y173657D01*
X114605Y173014D01*
X113545Y172396D01*
X112470Y171804D01*
X111381Y171239D01*
X110278Y170701D01*
X109162Y170190D01*
X108034Y169706D01*
X106895Y169250D01*
X105744Y168823D01*
X104584Y168424D01*
X103414Y168053D01*
X102236Y167711D01*
X101049Y167398D01*
X99855Y167115D01*
X98655Y166861D01*
X97448Y166636D01*
X96237Y166441D01*
X95021Y166276D01*
X93801Y166141D01*
X92578Y166035D01*
X91353Y165960D01*
X90127Y165915D01*
X88900Y165900D01*
X87673Y165915D01*
X86447Y165960D01*
X85222Y166035D01*
X83999Y166141D01*
X82779Y166276D01*
X81563Y166441D01*
X80352Y166636D01*
X79145Y166861D01*
X77945Y167115D01*
X76751Y167398D01*
X75564Y167711D01*
X74386Y168053D01*
X73216Y168424D01*
X72056Y168823D01*
X70905Y169250D01*
X69766Y169706D01*
X68638Y170190D01*
X67522Y170701D01*
X66419Y171239D01*
X65330Y171804D01*
X64255Y172396D01*
X63195Y173014D01*
X62150Y173657D01*
X61121Y174327D01*
X60110Y175021D01*
X59115Y175740D01*
X58138Y176483D01*
X57180Y177249D01*
X56241Y178040D01*
X55322Y178852D01*
X54423Y179688D01*
X53545Y180545D01*
X52688Y181423D01*
X51852Y182322D01*
X51040Y183241D01*
X50249Y184180D01*
X49483Y185138D01*
X48740Y186115D01*
X48021Y187110D01*
X47327Y188121D01*
X46657Y189150D01*
X46014Y190195D01*
X45396Y191255D01*
X44804Y192330D01*
X44239Y193419D01*
X43701Y194522D01*
X43190Y195638D01*
X42706Y196766D01*
X42250Y197905D01*
X41823Y199056D01*
X41424Y200216D01*
X41053Y201386D01*
X40711Y202564D01*
X40398Y203751D01*
X40115Y204945D01*
X39861Y206145D01*
X39636Y207352D01*
X39441Y208563D01*
X39276Y209779D01*
X39141Y210999D01*
X39035Y212222D01*
X38960Y213447D01*
X38915Y214673D01*
X38900Y215900D01*
X107950Y241300D02*
X120650Y241300D01*
X114300Y247650D02*
X114300Y234950D01*
D12*
X87404Y268605D02*
X86332Y268605D01*
X86267Y268607D01*
X86203Y268613D01*
X86139Y268623D01*
X86075Y268636D01*
X86013Y268654D01*
X85952Y268675D01*
X85892Y268699D01*
X85834Y268728D01*
X85777Y268760D01*
X85723Y268795D01*
X85671Y268833D01*
X85621Y268875D01*
X85574Y268919D01*
X85530Y268966D01*
X85488Y269016D01*
X85450Y269068D01*
X85415Y269122D01*
X85383Y269179D01*
X85354Y269237D01*
X85330Y269297D01*
X85309Y269358D01*
X85291Y269420D01*
X85278Y269484D01*
X85268Y269548D01*
X85262Y269612D01*
X85260Y269677D01*
X85259Y269677D02*
X85259Y272359D01*
X85260Y272359D02*
X85262Y272424D01*
X85268Y272488D01*
X85278Y272552D01*
X85291Y272616D01*
X85309Y272678D01*
X85330Y272739D01*
X85354Y272799D01*
X85383Y272857D01*
X85415Y272914D01*
X85450Y272968D01*
X85488Y273020D01*
X85530Y273070D01*
X85574Y273117D01*
X85621Y273161D01*
X85671Y273203D01*
X85723Y273241D01*
X85777Y273276D01*
X85834Y273308D01*
X85892Y273337D01*
X85952Y273361D01*
X86013Y273382D01*
X86075Y273400D01*
X86139Y273413D01*
X86203Y273423D01*
X86267Y273429D01*
X86332Y273431D01*
X87404Y273431D01*
X89860Y268605D02*
X91200Y268605D01*
X91271Y268607D01*
X91343Y268613D01*
X91413Y268622D01*
X91483Y268635D01*
X91553Y268652D01*
X91621Y268673D01*
X91688Y268697D01*
X91754Y268725D01*
X91818Y268756D01*
X91881Y268791D01*
X91941Y268829D01*
X92000Y268870D01*
X92056Y268914D01*
X92110Y268961D01*
X92161Y269010D01*
X92209Y269063D01*
X92255Y269118D01*
X92297Y269175D01*
X92337Y269235D01*
X92373Y269296D01*
X92406Y269360D01*
X92435Y269425D01*
X92461Y269491D01*
X92484Y269559D01*
X92503Y269628D01*
X92518Y269698D01*
X92529Y269768D01*
X92537Y269839D01*
X92541Y269910D01*
X92541Y269982D01*
X92537Y270053D01*
X92529Y270124D01*
X92518Y270194D01*
X92503Y270264D01*
X92484Y270333D01*
X92461Y270401D01*
X92435Y270467D01*
X92406Y270532D01*
X92373Y270596D01*
X92337Y270657D01*
X92297Y270717D01*
X92255Y270774D01*
X92209Y270829D01*
X92161Y270882D01*
X92110Y270931D01*
X92056Y270978D01*
X92000Y271022D01*
X91941Y271063D01*
X91881Y271101D01*
X91818Y271136D01*
X91754Y271167D01*
X91688Y271195D01*
X91621Y271219D01*
X91553Y271240D01*
X91483Y271257D01*
X91413Y271270D01*
X91343Y271279D01*
X91271Y271285D01*
X91200Y271287D01*
X91468Y273431D02*
X89860Y273431D01*
X91468Y273431D02*
X91533Y273429D01*
X91597Y273423D01*
X91661Y273413D01*
X91725Y273400D01*
X91787Y273382D01*
X91848Y273361D01*
X91908Y273337D01*
X91966Y273308D01*
X92023Y273276D01*
X92077Y273241D01*
X92129Y273203D01*
X92179Y273161D01*
X92226Y273117D01*
X92270Y273070D01*
X92312Y273020D01*
X92350Y272968D01*
X92385Y272914D01*
X92417Y272857D01*
X92446Y272799D01*
X92470Y272739D01*
X92491Y272678D01*
X92509Y272616D01*
X92522Y272552D01*
X92532Y272488D01*
X92538Y272424D01*
X92540Y272359D01*
X92538Y272294D01*
X92532Y272230D01*
X92522Y272166D01*
X92509Y272102D01*
X92491Y272040D01*
X92470Y271979D01*
X92446Y271919D01*
X92417Y271861D01*
X92385Y271804D01*
X92350Y271750D01*
X92312Y271698D01*
X92270Y271648D01*
X92226Y271601D01*
X92179Y271557D01*
X92129Y271515D01*
X92077Y271477D01*
X92023Y271442D01*
X91966Y271410D01*
X91908Y271381D01*
X91848Y271357D01*
X91787Y271336D01*
X91725Y271318D01*
X91661Y271305D01*
X91597Y271295D01*
X91533Y271289D01*
X91468Y271287D01*
X91468Y271286D02*
X90396Y271286D01*
D11*
X501650Y800100D02*
X514350Y800100D01*
X501650Y800100D02*
X495300Y806450D01*
X495300Y819150D02*
X501650Y825500D01*
X495300Y806450D02*
X488950Y800100D01*
X476250Y800100D01*
X469900Y806450D01*
X469900Y819150D02*
X476250Y825500D01*
X488950Y825500D01*
X495300Y819150D01*
X520700Y819150D02*
X520700Y806450D01*
X514350Y800100D01*
X520700Y819150D02*
X514350Y825500D01*
X501650Y825500D01*
X469900Y819150D02*
X469900Y806450D01*
D12*
X514436Y798195D02*
X514436Y794441D01*
X514434Y794376D01*
X514428Y794312D01*
X514418Y794248D01*
X514405Y794184D01*
X514387Y794122D01*
X514366Y794061D01*
X514342Y794001D01*
X514313Y793943D01*
X514281Y793886D01*
X514246Y793832D01*
X514208Y793780D01*
X514166Y793730D01*
X514122Y793683D01*
X514075Y793639D01*
X514025Y793597D01*
X513973Y793559D01*
X513919Y793524D01*
X513862Y793492D01*
X513804Y793463D01*
X513744Y793439D01*
X513683Y793418D01*
X513621Y793400D01*
X513557Y793387D01*
X513493Y793377D01*
X513429Y793371D01*
X513364Y793369D01*
X512827Y793369D01*
X518859Y798195D02*
X518927Y798193D01*
X518994Y798187D01*
X519061Y798178D01*
X519128Y798165D01*
X519193Y798148D01*
X519258Y798127D01*
X519321Y798103D01*
X519383Y798075D01*
X519443Y798044D01*
X519501Y798010D01*
X519557Y797972D01*
X519612Y797932D01*
X519663Y797888D01*
X519712Y797841D01*
X519759Y797792D01*
X519803Y797741D01*
X519843Y797686D01*
X519881Y797630D01*
X519915Y797572D01*
X519946Y797512D01*
X519974Y797450D01*
X519998Y797387D01*
X520019Y797322D01*
X520036Y797257D01*
X520049Y797190D01*
X520058Y797123D01*
X520064Y797056D01*
X520066Y796988D01*
X518859Y798195D02*
X518781Y798193D01*
X518703Y798187D01*
X518626Y798177D01*
X518549Y798164D01*
X518473Y798146D01*
X518398Y798125D01*
X518324Y798100D01*
X518252Y798071D01*
X518181Y798039D01*
X518112Y798003D01*
X518044Y797964D01*
X517979Y797921D01*
X517916Y797875D01*
X517855Y797826D01*
X517797Y797774D01*
X517742Y797719D01*
X517689Y797662D01*
X517640Y797602D01*
X517593Y797539D01*
X517550Y797475D01*
X517510Y797408D01*
X517473Y797339D01*
X517440Y797268D01*
X517410Y797196D01*
X517384Y797123D01*
X519663Y796050D02*
X519712Y796099D01*
X519759Y796151D01*
X519802Y796206D01*
X519843Y796263D01*
X519881Y796322D01*
X519915Y796383D01*
X519946Y796446D01*
X519974Y796510D01*
X519998Y796576D01*
X520018Y796642D01*
X520035Y796710D01*
X520048Y796779D01*
X520057Y796848D01*
X520063Y796918D01*
X520065Y796988D01*
X519663Y796050D02*
X517384Y793369D01*
X520065Y793369D01*
D11*
X152400Y693420D02*
X101600Y693420D01*
X152400Y693420D02*
X152400Y685800D01*
X152400Y678180D01*
X101600Y678180D01*
X101600Y685800D01*
X101600Y693420D01*
X152400Y685800D02*
X154940Y685800D01*
X101600Y685800D02*
X99060Y685800D01*
D12*
X121539Y691908D02*
X126365Y691908D01*
X121539Y691908D02*
X121539Y693249D01*
X121541Y693320D01*
X121547Y693392D01*
X121556Y693462D01*
X121569Y693532D01*
X121586Y693602D01*
X121607Y693670D01*
X121631Y693737D01*
X121659Y693803D01*
X121690Y693867D01*
X121725Y693930D01*
X121763Y693990D01*
X121804Y694049D01*
X121848Y694105D01*
X121895Y694159D01*
X121944Y694210D01*
X121997Y694258D01*
X122052Y694304D01*
X122109Y694346D01*
X122169Y694386D01*
X122230Y694422D01*
X122294Y694455D01*
X122359Y694484D01*
X122425Y694510D01*
X122493Y694533D01*
X122562Y694552D01*
X122632Y694567D01*
X122702Y694578D01*
X122773Y694586D01*
X122844Y694590D01*
X122916Y694590D01*
X122987Y694586D01*
X123058Y694578D01*
X123128Y694567D01*
X123198Y694552D01*
X123267Y694533D01*
X123335Y694510D01*
X123401Y694484D01*
X123466Y694455D01*
X123530Y694422D01*
X123591Y694386D01*
X123651Y694346D01*
X123708Y694304D01*
X123763Y694258D01*
X123816Y694210D01*
X123865Y694159D01*
X123912Y694105D01*
X123956Y694049D01*
X123997Y693990D01*
X124035Y693930D01*
X124070Y693867D01*
X124101Y693803D01*
X124129Y693737D01*
X124153Y693670D01*
X124174Y693602D01*
X124191Y693532D01*
X124204Y693462D01*
X124213Y693392D01*
X124219Y693320D01*
X124221Y693249D01*
X124220Y693249D02*
X124220Y691908D01*
X124220Y693517D02*
X126365Y694589D01*
X125293Y697331D02*
X121539Y698403D01*
X125293Y697331D02*
X125293Y700012D01*
X124220Y699208D02*
X126365Y699208D01*
D11*
X101600Y617220D02*
X152400Y617220D01*
X152400Y609600D01*
X152400Y601980D01*
X101600Y601980D01*
X101600Y609600D01*
X101600Y617220D01*
X152400Y609600D02*
X154940Y609600D01*
X101600Y609600D02*
X99060Y609600D01*
D12*
X122948Y620395D02*
X122948Y625221D01*
X124289Y625221D01*
X124360Y625219D01*
X124432Y625213D01*
X124502Y625204D01*
X124572Y625191D01*
X124642Y625174D01*
X124710Y625153D01*
X124777Y625129D01*
X124843Y625101D01*
X124907Y625070D01*
X124970Y625035D01*
X125030Y624997D01*
X125089Y624956D01*
X125145Y624912D01*
X125199Y624865D01*
X125250Y624816D01*
X125298Y624763D01*
X125344Y624708D01*
X125386Y624651D01*
X125426Y624591D01*
X125462Y624530D01*
X125495Y624466D01*
X125524Y624401D01*
X125550Y624335D01*
X125573Y624267D01*
X125592Y624198D01*
X125607Y624128D01*
X125618Y624058D01*
X125626Y623987D01*
X125630Y623916D01*
X125630Y623844D01*
X125626Y623773D01*
X125618Y623702D01*
X125607Y623632D01*
X125592Y623562D01*
X125573Y623493D01*
X125550Y623425D01*
X125524Y623359D01*
X125495Y623294D01*
X125462Y623230D01*
X125426Y623169D01*
X125386Y623109D01*
X125344Y623052D01*
X125298Y622997D01*
X125250Y622944D01*
X125199Y622895D01*
X125145Y622848D01*
X125089Y622804D01*
X125030Y622763D01*
X124970Y622725D01*
X124907Y622690D01*
X124843Y622659D01*
X124777Y622631D01*
X124710Y622607D01*
X124642Y622586D01*
X124572Y622569D01*
X124502Y622556D01*
X124432Y622547D01*
X124360Y622541D01*
X124289Y622539D01*
X124289Y622540D02*
X122948Y622540D01*
X124557Y622540D02*
X125629Y620395D01*
X128371Y620395D02*
X129979Y620395D01*
X130044Y620397D01*
X130108Y620403D01*
X130172Y620413D01*
X130236Y620426D01*
X130298Y620444D01*
X130359Y620465D01*
X130419Y620489D01*
X130477Y620518D01*
X130534Y620550D01*
X130588Y620585D01*
X130640Y620623D01*
X130690Y620665D01*
X130737Y620709D01*
X130781Y620756D01*
X130823Y620806D01*
X130861Y620858D01*
X130896Y620912D01*
X130928Y620969D01*
X130957Y621027D01*
X130981Y621087D01*
X131002Y621148D01*
X131020Y621210D01*
X131033Y621274D01*
X131043Y621338D01*
X131049Y621402D01*
X131051Y621467D01*
X131052Y621467D02*
X131052Y622004D01*
X131051Y622004D02*
X131049Y622069D01*
X131043Y622133D01*
X131033Y622197D01*
X131020Y622261D01*
X131002Y622323D01*
X130981Y622384D01*
X130957Y622444D01*
X130928Y622502D01*
X130896Y622559D01*
X130861Y622613D01*
X130823Y622665D01*
X130781Y622715D01*
X130737Y622762D01*
X130690Y622806D01*
X130640Y622848D01*
X130588Y622886D01*
X130534Y622921D01*
X130477Y622953D01*
X130419Y622982D01*
X130359Y623006D01*
X130298Y623027D01*
X130236Y623045D01*
X130172Y623058D01*
X130108Y623068D01*
X130044Y623074D01*
X129979Y623076D01*
X128371Y623076D01*
X128371Y625221D01*
X131052Y625221D01*
D13*
X44000Y787200D02*
X44000Y330200D01*
X44000Y787200D02*
X77000Y787200D01*
X131000Y787200D01*
X210000Y787200D01*
X210000Y330200D01*
X44000Y330200D01*
X131000Y787200D02*
X131000Y837200D01*
X77000Y837200D02*
X77000Y787200D01*
X54000Y837200D02*
X154000Y837200D01*
X57000Y1107200D02*
X57014Y1108353D01*
X57057Y1109506D01*
X57127Y1110658D01*
X57226Y1111807D01*
X57353Y1112953D01*
X57509Y1114096D01*
X57692Y1115235D01*
X57903Y1116369D01*
X58142Y1117498D01*
X58409Y1118620D01*
X58703Y1119735D01*
X59024Y1120843D01*
X59372Y1121943D01*
X59747Y1123034D01*
X60149Y1124115D01*
X60578Y1125186D01*
X61032Y1126246D01*
X61513Y1127295D01*
X62018Y1128332D01*
X62550Y1129356D01*
X63106Y1130366D01*
X63687Y1131363D01*
X64292Y1132345D01*
X64921Y1133312D01*
X65574Y1134263D01*
X66249Y1135198D01*
X66948Y1136116D01*
X67669Y1137016D01*
X68411Y1137899D01*
X69175Y1138763D01*
X69960Y1139608D01*
X70766Y1140434D01*
X71592Y1141240D01*
X72437Y1142025D01*
X73301Y1142789D01*
X74184Y1143531D01*
X75084Y1144252D01*
X76002Y1144951D01*
X76937Y1145626D01*
X77888Y1146279D01*
X78855Y1146908D01*
X79837Y1147513D01*
X80834Y1148094D01*
X81844Y1148650D01*
X82868Y1149182D01*
X83905Y1149687D01*
X84954Y1150168D01*
X86014Y1150622D01*
X87085Y1151051D01*
X88166Y1151453D01*
X89257Y1151828D01*
X90357Y1152176D01*
X91465Y1152497D01*
X92580Y1152791D01*
X93702Y1153058D01*
X94831Y1153297D01*
X95965Y1153508D01*
X97104Y1153691D01*
X98247Y1153847D01*
X99393Y1153974D01*
X100542Y1154073D01*
X101694Y1154143D01*
X102847Y1154186D01*
X104000Y1154200D01*
X105153Y1154186D01*
X106306Y1154143D01*
X107458Y1154073D01*
X108607Y1153974D01*
X109753Y1153847D01*
X110896Y1153691D01*
X112035Y1153508D01*
X113169Y1153297D01*
X114298Y1153058D01*
X115420Y1152791D01*
X116535Y1152497D01*
X117643Y1152176D01*
X118743Y1151828D01*
X119834Y1151453D01*
X120915Y1151051D01*
X121986Y1150622D01*
X123046Y1150168D01*
X124095Y1149687D01*
X125132Y1149182D01*
X126156Y1148650D01*
X127166Y1148094D01*
X128163Y1147513D01*
X129145Y1146908D01*
X130112Y1146279D01*
X131063Y1145626D01*
X131998Y1144951D01*
X132916Y1144252D01*
X133816Y1143531D01*
X134699Y1142789D01*
X135563Y1142025D01*
X136408Y1141240D01*
X137234Y1140434D01*
X138040Y1139608D01*
X138825Y1138763D01*
X139589Y1137899D01*
X140331Y1137016D01*
X141052Y1136116D01*
X141751Y1135198D01*
X142426Y1134263D01*
X143079Y1133312D01*
X143708Y1132345D01*
X144313Y1131363D01*
X144894Y1130366D01*
X145450Y1129356D01*
X145982Y1128332D01*
X146487Y1127295D01*
X146968Y1126246D01*
X147422Y1125186D01*
X147851Y1124115D01*
X148253Y1123034D01*
X148628Y1121943D01*
X148976Y1120843D01*
X149297Y1119735D01*
X149591Y1118620D01*
X149858Y1117498D01*
X150097Y1116369D01*
X150308Y1115235D01*
X150491Y1114096D01*
X150647Y1112953D01*
X150774Y1111807D01*
X150873Y1110658D01*
X150943Y1109506D01*
X150986Y1108353D01*
X151000Y1107200D01*
X150986Y1106047D01*
X150943Y1104894D01*
X150873Y1103742D01*
X150774Y1102593D01*
X150647Y1101447D01*
X150491Y1100304D01*
X150308Y1099165D01*
X150097Y1098031D01*
X149858Y1096902D01*
X149591Y1095780D01*
X149297Y1094665D01*
X148976Y1093557D01*
X148628Y1092457D01*
X148253Y1091366D01*
X147851Y1090285D01*
X147422Y1089214D01*
X146968Y1088154D01*
X146487Y1087105D01*
X145982Y1086068D01*
X145450Y1085044D01*
X144894Y1084034D01*
X144313Y1083037D01*
X143708Y1082055D01*
X143079Y1081088D01*
X142426Y1080137D01*
X141751Y1079202D01*
X141052Y1078284D01*
X140331Y1077384D01*
X139589Y1076501D01*
X138825Y1075637D01*
X138040Y1074792D01*
X137234Y1073966D01*
X136408Y1073160D01*
X135563Y1072375D01*
X134699Y1071611D01*
X133816Y1070869D01*
X132916Y1070148D01*
X131998Y1069449D01*
X131063Y1068774D01*
X130112Y1068121D01*
X129145Y1067492D01*
X128163Y1066887D01*
X127166Y1066306D01*
X126156Y1065750D01*
X125132Y1065218D01*
X124095Y1064713D01*
X123046Y1064232D01*
X121986Y1063778D01*
X120915Y1063349D01*
X119834Y1062947D01*
X118743Y1062572D01*
X117643Y1062224D01*
X116535Y1061903D01*
X115420Y1061609D01*
X114298Y1061342D01*
X113169Y1061103D01*
X112035Y1060892D01*
X110896Y1060709D01*
X109753Y1060553D01*
X108607Y1060426D01*
X107458Y1060327D01*
X106306Y1060257D01*
X105153Y1060214D01*
X104000Y1060200D01*
X102847Y1060214D01*
X101694Y1060257D01*
X100542Y1060327D01*
X99393Y1060426D01*
X98247Y1060553D01*
X97104Y1060709D01*
X95965Y1060892D01*
X94831Y1061103D01*
X93702Y1061342D01*
X92580Y1061609D01*
X91465Y1061903D01*
X90357Y1062224D01*
X89257Y1062572D01*
X88166Y1062947D01*
X87085Y1063349D01*
X86014Y1063778D01*
X84954Y1064232D01*
X83905Y1064713D01*
X82868Y1065218D01*
X81844Y1065750D01*
X80834Y1066306D01*
X79837Y1066887D01*
X78855Y1067492D01*
X77888Y1068121D01*
X76937Y1068774D01*
X76002Y1069449D01*
X75084Y1070148D01*
X74184Y1070869D01*
X73301Y1071611D01*
X72437Y1072375D01*
X71592Y1073160D01*
X70766Y1073966D01*
X69960Y1074792D01*
X69175Y1075637D01*
X68411Y1076501D01*
X67669Y1077384D01*
X66948Y1078284D01*
X66249Y1079202D01*
X65574Y1080137D01*
X64921Y1081088D01*
X64292Y1082055D01*
X63687Y1083037D01*
X63106Y1084034D01*
X62550Y1085044D01*
X62018Y1086068D01*
X61513Y1087105D01*
X61032Y1088154D01*
X60578Y1089214D01*
X60149Y1090285D01*
X59747Y1091366D01*
X59372Y1092457D01*
X59024Y1093557D01*
X58703Y1094665D01*
X58409Y1095780D01*
X58142Y1096902D01*
X57903Y1098031D01*
X57692Y1099165D01*
X57509Y1100304D01*
X57353Y1101447D01*
X57226Y1102593D01*
X57127Y1103742D01*
X57057Y1104894D01*
X57014Y1106047D01*
X57000Y1107200D01*
X151000Y1107200D02*
X151000Y935200D01*
X57000Y935200D02*
X57000Y1107200D01*
X54000Y935200D02*
X154000Y935200D01*
X154000Y837200D01*
X54000Y837200D02*
X54000Y935200D01*
X64000Y1897200D02*
X64012Y1898174D01*
X64047Y1899148D01*
X64107Y1900120D01*
X64190Y1901090D01*
X64296Y1902059D01*
X64426Y1903024D01*
X64580Y1903986D01*
X64757Y1904944D01*
X64957Y1905897D01*
X65180Y1906845D01*
X65427Y1907788D01*
X65696Y1908724D01*
X65988Y1909653D01*
X66302Y1910575D01*
X66639Y1911489D01*
X66998Y1912395D01*
X67379Y1913291D01*
X67782Y1914178D01*
X68206Y1915055D01*
X68652Y1915921D01*
X69118Y1916777D01*
X69605Y1917620D01*
X70113Y1918452D01*
X70640Y1919271D01*
X71187Y1920077D01*
X71754Y1920869D01*
X72340Y1921647D01*
X72945Y1922411D01*
X73568Y1923159D01*
X74209Y1923893D01*
X74868Y1924610D01*
X75544Y1925312D01*
X76237Y1925996D01*
X76946Y1926664D01*
X77672Y1927314D01*
X78413Y1927946D01*
X79169Y1928560D01*
X79940Y1929155D01*
X80726Y1929732D01*
X81525Y1930289D01*
X82337Y1930826D01*
X83162Y1931344D01*
X84000Y1931841D01*
X84849Y1932318D01*
X85710Y1932774D01*
X86582Y1933209D01*
X87464Y1933622D01*
X88356Y1934014D01*
X89257Y1934384D01*
X90167Y1934732D01*
X91085Y1935058D01*
X92010Y1935361D01*
X92943Y1935642D01*
X93883Y1935899D01*
X94828Y1936134D01*
X95779Y1936346D01*
X96735Y1936535D01*
X97695Y1936700D01*
X98658Y1936842D01*
X99625Y1936960D01*
X100595Y1937055D01*
X101566Y1937126D01*
X102539Y1937173D01*
X103513Y1937197D01*
X104487Y1937197D01*
X105461Y1937173D01*
X106434Y1937126D01*
X107405Y1937055D01*
X108375Y1936960D01*
X109342Y1936842D01*
X110305Y1936700D01*
X111265Y1936535D01*
X112221Y1936346D01*
X113172Y1936134D01*
X114117Y1935899D01*
X115057Y1935642D01*
X115990Y1935361D01*
X116915Y1935058D01*
X117833Y1934732D01*
X118743Y1934384D01*
X119644Y1934014D01*
X120536Y1933622D01*
X121418Y1933209D01*
X122290Y1932774D01*
X123151Y1932318D01*
X124000Y1931841D01*
X124838Y1931344D01*
X125663Y1930826D01*
X126475Y1930289D01*
X127274Y1929732D01*
X128060Y1929155D01*
X128831Y1928560D01*
X129587Y1927946D01*
X130328Y1927314D01*
X131054Y1926664D01*
X131763Y1925996D01*
X132456Y1925312D01*
X133132Y1924610D01*
X133791Y1923893D01*
X134432Y1923159D01*
X135055Y1922411D01*
X135660Y1921647D01*
X136246Y1920869D01*
X136813Y1920077D01*
X137360Y1919271D01*
X137887Y1918452D01*
X138395Y1917620D01*
X138882Y1916777D01*
X139348Y1915921D01*
X139794Y1915055D01*
X140218Y1914178D01*
X140621Y1913291D01*
X141002Y1912395D01*
X141361Y1911489D01*
X141698Y1910575D01*
X142012Y1909653D01*
X142304Y1908724D01*
X142573Y1907788D01*
X142820Y1906845D01*
X143043Y1905897D01*
X143243Y1904944D01*
X143420Y1903986D01*
X143574Y1903024D01*
X143704Y1902059D01*
X143810Y1901090D01*
X143893Y1900120D01*
X143953Y1899148D01*
X143988Y1898174D01*
X144000Y1897200D01*
X151000Y1107200D01*
X57000Y1107200D02*
X64000Y1897200D01*
X84205Y342900D02*
X84207Y343037D01*
X84213Y343173D01*
X84223Y343309D01*
X84237Y343445D01*
X84255Y343580D01*
X84276Y343715D01*
X84302Y343849D01*
X84332Y343983D01*
X84365Y344115D01*
X84402Y344247D01*
X84443Y344377D01*
X84488Y344506D01*
X84537Y344633D01*
X84589Y344760D01*
X84645Y344884D01*
X84704Y345007D01*
X84767Y345128D01*
X84834Y345247D01*
X84904Y345365D01*
X84977Y345480D01*
X85054Y345593D01*
X85134Y345704D01*
X85217Y345812D01*
X85303Y345918D01*
X85393Y346021D01*
X85485Y346122D01*
X85580Y346220D01*
X85678Y346315D01*
X85779Y346407D01*
X85882Y346497D01*
X85988Y346583D01*
X86096Y346666D01*
X86207Y346746D01*
X86320Y346823D01*
X86435Y346896D01*
X86552Y346966D01*
X86672Y347033D01*
X86793Y347096D01*
X86916Y347155D01*
X87040Y347211D01*
X87167Y347263D01*
X87294Y347312D01*
X87423Y347357D01*
X87553Y347398D01*
X87685Y347435D01*
X87817Y347468D01*
X87951Y347498D01*
X88085Y347524D01*
X88220Y347545D01*
X88355Y347563D01*
X88491Y347577D01*
X88627Y347587D01*
X88763Y347593D01*
X88900Y347595D01*
X89037Y347593D01*
X89173Y347587D01*
X89309Y347577D01*
X89445Y347563D01*
X89580Y347545D01*
X89715Y347524D01*
X89849Y347498D01*
X89983Y347468D01*
X90115Y347435D01*
X90247Y347398D01*
X90377Y347357D01*
X90506Y347312D01*
X90633Y347263D01*
X90760Y347211D01*
X90884Y347155D01*
X91007Y347096D01*
X91128Y347033D01*
X91247Y346966D01*
X91365Y346896D01*
X91480Y346823D01*
X91593Y346746D01*
X91704Y346666D01*
X91812Y346583D01*
X91918Y346497D01*
X92021Y346407D01*
X92122Y346315D01*
X92220Y346220D01*
X92315Y346122D01*
X92407Y346021D01*
X92497Y345918D01*
X92583Y345812D01*
X92666Y345704D01*
X92746Y345593D01*
X92823Y345480D01*
X92896Y345365D01*
X92966Y345247D01*
X93033Y345128D01*
X93096Y345007D01*
X93155Y344884D01*
X93211Y344760D01*
X93263Y344633D01*
X93312Y344506D01*
X93357Y344377D01*
X93398Y344247D01*
X93435Y344115D01*
X93468Y343983D01*
X93498Y343849D01*
X93524Y343715D01*
X93545Y343580D01*
X93563Y343445D01*
X93577Y343309D01*
X93587Y343173D01*
X93593Y343037D01*
X93595Y342900D01*
X93593Y342763D01*
X93587Y342627D01*
X93577Y342491D01*
X93563Y342355D01*
X93545Y342220D01*
X93524Y342085D01*
X93498Y341951D01*
X93468Y341817D01*
X93435Y341685D01*
X93398Y341553D01*
X93357Y341423D01*
X93312Y341294D01*
X93263Y341167D01*
X93211Y341040D01*
X93155Y340916D01*
X93096Y340793D01*
X93033Y340672D01*
X92966Y340552D01*
X92896Y340435D01*
X92823Y340320D01*
X92746Y340207D01*
X92666Y340096D01*
X92583Y339988D01*
X92497Y339882D01*
X92407Y339779D01*
X92315Y339678D01*
X92220Y339580D01*
X92122Y339485D01*
X92021Y339393D01*
X91918Y339303D01*
X91812Y339217D01*
X91704Y339134D01*
X91593Y339054D01*
X91480Y338977D01*
X91365Y338904D01*
X91248Y338834D01*
X91128Y338767D01*
X91007Y338704D01*
X90884Y338645D01*
X90760Y338589D01*
X90633Y338537D01*
X90506Y338488D01*
X90377Y338443D01*
X90247Y338402D01*
X90115Y338365D01*
X89983Y338332D01*
X89849Y338302D01*
X89715Y338276D01*
X89580Y338255D01*
X89445Y338237D01*
X89309Y338223D01*
X89173Y338213D01*
X89037Y338207D01*
X88900Y338205D01*
X88763Y338207D01*
X88627Y338213D01*
X88491Y338223D01*
X88355Y338237D01*
X88220Y338255D01*
X88085Y338276D01*
X87951Y338302D01*
X87817Y338332D01*
X87685Y338365D01*
X87553Y338402D01*
X87423Y338443D01*
X87294Y338488D01*
X87167Y338537D01*
X87040Y338589D01*
X86916Y338645D01*
X86793Y338704D01*
X86672Y338767D01*
X86552Y338834D01*
X86435Y338904D01*
X86320Y338977D01*
X86207Y339054D01*
X86096Y339134D01*
X85988Y339217D01*
X85882Y339303D01*
X85779Y339393D01*
X85678Y339485D01*
X85580Y339580D01*
X85485Y339678D01*
X85393Y339779D01*
X85303Y339882D01*
X85217Y339988D01*
X85134Y340096D01*
X85054Y340207D01*
X84977Y340320D01*
X84904Y340435D01*
X84834Y340552D01*
X84767Y340672D01*
X84704Y340793D01*
X84645Y340916D01*
X84589Y341040D01*
X84537Y341167D01*
X84488Y341294D01*
X84443Y341423D01*
X84402Y341553D01*
X84365Y341685D01*
X84332Y341817D01*
X84302Y341951D01*
X84276Y342085D01*
X84255Y342220D01*
X84237Y342355D01*
X84223Y342491D01*
X84213Y342627D01*
X84207Y342763D01*
X84205Y342900D01*
D14*
X66604Y337058D02*
X64008Y340304D01*
X75692Y340304D01*
X75692Y343549D02*
X75692Y337058D01*
X75692Y432308D02*
X67903Y432308D01*
X67903Y435554D01*
X67905Y435641D01*
X67911Y435729D01*
X67921Y435815D01*
X67934Y435902D01*
X67952Y435987D01*
X67973Y436072D01*
X67998Y436156D01*
X68027Y436238D01*
X68060Y436319D01*
X68096Y436399D01*
X68135Y436477D01*
X68179Y436553D01*
X68225Y436627D01*
X68275Y436698D01*
X68328Y436768D01*
X68384Y436835D01*
X68443Y436899D01*
X68504Y436961D01*
X68569Y437020D01*
X68636Y437076D01*
X68706Y437129D01*
X68777Y437179D01*
X68851Y437225D01*
X68927Y437269D01*
X69005Y437308D01*
X69085Y437344D01*
X69166Y437377D01*
X69248Y437406D01*
X69332Y437431D01*
X69417Y437452D01*
X69502Y437470D01*
X69589Y437483D01*
X69675Y437493D01*
X69763Y437499D01*
X69850Y437501D01*
X75692Y437501D01*
X75692Y443163D02*
X64008Y443163D01*
X64008Y446408D01*
X64010Y446521D01*
X64016Y446634D01*
X64026Y446747D01*
X64040Y446860D01*
X64057Y446972D01*
X64079Y447083D01*
X64104Y447193D01*
X64134Y447303D01*
X64167Y447411D01*
X64204Y447518D01*
X64244Y447624D01*
X64289Y447728D01*
X64337Y447831D01*
X64388Y447932D01*
X64443Y448031D01*
X64501Y448128D01*
X64563Y448223D01*
X64628Y448316D01*
X64696Y448406D01*
X64767Y448494D01*
X64842Y448580D01*
X64919Y448663D01*
X64999Y448743D01*
X65082Y448820D01*
X65168Y448895D01*
X65256Y448966D01*
X65346Y449034D01*
X65439Y449099D01*
X65534Y449161D01*
X65631Y449219D01*
X65730Y449274D01*
X65831Y449325D01*
X65934Y449373D01*
X66038Y449418D01*
X66144Y449458D01*
X66251Y449495D01*
X66359Y449528D01*
X66469Y449558D01*
X66579Y449583D01*
X66690Y449605D01*
X66802Y449622D01*
X66915Y449636D01*
X67028Y449646D01*
X67141Y449652D01*
X67254Y449654D01*
X67367Y449652D01*
X67480Y449646D01*
X67593Y449636D01*
X67706Y449622D01*
X67818Y449605D01*
X67929Y449583D01*
X68039Y449558D01*
X68149Y449528D01*
X68257Y449495D01*
X68364Y449458D01*
X68470Y449418D01*
X68574Y449373D01*
X68677Y449325D01*
X68778Y449274D01*
X68877Y449219D01*
X68974Y449161D01*
X69069Y449099D01*
X69162Y449034D01*
X69252Y448966D01*
X69340Y448895D01*
X69426Y448820D01*
X69509Y448743D01*
X69589Y448663D01*
X69666Y448580D01*
X69741Y448494D01*
X69812Y448406D01*
X69880Y448316D01*
X69945Y448223D01*
X70007Y448128D01*
X70065Y448031D01*
X70120Y447932D01*
X70171Y447831D01*
X70219Y447728D01*
X70264Y447624D01*
X70304Y447518D01*
X70341Y447411D01*
X70374Y447303D01*
X70404Y447193D01*
X70429Y447083D01*
X70451Y446972D01*
X70468Y446860D01*
X70482Y446747D01*
X70492Y446634D01*
X70498Y446521D01*
X70500Y446408D01*
X70499Y446408D02*
X70499Y443163D01*
X70499Y447057D02*
X75692Y449654D01*
X75692Y454922D02*
X64008Y454922D01*
X64008Y460115D01*
X69201Y460115D02*
X69201Y454922D01*
X64008Y467995D02*
X64010Y468102D01*
X64016Y468208D01*
X64026Y468314D01*
X64039Y468420D01*
X64057Y468526D01*
X64078Y468630D01*
X64103Y468734D01*
X64132Y468837D01*
X64164Y468938D01*
X64201Y469038D01*
X64241Y469137D01*
X64284Y469235D01*
X64331Y469331D01*
X64382Y469425D01*
X64436Y469517D01*
X64493Y469607D01*
X64553Y469695D01*
X64617Y469780D01*
X64684Y469863D01*
X64754Y469944D01*
X64826Y470022D01*
X64902Y470098D01*
X64980Y470170D01*
X65061Y470240D01*
X65144Y470307D01*
X65229Y470371D01*
X65317Y470431D01*
X65407Y470488D01*
X65499Y470542D01*
X65593Y470593D01*
X65689Y470640D01*
X65787Y470683D01*
X65886Y470723D01*
X65986Y470760D01*
X66087Y470792D01*
X66190Y470821D01*
X66294Y470846D01*
X66398Y470867D01*
X66504Y470885D01*
X66610Y470898D01*
X66716Y470908D01*
X66822Y470914D01*
X66929Y470916D01*
X64008Y467995D02*
X64010Y467874D01*
X64016Y467753D01*
X64026Y467633D01*
X64039Y467512D01*
X64057Y467393D01*
X64078Y467273D01*
X64103Y467155D01*
X64132Y467038D01*
X64165Y466921D01*
X64201Y466806D01*
X64242Y466692D01*
X64285Y466579D01*
X64333Y466467D01*
X64384Y466358D01*
X64439Y466250D01*
X64497Y466143D01*
X64558Y466039D01*
X64623Y465937D01*
X64691Y465837D01*
X64762Y465739D01*
X64836Y465643D01*
X64913Y465550D01*
X64994Y465460D01*
X65077Y465372D01*
X65163Y465287D01*
X65252Y465204D01*
X65343Y465125D01*
X65437Y465048D01*
X65533Y464975D01*
X65631Y464905D01*
X65732Y464838D01*
X65835Y464774D01*
X65940Y464714D01*
X66047Y464656D01*
X66155Y464603D01*
X66265Y464553D01*
X66377Y464507D01*
X66490Y464464D01*
X66605Y464425D01*
X69201Y469942D02*
X69123Y470021D01*
X69043Y470097D01*
X68960Y470170D01*
X68874Y470240D01*
X68787Y470307D01*
X68696Y470371D01*
X68604Y470431D01*
X68510Y470489D01*
X68413Y470543D01*
X68315Y470593D01*
X68215Y470640D01*
X68114Y470684D01*
X68011Y470724D01*
X67906Y470760D01*
X67801Y470792D01*
X67694Y470821D01*
X67587Y470846D01*
X67478Y470868D01*
X67369Y470885D01*
X67260Y470899D01*
X67150Y470908D01*
X67039Y470914D01*
X66929Y470916D01*
X69201Y469942D02*
X75692Y464425D01*
X75692Y470916D01*
X73096Y475855D02*
X64008Y478451D01*
X73096Y475855D02*
X73096Y482346D01*
X70499Y480399D02*
X75692Y480399D01*
X75692Y487688D02*
X64008Y487688D01*
X75692Y487688D02*
X75692Y492881D01*
X69850Y497190D02*
X69620Y497193D01*
X69390Y497201D01*
X69161Y497215D01*
X68932Y497234D01*
X68703Y497259D01*
X68475Y497289D01*
X68248Y497324D01*
X68022Y497365D01*
X67797Y497411D01*
X67573Y497463D01*
X67350Y497520D01*
X67129Y497582D01*
X66909Y497650D01*
X66691Y497723D01*
X66475Y497801D01*
X66261Y497884D01*
X66049Y497972D01*
X65838Y498065D01*
X65631Y498164D01*
X65541Y498197D01*
X65452Y498233D01*
X65364Y498273D01*
X65279Y498317D01*
X65195Y498364D01*
X65113Y498414D01*
X65033Y498468D01*
X64956Y498524D01*
X64880Y498584D01*
X64807Y498647D01*
X64737Y498712D01*
X64669Y498781D01*
X64605Y498852D01*
X64543Y498925D01*
X64484Y499001D01*
X64428Y499079D01*
X64375Y499160D01*
X64326Y499242D01*
X64280Y499326D01*
X64237Y499413D01*
X64198Y499500D01*
X64162Y499590D01*
X64130Y499680D01*
X64102Y499772D01*
X64077Y499865D01*
X64056Y499959D01*
X64039Y500053D01*
X64025Y500148D01*
X64016Y500244D01*
X64010Y500340D01*
X64008Y500436D01*
X64010Y500532D01*
X64016Y500628D01*
X64025Y500724D01*
X64039Y500819D01*
X64056Y500913D01*
X64077Y501007D01*
X64102Y501100D01*
X64130Y501192D01*
X64162Y501282D01*
X64198Y501372D01*
X64237Y501460D01*
X64280Y501546D01*
X64326Y501630D01*
X64375Y501712D01*
X64428Y501793D01*
X64484Y501871D01*
X64543Y501947D01*
X64605Y502020D01*
X64669Y502091D01*
X64737Y502160D01*
X64807Y502225D01*
X64880Y502288D01*
X64956Y502348D01*
X65033Y502404D01*
X65113Y502458D01*
X65195Y502508D01*
X65279Y502555D01*
X65364Y502599D01*
X65452Y502639D01*
X65541Y502675D01*
X65631Y502708D01*
X65838Y502807D01*
X66049Y502900D01*
X66261Y502988D01*
X66475Y503071D01*
X66691Y503149D01*
X66909Y503222D01*
X67129Y503290D01*
X67350Y503352D01*
X67573Y503409D01*
X67797Y503461D01*
X68022Y503507D01*
X68248Y503548D01*
X68475Y503583D01*
X68703Y503613D01*
X68932Y503638D01*
X69161Y503657D01*
X69390Y503671D01*
X69620Y503679D01*
X69850Y503682D01*
X69850Y497190D02*
X70080Y497193D01*
X70310Y497201D01*
X70539Y497215D01*
X70768Y497234D01*
X70997Y497259D01*
X71225Y497289D01*
X71452Y497324D01*
X71678Y497365D01*
X71903Y497411D01*
X72127Y497463D01*
X72350Y497520D01*
X72571Y497582D01*
X72791Y497650D01*
X73009Y497723D01*
X73225Y497801D01*
X73439Y497884D01*
X73651Y497972D01*
X73862Y498065D01*
X74069Y498164D01*
X74159Y498197D01*
X74248Y498233D01*
X74336Y498274D01*
X74421Y498317D01*
X74505Y498364D01*
X74587Y498414D01*
X74667Y498468D01*
X74744Y498524D01*
X74820Y498584D01*
X74893Y498647D01*
X74963Y498712D01*
X75031Y498781D01*
X75095Y498852D01*
X75157Y498925D01*
X75216Y499001D01*
X75272Y499079D01*
X75325Y499160D01*
X75374Y499242D01*
X75420Y499326D01*
X75463Y499413D01*
X75502Y499500D01*
X75538Y499590D01*
X75570Y499680D01*
X75598Y499772D01*
X75623Y499865D01*
X75644Y499959D01*
X75661Y500053D01*
X75675Y500148D01*
X75684Y500244D01*
X75690Y500340D01*
X75692Y500436D01*
X74069Y502708D02*
X73862Y502807D01*
X73651Y502900D01*
X73439Y502988D01*
X73225Y503071D01*
X73009Y503149D01*
X72791Y503222D01*
X72571Y503290D01*
X72350Y503352D01*
X72127Y503409D01*
X71903Y503461D01*
X71678Y503507D01*
X71452Y503548D01*
X71225Y503583D01*
X70997Y503613D01*
X70768Y503638D01*
X70539Y503657D01*
X70310Y503671D01*
X70080Y503679D01*
X69850Y503682D01*
X74069Y502708D02*
X74159Y502675D01*
X74248Y502639D01*
X74336Y502599D01*
X74421Y502555D01*
X74505Y502508D01*
X74587Y502458D01*
X74667Y502404D01*
X74744Y502348D01*
X74820Y502288D01*
X74893Y502225D01*
X74963Y502160D01*
X75031Y502091D01*
X75095Y502020D01*
X75157Y501947D01*
X75216Y501871D01*
X75272Y501793D01*
X75325Y501712D01*
X75374Y501630D01*
X75420Y501546D01*
X75463Y501459D01*
X75502Y501372D01*
X75538Y501282D01*
X75570Y501192D01*
X75598Y501100D01*
X75623Y501007D01*
X75644Y500913D01*
X75661Y500819D01*
X75675Y500724D01*
X75684Y500628D01*
X75690Y500532D01*
X75692Y500436D01*
X73096Y497840D02*
X66604Y503033D01*
X66604Y508621D02*
X64008Y511866D01*
X75692Y511866D01*
X75692Y508621D02*
X75692Y515112D01*
X89408Y432308D02*
X97846Y432308D01*
X97959Y432310D01*
X98072Y432316D01*
X98185Y432326D01*
X98298Y432340D01*
X98410Y432357D01*
X98521Y432379D01*
X98631Y432404D01*
X98741Y432434D01*
X98849Y432467D01*
X98956Y432504D01*
X99062Y432544D01*
X99166Y432589D01*
X99269Y432637D01*
X99370Y432688D01*
X99469Y432743D01*
X99566Y432801D01*
X99661Y432863D01*
X99754Y432928D01*
X99844Y432996D01*
X99932Y433067D01*
X100018Y433142D01*
X100101Y433219D01*
X100181Y433299D01*
X100258Y433382D01*
X100333Y433468D01*
X100404Y433556D01*
X100472Y433646D01*
X100537Y433739D01*
X100599Y433834D01*
X100657Y433931D01*
X100712Y434030D01*
X100763Y434131D01*
X100811Y434234D01*
X100856Y434338D01*
X100896Y434444D01*
X100933Y434551D01*
X100966Y434659D01*
X100996Y434769D01*
X101021Y434879D01*
X101043Y434990D01*
X101060Y435102D01*
X101074Y435215D01*
X101084Y435328D01*
X101090Y435441D01*
X101092Y435554D01*
X101090Y435667D01*
X101084Y435780D01*
X101074Y435893D01*
X101060Y436006D01*
X101043Y436118D01*
X101021Y436229D01*
X100996Y436339D01*
X100966Y436449D01*
X100933Y436557D01*
X100896Y436664D01*
X100856Y436770D01*
X100811Y436874D01*
X100763Y436977D01*
X100712Y437078D01*
X100657Y437177D01*
X100599Y437274D01*
X100537Y437369D01*
X100472Y437462D01*
X100404Y437552D01*
X100333Y437640D01*
X100258Y437726D01*
X100181Y437809D01*
X100101Y437889D01*
X100018Y437966D01*
X99932Y438041D01*
X99844Y438112D01*
X99754Y438180D01*
X99661Y438245D01*
X99566Y438307D01*
X99469Y438365D01*
X99370Y438420D01*
X99269Y438471D01*
X99166Y438519D01*
X99062Y438564D01*
X98956Y438604D01*
X98849Y438641D01*
X98741Y438674D01*
X98631Y438704D01*
X98521Y438729D01*
X98410Y438751D01*
X98298Y438768D01*
X98185Y438782D01*
X98072Y438792D01*
X97959Y438798D01*
X97846Y438800D01*
X97846Y438799D02*
X89408Y438799D01*
X89408Y446603D02*
X101092Y446603D01*
X95250Y446603D02*
X94276Y444980D01*
X94277Y444979D02*
X94230Y444906D01*
X94181Y444835D01*
X94128Y444766D01*
X94072Y444699D01*
X94013Y444635D01*
X93952Y444573D01*
X93888Y444515D01*
X93821Y444459D01*
X93752Y444407D01*
X93680Y444357D01*
X93606Y444311D01*
X93531Y444268D01*
X93453Y444229D01*
X93374Y444193D01*
X93293Y444161D01*
X93211Y444132D01*
X93128Y444107D01*
X93044Y444086D01*
X92959Y444069D01*
X92873Y444055D01*
X92787Y444046D01*
X92700Y444040D01*
X92613Y444038D01*
X92526Y444040D01*
X92439Y444046D01*
X92353Y444056D01*
X92267Y444069D01*
X92182Y444087D01*
X92098Y444108D01*
X92015Y444133D01*
X91932Y444162D01*
X91852Y444194D01*
X91773Y444230D01*
X91695Y444269D01*
X91620Y444312D01*
X91546Y444359D01*
X91475Y444408D01*
X91405Y444461D01*
X91339Y444516D01*
X91275Y444575D01*
X91213Y444636D01*
X91154Y444700D01*
X91099Y444767D01*
X91046Y444836D01*
X90996Y444908D01*
X90950Y444981D01*
X90907Y445057D01*
X90868Y445134D01*
X90832Y445213D01*
X90799Y445294D01*
X90771Y445376D01*
X90745Y445459D01*
X90724Y445543D01*
X90707Y445628D01*
X90706Y445629D02*
X90682Y445769D01*
X90662Y445911D01*
X90646Y446052D01*
X90635Y446194D01*
X90627Y446337D01*
X90623Y446479D01*
X90622Y446622D01*
X90626Y446765D01*
X90634Y446907D01*
X90646Y447049D01*
X90662Y447191D01*
X90681Y447332D01*
X90705Y447473D01*
X90732Y447613D01*
X90764Y447752D01*
X90799Y447890D01*
X90838Y448028D01*
X90881Y448164D01*
X90927Y448298D01*
X90978Y448432D01*
X91031Y448564D01*
X91089Y448694D01*
X91150Y448823D01*
X91215Y448950D01*
X91283Y449076D01*
X91355Y449199D01*
X95250Y446603D02*
X96224Y448225D01*
X96223Y448226D02*
X96270Y448299D01*
X96319Y448370D01*
X96372Y448440D01*
X96428Y448506D01*
X96487Y448570D01*
X96548Y448632D01*
X96612Y448690D01*
X96679Y448746D01*
X96748Y448798D01*
X96820Y448848D01*
X96894Y448894D01*
X96969Y448937D01*
X97047Y448976D01*
X97126Y449012D01*
X97207Y449044D01*
X97289Y449073D01*
X97372Y449098D01*
X97456Y449119D01*
X97541Y449136D01*
X97627Y449150D01*
X97714Y449159D01*
X97800Y449165D01*
X97887Y449167D01*
X97974Y449165D01*
X98061Y449159D01*
X98147Y449149D01*
X98233Y449136D01*
X98318Y449118D01*
X98402Y449097D01*
X98485Y449072D01*
X98568Y449043D01*
X98648Y449011D01*
X98727Y448975D01*
X98805Y448936D01*
X98880Y448893D01*
X98954Y448846D01*
X99025Y448797D01*
X99095Y448744D01*
X99161Y448689D01*
X99225Y448630D01*
X99287Y448569D01*
X99346Y448504D01*
X99401Y448438D01*
X99454Y448369D01*
X99504Y448297D01*
X99550Y448224D01*
X99593Y448148D01*
X99632Y448071D01*
X99668Y447992D01*
X99701Y447911D01*
X99729Y447829D01*
X99755Y447746D01*
X99776Y447662D01*
X99793Y447576D01*
X99794Y447576D02*
X99818Y447436D01*
X99838Y447294D01*
X99854Y447153D01*
X99865Y447011D01*
X99873Y446868D01*
X99877Y446726D01*
X99878Y446583D01*
X99874Y446440D01*
X99866Y446298D01*
X99854Y446156D01*
X99838Y446014D01*
X99819Y445873D01*
X99795Y445732D01*
X99768Y445592D01*
X99736Y445453D01*
X99701Y445315D01*
X99662Y445177D01*
X99619Y445041D01*
X99573Y444907D01*
X99522Y444773D01*
X99469Y444641D01*
X99411Y444511D01*
X99350Y444382D01*
X99285Y444255D01*
X99217Y444129D01*
X99145Y444006D01*
X92004Y454025D02*
X89408Y457271D01*
X101092Y457271D01*
X101092Y460516D02*
X101092Y454025D01*
X114808Y432308D02*
X126492Y432308D01*
X126492Y438799D02*
X114808Y432308D01*
X114808Y438799D02*
X126492Y438799D01*
X126492Y444574D02*
X114808Y444574D01*
X114808Y447819D01*
X114810Y447932D01*
X114816Y448045D01*
X114826Y448158D01*
X114840Y448271D01*
X114857Y448383D01*
X114879Y448494D01*
X114904Y448604D01*
X114934Y448714D01*
X114967Y448822D01*
X115004Y448929D01*
X115044Y449035D01*
X115089Y449139D01*
X115137Y449242D01*
X115188Y449343D01*
X115243Y449442D01*
X115301Y449539D01*
X115363Y449634D01*
X115428Y449727D01*
X115496Y449817D01*
X115567Y449905D01*
X115642Y449991D01*
X115719Y450074D01*
X115799Y450154D01*
X115882Y450231D01*
X115968Y450306D01*
X116056Y450377D01*
X116146Y450445D01*
X116239Y450510D01*
X116334Y450572D01*
X116431Y450630D01*
X116530Y450685D01*
X116631Y450736D01*
X116734Y450784D01*
X116838Y450829D01*
X116944Y450869D01*
X117051Y450906D01*
X117159Y450939D01*
X117269Y450969D01*
X117379Y450994D01*
X117490Y451016D01*
X117602Y451033D01*
X117715Y451047D01*
X117828Y451057D01*
X117941Y451063D01*
X118054Y451065D01*
X118167Y451063D01*
X118280Y451057D01*
X118393Y451047D01*
X118506Y451033D01*
X118618Y451016D01*
X118729Y450994D01*
X118839Y450969D01*
X118949Y450939D01*
X119057Y450906D01*
X119164Y450869D01*
X119270Y450829D01*
X119374Y450784D01*
X119477Y450736D01*
X119578Y450685D01*
X119677Y450630D01*
X119774Y450572D01*
X119869Y450510D01*
X119962Y450445D01*
X120052Y450377D01*
X120140Y450306D01*
X120226Y450231D01*
X120309Y450154D01*
X120389Y450074D01*
X120466Y449991D01*
X120541Y449905D01*
X120612Y449817D01*
X120680Y449727D01*
X120745Y449634D01*
X120807Y449539D01*
X120865Y449442D01*
X120920Y449343D01*
X120971Y449242D01*
X121019Y449139D01*
X121064Y449035D01*
X121104Y448929D01*
X121141Y448822D01*
X121174Y448714D01*
X121204Y448604D01*
X121229Y448494D01*
X121251Y448383D01*
X121268Y448271D01*
X121282Y448158D01*
X121292Y448045D01*
X121298Y447932D01*
X121300Y447819D01*
X121299Y447819D02*
X121299Y444574D01*
X121299Y448468D02*
X126492Y451065D01*
X126492Y456334D02*
X114808Y456334D01*
X114808Y461526D01*
X120001Y461526D02*
X120001Y456334D01*
X114808Y469406D02*
X114810Y469513D01*
X114816Y469619D01*
X114826Y469725D01*
X114839Y469831D01*
X114857Y469937D01*
X114878Y470041D01*
X114903Y470145D01*
X114932Y470248D01*
X114964Y470349D01*
X115001Y470449D01*
X115041Y470548D01*
X115084Y470646D01*
X115131Y470742D01*
X115182Y470836D01*
X115236Y470928D01*
X115293Y471018D01*
X115353Y471106D01*
X115417Y471191D01*
X115484Y471274D01*
X115554Y471355D01*
X115626Y471433D01*
X115702Y471509D01*
X115780Y471581D01*
X115861Y471651D01*
X115944Y471718D01*
X116029Y471782D01*
X116117Y471842D01*
X116207Y471899D01*
X116299Y471953D01*
X116393Y472004D01*
X116489Y472051D01*
X116587Y472094D01*
X116686Y472134D01*
X116786Y472171D01*
X116887Y472203D01*
X116990Y472232D01*
X117094Y472257D01*
X117198Y472278D01*
X117304Y472296D01*
X117410Y472309D01*
X117516Y472319D01*
X117622Y472325D01*
X117729Y472327D01*
X114808Y469406D02*
X114810Y469285D01*
X114816Y469164D01*
X114826Y469044D01*
X114839Y468923D01*
X114857Y468804D01*
X114878Y468684D01*
X114903Y468566D01*
X114932Y468449D01*
X114965Y468332D01*
X115001Y468217D01*
X115042Y468103D01*
X115085Y467990D01*
X115133Y467878D01*
X115184Y467769D01*
X115239Y467661D01*
X115297Y467554D01*
X115358Y467450D01*
X115423Y467348D01*
X115491Y467248D01*
X115562Y467150D01*
X115636Y467054D01*
X115713Y466961D01*
X115794Y466871D01*
X115877Y466783D01*
X115963Y466698D01*
X116052Y466615D01*
X116143Y466536D01*
X116237Y466459D01*
X116333Y466386D01*
X116431Y466316D01*
X116532Y466249D01*
X116635Y466185D01*
X116740Y466125D01*
X116847Y466067D01*
X116955Y466014D01*
X117065Y465964D01*
X117177Y465918D01*
X117290Y465875D01*
X117405Y465836D01*
X120001Y471353D02*
X119923Y471432D01*
X119843Y471508D01*
X119760Y471581D01*
X119674Y471651D01*
X119587Y471718D01*
X119496Y471782D01*
X119404Y471842D01*
X119310Y471900D01*
X119213Y471954D01*
X119115Y472004D01*
X119015Y472051D01*
X118914Y472095D01*
X118811Y472135D01*
X118706Y472171D01*
X118601Y472203D01*
X118494Y472232D01*
X118387Y472257D01*
X118278Y472279D01*
X118169Y472296D01*
X118060Y472310D01*
X117950Y472319D01*
X117839Y472325D01*
X117729Y472327D01*
X120001Y471353D02*
X126492Y465836D01*
X126492Y472327D01*
X123896Y477266D02*
X114808Y479862D01*
X123896Y477266D02*
X123896Y483757D01*
X121299Y481810D02*
X126492Y481810D01*
X126492Y489099D02*
X114808Y489099D01*
X126492Y489099D02*
X126492Y494292D01*
X120650Y498602D02*
X120420Y498605D01*
X120190Y498613D01*
X119961Y498627D01*
X119732Y498646D01*
X119503Y498671D01*
X119275Y498701D01*
X119048Y498736D01*
X118822Y498777D01*
X118597Y498823D01*
X118373Y498875D01*
X118150Y498932D01*
X117929Y498994D01*
X117709Y499062D01*
X117491Y499135D01*
X117275Y499213D01*
X117061Y499296D01*
X116849Y499384D01*
X116638Y499477D01*
X116431Y499576D01*
X116431Y499575D02*
X116341Y499608D01*
X116252Y499644D01*
X116164Y499684D01*
X116079Y499728D01*
X115995Y499775D01*
X115913Y499825D01*
X115833Y499879D01*
X115756Y499935D01*
X115680Y499995D01*
X115607Y500058D01*
X115537Y500123D01*
X115469Y500192D01*
X115405Y500263D01*
X115343Y500336D01*
X115284Y500412D01*
X115228Y500490D01*
X115175Y500571D01*
X115126Y500653D01*
X115080Y500737D01*
X115037Y500824D01*
X114998Y500911D01*
X114962Y501001D01*
X114930Y501091D01*
X114902Y501183D01*
X114877Y501276D01*
X114856Y501370D01*
X114839Y501464D01*
X114825Y501559D01*
X114816Y501655D01*
X114810Y501751D01*
X114808Y501847D01*
X114810Y501943D01*
X114816Y502039D01*
X114825Y502135D01*
X114839Y502230D01*
X114856Y502324D01*
X114877Y502418D01*
X114902Y502511D01*
X114930Y502603D01*
X114962Y502693D01*
X114998Y502783D01*
X115037Y502871D01*
X115080Y502957D01*
X115126Y503041D01*
X115175Y503123D01*
X115228Y503204D01*
X115284Y503282D01*
X115343Y503358D01*
X115405Y503431D01*
X115469Y503502D01*
X115537Y503571D01*
X115607Y503636D01*
X115680Y503699D01*
X115756Y503759D01*
X115833Y503815D01*
X115913Y503869D01*
X115995Y503919D01*
X116079Y503966D01*
X116164Y504010D01*
X116252Y504050D01*
X116341Y504086D01*
X116431Y504119D01*
X116638Y504218D01*
X116849Y504311D01*
X117061Y504399D01*
X117275Y504482D01*
X117491Y504560D01*
X117709Y504633D01*
X117929Y504701D01*
X118150Y504763D01*
X118373Y504820D01*
X118597Y504872D01*
X118822Y504918D01*
X119048Y504959D01*
X119275Y504994D01*
X119503Y505024D01*
X119732Y505049D01*
X119961Y505068D01*
X120190Y505082D01*
X120420Y505090D01*
X120650Y505093D01*
X120650Y498602D02*
X120880Y498605D01*
X121110Y498613D01*
X121339Y498627D01*
X121568Y498646D01*
X121797Y498671D01*
X122025Y498701D01*
X122252Y498736D01*
X122478Y498777D01*
X122703Y498823D01*
X122927Y498875D01*
X123150Y498932D01*
X123371Y498994D01*
X123591Y499062D01*
X123809Y499135D01*
X124025Y499213D01*
X124239Y499296D01*
X124451Y499384D01*
X124662Y499477D01*
X124869Y499576D01*
X124869Y499575D02*
X124959Y499608D01*
X125048Y499644D01*
X125136Y499685D01*
X125221Y499728D01*
X125305Y499775D01*
X125387Y499825D01*
X125467Y499879D01*
X125544Y499935D01*
X125620Y499995D01*
X125693Y500058D01*
X125763Y500123D01*
X125831Y500192D01*
X125895Y500263D01*
X125957Y500336D01*
X126016Y500412D01*
X126072Y500490D01*
X126125Y500571D01*
X126174Y500653D01*
X126220Y500737D01*
X126263Y500824D01*
X126302Y500911D01*
X126338Y501001D01*
X126370Y501091D01*
X126398Y501183D01*
X126423Y501276D01*
X126444Y501370D01*
X126461Y501464D01*
X126475Y501559D01*
X126484Y501655D01*
X126490Y501751D01*
X126492Y501847D01*
X124869Y504119D02*
X124662Y504218D01*
X124451Y504311D01*
X124239Y504399D01*
X124025Y504482D01*
X123809Y504560D01*
X123591Y504633D01*
X123371Y504701D01*
X123150Y504763D01*
X122927Y504820D01*
X122703Y504872D01*
X122478Y504918D01*
X122252Y504959D01*
X122025Y504994D01*
X121797Y505024D01*
X121568Y505049D01*
X121339Y505068D01*
X121110Y505082D01*
X120880Y505090D01*
X120650Y505093D01*
X124869Y504119D02*
X124959Y504086D01*
X125048Y504050D01*
X125136Y504010D01*
X125221Y503966D01*
X125305Y503919D01*
X125387Y503869D01*
X125467Y503815D01*
X125544Y503759D01*
X125620Y503699D01*
X125693Y503636D01*
X125763Y503571D01*
X125831Y503502D01*
X125895Y503431D01*
X125957Y503358D01*
X126016Y503282D01*
X126072Y503204D01*
X126125Y503123D01*
X126174Y503041D01*
X126220Y502957D01*
X126263Y502870D01*
X126302Y502783D01*
X126338Y502693D01*
X126370Y502603D01*
X126398Y502511D01*
X126423Y502418D01*
X126444Y502324D01*
X126461Y502230D01*
X126475Y502135D01*
X126484Y502039D01*
X126490Y501943D01*
X126492Y501847D01*
X123896Y499251D02*
X117404Y504444D01*
X117404Y510032D02*
X114808Y513277D01*
X126492Y513277D01*
X126492Y510032D02*
X126492Y516523D01*
D12*
X595000Y722150D02*
X595000Y836150D01*
X548000Y836150D02*
X548000Y722150D01*
X553000Y874150D02*
X590000Y874150D01*
X590000Y684150D02*
X553000Y684150D01*
X556500Y809150D02*
X586500Y809150D01*
X556500Y809150D02*
X556500Y804150D01*
X556500Y799150D01*
X556500Y794150D01*
X556500Y789150D01*
X556500Y784150D01*
X556500Y749150D01*
X586500Y749150D01*
X586500Y784150D01*
X586500Y789150D01*
X586500Y794150D01*
X586500Y799150D01*
X586500Y804150D01*
X586500Y809150D01*
X586500Y784150D02*
X556500Y784150D01*
X556500Y789150D02*
X586500Y789150D01*
X586500Y794150D02*
X556500Y794150D01*
X556500Y799150D02*
X586500Y799150D01*
X586500Y804150D02*
X556500Y804150D01*
X590000Y836150D02*
X595000Y836150D01*
X590000Y836150D02*
X590000Y874150D01*
X590000Y722150D02*
X590000Y684150D01*
X590000Y722150D02*
X595000Y722150D01*
X553000Y836150D02*
X548000Y836150D01*
X553000Y836150D02*
X553000Y874150D01*
X553000Y722150D02*
X553000Y684150D01*
X553000Y722150D02*
X548000Y722150D01*
X560320Y854150D02*
X560323Y854424D01*
X560333Y854699D01*
X560350Y854972D01*
X560374Y855246D01*
X560404Y855519D01*
X560441Y855790D01*
X560485Y856061D01*
X560535Y856331D01*
X560592Y856600D01*
X560655Y856867D01*
X560725Y857132D01*
X560801Y857395D01*
X560884Y857657D01*
X560974Y857916D01*
X561069Y858174D01*
X561171Y858428D01*
X561279Y858681D01*
X561393Y858930D01*
X561514Y859177D01*
X561640Y859420D01*
X561772Y859661D01*
X561911Y859898D01*
X562055Y860131D01*
X562204Y860361D01*
X562359Y860588D01*
X562520Y860810D01*
X562686Y861028D01*
X562858Y861243D01*
X563034Y861452D01*
X563216Y861658D01*
X563403Y861859D01*
X563595Y862055D01*
X563791Y862247D01*
X563992Y862434D01*
X564198Y862616D01*
X564407Y862792D01*
X564622Y862964D01*
X564840Y863130D01*
X565062Y863291D01*
X565289Y863446D01*
X565519Y863595D01*
X565752Y863739D01*
X565989Y863878D01*
X566230Y864010D01*
X566473Y864136D01*
X566720Y864257D01*
X566969Y864371D01*
X567222Y864479D01*
X567476Y864581D01*
X567734Y864676D01*
X567993Y864766D01*
X568255Y864849D01*
X568518Y864925D01*
X568783Y864995D01*
X569050Y865058D01*
X569319Y865115D01*
X569589Y865165D01*
X569860Y865209D01*
X570131Y865246D01*
X570404Y865276D01*
X570678Y865300D01*
X570951Y865317D01*
X571226Y865327D01*
X571500Y865330D01*
X571774Y865327D01*
X572049Y865317D01*
X572322Y865300D01*
X572596Y865276D01*
X572869Y865246D01*
X573140Y865209D01*
X573411Y865165D01*
X573681Y865115D01*
X573950Y865058D01*
X574217Y864995D01*
X574482Y864925D01*
X574745Y864849D01*
X575007Y864766D01*
X575266Y864676D01*
X575524Y864581D01*
X575778Y864479D01*
X576031Y864371D01*
X576280Y864257D01*
X576527Y864136D01*
X576770Y864010D01*
X577011Y863878D01*
X577248Y863739D01*
X577481Y863595D01*
X577711Y863446D01*
X577938Y863291D01*
X578160Y863130D01*
X578378Y862964D01*
X578593Y862792D01*
X578802Y862616D01*
X579008Y862434D01*
X579209Y862247D01*
X579405Y862055D01*
X579597Y861859D01*
X579784Y861658D01*
X579966Y861452D01*
X580142Y861243D01*
X580314Y861028D01*
X580480Y860810D01*
X580641Y860588D01*
X580796Y860361D01*
X580945Y860131D01*
X581089Y859898D01*
X581228Y859661D01*
X581360Y859420D01*
X581486Y859177D01*
X581607Y858930D01*
X581721Y858681D01*
X581829Y858428D01*
X581931Y858174D01*
X582026Y857916D01*
X582116Y857657D01*
X582199Y857395D01*
X582275Y857132D01*
X582345Y856867D01*
X582408Y856600D01*
X582465Y856331D01*
X582515Y856061D01*
X582559Y855790D01*
X582596Y855519D01*
X582626Y855246D01*
X582650Y854972D01*
X582667Y854699D01*
X582677Y854424D01*
X582680Y854150D01*
X582677Y853876D01*
X582667Y853601D01*
X582650Y853328D01*
X582626Y853054D01*
X582596Y852781D01*
X582559Y852510D01*
X582515Y852239D01*
X582465Y851969D01*
X582408Y851700D01*
X582345Y851433D01*
X582275Y851168D01*
X582199Y850905D01*
X582116Y850643D01*
X582026Y850384D01*
X581931Y850126D01*
X581829Y849872D01*
X581721Y849619D01*
X581607Y849370D01*
X581486Y849123D01*
X581360Y848880D01*
X581228Y848639D01*
X581089Y848402D01*
X580945Y848169D01*
X580796Y847939D01*
X580641Y847712D01*
X580480Y847490D01*
X580314Y847272D01*
X580142Y847057D01*
X579966Y846848D01*
X579784Y846642D01*
X579597Y846441D01*
X579405Y846245D01*
X579209Y846053D01*
X579008Y845866D01*
X578802Y845684D01*
X578593Y845508D01*
X578378Y845336D01*
X578160Y845170D01*
X577938Y845009D01*
X577711Y844854D01*
X577481Y844705D01*
X577248Y844561D01*
X577011Y844422D01*
X576770Y844290D01*
X576527Y844164D01*
X576280Y844043D01*
X576031Y843929D01*
X575778Y843821D01*
X575524Y843719D01*
X575266Y843624D01*
X575007Y843534D01*
X574745Y843451D01*
X574482Y843375D01*
X574217Y843305D01*
X573950Y843242D01*
X573681Y843185D01*
X573411Y843135D01*
X573140Y843091D01*
X572869Y843054D01*
X572596Y843024D01*
X572322Y843000D01*
X572049Y842983D01*
X571774Y842973D01*
X571500Y842970D01*
X571226Y842973D01*
X570951Y842983D01*
X570678Y843000D01*
X570404Y843024D01*
X570131Y843054D01*
X569860Y843091D01*
X569589Y843135D01*
X569319Y843185D01*
X569050Y843242D01*
X568783Y843305D01*
X568518Y843375D01*
X568255Y843451D01*
X567993Y843534D01*
X567734Y843624D01*
X567476Y843719D01*
X567222Y843821D01*
X566969Y843929D01*
X566720Y844043D01*
X566473Y844164D01*
X566230Y844290D01*
X565989Y844422D01*
X565752Y844561D01*
X565519Y844705D01*
X565289Y844854D01*
X565062Y845009D01*
X564840Y845170D01*
X564622Y845336D01*
X564407Y845508D01*
X564198Y845684D01*
X563992Y845866D01*
X563791Y846053D01*
X563595Y846245D01*
X563403Y846441D01*
X563216Y846642D01*
X563034Y846848D01*
X562858Y847057D01*
X562686Y847272D01*
X562520Y847490D01*
X562359Y847712D01*
X562204Y847939D01*
X562055Y848169D01*
X561911Y848402D01*
X561772Y848639D01*
X561640Y848880D01*
X561514Y849123D01*
X561393Y849370D01*
X561279Y849619D01*
X561171Y849872D01*
X561069Y850126D01*
X560974Y850384D01*
X560884Y850643D01*
X560801Y850905D01*
X560725Y851168D01*
X560655Y851433D01*
X560592Y851700D01*
X560535Y851969D01*
X560485Y852239D01*
X560441Y852510D01*
X560404Y852781D01*
X560374Y853054D01*
X560350Y853328D01*
X560333Y853601D01*
X560323Y853876D01*
X560320Y854150D01*
X560320Y704150D02*
X560323Y704424D01*
X560333Y704699D01*
X560350Y704972D01*
X560374Y705246D01*
X560404Y705519D01*
X560441Y705790D01*
X560485Y706061D01*
X560535Y706331D01*
X560592Y706600D01*
X560655Y706867D01*
X560725Y707132D01*
X560801Y707395D01*
X560884Y707657D01*
X560974Y707916D01*
X561069Y708174D01*
X561171Y708428D01*
X561279Y708681D01*
X561393Y708930D01*
X561514Y709177D01*
X561640Y709420D01*
X561772Y709661D01*
X561911Y709898D01*
X562055Y710131D01*
X562204Y710361D01*
X562359Y710588D01*
X562520Y710810D01*
X562686Y711028D01*
X562858Y711243D01*
X563034Y711452D01*
X563216Y711658D01*
X563403Y711859D01*
X563595Y712055D01*
X563791Y712247D01*
X563992Y712434D01*
X564198Y712616D01*
X564407Y712792D01*
X564622Y712964D01*
X564840Y713130D01*
X565062Y713291D01*
X565289Y713446D01*
X565519Y713595D01*
X565752Y713739D01*
X565989Y713878D01*
X566230Y714010D01*
X566473Y714136D01*
X566720Y714257D01*
X566969Y714371D01*
X567222Y714479D01*
X567476Y714581D01*
X567734Y714676D01*
X567993Y714766D01*
X568255Y714849D01*
X568518Y714925D01*
X568783Y714995D01*
X569050Y715058D01*
X569319Y715115D01*
X569589Y715165D01*
X569860Y715209D01*
X570131Y715246D01*
X570404Y715276D01*
X570678Y715300D01*
X570951Y715317D01*
X571226Y715327D01*
X571500Y715330D01*
X571774Y715327D01*
X572049Y715317D01*
X572322Y715300D01*
X572596Y715276D01*
X572869Y715246D01*
X573140Y715209D01*
X573411Y715165D01*
X573681Y715115D01*
X573950Y715058D01*
X574217Y714995D01*
X574482Y714925D01*
X574745Y714849D01*
X575007Y714766D01*
X575266Y714676D01*
X575524Y714581D01*
X575778Y714479D01*
X576031Y714371D01*
X576280Y714257D01*
X576527Y714136D01*
X576770Y714010D01*
X577011Y713878D01*
X577248Y713739D01*
X577481Y713595D01*
X577711Y713446D01*
X577938Y713291D01*
X578160Y713130D01*
X578378Y712964D01*
X578593Y712792D01*
X578802Y712616D01*
X579008Y712434D01*
X579209Y712247D01*
X579405Y712055D01*
X579597Y711859D01*
X579784Y711658D01*
X579966Y711452D01*
X580142Y711243D01*
X580314Y711028D01*
X580480Y710810D01*
X580641Y710588D01*
X580796Y710361D01*
X580945Y710131D01*
X581089Y709898D01*
X581228Y709661D01*
X581360Y709420D01*
X581486Y709177D01*
X581607Y708930D01*
X581721Y708681D01*
X581829Y708428D01*
X581931Y708174D01*
X582026Y707916D01*
X582116Y707657D01*
X582199Y707395D01*
X582275Y707132D01*
X582345Y706867D01*
X582408Y706600D01*
X582465Y706331D01*
X582515Y706061D01*
X582559Y705790D01*
X582596Y705519D01*
X582626Y705246D01*
X582650Y704972D01*
X582667Y704699D01*
X582677Y704424D01*
X582680Y704150D01*
X582677Y703876D01*
X582667Y703601D01*
X582650Y703328D01*
X582626Y703054D01*
X582596Y702781D01*
X582559Y702510D01*
X582515Y702239D01*
X582465Y701969D01*
X582408Y701700D01*
X582345Y701433D01*
X582275Y701168D01*
X582199Y700905D01*
X582116Y700643D01*
X582026Y700384D01*
X581931Y700126D01*
X581829Y699872D01*
X581721Y699619D01*
X581607Y699370D01*
X581486Y699123D01*
X581360Y698880D01*
X581228Y698639D01*
X581089Y698402D01*
X580945Y698169D01*
X580796Y697939D01*
X580641Y697712D01*
X580480Y697490D01*
X580314Y697272D01*
X580142Y697057D01*
X579966Y696848D01*
X579784Y696642D01*
X579597Y696441D01*
X579405Y696245D01*
X579209Y696053D01*
X579008Y695866D01*
X578802Y695684D01*
X578593Y695508D01*
X578378Y695336D01*
X578160Y695170D01*
X577938Y695009D01*
X577711Y694854D01*
X577481Y694705D01*
X577248Y694561D01*
X577011Y694422D01*
X576770Y694290D01*
X576527Y694164D01*
X576280Y694043D01*
X576031Y693929D01*
X575778Y693821D01*
X575524Y693719D01*
X575266Y693624D01*
X575007Y693534D01*
X574745Y693451D01*
X574482Y693375D01*
X574217Y693305D01*
X573950Y693242D01*
X573681Y693185D01*
X573411Y693135D01*
X573140Y693091D01*
X572869Y693054D01*
X572596Y693024D01*
X572322Y693000D01*
X572049Y692983D01*
X571774Y692973D01*
X571500Y692970D01*
X571226Y692973D01*
X570951Y692983D01*
X570678Y693000D01*
X570404Y693024D01*
X570131Y693054D01*
X569860Y693091D01*
X569589Y693135D01*
X569319Y693185D01*
X569050Y693242D01*
X568783Y693305D01*
X568518Y693375D01*
X568255Y693451D01*
X567993Y693534D01*
X567734Y693624D01*
X567476Y693719D01*
X567222Y693821D01*
X566969Y693929D01*
X566720Y694043D01*
X566473Y694164D01*
X566230Y694290D01*
X565989Y694422D01*
X565752Y694561D01*
X565519Y694705D01*
X565289Y694854D01*
X565062Y695009D01*
X564840Y695170D01*
X564622Y695336D01*
X564407Y695508D01*
X564198Y695684D01*
X563992Y695866D01*
X563791Y696053D01*
X563595Y696245D01*
X563403Y696441D01*
X563216Y696642D01*
X563034Y696848D01*
X562858Y697057D01*
X562686Y697272D01*
X562520Y697490D01*
X562359Y697712D01*
X562204Y697939D01*
X562055Y698169D01*
X561911Y698402D01*
X561772Y698639D01*
X561640Y698880D01*
X561514Y699123D01*
X561393Y699370D01*
X561279Y699619D01*
X561171Y699872D01*
X561069Y700126D01*
X560974Y700384D01*
X560884Y700643D01*
X560801Y700905D01*
X560725Y701168D01*
X560655Y701433D01*
X560592Y701700D01*
X560535Y701969D01*
X560485Y702239D01*
X560441Y702510D01*
X560404Y702781D01*
X560374Y703054D01*
X560350Y703328D01*
X560333Y703601D01*
X560323Y703876D01*
X560320Y704150D01*
D14*
X598008Y798384D02*
X606446Y798384D01*
X606446Y798383D02*
X606559Y798385D01*
X606672Y798391D01*
X606785Y798401D01*
X606898Y798415D01*
X607010Y798432D01*
X607121Y798454D01*
X607231Y798479D01*
X607341Y798509D01*
X607449Y798542D01*
X607556Y798579D01*
X607662Y798619D01*
X607766Y798664D01*
X607869Y798712D01*
X607970Y798763D01*
X608069Y798818D01*
X608166Y798876D01*
X608261Y798938D01*
X608354Y799003D01*
X608444Y799071D01*
X608532Y799142D01*
X608618Y799217D01*
X608701Y799294D01*
X608781Y799374D01*
X608858Y799457D01*
X608933Y799543D01*
X609004Y799631D01*
X609072Y799721D01*
X609137Y799814D01*
X609199Y799909D01*
X609257Y800006D01*
X609312Y800105D01*
X609363Y800206D01*
X609411Y800309D01*
X609456Y800413D01*
X609496Y800519D01*
X609533Y800626D01*
X609566Y800734D01*
X609596Y800844D01*
X609621Y800954D01*
X609643Y801065D01*
X609660Y801177D01*
X609674Y801290D01*
X609684Y801403D01*
X609690Y801516D01*
X609692Y801629D01*
X609690Y801742D01*
X609684Y801855D01*
X609674Y801968D01*
X609660Y802081D01*
X609643Y802193D01*
X609621Y802304D01*
X609596Y802414D01*
X609566Y802524D01*
X609533Y802632D01*
X609496Y802739D01*
X609456Y802845D01*
X609411Y802949D01*
X609363Y803052D01*
X609312Y803153D01*
X609257Y803252D01*
X609199Y803349D01*
X609137Y803444D01*
X609072Y803537D01*
X609004Y803627D01*
X608933Y803715D01*
X608858Y803801D01*
X608781Y803884D01*
X608701Y803964D01*
X608618Y804041D01*
X608532Y804116D01*
X608444Y804187D01*
X608354Y804255D01*
X608261Y804320D01*
X608166Y804382D01*
X608069Y804440D01*
X607970Y804495D01*
X607869Y804546D01*
X607766Y804594D01*
X607662Y804639D01*
X607556Y804679D01*
X607449Y804716D01*
X607341Y804749D01*
X607231Y804779D01*
X607121Y804804D01*
X607010Y804826D01*
X606898Y804843D01*
X606785Y804857D01*
X606672Y804867D01*
X606559Y804873D01*
X606446Y804875D01*
X598008Y804875D01*
X598008Y812678D02*
X609692Y812678D01*
X603850Y812678D02*
X602876Y811056D01*
X602877Y811055D02*
X602830Y810982D01*
X602781Y810911D01*
X602728Y810842D01*
X602672Y810775D01*
X602613Y810711D01*
X602552Y810649D01*
X602488Y810591D01*
X602421Y810535D01*
X602352Y810483D01*
X602280Y810433D01*
X602206Y810387D01*
X602131Y810344D01*
X602053Y810305D01*
X601974Y810269D01*
X601893Y810237D01*
X601811Y810208D01*
X601728Y810183D01*
X601644Y810162D01*
X601559Y810145D01*
X601473Y810131D01*
X601387Y810122D01*
X601300Y810116D01*
X601213Y810114D01*
X601126Y810116D01*
X601039Y810122D01*
X600953Y810132D01*
X600867Y810145D01*
X600782Y810163D01*
X600698Y810184D01*
X600615Y810209D01*
X600532Y810238D01*
X600452Y810270D01*
X600373Y810306D01*
X600295Y810345D01*
X600220Y810388D01*
X600146Y810435D01*
X600075Y810484D01*
X600005Y810537D01*
X599939Y810592D01*
X599875Y810651D01*
X599813Y810712D01*
X599754Y810776D01*
X599699Y810843D01*
X599646Y810912D01*
X599596Y810984D01*
X599550Y811057D01*
X599507Y811133D01*
X599468Y811210D01*
X599432Y811289D01*
X599399Y811370D01*
X599371Y811452D01*
X599345Y811535D01*
X599324Y811619D01*
X599307Y811704D01*
X599306Y811705D02*
X599282Y811845D01*
X599262Y811987D01*
X599246Y812128D01*
X599235Y812270D01*
X599227Y812413D01*
X599223Y812555D01*
X599222Y812698D01*
X599226Y812841D01*
X599234Y812983D01*
X599246Y813125D01*
X599262Y813267D01*
X599281Y813408D01*
X599305Y813549D01*
X599332Y813689D01*
X599364Y813828D01*
X599399Y813966D01*
X599438Y814104D01*
X599481Y814240D01*
X599527Y814374D01*
X599578Y814508D01*
X599631Y814640D01*
X599689Y814770D01*
X599750Y814899D01*
X599815Y815026D01*
X599883Y815152D01*
X599955Y815275D01*
X603850Y812678D02*
X604824Y814301D01*
X604823Y814302D02*
X604870Y814375D01*
X604919Y814446D01*
X604972Y814516D01*
X605028Y814582D01*
X605087Y814646D01*
X605148Y814708D01*
X605212Y814766D01*
X605279Y814822D01*
X605348Y814874D01*
X605420Y814924D01*
X605494Y814970D01*
X605569Y815013D01*
X605647Y815052D01*
X605726Y815088D01*
X605807Y815120D01*
X605889Y815149D01*
X605972Y815174D01*
X606056Y815195D01*
X606141Y815212D01*
X606227Y815226D01*
X606314Y815235D01*
X606400Y815241D01*
X606487Y815243D01*
X606574Y815241D01*
X606661Y815235D01*
X606747Y815225D01*
X606833Y815212D01*
X606918Y815194D01*
X607002Y815173D01*
X607085Y815148D01*
X607168Y815119D01*
X607248Y815087D01*
X607327Y815051D01*
X607405Y815012D01*
X607480Y814969D01*
X607554Y814922D01*
X607625Y814873D01*
X607695Y814820D01*
X607761Y814765D01*
X607825Y814706D01*
X607887Y814645D01*
X607946Y814580D01*
X608001Y814514D01*
X608054Y814445D01*
X608104Y814373D01*
X608150Y814300D01*
X608193Y814224D01*
X608232Y814147D01*
X608268Y814068D01*
X608301Y813987D01*
X608329Y813905D01*
X608355Y813822D01*
X608376Y813738D01*
X608393Y813652D01*
X608394Y813652D02*
X608418Y813512D01*
X608438Y813370D01*
X608454Y813229D01*
X608465Y813087D01*
X608473Y812944D01*
X608477Y812802D01*
X608478Y812659D01*
X608474Y812516D01*
X608466Y812374D01*
X608454Y812232D01*
X608438Y812090D01*
X608419Y811949D01*
X608395Y811808D01*
X608368Y811668D01*
X608336Y811529D01*
X608301Y811391D01*
X608262Y811253D01*
X608219Y811117D01*
X608173Y810983D01*
X608122Y810849D01*
X608069Y810717D01*
X608011Y810587D01*
X607950Y810458D01*
X607885Y810331D01*
X607817Y810205D01*
X607745Y810082D01*
X609692Y820101D02*
X609692Y823346D01*
X609690Y823459D01*
X609684Y823572D01*
X609674Y823685D01*
X609660Y823798D01*
X609643Y823910D01*
X609621Y824021D01*
X609596Y824131D01*
X609566Y824241D01*
X609533Y824349D01*
X609496Y824456D01*
X609456Y824562D01*
X609411Y824666D01*
X609363Y824769D01*
X609312Y824870D01*
X609257Y824969D01*
X609199Y825066D01*
X609137Y825161D01*
X609072Y825254D01*
X609004Y825344D01*
X608933Y825432D01*
X608858Y825518D01*
X608781Y825601D01*
X608701Y825681D01*
X608618Y825758D01*
X608532Y825833D01*
X608444Y825904D01*
X608354Y825972D01*
X608261Y826037D01*
X608166Y826099D01*
X608069Y826157D01*
X607970Y826212D01*
X607869Y826263D01*
X607766Y826311D01*
X607662Y826356D01*
X607556Y826396D01*
X607449Y826433D01*
X607341Y826466D01*
X607231Y826496D01*
X607121Y826521D01*
X607010Y826543D01*
X606898Y826560D01*
X606785Y826574D01*
X606672Y826584D01*
X606559Y826590D01*
X606446Y826592D01*
X606333Y826590D01*
X606220Y826584D01*
X606107Y826574D01*
X605994Y826560D01*
X605882Y826543D01*
X605771Y826521D01*
X605661Y826496D01*
X605551Y826466D01*
X605443Y826433D01*
X605336Y826396D01*
X605230Y826356D01*
X605126Y826311D01*
X605023Y826263D01*
X604922Y826212D01*
X604823Y826157D01*
X604726Y826099D01*
X604631Y826037D01*
X604538Y825972D01*
X604448Y825904D01*
X604360Y825833D01*
X604274Y825758D01*
X604191Y825681D01*
X604111Y825601D01*
X604034Y825518D01*
X603959Y825432D01*
X603888Y825344D01*
X603820Y825254D01*
X603755Y825161D01*
X603693Y825066D01*
X603635Y824969D01*
X603580Y824870D01*
X603529Y824769D01*
X603481Y824666D01*
X603436Y824562D01*
X603396Y824456D01*
X603359Y824349D01*
X603326Y824241D01*
X603296Y824131D01*
X603271Y824021D01*
X603249Y823910D01*
X603232Y823798D01*
X603218Y823685D01*
X603208Y823572D01*
X603202Y823459D01*
X603200Y823346D01*
X598008Y823996D02*
X598008Y820101D01*
X598008Y823996D02*
X598010Y824097D01*
X598016Y824197D01*
X598026Y824297D01*
X598039Y824397D01*
X598057Y824496D01*
X598078Y824595D01*
X598103Y824692D01*
X598132Y824789D01*
X598165Y824884D01*
X598201Y824978D01*
X598241Y825070D01*
X598284Y825161D01*
X598331Y825250D01*
X598381Y825337D01*
X598435Y825423D01*
X598492Y825506D01*
X598552Y825586D01*
X598615Y825665D01*
X598682Y825741D01*
X598751Y825814D01*
X598823Y825884D01*
X598897Y825952D01*
X598974Y826017D01*
X599054Y826078D01*
X599136Y826137D01*
X599220Y826192D01*
X599306Y826244D01*
X599394Y826293D01*
X599484Y826338D01*
X599576Y826380D01*
X599669Y826418D01*
X599764Y826452D01*
X599859Y826483D01*
X599956Y826510D01*
X600054Y826533D01*
X600153Y826553D01*
X600253Y826568D01*
X600353Y826580D01*
X600453Y826588D01*
X600554Y826592D01*
X600654Y826592D01*
X600755Y826588D01*
X600855Y826580D01*
X600955Y826568D01*
X601055Y826553D01*
X601154Y826533D01*
X601252Y826510D01*
X601349Y826483D01*
X601444Y826452D01*
X601539Y826418D01*
X601632Y826380D01*
X601724Y826338D01*
X601814Y826293D01*
X601902Y826244D01*
X601988Y826192D01*
X602072Y826137D01*
X602154Y826078D01*
X602234Y826017D01*
X602311Y825952D01*
X602385Y825884D01*
X602457Y825814D01*
X602526Y825741D01*
X602593Y825665D01*
X602656Y825586D01*
X602716Y825506D01*
X602773Y825423D01*
X602827Y825337D01*
X602877Y825250D01*
X602924Y825161D01*
X602967Y825070D01*
X603007Y824978D01*
X603043Y824884D01*
X603076Y824789D01*
X603105Y824692D01*
X603130Y824595D01*
X603151Y824496D01*
X603169Y824397D01*
X603182Y824297D01*
X603192Y824197D01*
X603198Y824097D01*
X603200Y823996D01*
X603201Y823996D02*
X603201Y821399D01*
D11*
X368300Y793750D02*
X266700Y793750D01*
X266700Y831850D01*
X266700Y838200D01*
X368300Y838200D01*
X368300Y831850D01*
X368300Y793750D01*
X368300Y831850D02*
X266700Y831850D01*
D12*
X977900Y863500D02*
X977900Y63500D01*
X977900Y863500D02*
X617900Y863500D01*
X617900Y63500D01*
X977900Y63500D01*
X677900Y103500D02*
X677900Y823500D01*
X917900Y823500D01*
X917900Y103500D01*
X677900Y103500D01*
X697900Y123500D02*
X697900Y803500D01*
X707900Y803500D01*
X707900Y123500D01*
X697900Y123500D01*
X897900Y123500D02*
X897900Y803500D01*
X887900Y803500D01*
X887900Y123500D01*
X897900Y123500D01*
X757900Y143500D02*
X757175Y143509D01*
X756451Y143535D01*
X755727Y143579D01*
X755005Y143640D01*
X754284Y143719D01*
X753565Y143815D01*
X752849Y143928D01*
X752136Y144059D01*
X751426Y144207D01*
X750721Y144372D01*
X750019Y144554D01*
X749322Y144753D01*
X748629Y144968D01*
X747943Y145201D01*
X747262Y145450D01*
X746587Y145715D01*
X745919Y145996D01*
X745258Y146294D01*
X744604Y146607D01*
X743958Y146936D01*
X743320Y147281D01*
X742691Y147641D01*
X742071Y148016D01*
X741460Y148406D01*
X740858Y148810D01*
X740266Y149229D01*
X739685Y149663D01*
X739114Y150110D01*
X738555Y150571D01*
X738006Y151045D01*
X737470Y151532D01*
X736945Y152032D01*
X736432Y152545D01*
X735932Y153070D01*
X735445Y153606D01*
X734971Y154155D01*
X734510Y154714D01*
X734063Y155285D01*
X733629Y155866D01*
X733210Y156458D01*
X732806Y157060D01*
X732416Y157671D01*
X732041Y158291D01*
X731681Y158920D01*
X731336Y159558D01*
X731007Y160204D01*
X730694Y160858D01*
X730396Y161519D01*
X730115Y162187D01*
X729850Y162862D01*
X729601Y163543D01*
X729368Y164229D01*
X729153Y164922D01*
X728954Y165619D01*
X728772Y166321D01*
X728607Y167026D01*
X728459Y167736D01*
X728328Y168449D01*
X728215Y169165D01*
X728119Y169884D01*
X728040Y170605D01*
X727979Y171327D01*
X727935Y172051D01*
X727909Y172775D01*
X727900Y173500D01*
X757900Y143500D02*
X837900Y143500D01*
X838625Y143509D01*
X839349Y143535D01*
X840073Y143579D01*
X840795Y143640D01*
X841516Y143719D01*
X842235Y143815D01*
X842951Y143928D01*
X843664Y144059D01*
X844374Y144207D01*
X845079Y144372D01*
X845781Y144554D01*
X846478Y144753D01*
X847171Y144968D01*
X847857Y145201D01*
X848538Y145450D01*
X849213Y145715D01*
X849881Y145996D01*
X850542Y146294D01*
X851196Y146607D01*
X851842Y146936D01*
X852480Y147281D01*
X853109Y147641D01*
X853729Y148016D01*
X854340Y148406D01*
X854942Y148810D01*
X855534Y149229D01*
X856115Y149663D01*
X856686Y150110D01*
X857245Y150571D01*
X857794Y151045D01*
X858330Y151532D01*
X858855Y152032D01*
X859368Y152545D01*
X859868Y153070D01*
X860355Y153606D01*
X860829Y154155D01*
X861290Y154714D01*
X861737Y155285D01*
X862171Y155866D01*
X862590Y156458D01*
X862994Y157060D01*
X863384Y157671D01*
X863759Y158291D01*
X864119Y158920D01*
X864464Y159558D01*
X864793Y160204D01*
X865106Y160858D01*
X865404Y161519D01*
X865685Y162187D01*
X865950Y162862D01*
X866199Y163543D01*
X866432Y164229D01*
X866647Y164922D01*
X866846Y165619D01*
X867028Y166321D01*
X867193Y167026D01*
X867341Y167736D01*
X867472Y168449D01*
X867585Y169165D01*
X867681Y169884D01*
X867760Y170605D01*
X867821Y171327D01*
X867865Y172051D01*
X867891Y172775D01*
X867900Y173500D01*
X867900Y753500D01*
X867891Y754225D01*
X867865Y754949D01*
X867821Y755673D01*
X867760Y756395D01*
X867681Y757116D01*
X867585Y757835D01*
X867472Y758551D01*
X867341Y759264D01*
X867193Y759974D01*
X867028Y760679D01*
X866846Y761381D01*
X866647Y762078D01*
X866432Y762771D01*
X866199Y763457D01*
X865950Y764138D01*
X865685Y764813D01*
X865404Y765481D01*
X865106Y766142D01*
X864793Y766796D01*
X864464Y767442D01*
X864119Y768080D01*
X863759Y768709D01*
X863384Y769329D01*
X862994Y769940D01*
X862590Y770542D01*
X862171Y771134D01*
X861737Y771715D01*
X861290Y772286D01*
X860829Y772845D01*
X860355Y773394D01*
X859868Y773930D01*
X859368Y774455D01*
X858855Y774968D01*
X858330Y775468D01*
X857794Y775955D01*
X857245Y776429D01*
X856686Y776890D01*
X856115Y777337D01*
X855534Y777771D01*
X854942Y778190D01*
X854340Y778594D01*
X853729Y778984D01*
X853109Y779359D01*
X852480Y779719D01*
X851842Y780064D01*
X851196Y780393D01*
X850542Y780706D01*
X849881Y781004D01*
X849213Y781285D01*
X848538Y781550D01*
X847857Y781799D01*
X847171Y782032D01*
X846478Y782247D01*
X845781Y782446D01*
X845079Y782628D01*
X844374Y782793D01*
X843664Y782941D01*
X842951Y783072D01*
X842235Y783185D01*
X841516Y783281D01*
X840795Y783360D01*
X840073Y783421D01*
X839349Y783465D01*
X838625Y783491D01*
X837900Y783500D01*
X757900Y783500D01*
X757175Y783491D01*
X756451Y783465D01*
X755727Y783421D01*
X755005Y783360D01*
X754284Y783281D01*
X753565Y783185D01*
X752849Y783072D01*
X752136Y782941D01*
X751426Y782793D01*
X750721Y782628D01*
X750019Y782446D01*
X749322Y782247D01*
X748629Y782032D01*
X747943Y781799D01*
X747262Y781550D01*
X746587Y781285D01*
X745919Y781004D01*
X745258Y780706D01*
X744604Y780393D01*
X743958Y780064D01*
X743320Y779719D01*
X742691Y779359D01*
X742071Y778984D01*
X741460Y778594D01*
X740858Y778190D01*
X740266Y777771D01*
X739685Y777337D01*
X739114Y776890D01*
X738555Y776429D01*
X738006Y775955D01*
X737470Y775468D01*
X736945Y774968D01*
X736432Y774455D01*
X735932Y773930D01*
X735445Y773394D01*
X734971Y772845D01*
X734510Y772286D01*
X734063Y771715D01*
X733629Y771134D01*
X733210Y770542D01*
X732806Y769940D01*
X732416Y769329D01*
X732041Y768709D01*
X731681Y768080D01*
X731336Y767442D01*
X731007Y766796D01*
X730694Y766142D01*
X730396Y765481D01*
X730115Y764813D01*
X729850Y764138D01*
X729601Y763457D01*
X729368Y762771D01*
X729153Y762078D01*
X728954Y761381D01*
X728772Y760679D01*
X728607Y759974D01*
X728459Y759264D01*
X728328Y758551D01*
X728215Y757835D01*
X728119Y757116D01*
X728040Y756395D01*
X727979Y755673D01*
X727935Y754949D01*
X727909Y754225D01*
X727900Y753500D01*
X727900Y173500D01*
D11*
X855980Y184150D02*
X855980Y234950D01*
X863600Y234950D01*
X871220Y234950D01*
X871220Y184150D01*
X863600Y184150D01*
X855980Y184150D01*
X863600Y234950D02*
X863600Y237490D01*
X863600Y184150D02*
X863600Y181610D01*
D12*
X852805Y205498D02*
X847979Y205498D01*
X847979Y206839D01*
X847981Y206910D01*
X847987Y206982D01*
X847996Y207052D01*
X848009Y207122D01*
X848026Y207192D01*
X848047Y207260D01*
X848071Y207327D01*
X848099Y207393D01*
X848130Y207457D01*
X848165Y207520D01*
X848203Y207580D01*
X848244Y207639D01*
X848288Y207695D01*
X848335Y207749D01*
X848384Y207800D01*
X848437Y207848D01*
X848492Y207894D01*
X848549Y207936D01*
X848609Y207976D01*
X848670Y208012D01*
X848734Y208045D01*
X848799Y208074D01*
X848865Y208100D01*
X848933Y208123D01*
X849002Y208142D01*
X849072Y208157D01*
X849142Y208168D01*
X849213Y208176D01*
X849284Y208180D01*
X849356Y208180D01*
X849427Y208176D01*
X849498Y208168D01*
X849568Y208157D01*
X849638Y208142D01*
X849707Y208123D01*
X849775Y208100D01*
X849841Y208074D01*
X849906Y208045D01*
X849970Y208012D01*
X850031Y207976D01*
X850091Y207936D01*
X850148Y207894D01*
X850203Y207848D01*
X850256Y207800D01*
X850305Y207749D01*
X850352Y207695D01*
X850396Y207639D01*
X850437Y207580D01*
X850475Y207520D01*
X850510Y207457D01*
X850541Y207393D01*
X850569Y207327D01*
X850593Y207260D01*
X850614Y207192D01*
X850631Y207122D01*
X850644Y207052D01*
X850653Y206982D01*
X850659Y206910D01*
X850661Y206839D01*
X850660Y206839D02*
X850660Y205498D01*
X850660Y207107D02*
X852805Y208179D01*
X849051Y210921D02*
X847979Y212261D01*
X852805Y212261D01*
X852805Y210921D02*
X852805Y213602D01*
D11*
X855980Y317500D02*
X855980Y368300D01*
X863600Y368300D01*
X871220Y368300D01*
X871220Y317500D01*
X863600Y317500D01*
X855980Y317500D01*
X863600Y368300D02*
X863600Y370840D01*
X863600Y317500D02*
X863600Y314960D01*
D12*
X852805Y338848D02*
X847979Y338848D01*
X847979Y340189D01*
X847981Y340260D01*
X847987Y340332D01*
X847996Y340402D01*
X848009Y340472D01*
X848026Y340542D01*
X848047Y340610D01*
X848071Y340677D01*
X848099Y340743D01*
X848130Y340807D01*
X848165Y340870D01*
X848203Y340930D01*
X848244Y340989D01*
X848288Y341045D01*
X848335Y341099D01*
X848384Y341150D01*
X848437Y341198D01*
X848492Y341244D01*
X848549Y341286D01*
X848609Y341326D01*
X848670Y341362D01*
X848734Y341395D01*
X848799Y341424D01*
X848865Y341450D01*
X848933Y341473D01*
X849002Y341492D01*
X849072Y341507D01*
X849142Y341518D01*
X849213Y341526D01*
X849284Y341530D01*
X849356Y341530D01*
X849427Y341526D01*
X849498Y341518D01*
X849568Y341507D01*
X849638Y341492D01*
X849707Y341473D01*
X849775Y341450D01*
X849841Y341424D01*
X849906Y341395D01*
X849970Y341362D01*
X850031Y341326D01*
X850091Y341286D01*
X850148Y341244D01*
X850203Y341198D01*
X850256Y341150D01*
X850305Y341099D01*
X850352Y341045D01*
X850396Y340989D01*
X850437Y340930D01*
X850475Y340870D01*
X850510Y340807D01*
X850541Y340743D01*
X850569Y340677D01*
X850593Y340610D01*
X850614Y340542D01*
X850631Y340472D01*
X850644Y340402D01*
X850653Y340332D01*
X850659Y340260D01*
X850661Y340189D01*
X850660Y340189D02*
X850660Y338848D01*
X850660Y340457D02*
X852805Y341529D01*
X847979Y345745D02*
X847981Y345813D01*
X847987Y345880D01*
X847996Y345947D01*
X848009Y346014D01*
X848026Y346079D01*
X848047Y346144D01*
X848071Y346207D01*
X848099Y346269D01*
X848130Y346329D01*
X848164Y346387D01*
X848202Y346443D01*
X848242Y346498D01*
X848286Y346549D01*
X848333Y346598D01*
X848382Y346645D01*
X848433Y346689D01*
X848488Y346729D01*
X848544Y346767D01*
X848602Y346801D01*
X848662Y346832D01*
X848724Y346860D01*
X848787Y346884D01*
X848852Y346905D01*
X848917Y346922D01*
X848984Y346935D01*
X849051Y346944D01*
X849118Y346950D01*
X849186Y346952D01*
X847979Y345745D02*
X847981Y345667D01*
X847987Y345589D01*
X847997Y345512D01*
X848010Y345435D01*
X848028Y345359D01*
X848049Y345284D01*
X848074Y345210D01*
X848103Y345138D01*
X848135Y345067D01*
X848171Y344998D01*
X848210Y344930D01*
X848253Y344865D01*
X848299Y344802D01*
X848348Y344741D01*
X848400Y344683D01*
X848455Y344628D01*
X848512Y344575D01*
X848572Y344526D01*
X848635Y344479D01*
X848700Y344436D01*
X848766Y344396D01*
X848835Y344359D01*
X848906Y344326D01*
X848978Y344296D01*
X849052Y344270D01*
X850124Y346550D02*
X850075Y346599D01*
X850023Y346646D01*
X849968Y346689D01*
X849911Y346730D01*
X849852Y346768D01*
X849791Y346802D01*
X849728Y346833D01*
X849664Y346861D01*
X849598Y346885D01*
X849532Y346905D01*
X849464Y346922D01*
X849395Y346935D01*
X849326Y346944D01*
X849256Y346950D01*
X849186Y346952D01*
X850124Y346550D02*
X852805Y344271D01*
X852805Y346952D01*
X259600Y86600D02*
X259600Y82600D01*
X197600Y82600D01*
X197600Y86600D01*
X259600Y116600D02*
X259600Y120600D01*
X197600Y120600D01*
X197600Y116600D01*
D15*
X240463Y72534D02*
X240537Y72536D01*
X240611Y72542D01*
X240685Y72551D01*
X240758Y72564D01*
X240831Y72581D01*
X240902Y72601D01*
X240973Y72625D01*
X241042Y72653D01*
X241109Y72684D01*
X241175Y72718D01*
X241240Y72756D01*
X241302Y72797D01*
X241362Y72841D01*
X241419Y72888D01*
X241474Y72938D01*
X241527Y72991D01*
X241577Y73046D01*
X241624Y73103D01*
X241668Y73163D01*
X241709Y73225D01*
X241747Y73290D01*
X241781Y73355D01*
X241812Y73423D01*
X241840Y73492D01*
X241864Y73563D01*
X241884Y73634D01*
X241901Y73706D01*
X241914Y73780D01*
X241923Y73853D01*
X241929Y73928D01*
X241931Y74002D01*
X240463Y72534D02*
X240352Y72536D01*
X240241Y72542D01*
X240130Y72552D01*
X240019Y72566D01*
X239910Y72584D01*
X239801Y72606D01*
X239692Y72631D01*
X239585Y72661D01*
X239479Y72694D01*
X239374Y72732D01*
X239271Y72772D01*
X239169Y72817D01*
X239069Y72865D01*
X238970Y72917D01*
X238874Y72972D01*
X238779Y73031D01*
X238687Y73093D01*
X238597Y73159D01*
X238509Y73227D01*
X238424Y73299D01*
X238342Y73374D01*
X238262Y73451D01*
X238445Y77670D02*
X238447Y77744D01*
X238453Y77819D01*
X238462Y77892D01*
X238475Y77966D01*
X238492Y78038D01*
X238512Y78109D01*
X238536Y78180D01*
X238564Y78249D01*
X238595Y78316D01*
X238629Y78382D01*
X238667Y78447D01*
X238708Y78509D01*
X238752Y78569D01*
X238799Y78626D01*
X238849Y78681D01*
X238902Y78734D01*
X238957Y78784D01*
X239014Y78831D01*
X239074Y78875D01*
X239136Y78916D01*
X239201Y78954D01*
X239267Y78988D01*
X239334Y79019D01*
X239403Y79047D01*
X239474Y79071D01*
X239545Y79091D01*
X239617Y79108D01*
X239691Y79121D01*
X239764Y79130D01*
X239839Y79136D01*
X239913Y79138D01*
X240017Y79136D01*
X240121Y79130D01*
X240225Y79120D01*
X240328Y79107D01*
X240431Y79089D01*
X240533Y79067D01*
X240634Y79042D01*
X240734Y79013D01*
X240833Y78980D01*
X240930Y78943D01*
X241026Y78903D01*
X241121Y78859D01*
X241213Y78811D01*
X241304Y78761D01*
X241393Y78706D01*
X241480Y78649D01*
X241564Y78588D01*
X239179Y76385D02*
X239116Y76424D01*
X239056Y76466D01*
X238998Y76511D01*
X238941Y76559D01*
X238888Y76610D01*
X238837Y76663D01*
X238788Y76718D01*
X238743Y76776D01*
X238700Y76836D01*
X238660Y76898D01*
X238624Y76962D01*
X238590Y77028D01*
X238560Y77096D01*
X238533Y77164D01*
X238510Y77234D01*
X238490Y77305D01*
X238474Y77377D01*
X238461Y77450D01*
X238452Y77523D01*
X238447Y77596D01*
X238445Y77670D01*
X241197Y75287D02*
X241260Y75248D01*
X241320Y75206D01*
X241379Y75161D01*
X241435Y75113D01*
X241488Y75062D01*
X241539Y75009D01*
X241588Y74954D01*
X241633Y74896D01*
X241676Y74836D01*
X241716Y74774D01*
X241752Y74710D01*
X241786Y74644D01*
X241816Y74576D01*
X241843Y74508D01*
X241866Y74438D01*
X241886Y74367D01*
X241902Y74295D01*
X241915Y74222D01*
X241924Y74149D01*
X241929Y74076D01*
X241931Y74002D01*
X241197Y75286D02*
X239179Y76386D01*
X245208Y79138D02*
X246675Y72534D01*
X248143Y76937D01*
X249611Y72534D01*
X251078Y79138D01*
X254599Y77670D02*
X256434Y79138D01*
X256434Y72534D01*
X258268Y72534D02*
X254599Y72534D01*
D11*
X127000Y93980D02*
X76200Y93980D01*
X76200Y101600D01*
X76200Y109220D01*
X127000Y109220D01*
X127000Y101600D01*
X127000Y93980D01*
X76200Y101600D02*
X73660Y101600D01*
X127000Y101600D02*
X129540Y101600D01*
D12*
X97548Y90805D02*
X97548Y85979D01*
X97548Y90805D02*
X98889Y90805D01*
X98960Y90803D01*
X99032Y90797D01*
X99102Y90788D01*
X99172Y90775D01*
X99242Y90758D01*
X99310Y90737D01*
X99377Y90713D01*
X99443Y90685D01*
X99507Y90654D01*
X99570Y90619D01*
X99630Y90581D01*
X99689Y90540D01*
X99745Y90496D01*
X99799Y90449D01*
X99850Y90400D01*
X99898Y90347D01*
X99944Y90292D01*
X99986Y90235D01*
X100026Y90175D01*
X100062Y90114D01*
X100095Y90050D01*
X100124Y89985D01*
X100150Y89919D01*
X100173Y89851D01*
X100192Y89782D01*
X100207Y89712D01*
X100218Y89642D01*
X100226Y89571D01*
X100230Y89500D01*
X100230Y89428D01*
X100226Y89357D01*
X100218Y89286D01*
X100207Y89216D01*
X100192Y89146D01*
X100173Y89077D01*
X100150Y89009D01*
X100124Y88943D01*
X100095Y88878D01*
X100062Y88814D01*
X100026Y88753D01*
X99986Y88693D01*
X99944Y88636D01*
X99898Y88581D01*
X99850Y88528D01*
X99799Y88479D01*
X99745Y88432D01*
X99689Y88388D01*
X99630Y88347D01*
X99570Y88309D01*
X99507Y88274D01*
X99443Y88243D01*
X99377Y88215D01*
X99310Y88191D01*
X99242Y88170D01*
X99172Y88153D01*
X99102Y88140D01*
X99032Y88131D01*
X98960Y88125D01*
X98889Y88123D01*
X98889Y88124D02*
X97548Y88124D01*
X99157Y88124D02*
X100229Y85979D01*
X102971Y85979D02*
X104311Y85979D01*
X104382Y85981D01*
X104454Y85987D01*
X104524Y85996D01*
X104594Y86009D01*
X104664Y86026D01*
X104732Y86047D01*
X104799Y86071D01*
X104865Y86099D01*
X104929Y86130D01*
X104992Y86165D01*
X105052Y86203D01*
X105111Y86244D01*
X105167Y86288D01*
X105221Y86335D01*
X105272Y86384D01*
X105320Y86437D01*
X105366Y86492D01*
X105408Y86549D01*
X105448Y86609D01*
X105484Y86670D01*
X105517Y86734D01*
X105546Y86799D01*
X105572Y86865D01*
X105595Y86933D01*
X105614Y87002D01*
X105629Y87072D01*
X105640Y87142D01*
X105648Y87213D01*
X105652Y87284D01*
X105652Y87356D01*
X105648Y87427D01*
X105640Y87498D01*
X105629Y87568D01*
X105614Y87638D01*
X105595Y87707D01*
X105572Y87775D01*
X105546Y87841D01*
X105517Y87906D01*
X105484Y87970D01*
X105448Y88031D01*
X105408Y88091D01*
X105366Y88148D01*
X105320Y88203D01*
X105272Y88256D01*
X105221Y88305D01*
X105167Y88352D01*
X105111Y88396D01*
X105052Y88437D01*
X104992Y88475D01*
X104929Y88510D01*
X104865Y88541D01*
X104799Y88569D01*
X104732Y88593D01*
X104664Y88614D01*
X104594Y88631D01*
X104524Y88644D01*
X104454Y88653D01*
X104382Y88659D01*
X104311Y88661D01*
X104579Y90805D02*
X102971Y90805D01*
X104579Y90805D02*
X104644Y90803D01*
X104708Y90797D01*
X104772Y90787D01*
X104836Y90774D01*
X104898Y90756D01*
X104959Y90735D01*
X105019Y90711D01*
X105077Y90682D01*
X105134Y90650D01*
X105188Y90615D01*
X105240Y90577D01*
X105290Y90535D01*
X105337Y90491D01*
X105381Y90444D01*
X105423Y90394D01*
X105461Y90342D01*
X105496Y90288D01*
X105528Y90231D01*
X105557Y90173D01*
X105581Y90113D01*
X105602Y90052D01*
X105620Y89990D01*
X105633Y89926D01*
X105643Y89862D01*
X105649Y89798D01*
X105651Y89733D01*
X105649Y89668D01*
X105643Y89604D01*
X105633Y89540D01*
X105620Y89476D01*
X105602Y89414D01*
X105581Y89353D01*
X105557Y89293D01*
X105528Y89235D01*
X105496Y89178D01*
X105461Y89124D01*
X105423Y89072D01*
X105381Y89022D01*
X105337Y88975D01*
X105290Y88931D01*
X105240Y88889D01*
X105188Y88851D01*
X105134Y88816D01*
X105077Y88784D01*
X105019Y88755D01*
X104959Y88731D01*
X104898Y88710D01*
X104836Y88692D01*
X104772Y88679D01*
X104708Y88669D01*
X104644Y88663D01*
X104579Y88661D01*
X104579Y88660D02*
X103507Y88660D01*
D11*
X779780Y317500D02*
X779780Y368300D01*
X787400Y368300D01*
X795020Y368300D01*
X795020Y317500D01*
X787400Y317500D01*
X779780Y317500D01*
X787400Y368300D02*
X787400Y370840D01*
X787400Y317500D02*
X787400Y314960D01*
D12*
X773188Y337439D02*
X773188Y342265D01*
X774529Y342265D01*
X774600Y342263D01*
X774672Y342257D01*
X774742Y342248D01*
X774812Y342235D01*
X774882Y342218D01*
X774950Y342197D01*
X775017Y342173D01*
X775083Y342145D01*
X775147Y342114D01*
X775210Y342079D01*
X775270Y342041D01*
X775329Y342000D01*
X775385Y341956D01*
X775439Y341909D01*
X775490Y341860D01*
X775538Y341807D01*
X775584Y341752D01*
X775626Y341695D01*
X775666Y341635D01*
X775702Y341574D01*
X775735Y341510D01*
X775764Y341445D01*
X775790Y341379D01*
X775813Y341311D01*
X775832Y341242D01*
X775847Y341172D01*
X775858Y341102D01*
X775866Y341031D01*
X775870Y340960D01*
X775870Y340888D01*
X775866Y340817D01*
X775858Y340746D01*
X775847Y340676D01*
X775832Y340606D01*
X775813Y340537D01*
X775790Y340469D01*
X775764Y340403D01*
X775735Y340338D01*
X775702Y340274D01*
X775666Y340213D01*
X775626Y340153D01*
X775584Y340096D01*
X775538Y340041D01*
X775490Y339988D01*
X775439Y339939D01*
X775385Y339892D01*
X775329Y339848D01*
X775270Y339807D01*
X775210Y339769D01*
X775147Y339734D01*
X775083Y339703D01*
X775017Y339675D01*
X774950Y339651D01*
X774882Y339630D01*
X774812Y339613D01*
X774742Y339600D01*
X774672Y339591D01*
X774600Y339585D01*
X774529Y339583D01*
X774529Y339584D02*
X773188Y339584D01*
X774797Y339584D02*
X775869Y337439D01*
X778611Y340120D02*
X780219Y340120D01*
X780284Y340118D01*
X780348Y340112D01*
X780412Y340102D01*
X780476Y340089D01*
X780538Y340071D01*
X780599Y340050D01*
X780659Y340026D01*
X780717Y339997D01*
X780774Y339965D01*
X780828Y339930D01*
X780880Y339892D01*
X780930Y339850D01*
X780977Y339806D01*
X781021Y339759D01*
X781063Y339709D01*
X781101Y339657D01*
X781136Y339603D01*
X781168Y339546D01*
X781197Y339488D01*
X781221Y339428D01*
X781242Y339367D01*
X781260Y339305D01*
X781273Y339241D01*
X781283Y339177D01*
X781289Y339113D01*
X781291Y339048D01*
X781292Y339048D02*
X781292Y338780D01*
X781290Y338709D01*
X781284Y338637D01*
X781275Y338567D01*
X781262Y338497D01*
X781245Y338427D01*
X781224Y338359D01*
X781200Y338292D01*
X781172Y338226D01*
X781141Y338162D01*
X781106Y338099D01*
X781068Y338039D01*
X781027Y337980D01*
X780983Y337924D01*
X780936Y337870D01*
X780887Y337819D01*
X780834Y337771D01*
X780779Y337725D01*
X780722Y337683D01*
X780662Y337643D01*
X780601Y337607D01*
X780537Y337574D01*
X780472Y337545D01*
X780406Y337519D01*
X780338Y337496D01*
X780269Y337477D01*
X780199Y337462D01*
X780129Y337451D01*
X780058Y337443D01*
X779987Y337439D01*
X779915Y337439D01*
X779844Y337443D01*
X779773Y337451D01*
X779703Y337462D01*
X779633Y337477D01*
X779564Y337496D01*
X779496Y337519D01*
X779430Y337545D01*
X779365Y337574D01*
X779301Y337607D01*
X779240Y337643D01*
X779180Y337683D01*
X779123Y337725D01*
X779068Y337771D01*
X779015Y337819D01*
X778966Y337870D01*
X778919Y337924D01*
X778875Y337980D01*
X778834Y338039D01*
X778796Y338099D01*
X778761Y338162D01*
X778730Y338226D01*
X778702Y338292D01*
X778678Y338359D01*
X778657Y338427D01*
X778640Y338497D01*
X778627Y338567D01*
X778618Y338637D01*
X778612Y338709D01*
X778610Y338780D01*
X778611Y338780D02*
X778611Y340120D01*
X778613Y340211D01*
X778619Y340302D01*
X778628Y340392D01*
X778642Y340483D01*
X778659Y340572D01*
X778680Y340660D01*
X778705Y340748D01*
X778734Y340835D01*
X778766Y340920D01*
X778801Y341004D01*
X778841Y341086D01*
X778883Y341166D01*
X778929Y341245D01*
X778979Y341321D01*
X779031Y341395D01*
X779087Y341468D01*
X779146Y341537D01*
X779207Y341604D01*
X779272Y341669D01*
X779339Y341730D01*
X779408Y341789D01*
X779480Y341845D01*
X779555Y341897D01*
X779631Y341947D01*
X779710Y341993D01*
X779790Y342035D01*
X779872Y342075D01*
X779956Y342110D01*
X780041Y342142D01*
X780128Y342171D01*
X780215Y342196D01*
X780304Y342217D01*
X780393Y342234D01*
X780484Y342248D01*
X780574Y342257D01*
X780665Y342263D01*
X780756Y342265D01*
M02*
