G04 EAGLE Gerber RS-274X export*
G75*
%MOMM*%
%FSLAX34Y34*%
%LPD*%
%INSoldermask Bottom*%
%IPPOS*%
%AMOC8*
5,1,8,0,0,1.08239X$1,22.5*%
G01*
%ADD10C,2.403200*%
%ADD11R,2.173200X2.173200*%
%ADD12C,2.173200*%
%ADD13C,2.373200*%
%ADD14R,2.373200X2.373200*%
%ADD15C,2.489200*%
%ADD16C,2.273200*%
%ADD17C,3.703200*%
%ADD18R,2.473200X2.473200*%
%ADD19C,2.473200*%
%ADD20C,2.273200*%
%ADD21C,3.003200*%
%ADD22C,2.773200*%

G36*
X369560Y701097D02*
X369560Y701097D01*
X369625Y701093D01*
X371456Y701253D01*
X371502Y701266D01*
X371578Y701276D01*
X373342Y701790D01*
X373386Y701811D01*
X373458Y701836D01*
X375088Y702685D01*
X375126Y702714D01*
X375192Y702753D01*
X376625Y703903D01*
X376657Y703939D01*
X376714Y703990D01*
X377895Y705398D01*
X377919Y705439D01*
X377965Y705500D01*
X378510Y706493D01*
X378849Y707112D01*
X378864Y707157D01*
X378898Y707226D01*
X379450Y708979D01*
X379456Y709026D01*
X379476Y709100D01*
X379676Y710927D01*
X379672Y710973D01*
X379678Y711042D01*
X379555Y712718D01*
X379544Y712761D01*
X379538Y712827D01*
X379127Y714457D01*
X379108Y714497D01*
X379090Y714561D01*
X378402Y716094D01*
X378377Y716131D01*
X378348Y716191D01*
X377404Y717581D01*
X377373Y717613D01*
X377335Y717667D01*
X376164Y718873D01*
X376128Y718899D01*
X376080Y718945D01*
X374718Y719929D01*
X374677Y719948D01*
X374623Y719985D01*
X373110Y720718D01*
X373067Y720730D01*
X373007Y720757D01*
X371390Y721215D01*
X371345Y721220D01*
X371281Y721236D01*
X369609Y721407D01*
X369561Y721403D01*
X369482Y721407D01*
X367810Y721241D01*
X367767Y721229D01*
X367702Y721220D01*
X366084Y720766D01*
X366043Y720747D01*
X365980Y720727D01*
X364466Y719999D01*
X364430Y719973D01*
X364371Y719943D01*
X363006Y718962D01*
X362975Y718930D01*
X362922Y718890D01*
X361748Y717688D01*
X361723Y717651D01*
X361678Y717603D01*
X360731Y716215D01*
X360713Y716174D01*
X360677Y716118D01*
X359985Y714587D01*
X359974Y714544D01*
X359948Y714483D01*
X359533Y712854D01*
X359530Y712810D01*
X359515Y712745D01*
X359389Y711070D01*
X359393Y711023D01*
X359391Y710951D01*
X359596Y709116D01*
X359610Y709069D01*
X359622Y708994D01*
X360182Y707233D01*
X360205Y707191D01*
X360231Y707119D01*
X361124Y705502D01*
X361154Y705464D01*
X361194Y705399D01*
X362385Y703987D01*
X362422Y703956D01*
X362474Y703900D01*
X363918Y702747D01*
X363960Y702725D01*
X364022Y702680D01*
X365663Y701831D01*
X365709Y701817D01*
X365778Y701785D01*
X367553Y701272D01*
X367601Y701267D01*
X367676Y701250D01*
X369516Y701093D01*
X369560Y701097D01*
G37*
G36*
X341569Y701097D02*
X341569Y701097D01*
X341634Y701093D01*
X343465Y701253D01*
X343511Y701266D01*
X343587Y701276D01*
X345351Y701790D01*
X345395Y701811D01*
X345467Y701836D01*
X347097Y702685D01*
X347135Y702714D01*
X347201Y702753D01*
X348634Y703903D01*
X348666Y703939D01*
X348723Y703990D01*
X349904Y705398D01*
X349928Y705439D01*
X349974Y705500D01*
X350519Y706493D01*
X350858Y707112D01*
X350873Y707157D01*
X350907Y707226D01*
X351459Y708979D01*
X351465Y709026D01*
X351485Y709100D01*
X351685Y710927D01*
X351681Y710973D01*
X351687Y711042D01*
X351564Y712718D01*
X351553Y712761D01*
X351547Y712827D01*
X351136Y714457D01*
X351117Y714497D01*
X351099Y714561D01*
X350411Y716094D01*
X350386Y716131D01*
X350357Y716191D01*
X349413Y717581D01*
X349382Y717613D01*
X349344Y717667D01*
X348173Y718873D01*
X348137Y718899D01*
X348089Y718945D01*
X346727Y719929D01*
X346686Y719948D01*
X346632Y719985D01*
X345119Y720718D01*
X345076Y720730D01*
X345016Y720757D01*
X343399Y721215D01*
X343354Y721220D01*
X343290Y721236D01*
X341618Y721407D01*
X341570Y721403D01*
X341491Y721407D01*
X339819Y721241D01*
X339776Y721229D01*
X339711Y721220D01*
X338093Y720766D01*
X338052Y720747D01*
X337989Y720727D01*
X336475Y719999D01*
X336439Y719973D01*
X336380Y719943D01*
X335015Y718962D01*
X334984Y718930D01*
X334931Y718890D01*
X333757Y717688D01*
X333732Y717651D01*
X333687Y717603D01*
X332740Y716215D01*
X332722Y716174D01*
X332686Y716118D01*
X331994Y714587D01*
X331983Y714544D01*
X331957Y714483D01*
X331542Y712854D01*
X331539Y712810D01*
X331524Y712745D01*
X331398Y711070D01*
X331402Y711023D01*
X331400Y710951D01*
X331605Y709116D01*
X331619Y709069D01*
X331631Y708994D01*
X332191Y707233D01*
X332214Y707191D01*
X332240Y707119D01*
X333133Y705502D01*
X333163Y705464D01*
X333203Y705399D01*
X334394Y703987D01*
X334431Y703956D01*
X334483Y703900D01*
X335927Y702747D01*
X335969Y702725D01*
X336031Y702680D01*
X337672Y701831D01*
X337718Y701817D01*
X337787Y701785D01*
X339562Y701272D01*
X339610Y701267D01*
X339685Y701250D01*
X341525Y701093D01*
X341569Y701097D01*
G37*
D10*
X971550Y901700D03*
X977900Y25400D03*
X19050Y25400D03*
X25400Y901700D03*
D11*
X266500Y685800D03*
D12*
X241500Y685800D03*
D13*
X63900Y215900D03*
D14*
X113900Y215900D03*
D15*
X342900Y406400D03*
X342900Y431800D03*
X342900Y457200D03*
X342900Y482600D03*
X342900Y508000D03*
X342900Y533400D03*
X342900Y381000D03*
X342900Y355600D03*
X342900Y330200D03*
X342900Y304800D03*
X342900Y279400D03*
X342900Y254000D03*
X342900Y228600D03*
X342900Y558800D03*
X342900Y584200D03*
X495300Y406400D03*
X495300Y381000D03*
X495300Y355600D03*
X495300Y330200D03*
X495300Y304800D03*
X495300Y279400D03*
X495300Y431800D03*
X495300Y457200D03*
X495300Y482600D03*
X495300Y508000D03*
X495300Y533400D03*
X495300Y558800D03*
X495300Y584200D03*
X495300Y254000D03*
X495300Y228600D03*
X508000Y812800D03*
X482600Y812800D03*
D13*
X88900Y685800D03*
X165100Y685800D03*
X88900Y609600D03*
X165100Y609600D03*
D16*
X88900Y342900D03*
X114300Y342900D03*
X139700Y342900D03*
X165100Y342900D03*
X88900Y368300D03*
X114300Y368300D03*
X139700Y368300D03*
X165100Y368300D03*
X203200Y749300D03*
X203200Y774700D03*
X50800Y774700D03*
X50800Y749300D03*
D17*
X571500Y819150D03*
X571500Y779150D03*
X571500Y739150D03*
D10*
X571500Y854150D03*
X571500Y704150D03*
D18*
X292100Y812800D03*
D19*
X317500Y812800D03*
X342900Y812800D03*
D20*
X632950Y143500D02*
X653650Y143500D01*
X653650Y168900D02*
X632950Y168900D01*
X632950Y194300D02*
X653650Y194300D01*
X653650Y219700D02*
X632950Y219700D01*
X632950Y245100D02*
X653650Y245100D01*
X653650Y270500D02*
X632950Y270500D01*
X632950Y295900D02*
X653650Y295900D01*
X653650Y321300D02*
X632950Y321300D01*
X632950Y346700D02*
X653650Y346700D01*
X653650Y372100D02*
X632950Y372100D01*
X632950Y397500D02*
X653650Y397500D01*
X653650Y422900D02*
X632950Y422900D01*
X632950Y448300D02*
X653650Y448300D01*
X653650Y473700D02*
X632950Y473700D01*
X632950Y499100D02*
X653650Y499100D01*
X653650Y524500D02*
X632950Y524500D01*
D21*
X952500Y88900D03*
X643300Y88900D03*
X643300Y838100D03*
X952500Y838100D03*
D13*
X863600Y171450D03*
X863600Y247650D03*
X863600Y304800D03*
X863600Y381000D03*
D22*
X261100Y101600D03*
X196100Y101600D03*
D13*
X139700Y101600D03*
X63500Y101600D03*
X787400Y304800D03*
X787400Y381000D03*
X139700Y311150D03*
X450850Y234950D03*
X590550Y381000D03*
X234950Y495300D03*
X552450Y476250D03*
X266700Y514350D03*
X311150Y57150D03*
X603250Y165100D03*
X196850Y184150D03*
X292100Y400050D03*
X273050Y304800D03*
X596900Y209550D03*
X304800Y311150D03*
X590550Y279400D03*
M02*
