G04 EAGLE Gerber RS-274X export*
G75*
%MOMM*%
%FSLAX34Y34*%
%LPD*%
%INSoldermask Top*%
%IPPOS*%
%AMOC8*
5,1,8,0,0,1.08239X$1,22.5*%
G01*
%ADD10C,2.403200*%
%ADD11R,2.173200X2.173200*%
%ADD12C,2.173200*%
%ADD13C,2.373200*%
%ADD14R,2.373200X2.373200*%
%ADD15C,2.489200*%
%ADD16C,2.273200*%
%ADD17C,3.703200*%
%ADD18R,2.473200X2.473200*%
%ADD19C,2.473200*%
%ADD20C,2.273200*%
%ADD21C,3.003200*%
%ADD22C,2.773200*%

G36*
X369536Y706177D02*
X369536Y706177D01*
X369611Y706174D01*
X370587Y706276D01*
X370635Y706290D01*
X370725Y706306D01*
X371654Y706622D01*
X371698Y706647D01*
X371783Y706683D01*
X372618Y707197D01*
X372655Y707231D01*
X372730Y707285D01*
X373430Y707973D01*
X373459Y708014D01*
X373519Y708083D01*
X374048Y708910D01*
X374067Y708956D01*
X374111Y709037D01*
X374443Y709960D01*
X374451Y710010D01*
X374476Y710099D01*
X374594Y711073D01*
X374591Y711123D01*
X374595Y711209D01*
X374500Y712211D01*
X374486Y712260D01*
X374470Y712350D01*
X374154Y713306D01*
X374130Y713351D01*
X374095Y713435D01*
X373573Y714296D01*
X373540Y714334D01*
X373487Y714409D01*
X372787Y715133D01*
X372746Y715162D01*
X372677Y715223D01*
X371834Y715773D01*
X371788Y715793D01*
X371707Y715837D01*
X370763Y716185D01*
X370713Y716194D01*
X370625Y716219D01*
X369627Y716349D01*
X369584Y716347D01*
X369458Y716348D01*
X368447Y716209D01*
X368399Y716193D01*
X368309Y716174D01*
X367354Y715812D01*
X367311Y715786D01*
X367227Y715748D01*
X366377Y715183D01*
X366340Y715148D01*
X366268Y715091D01*
X365564Y714352D01*
X365536Y714309D01*
X365478Y714238D01*
X364957Y713360D01*
X364939Y713313D01*
X364898Y713231D01*
X364585Y712259D01*
X364578Y712209D01*
X364557Y712120D01*
X364468Y711102D01*
X364473Y711052D01*
X364472Y710961D01*
X364603Y709997D01*
X364619Y709949D01*
X364638Y709860D01*
X364980Y708949D01*
X365006Y708906D01*
X365045Y708823D01*
X365582Y708011D01*
X365617Y707975D01*
X365673Y707902D01*
X366377Y707230D01*
X366419Y707203D01*
X366490Y707144D01*
X367326Y706646D01*
X367373Y706628D01*
X367455Y706588D01*
X368381Y706288D01*
X368431Y706281D01*
X368520Y706259D01*
X369489Y706173D01*
X369536Y706177D01*
G37*
G36*
X341545Y706177D02*
X341545Y706177D01*
X341620Y706174D01*
X342596Y706276D01*
X342644Y706290D01*
X342734Y706306D01*
X343663Y706622D01*
X343707Y706647D01*
X343792Y706683D01*
X344627Y707197D01*
X344664Y707231D01*
X344739Y707285D01*
X345439Y707973D01*
X345468Y708014D01*
X345528Y708083D01*
X346057Y708910D01*
X346076Y708956D01*
X346120Y709037D01*
X346452Y709960D01*
X346460Y710010D01*
X346485Y710099D01*
X346603Y711073D01*
X346600Y711123D01*
X346604Y711209D01*
X346509Y712211D01*
X346495Y712260D01*
X346479Y712350D01*
X346163Y713306D01*
X346139Y713351D01*
X346104Y713435D01*
X345582Y714296D01*
X345549Y714334D01*
X345496Y714409D01*
X344796Y715133D01*
X344755Y715162D01*
X344686Y715223D01*
X343843Y715773D01*
X343797Y715793D01*
X343716Y715837D01*
X342772Y716185D01*
X342722Y716194D01*
X342634Y716219D01*
X341636Y716349D01*
X341593Y716347D01*
X341467Y716348D01*
X340456Y716209D01*
X340408Y716193D01*
X340318Y716174D01*
X339363Y715812D01*
X339320Y715786D01*
X339236Y715748D01*
X338386Y715183D01*
X338349Y715148D01*
X338277Y715091D01*
X337573Y714352D01*
X337545Y714309D01*
X337487Y714238D01*
X336966Y713360D01*
X336948Y713313D01*
X336907Y713231D01*
X336594Y712259D01*
X336587Y712209D01*
X336566Y712120D01*
X336477Y711102D01*
X336482Y711052D01*
X336481Y710961D01*
X336612Y709997D01*
X336628Y709949D01*
X336647Y709860D01*
X336989Y708949D01*
X337015Y708906D01*
X337054Y708823D01*
X337591Y708011D01*
X337626Y707975D01*
X337682Y707902D01*
X338386Y707230D01*
X338428Y707203D01*
X338499Y707144D01*
X339335Y706646D01*
X339382Y706628D01*
X339464Y706588D01*
X340390Y706288D01*
X340440Y706281D01*
X340529Y706259D01*
X341498Y706173D01*
X341545Y706177D01*
G37*
D10*
X971550Y901700D03*
X977900Y25400D03*
X19050Y25400D03*
X25400Y901700D03*
D11*
X266500Y685800D03*
D12*
X241500Y685800D03*
D13*
X63900Y215900D03*
D14*
X113900Y215900D03*
D15*
X342900Y406400D03*
X342900Y431800D03*
X342900Y457200D03*
X342900Y482600D03*
X342900Y508000D03*
X342900Y533400D03*
X342900Y381000D03*
X342900Y355600D03*
X342900Y330200D03*
X342900Y304800D03*
X342900Y279400D03*
X342900Y254000D03*
X342900Y228600D03*
X342900Y558800D03*
X342900Y584200D03*
X495300Y406400D03*
X495300Y381000D03*
X495300Y355600D03*
X495300Y330200D03*
X495300Y304800D03*
X495300Y279400D03*
X495300Y431800D03*
X495300Y457200D03*
X495300Y482600D03*
X495300Y508000D03*
X495300Y533400D03*
X495300Y558800D03*
X495300Y584200D03*
X495300Y254000D03*
X495300Y228600D03*
X508000Y812800D03*
X482600Y812800D03*
D13*
X88900Y685800D03*
X165100Y685800D03*
X88900Y609600D03*
X165100Y609600D03*
D16*
X88900Y342900D03*
X114300Y342900D03*
X139700Y342900D03*
X165100Y342900D03*
X88900Y368300D03*
X114300Y368300D03*
X139700Y368300D03*
X165100Y368300D03*
X203200Y749300D03*
X203200Y774700D03*
X50800Y774700D03*
X50800Y749300D03*
D17*
X571500Y819150D03*
X571500Y779150D03*
X571500Y739150D03*
D10*
X571500Y854150D03*
X571500Y704150D03*
D18*
X292100Y812800D03*
D19*
X317500Y812800D03*
X342900Y812800D03*
D20*
X632950Y143500D02*
X653650Y143500D01*
X653650Y168900D02*
X632950Y168900D01*
X632950Y194300D02*
X653650Y194300D01*
X653650Y219700D02*
X632950Y219700D01*
X632950Y245100D02*
X653650Y245100D01*
X653650Y270500D02*
X632950Y270500D01*
X632950Y295900D02*
X653650Y295900D01*
X653650Y321300D02*
X632950Y321300D01*
X632950Y346700D02*
X653650Y346700D01*
X653650Y372100D02*
X632950Y372100D01*
X632950Y397500D02*
X653650Y397500D01*
X653650Y422900D02*
X632950Y422900D01*
X632950Y448300D02*
X653650Y448300D01*
X653650Y473700D02*
X632950Y473700D01*
X632950Y499100D02*
X653650Y499100D01*
X653650Y524500D02*
X632950Y524500D01*
D21*
X952500Y88900D03*
X643300Y88900D03*
X643300Y838100D03*
X952500Y838100D03*
D13*
X863600Y171450D03*
X863600Y247650D03*
X863600Y304800D03*
X863600Y381000D03*
D22*
X261100Y101600D03*
X196100Y101600D03*
D13*
X139700Y101600D03*
X63500Y101600D03*
X787400Y304800D03*
X787400Y381000D03*
X139700Y311150D03*
X450850Y234950D03*
X590550Y381000D03*
X234950Y495300D03*
X552450Y476250D03*
X266700Y514350D03*
X311150Y57150D03*
X603250Y165100D03*
X196850Y184150D03*
X292100Y400050D03*
X273050Y304800D03*
X596900Y209550D03*
X304800Y311150D03*
X590550Y279400D03*
M02*
