G04 EAGLE Gerber RS-274X export*
G75*
%MOMM*%
%FSLAX34Y34*%
%LPD*%
%INTop Copper*%
%IPPOS*%
%AMOC8*
5,1,8,0,0,1.08239X$1,22.5*%
G01*
%ADD10C,2.286000*%
%ADD11R,1.970000X1.970000*%
%ADD12C,1.970000*%
%ADD13C,2.170000*%
%ADD14R,2.170000X2.170000*%
%ADD15C,2.070000*%
%ADD16C,3.500000*%
%ADD17R,2.270000X2.270000*%
%ADD18C,2.270000*%
%ADD19C,2.070000*%
%ADD20C,2.570000*%
%ADD21C,0.762000*%


D10*
X341630Y711200D03*
X369570Y711200D03*
D11*
X266500Y685800D03*
D12*
X241500Y685800D03*
D13*
X63900Y215900D03*
D14*
X113900Y215900D03*
D10*
X342900Y406400D03*
X342900Y431800D03*
X342900Y457200D03*
X342900Y482600D03*
X342900Y508000D03*
X342900Y533400D03*
X342900Y381000D03*
X342900Y355600D03*
X342900Y330200D03*
X342900Y304800D03*
X342900Y279400D03*
X342900Y254000D03*
X342900Y228600D03*
X342900Y558800D03*
X342900Y584200D03*
X495300Y406400D03*
X495300Y381000D03*
X495300Y355600D03*
X495300Y330200D03*
X495300Y304800D03*
X495300Y279400D03*
X495300Y431800D03*
X495300Y457200D03*
X495300Y482600D03*
X495300Y508000D03*
X495300Y533400D03*
X495300Y558800D03*
X495300Y584200D03*
X495300Y254000D03*
X495300Y228600D03*
X508000Y812800D03*
X482600Y812800D03*
D13*
X88900Y685800D03*
X165100Y685800D03*
X88900Y609600D03*
X165100Y609600D03*
D15*
X88900Y342900D03*
X114300Y342900D03*
X139700Y342900D03*
X165100Y342900D03*
X88900Y368300D03*
X114300Y368300D03*
X139700Y368300D03*
X165100Y368300D03*
X203200Y749300D03*
X203200Y774700D03*
X50800Y774700D03*
X50800Y749300D03*
D16*
X571500Y819150D03*
X571500Y779150D03*
X571500Y739150D03*
D17*
X292100Y812800D03*
D18*
X317500Y812800D03*
X342900Y812800D03*
D19*
X632950Y143500D02*
X653650Y143500D01*
X653650Y168900D02*
X632950Y168900D01*
X632950Y194300D02*
X653650Y194300D01*
X653650Y219700D02*
X632950Y219700D01*
X632950Y245100D02*
X653650Y245100D01*
X653650Y270500D02*
X632950Y270500D01*
X632950Y295900D02*
X653650Y295900D01*
X653650Y321300D02*
X632950Y321300D01*
X632950Y346700D02*
X653650Y346700D01*
X653650Y372100D02*
X632950Y372100D01*
X632950Y397500D02*
X653650Y397500D01*
X653650Y422900D02*
X632950Y422900D01*
X632950Y448300D02*
X653650Y448300D01*
X653650Y473700D02*
X632950Y473700D01*
X632950Y499100D02*
X653650Y499100D01*
X653650Y524500D02*
X632950Y524500D01*
D13*
X863600Y171450D03*
X863600Y247650D03*
X863600Y304800D03*
X863600Y381000D03*
D20*
X261100Y101600D03*
X196100Y101600D03*
D13*
X139700Y101600D03*
X63500Y101600D03*
X787400Y304800D03*
X787400Y381000D03*
X139700Y311150D03*
X450850Y234950D03*
D21*
X222250Y311150D02*
X139700Y311150D01*
X222250Y311150D02*
X228600Y317500D01*
X228600Y450850D01*
X247650Y469900D01*
X273050Y469900D01*
X304800Y501650D01*
X304800Y609600D02*
X330200Y635000D01*
X514350Y635000D01*
X527050Y622300D01*
X304800Y609600D02*
X304800Y501650D01*
X527050Y622300D02*
X527050Y222250D01*
X488950Y184150D02*
X469900Y184150D01*
X450850Y203200D02*
X450850Y234950D01*
X488950Y184150D02*
X527050Y222250D01*
X469900Y184150D02*
X450850Y203200D01*
D13*
X590550Y381000D03*
X234950Y495300D03*
D21*
X234950Y603250D01*
X317500Y685800D01*
X520700Y685800D01*
X590550Y615950D02*
X590550Y381000D01*
X590550Y615950D02*
X520700Y685800D01*
D13*
X552450Y476250D03*
X266700Y514350D03*
D21*
X266700Y603250D01*
X323850Y660400D01*
X514350Y660400D01*
X552450Y622300D01*
X552450Y476250D01*
D13*
X311150Y57150D03*
X603250Y165100D03*
D21*
X476250Y57150D02*
X311150Y57150D01*
X476250Y57150D02*
X584200Y165100D01*
X603250Y165100D01*
D13*
X196850Y184150D03*
X292100Y400050D03*
D21*
X196850Y260350D02*
X196850Y184150D01*
X254000Y317500D02*
X254000Y374650D01*
X279400Y400050D01*
X292100Y400050D01*
X254000Y317500D02*
X196850Y260350D01*
D13*
X273050Y304800D03*
X596900Y209550D03*
D21*
X273050Y177800D02*
X273050Y304800D01*
X273050Y177800D02*
X304800Y146050D01*
X533400Y146050D01*
X596900Y209550D01*
D13*
X304800Y311150D03*
X590550Y279400D03*
D21*
X304800Y311150D02*
X304800Y184150D01*
X323850Y165100D01*
X514350Y165100D01*
X590550Y241300D01*
X590550Y279400D01*
M02*
