G04 EAGLE Gerber RS-274X export*
G75*
%MOMM*%
%FSLAX34Y34*%
%LPD*%
%INBottom Copper*%
%IPPOS*%
%AMOC8*
5,1,8,0,0,1.08239X$1,22.5*%
G01*
%ADD10C,2.286000*%
%ADD11R,1.970000X1.970000*%
%ADD12C,1.970000*%
%ADD13C,2.170000*%
%ADD14R,2.170000X2.170000*%
%ADD15C,2.070000*%
%ADD16C,3.500000*%
%ADD17R,2.270000X2.270000*%
%ADD18C,2.270000*%
%ADD19C,2.070000*%
%ADD20C,2.570000*%
%ADD21C,0.762000*%


D10*
X341630Y711200D03*
X369570Y711200D03*
D11*
X266500Y685800D03*
D12*
X241500Y685800D03*
D13*
X63900Y215900D03*
D14*
X113900Y215900D03*
D10*
X342900Y406400D03*
X342900Y431800D03*
X342900Y457200D03*
X342900Y482600D03*
X342900Y508000D03*
X342900Y533400D03*
X342900Y381000D03*
X342900Y355600D03*
X342900Y330200D03*
X342900Y304800D03*
X342900Y279400D03*
X342900Y254000D03*
X342900Y228600D03*
X342900Y558800D03*
X342900Y584200D03*
X495300Y406400D03*
X495300Y381000D03*
X495300Y355600D03*
X495300Y330200D03*
X495300Y304800D03*
X495300Y279400D03*
X495300Y431800D03*
X495300Y457200D03*
X495300Y482600D03*
X495300Y508000D03*
X495300Y533400D03*
X495300Y558800D03*
X495300Y584200D03*
X495300Y254000D03*
X495300Y228600D03*
X508000Y812800D03*
X482600Y812800D03*
D13*
X88900Y685800D03*
X165100Y685800D03*
X88900Y609600D03*
X165100Y609600D03*
D15*
X88900Y342900D03*
X114300Y342900D03*
X139700Y342900D03*
X165100Y342900D03*
X88900Y368300D03*
X114300Y368300D03*
X139700Y368300D03*
X165100Y368300D03*
X203200Y749300D03*
X203200Y774700D03*
X50800Y774700D03*
X50800Y749300D03*
D16*
X571500Y819150D03*
X571500Y779150D03*
X571500Y739150D03*
D17*
X292100Y812800D03*
D18*
X317500Y812800D03*
X342900Y812800D03*
D19*
X632950Y143500D02*
X653650Y143500D01*
X653650Y168900D02*
X632950Y168900D01*
X632950Y194300D02*
X653650Y194300D01*
X653650Y219700D02*
X632950Y219700D01*
X632950Y245100D02*
X653650Y245100D01*
X653650Y270500D02*
X632950Y270500D01*
X632950Y295900D02*
X653650Y295900D01*
X653650Y321300D02*
X632950Y321300D01*
X632950Y346700D02*
X653650Y346700D01*
X653650Y372100D02*
X632950Y372100D01*
X632950Y397500D02*
X653650Y397500D01*
X653650Y422900D02*
X632950Y422900D01*
X632950Y448300D02*
X653650Y448300D01*
X653650Y473700D02*
X632950Y473700D01*
X632950Y499100D02*
X653650Y499100D01*
X653650Y524500D02*
X632950Y524500D01*
D13*
X863600Y171450D03*
X863600Y247650D03*
X863600Y304800D03*
X863600Y381000D03*
D20*
X261100Y101600D03*
X196100Y101600D03*
D13*
X139700Y101600D03*
X63500Y101600D03*
X787400Y304800D03*
X787400Y381000D03*
D21*
X369570Y725170D02*
X457200Y812800D01*
X369570Y725170D02*
X369570Y711200D01*
X457200Y812800D02*
X482600Y812800D01*
X241300Y685800D02*
X190500Y635000D01*
X114300Y635000D01*
X88900Y609600D01*
X241300Y685800D02*
X241500Y685800D01*
X431800Y838200D02*
X457200Y812800D01*
X431800Y838200D02*
X209550Y838200D01*
X44450Y673100D01*
X44450Y565150D01*
X152400Y565150D01*
X190500Y603250D01*
X190500Y635000D01*
X342900Y508000D02*
X431800Y508000D01*
X482600Y558800D01*
X495300Y558800D01*
X116840Y254000D02*
X101600Y254000D01*
X88900Y266700D01*
X88900Y342900D01*
X69850Y215900D02*
X63900Y215900D01*
X622300Y146050D02*
X641350Y146050D01*
X622300Y146050D02*
X620395Y147955D01*
X641350Y146050D02*
X643300Y143500D01*
X647700Y527050D02*
X749300Y527050D01*
X889000Y387350D01*
X831850Y349250D02*
X768350Y349250D01*
X831850Y349250D02*
X876300Y349250D01*
X889000Y361950D01*
X889000Y387350D01*
X768350Y349250D02*
X666750Y247650D01*
X647700Y247650D01*
X643300Y524500D02*
X647700Y527050D01*
X647700Y247650D02*
X643300Y245100D01*
X609600Y558800D02*
X495300Y558800D01*
X609600Y558800D02*
X622300Y571500D01*
X755650Y571500D01*
X927100Y400050D01*
X901700Y139700D02*
X647700Y139700D01*
X901700Y139700D02*
X927100Y165100D01*
X927100Y400050D01*
X647700Y139700D02*
X643300Y143500D01*
X63500Y215900D02*
X50800Y215900D01*
X44450Y222250D01*
X44450Y565150D01*
X63500Y215900D02*
X63500Y193040D01*
X63500Y101600D01*
X63500Y215900D02*
X63900Y215900D01*
X132080Y238760D02*
X139700Y231140D01*
X132080Y238760D02*
X116840Y254000D01*
X139700Y231140D02*
X139700Y200660D01*
X132080Y193040D01*
X63500Y193040D01*
X132080Y238760D02*
X215900Y238760D01*
X364490Y90170D01*
X562610Y90170D01*
X563245Y90805D01*
X620395Y147955D01*
X643300Y245100D02*
X594350Y245100D01*
X563245Y213995D02*
X563245Y90805D01*
X563245Y213995D02*
X594350Y245100D01*
X787400Y381000D02*
X819150Y381000D01*
X831850Y368300D01*
X831850Y349250D01*
X209550Y273050D02*
X127000Y273050D01*
X114300Y285750D01*
X114300Y342900D01*
X209550Y273050D02*
X279400Y203200D01*
X355600Y203200D01*
X368300Y215900D01*
X361950Y355600D02*
X342900Y355600D01*
X361950Y355600D02*
X368300Y349250D01*
X368300Y215900D01*
X139700Y311150D02*
X139700Y342900D01*
D13*
X139700Y311150D03*
X450850Y234950D03*
D21*
X488950Y234950D02*
X495300Y228600D01*
X488950Y234950D02*
X450850Y234950D01*
X152400Y393700D02*
X139700Y381000D01*
X139700Y368300D01*
X196850Y336550D02*
X279400Y254000D01*
X196850Y336550D02*
X196850Y374650D01*
X177800Y393700D01*
X279400Y254000D02*
X342900Y254000D01*
X177800Y393700D02*
X152400Y393700D01*
X165100Y342900D02*
X279400Y228600D01*
X342900Y228600D01*
X567050Y774700D02*
X571500Y779150D01*
X567050Y774700D02*
X514350Y774700D01*
X508000Y781050D01*
X508000Y812800D01*
X342900Y812800D02*
X342900Y711200D01*
X495300Y685800D02*
X495300Y679450D01*
X495300Y584200D01*
X555000Y739150D02*
X571500Y739150D01*
X555000Y739150D02*
X495300Y679450D01*
X495300Y685800D02*
X349250Y685800D01*
X342900Y692150D01*
X342900Y711200D01*
X341630Y711200D01*
X209550Y812800D02*
X88900Y692150D01*
X88900Y685800D01*
X209550Y812800D02*
X292100Y812800D01*
X165100Y609600D02*
X139700Y584200D01*
X82550Y584200D01*
X63500Y603250D01*
X63500Y660400D01*
X88900Y685800D01*
X88900Y368300D02*
X82550Y368300D01*
X63500Y349250D01*
X63500Y254000D01*
X101600Y215900D01*
X113900Y215900D01*
X266700Y685800D02*
X266700Y711200D01*
X190500Y711200D01*
X165100Y685800D01*
X266700Y711200D02*
X298450Y711200D01*
X317500Y730250D01*
X317500Y812800D01*
X158750Y546100D02*
X107950Y546100D01*
X88900Y527050D01*
X88900Y368300D01*
X158750Y546100D02*
X266700Y654050D01*
X266700Y685800D01*
X266500Y685800D01*
X114300Y419100D02*
X114300Y368300D01*
X114300Y419100D02*
X139700Y444500D01*
X215900Y444500D01*
X330200Y330200D02*
X342900Y330200D01*
X330200Y330200D02*
X215900Y444500D01*
X323850Y406400D02*
X342900Y406400D01*
X323850Y406400D02*
X234950Y495300D01*
X594350Y397500D02*
X643300Y397500D01*
X594350Y397500D02*
X590550Y393700D01*
X590550Y381000D01*
D13*
X590550Y381000D03*
X234950Y495300D03*
D21*
X640750Y425450D02*
X643300Y422900D01*
X539750Y412750D02*
X539750Y209550D01*
X539750Y412750D02*
X552450Y425450D01*
X640750Y425450D01*
X539750Y209550D02*
X514350Y184150D01*
X425450Y184150D01*
X406400Y203200D01*
X381000Y431800D02*
X342900Y431800D01*
X381000Y431800D02*
X406400Y406400D01*
X406400Y203200D01*
X546100Y450850D02*
X641350Y450850D01*
X546100Y450850D02*
X520700Y425450D01*
X520700Y215900D01*
X508000Y203200D01*
X444500Y203200D01*
X425450Y222250D01*
X393700Y457200D02*
X342900Y457200D01*
X393700Y457200D02*
X425450Y425450D01*
X425450Y222250D01*
X643300Y448300D02*
X641350Y450850D01*
X643300Y473700D02*
X555000Y473700D01*
X552450Y476250D01*
D13*
X552450Y476250D03*
D21*
X342900Y482600D02*
X298450Y482600D01*
X266700Y514350D01*
D13*
X266700Y514350D03*
D21*
X647700Y501650D02*
X742950Y501650D01*
X863600Y381000D01*
X647700Y501650D02*
X643300Y499100D01*
X704850Y196850D02*
X723900Y196850D01*
X704850Y196850D02*
X647700Y196850D01*
X723900Y196850D02*
X857250Y330200D01*
X869950Y330200D01*
X889000Y311150D01*
X889000Y273050D02*
X863600Y247650D01*
X889000Y273050D02*
X889000Y311150D01*
X647700Y196850D02*
X643300Y194300D01*
X704850Y196850D02*
X704850Y222250D01*
X787400Y304800D01*
X863600Y171450D02*
X850900Y158750D01*
X730250Y171450D02*
X723900Y171450D01*
X647700Y171450D01*
X643300Y168900D01*
X730250Y171450D02*
X863600Y304800D01*
X584200Y508000D02*
X495300Y508000D01*
X584200Y508000D02*
X628650Y552450D01*
X749300Y552450D01*
X908050Y393700D01*
X889000Y171450D02*
X863600Y171450D01*
X889000Y171450D02*
X908050Y190500D01*
X908050Y393700D01*
X285750Y101600D02*
X261100Y101600D01*
X285750Y101600D02*
X311150Y76200D01*
X311150Y57150D01*
X636950Y175250D02*
X643300Y168900D01*
X636950Y175250D02*
X603250Y175250D01*
X603250Y165100D01*
D13*
X311150Y57150D03*
X603250Y165100D03*
D21*
X723900Y171450D02*
X736600Y158750D01*
X850900Y158750D01*
X196100Y101600D02*
X190500Y99060D01*
X196100Y101600D02*
X139700Y101600D01*
X196100Y101600D02*
X196100Y183400D01*
X196850Y184150D01*
D13*
X196850Y184150D03*
X292100Y400050D03*
D21*
X311150Y381000D02*
X342900Y381000D01*
X311150Y381000D02*
X292100Y400050D01*
X639680Y216080D02*
X643300Y219700D01*
X639680Y216080D02*
X623928Y216080D01*
X623748Y215900D01*
X603250Y215900D01*
X596900Y209550D01*
X342900Y279400D02*
X298450Y279400D01*
X273050Y304800D01*
D13*
X273050Y304800D03*
X596900Y209550D03*
D21*
X599450Y270500D02*
X643300Y270500D01*
X599450Y270500D02*
X590550Y279400D01*
X342900Y304800D02*
X311150Y304800D01*
X304800Y311150D01*
D13*
X304800Y311150D03*
X590550Y279400D03*
M02*
