M48
;GenerationSoftware,Autodesk,EAGLE,9.6.2*%
;CreationDate,2023-04-14T00:17:02Z*%
FMAT,2
ICI,OFF
METRIC,TZ,000.000
T9C0.700
T8C0.800
T7C0.900
T6C1.000
T5C1.016
T4C1.100
T3C1.300
T2C2.200
T1C2.800
%
G90
M71
T1
X95250Y8890
X64330Y8890
X64330Y83810
X95250Y83810
T2
X97790Y2540
X1905Y2540
X2540Y90170
X57150Y85415
X57150Y70415
X97155Y90170
T3
X19610Y10160
X26110Y10160
T4
X57150Y77915
X57150Y81915
X57150Y73915
T5
X34290Y58420
X49530Y40640
X49530Y35560
X49530Y33020
X49530Y30480
X49530Y27940
X49530Y43180
X49530Y45720
X49530Y53340
X34163Y71120
X36957Y71120
X49530Y38100
X49530Y55880
X49530Y48260
X49530Y50800
X34290Y40640
X34290Y43180
X34290Y45720
X34290Y48260
X34290Y50800
X34290Y53340
X34290Y38100
X34290Y35560
X34290Y33020
X34290Y27940
X49530Y25400
X49530Y22860
X50800Y81280
X48260Y81280
X34290Y25400
X49530Y58420
X34290Y22860
X34290Y55880
X34290Y30480
T6
X34290Y81280
X29210Y81280
X31750Y81280
T7
X30480Y31115
X6390Y21590
X11390Y21590
X59055Y27940
X13970Y31115
X45085Y23495
X59055Y38100
X23495Y49530
X8890Y68580
X16510Y68580
X8890Y60960
X16510Y60960
X55245Y47625
X26670Y51435
X31115Y5715
X60325Y16510
X19685Y18415
X29210Y40005
X78740Y38100
X86360Y17145
X86360Y24765
X86360Y30480
X86360Y38100
X27305Y30480
X59690Y20955
X13970Y10160
X6350Y10160
X78740Y30480
T8
X8890Y34290
X11430Y34290
X13970Y34290
X16510Y34290
X64330Y14350
X64330Y16890
X64330Y19430
X64330Y21970
X64330Y24510
X64330Y27050
X64330Y29590
X64330Y32130
X64330Y34670
X64330Y37210
X64330Y39750
X64330Y42290
X8890Y36830
X64330Y47370
X64330Y49910
X64330Y52450
X11430Y36830
X13970Y36830
X16510Y36830
X20320Y74930
X20320Y77470
X5080Y77470
X5080Y74930
X64330Y44830
T9
X24150Y68580
X26650Y68580
M30