M48
;GenerationSoftware,Autodesk,EAGLE,9.6.2*%
;CreationDate,2021-06-30T12:30:40Z*%
FMAT,2
ICI,OFF
METRIC,TZ,000.000
T9C0.700
T8C0.800
T7C0.813
T6C0.900
T5C1.000
T4C1.016
T3C1.100
T2C2.200
T1C2.500
%
G90
M71
T1
X86360Y2540
X86360Y59690
X2540Y59690
X2540Y2540
T2
X46680Y58420
X31680Y58420
T3
X43180Y58420
X39180Y58420
X35180Y58420
T4
X53340Y52197
X74930Y41910
X53340Y58420
X74930Y8890
X74930Y11430
X59690Y26670
X59690Y29210
X59690Y31750
X59690Y34290
X59690Y36830
X59690Y39370
X74930Y44450
X59690Y21590
X59690Y19050
X59690Y16510
X59690Y13970
X59690Y11430
X59690Y8890
X59690Y41910
X59690Y44450
X74930Y26670
X74930Y24130
X74930Y21590
X74930Y19050
X74930Y16510
X74930Y13970
X74930Y29210
X74930Y31750
X74930Y34290
X74930Y36830
X55880Y58420
X55626Y31750
X53340Y31750
X51054Y31750
X74930Y39370
X59690Y24130
X53340Y49403
T5
X31750Y43180
X34290Y43180
X36830Y43180
T6
X81280Y34290
X81280Y41910
X20320Y41910
X12700Y41910
X12700Y36830
X20320Y36830
X7660Y7620
X68580Y8890
X24130Y10160
X12700Y31750
X20320Y31750
X50800Y36830
X50800Y44450
X12660Y7620
T7
X81280Y31750
X81280Y29210
T8
X11430Y17780
X13970Y17780
X16510Y17780
X19050Y17780
X22860Y55880
X22860Y58420
X7620Y58420
X13970Y15240
X44450Y31750
X44450Y29210
X11430Y15240
X16510Y15240
X19050Y15240
X7620Y55880
T9
X31730Y35560
X29230Y35560
M30